<svg width="1903" height="164" viewBox="0 0 1903 164" fill="none" xmlns="http://www.w3.org/2000/svg">
<g filter="url(#filter0_i_106_162)">
<g clip-path="url(#clip0_106_162)">
<rect width="1903" height="164" fill="#7D3939"/>
<g filter="url(#filter1_i_106_162)">
<path d="M137.072 105C140.151 99.6667 147.849 99.6667 150.928 105L173.445 144C176.524 149.333 172.675 156 166.517 156H121.483C115.325 156 111.476 149.333 114.555 144L137.072 105Z" fill="#7D3939"/>
</g>
<g filter="url(#filter2_i_106_162)">
<path d="M39.0718 114C42.151 108.667 49.849 108.667 52.9282 114L67.6506 139.5C70.7298 144.833 66.8808 151.5 60.7224 151.5H31.2776C25.1192 151.5 21.2702 144.833 24.3494 139.5L39.0718 114Z" fill="#7D3939"/>
</g>
<g filter="url(#filter3_i_106_162)">
<path d="M201.072 30C204.151 24.6667 211.849 24.6667 214.928 30L229.651 55.5C232.73 60.8333 228.881 67.5 222.722 67.5H193.278C187.119 67.5 183.27 60.8333 186.349 55.5L201.072 30Z" fill="#7D3939"/>
</g>
<g filter="url(#filter4_i_106_162)">
<path d="M39.0718 30C42.151 24.6667 49.849 24.6667 52.9282 30L67.6506 55.5C70.7298 60.8333 66.8808 67.5 60.7224 67.5H31.2776C25.1192 67.5 21.2702 60.8333 24.3494 55.5L39.0718 30Z" fill="#7D3939"/>
</g>
<g filter="url(#filter5_i_106_162)">
<path d="M250.072 118C253.151 112.667 260.849 112.667 263.928 118L278.651 143.5C281.73 148.833 277.881 155.5 271.722 155.5H242.278C236.119 155.5 232.27 148.833 235.349 143.5L250.072 118Z" fill="#7D3939"/>
</g>
<g filter="url(#filter6_i_106_162)">
<path d="M120.072 38C123.151 32.6667 130.849 32.6667 133.928 38L141.722 51.5C144.802 56.8333 140.953 63.5 134.794 63.5H119.206C113.047 63.5 109.198 56.8333 112.278 51.5L120.072 38Z" fill="#7D3939"/>
</g>
<g filter="url(#filter7_i_106_162)">
<path d="M-18.9282 100C-15.849 94.6667 -8.151 94.6667 -5.0718 100L2.72243 113.5C5.80163 118.833 1.95263 125.5 -4.20577 125.5H-19.7942C-25.9526 125.5 -29.8016 118.833 -26.7224 113.5L-18.9282 100Z" fill="#7D3939"/>
</g>
<g filter="url(#filter8_i_106_162)">
<path d="M601 113.072C595.667 116.151 595.667 123.849 601 126.928L640 149.445C645.333 152.524 652 148.675 652 142.517V97.4833C652 91.3249 645.333 87.4759 640 90.5551L601 113.072Z" fill="#7D3939"/>
</g>
<g filter="url(#filter9_i_106_162)">
<path d="M607 22.0718C601.667 25.151 601.667 32.849 607 35.9282L632.5 50.6506C637.833 53.7298 644.5 49.8808 644.5 43.7224V14.2776C644.5 8.11916 637.833 4.27016 632.5 7.34936L607 22.0718Z" fill="#7D3939"/>
</g>
<g filter="url(#filter10_i_106_162)">
<path d="M530 63.0718C524.667 66.151 524.667 73.849 530 76.9282L555.5 91.6506C560.833 94.7298 567.5 90.8808 567.5 84.7224V55.2776C567.5 49.1192 560.833 45.2702 555.5 48.3494L530 63.0718Z" fill="#7D3939"/>
</g>
<g filter="url(#filter11_i_106_162)">
<path d="M560 158.072C554.667 161.151 554.667 168.849 560 171.928L573.5 179.722C578.833 182.802 585.5 178.953 585.5 172.794V157.206C585.5 151.047 578.833 147.198 573.5 150.278L560 158.072Z" fill="#7D3939"/>
</g>
<g filter="url(#filter12_i_106_162)">
<path d="M788.072 16C791.151 10.6667 798.849 10.6667 801.928 16L824.445 55C827.524 60.3333 823.675 67 817.517 67H772.483C766.325 67 762.476 60.3333 765.555 55L788.072 16Z" fill="#7D3939"/>
</g>
<g filter="url(#filter13_i_106_162)">
<path d="M962.072 105C965.151 99.6667 972.849 99.6667 975.928 105L998.445 144C1001.52 149.333 997.675 156 991.517 156H946.483C940.325 156 936.476 149.333 939.555 144L962.072 105Z" fill="#7D3939"/>
</g>
<g filter="url(#filter14_i_106_162)">
<path d="M871.072 111C874.151 105.667 881.849 105.667 884.928 111L899.651 136.5C902.73 141.833 898.881 148.5 892.722 148.5H863.278C857.119 148.5 853.27 141.833 856.349 136.5L871.072 111Z" fill="#7D3939"/>
</g>
<g filter="url(#filter15_i_106_162)">
<path d="M1082.07 12C1085.15 6.66666 1092.85 6.66667 1095.93 12L1110.65 37.5C1113.73 42.8333 1109.88 49.5 1103.72 49.5H1074.28C1068.12 49.5 1064.27 42.8333 1067.35 37.5L1082.07 12Z" fill="#7D3939"/>
</g>
<g filter="url(#filter16_i_106_162)">
<path d="M912.072 34C915.151 28.6667 922.849 28.6667 925.928 34L940.651 59.5C943.73 64.8333 939.881 71.5 933.722 71.5H904.278C898.119 71.5 894.27 64.8333 897.349 59.5L912.072 34Z" fill="#7D3939"/>
</g>
<g filter="url(#filter17_i_106_162)">
<path d="M1082.07 118C1085.15 112.667 1092.85 112.667 1095.93 118L1110.65 143.5C1113.73 148.833 1109.88 155.5 1103.72 155.5H1074.28C1068.12 155.5 1064.27 148.833 1067.35 143.5L1082.07 118Z" fill="#7D3939"/>
</g>
<g filter="url(#filter18_i_106_162)">
<path d="M1007.07 64C1010.15 58.6667 1017.85 58.6667 1020.93 64L1028.72 77.5C1031.8 82.8333 1027.95 89.5 1021.79 89.5H1006.21C1000.05 89.5 996.198 82.8333 999.278 77.5L1007.07 64Z" fill="#7D3939"/>
</g>
<g filter="url(#filter19_i_106_162)">
<path d="M813.072 100C816.151 94.6667 823.849 94.6667 826.928 100L834.722 113.5C837.802 118.833 833.953 125.5 827.794 125.5H812.206C806.047 125.5 802.198 118.833 805.278 113.5L813.072 100Z" fill="#7D3939"/>
</g>
<g filter="url(#filter20_i_106_162)">
<path d="M1306 113.072C1311.33 116.151 1311.33 123.849 1306 126.928L1267 149.445C1261.67 152.524 1255 148.675 1255 142.517V97.4833C1255 91.3249 1261.67 87.4759 1267 90.5551L1306 113.072Z" fill="#7D3939"/>
</g>
<g filter="url(#filter21_i_106_162)">
<path d="M1300 22.0718C1305.33 25.151 1305.33 32.849 1300 35.9282L1274.5 50.6506C1269.17 53.7298 1262.5 49.8808 1262.5 43.7224V14.2776C1262.5 8.11916 1269.17 4.27016 1274.5 7.34936L1300 22.0718Z" fill="#7D3939"/>
</g>
<g filter="url(#filter22_i_106_162)">
<path d="M1377 63.0718C1382.33 66.151 1382.33 73.849 1377 76.9282L1351.5 91.6506C1346.17 94.7298 1339.5 90.8808 1339.5 84.7224V55.2776C1339.5 49.1192 1346.17 45.2702 1351.5 48.3494L1377 63.0718Z" fill="#7D3939"/>
</g>
<g filter="url(#filter23_i_106_162)">
<path d="M1347 158.072C1352.33 161.151 1352.33 168.849 1347 171.928L1333.5 179.722C1328.17 182.802 1321.5 178.953 1321.5 172.794V157.206C1321.5 151.047 1328.17 147.198 1333.5 150.278L1347 158.072Z" fill="#7D3939"/>
</g>
<g filter="url(#filter24_i_106_162)">
<path d="M1626.07 20C1629.15 14.6667 1636.85 14.6667 1639.93 20L1662.44 59C1665.52 64.3333 1661.68 71 1655.52 71H1610.48C1604.32 71 1600.48 64.3333 1603.56 59L1626.07 20Z" fill="#7D3939"/>
</g>
<g filter="url(#filter25_i_106_162)">
<path d="M1800.07 109C1803.15 103.667 1810.85 103.667 1813.93 109L1836.44 148C1839.52 153.333 1835.68 160 1829.52 160H1784.48C1778.32 160 1774.48 153.333 1777.56 148L1800.07 109Z" fill="#7D3939"/>
</g>
<g filter="url(#filter26_i_106_162)">
<path d="M1709.07 115C1712.15 109.667 1719.85 109.667 1722.93 115L1737.65 140.5C1740.73 145.833 1736.88 152.5 1730.72 152.5H1701.28C1695.12 152.5 1691.27 145.833 1694.35 140.5L1709.07 115Z" fill="#7D3939"/>
</g>
<g filter="url(#filter27_i_106_162)">
<path d="M1920.07 16C1923.15 10.6667 1930.85 10.6667 1933.93 16L1948.65 41.5C1951.73 46.8333 1947.88 53.5 1941.72 53.5H1912.28C1906.12 53.5 1902.27 46.8333 1905.35 41.5L1920.07 16Z" fill="#7D3939"/>
</g>
<g filter="url(#filter28_i_106_162)">
<path d="M1750.07 38C1753.15 32.6667 1760.85 32.6667 1763.93 38L1778.65 63.5C1781.73 68.8333 1777.88 75.5 1771.72 75.5H1742.28C1736.12 75.5 1732.27 68.8333 1735.35 63.5L1750.07 38Z" fill="#7D3939"/>
</g>
<g filter="url(#filter29_i_106_162)">
<path d="M1920.07 122C1923.15 116.667 1930.85 116.667 1933.93 122L1948.65 147.5C1951.73 152.833 1947.88 159.5 1941.72 159.5H1912.28C1906.12 159.5 1902.27 152.833 1905.35 147.5L1920.07 122Z" fill="#7D3939"/>
</g>
<g filter="url(#filter30_i_106_162)">
<path d="M1845.07 68C1848.15 62.6667 1855.85 62.6667 1858.93 68L1866.72 81.5C1869.8 86.8333 1865.95 93.5 1859.79 93.5H1844.21C1838.05 93.5 1834.2 86.8333 1837.28 81.5L1845.07 68Z" fill="#7D3939"/>
</g>
<g filter="url(#filter31_i_106_162)">
<path d="M1651.07 104C1654.15 98.6667 1661.85 98.6667 1664.93 104L1672.72 117.5C1675.8 122.833 1671.95 129.5 1665.79 129.5H1650.21C1644.05 129.5 1640.2 122.833 1643.28 117.5L1651.07 104Z" fill="#7D3939"/>
</g>
</g>
</g>
<defs>
<filter id="filter0_i_106_162" x="0" y="0" width="1903" height="164" filterUnits="userSpaceOnUse" color-interpolation-filters="sRGB">
<feFlood flood-opacity="0" result="BackgroundImageFix"/>
<feBlend mode="normal" in="SourceGraphic" in2="BackgroundImageFix" result="shape"/>
<feColorMatrix in="SourceAlpha" type="matrix" values="0 0 0 0 0 0 0 0 0 0 0 0 0 0 0 0 0 0 127 0" result="hardAlpha"/>
<feOffset/>
<feGaussianBlur stdDeviation="15"/>
<feComposite in2="hardAlpha" operator="arithmetic" k2="-1" k3="1"/>
<feColorMatrix type="matrix" values="0 0 0 0 0 0 0 0 0 0 0 0 0 0 0 0 0 0 0.8 0"/>
<feBlend mode="normal" in2="shape" result="effect1_innerShadow_106_162"/>
</filter>
<filter id="filter1_i_106_162" x="113.471" y="101" width="61.0572" height="55" filterUnits="userSpaceOnUse" color-interpolation-filters="sRGB">
<feFlood flood-opacity="0" result="BackgroundImageFix"/>
<feBlend mode="normal" in="SourceGraphic" in2="BackgroundImageFix" result="shape"/>
<feColorMatrix in="SourceAlpha" type="matrix" values="0 0 0 0 0 0 0 0 0 0 0 0 0 0 0 0 0 0 127 0" result="hardAlpha"/>
<feOffset/>
<feGaussianBlur stdDeviation="7.5"/>
<feComposite in2="hardAlpha" operator="arithmetic" k2="-1" k3="1"/>
<feColorMatrix type="matrix" values="0 0 0 0 1 0 0 0 0 1 0 0 0 0 1 0 0 0 0.15 0"/>
<feBlend mode="normal" in2="shape" result="effect1_innerShadow_106_162"/>
</filter>
<filter id="filter2_i_106_162" x="23.2656" y="110" width="45.4687" height="41.5" filterUnits="userSpaceOnUse" color-interpolation-filters="sRGB">
<feFlood flood-opacity="0" result="BackgroundImageFix"/>
<feBlend mode="normal" in="SourceGraphic" in2="BackgroundImageFix" result="shape"/>
<feColorMatrix in="SourceAlpha" type="matrix" values="0 0 0 0 0 0 0 0 0 0 0 0 0 0 0 0 0 0 127 0" result="hardAlpha"/>
<feOffset/>
<feGaussianBlur stdDeviation="7.5"/>
<feComposite in2="hardAlpha" operator="arithmetic" k2="-1" k3="1"/>
<feColorMatrix type="matrix" values="0 0 0 0 1 0 0 0 0 1 0 0 0 0 1 0 0 0 0.15 0"/>
<feBlend mode="normal" in2="shape" result="effect1_innerShadow_106_162"/>
</filter>
<filter id="filter3_i_106_162" x="185.266" y="26" width="45.4688" height="41.5" filterUnits="userSpaceOnUse" color-interpolation-filters="sRGB">
<feFlood flood-opacity="0" result="BackgroundImageFix"/>
<feBlend mode="normal" in="SourceGraphic" in2="BackgroundImageFix" result="shape"/>
<feColorMatrix in="SourceAlpha" type="matrix" values="0 0 0 0 0 0 0 0 0 0 0 0 0 0 0 0 0 0 127 0" result="hardAlpha"/>
<feOffset/>
<feGaussianBlur stdDeviation="7.5"/>
<feComposite in2="hardAlpha" operator="arithmetic" k2="-1" k3="1"/>
<feColorMatrix type="matrix" values="0 0 0 0 1 0 0 0 0 1 0 0 0 0 1 0 0 0 0.15 0"/>
<feBlend mode="normal" in2="shape" result="effect1_innerShadow_106_162"/>
</filter>
<filter id="filter4_i_106_162" x="23.2656" y="26" width="45.4687" height="41.5" filterUnits="userSpaceOnUse" color-interpolation-filters="sRGB">
<feFlood flood-opacity="0" result="BackgroundImageFix"/>
<feBlend mode="normal" in="SourceGraphic" in2="BackgroundImageFix" result="shape"/>
<feColorMatrix in="SourceAlpha" type="matrix" values="0 0 0 0 0 0 0 0 0 0 0 0 0 0 0 0 0 0 127 0" result="hardAlpha"/>
<feOffset/>
<feGaussianBlur stdDeviation="7.5"/>
<feComposite in2="hardAlpha" operator="arithmetic" k2="-1" k3="1"/>
<feColorMatrix type="matrix" values="0 0 0 0 1 0 0 0 0 1 0 0 0 0 1 0 0 0 0.15 0"/>
<feBlend mode="normal" in2="shape" result="effect1_innerShadow_106_162"/>
</filter>
<filter id="filter5_i_106_162" x="234.266" y="114" width="45.4688" height="41.5" filterUnits="userSpaceOnUse" color-interpolation-filters="sRGB">
<feFlood flood-opacity="0" result="BackgroundImageFix"/>
<feBlend mode="normal" in="SourceGraphic" in2="BackgroundImageFix" result="shape"/>
<feColorMatrix in="SourceAlpha" type="matrix" values="0 0 0 0 0 0 0 0 0 0 0 0 0 0 0 0 0 0 127 0" result="hardAlpha"/>
<feOffset/>
<feGaussianBlur stdDeviation="7.5"/>
<feComposite in2="hardAlpha" operator="arithmetic" k2="-1" k3="1"/>
<feColorMatrix type="matrix" values="0 0 0 0 1 0 0 0 0 1 0 0 0 0 1 0 0 0 0.15 0"/>
<feBlend mode="normal" in2="shape" result="effect1_innerShadow_106_162"/>
</filter>
<filter id="filter6_i_106_162" x="111.194" y="34" width="31.6123" height="29.5" filterUnits="userSpaceOnUse" color-interpolation-filters="sRGB">
<feFlood flood-opacity="0" result="BackgroundImageFix"/>
<feBlend mode="normal" in="SourceGraphic" in2="BackgroundImageFix" result="shape"/>
<feColorMatrix in="SourceAlpha" type="matrix" values="0 0 0 0 0 0 0 0 0 0 0 0 0 0 0 0 0 0 127 0" result="hardAlpha"/>
<feOffset/>
<feGaussianBlur stdDeviation="7.5"/>
<feComposite in2="hardAlpha" operator="arithmetic" k2="-1" k3="1"/>
<feColorMatrix type="matrix" values="0 0 0 0 1 0 0 0 0 1 0 0 0 0 1 0 0 0 0.15 0"/>
<feBlend mode="normal" in2="shape" result="effect1_innerShadow_106_162"/>
</filter>
<filter id="filter7_i_106_162" x="-27.8062" y="96" width="31.6123" height="29.5" filterUnits="userSpaceOnUse" color-interpolation-filters="sRGB">
<feFlood flood-opacity="0" result="BackgroundImageFix"/>
<feBlend mode="normal" in="SourceGraphic" in2="BackgroundImageFix" result="shape"/>
<feColorMatrix in="SourceAlpha" type="matrix" values="0 0 0 0 0 0 0 0 0 0 0 0 0 0 0 0 0 0 127 0" result="hardAlpha"/>
<feOffset/>
<feGaussianBlur stdDeviation="7.5"/>
<feComposite in2="hardAlpha" operator="arithmetic" k2="-1" k3="1"/>
<feColorMatrix type="matrix" values="0 0 0 0 0 0 0 0 0 0 0 0 0 0 0 0 0 0 0.15 0"/>
<feBlend mode="normal" in2="shape" result="effect1_innerShadow_106_162"/>
</filter>
<filter id="filter8_i_106_162" x="597" y="89.4714" width="55" height="61.0571" filterUnits="userSpaceOnUse" color-interpolation-filters="sRGB">
<feFlood flood-opacity="0" result="BackgroundImageFix"/>
<feBlend mode="normal" in="SourceGraphic" in2="BackgroundImageFix" result="shape"/>
<feColorMatrix in="SourceAlpha" type="matrix" values="0 0 0 0 0 0 0 0 0 0 0 0 0 0 0 0 0 0 127 0" result="hardAlpha"/>
<feOffset/>
<feGaussianBlur stdDeviation="7.5"/>
<feComposite in2="hardAlpha" operator="arithmetic" k2="-1" k3="1"/>
<feColorMatrix type="matrix" values="0 0 0 0 0 0 0 0 0 0 0 0 0 0 0 0 0 0 0.15 0"/>
<feBlend mode="normal" in2="shape" result="effect1_innerShadow_106_162"/>
</filter>
<filter id="filter9_i_106_162" x="603" y="6.26562" width="41.5" height="45.4688" filterUnits="userSpaceOnUse" color-interpolation-filters="sRGB">
<feFlood flood-opacity="0" result="BackgroundImageFix"/>
<feBlend mode="normal" in="SourceGraphic" in2="BackgroundImageFix" result="shape"/>
<feColorMatrix in="SourceAlpha" type="matrix" values="0 0 0 0 0 0 0 0 0 0 0 0 0 0 0 0 0 0 127 0" result="hardAlpha"/>
<feOffset/>
<feGaussianBlur stdDeviation="7.5"/>
<feComposite in2="hardAlpha" operator="arithmetic" k2="-1" k3="1"/>
<feColorMatrix type="matrix" values="0 0 0 0 0 0 0 0 0 0 0 0 0 0 0 0 0 0 0.15 0"/>
<feBlend mode="normal" in2="shape" result="effect1_innerShadow_106_162"/>
</filter>
<filter id="filter10_i_106_162" x="526" y="47.2656" width="41.5" height="45.4688" filterUnits="userSpaceOnUse" color-interpolation-filters="sRGB">
<feFlood flood-opacity="0" result="BackgroundImageFix"/>
<feBlend mode="normal" in="SourceGraphic" in2="BackgroundImageFix" result="shape"/>
<feColorMatrix in="SourceAlpha" type="matrix" values="0 0 0 0 0 0 0 0 0 0 0 0 0 0 0 0 0 0 127 0" result="hardAlpha"/>
<feOffset/>
<feGaussianBlur stdDeviation="7.5"/>
<feComposite in2="hardAlpha" operator="arithmetic" k2="-1" k3="1"/>
<feColorMatrix type="matrix" values="0 0 0 0 0 0 0 0 0 0 0 0 0 0 0 0 0 0 0.15 0"/>
<feBlend mode="normal" in2="shape" result="effect1_innerShadow_106_162"/>
</filter>
<filter id="filter11_i_106_162" x="556" y="149.194" width="29.5" height="31.6123" filterUnits="userSpaceOnUse" color-interpolation-filters="sRGB">
<feFlood flood-opacity="0" result="BackgroundImageFix"/>
<feBlend mode="normal" in="SourceGraphic" in2="BackgroundImageFix" result="shape"/>
<feColorMatrix in="SourceAlpha" type="matrix" values="0 0 0 0 0 0 0 0 0 0 0 0 0 0 0 0 0 0 127 0" result="hardAlpha"/>
<feOffset/>
<feGaussianBlur stdDeviation="7.5"/>
<feComposite in2="hardAlpha" operator="arithmetic" k2="-1" k3="1"/>
<feColorMatrix type="matrix" values="0 0 0 0 0 0 0 0 0 0 0 0 0 0 0 0 0 0 0.15 0"/>
<feBlend mode="normal" in2="shape" result="effect1_innerShadow_106_162"/>
</filter>
<filter id="filter12_i_106_162" x="764.471" y="12" width="61.0571" height="55" filterUnits="userSpaceOnUse" color-interpolation-filters="sRGB">
<feFlood flood-opacity="0" result="BackgroundImageFix"/>
<feBlend mode="normal" in="SourceGraphic" in2="BackgroundImageFix" result="shape"/>
<feColorMatrix in="SourceAlpha" type="matrix" values="0 0 0 0 0 0 0 0 0 0 0 0 0 0 0 0 0 0 127 0" result="hardAlpha"/>
<feOffset/>
<feGaussianBlur stdDeviation="7.5"/>
<feComposite in2="hardAlpha" operator="arithmetic" k2="-1" k3="1"/>
<feColorMatrix type="matrix" values="0 0 0 0 0 0 0 0 0 0 0 0 0 0 0 0 0 0 0.15 0"/>
<feBlend mode="normal" in2="shape" result="effect1_innerShadow_106_162"/>
</filter>
<filter id="filter13_i_106_162" x="938.471" y="101" width="61.0571" height="55" filterUnits="userSpaceOnUse" color-interpolation-filters="sRGB">
<feFlood flood-opacity="0" result="BackgroundImageFix"/>
<feBlend mode="normal" in="SourceGraphic" in2="BackgroundImageFix" result="shape"/>
<feColorMatrix in="SourceAlpha" type="matrix" values="0 0 0 0 0 0 0 0 0 0 0 0 0 0 0 0 0 0 127 0" result="hardAlpha"/>
<feOffset/>
<feGaussianBlur stdDeviation="7.5"/>
<feComposite in2="hardAlpha" operator="arithmetic" k2="-1" k3="1"/>
<feColorMatrix type="matrix" values="0 0 0 0 0 0 0 0 0 0 0 0 0 0 0 0 0 0 0.15 0"/>
<feBlend mode="normal" in2="shape" result="effect1_innerShadow_106_162"/>
</filter>
<filter id="filter14_i_106_162" x="855.266" y="107" width="45.4688" height="41.5" filterUnits="userSpaceOnUse" color-interpolation-filters="sRGB">
<feFlood flood-opacity="0" result="BackgroundImageFix"/>
<feBlend mode="normal" in="SourceGraphic" in2="BackgroundImageFix" result="shape"/>
<feColorMatrix in="SourceAlpha" type="matrix" values="0 0 0 0 0 0 0 0 0 0 0 0 0 0 0 0 0 0 127 0" result="hardAlpha"/>
<feOffset/>
<feGaussianBlur stdDeviation="7.5"/>
<feComposite in2="hardAlpha" operator="arithmetic" k2="-1" k3="1"/>
<feColorMatrix type="matrix" values="0 0 0 0 0 0 0 0 0 0 0 0 0 0 0 0 0 0 0.15 0"/>
<feBlend mode="normal" in2="shape" result="effect1_innerShadow_106_162"/>
</filter>
<filter id="filter15_i_106_162" x="1066.27" y="8" width="45.4688" height="41.5" filterUnits="userSpaceOnUse" color-interpolation-filters="sRGB">
<feFlood flood-opacity="0" result="BackgroundImageFix"/>
<feBlend mode="normal" in="SourceGraphic" in2="BackgroundImageFix" result="shape"/>
<feColorMatrix in="SourceAlpha" type="matrix" values="0 0 0 0 0 0 0 0 0 0 0 0 0 0 0 0 0 0 127 0" result="hardAlpha"/>
<feOffset/>
<feGaussianBlur stdDeviation="7.5"/>
<feComposite in2="hardAlpha" operator="arithmetic" k2="-1" k3="1"/>
<feColorMatrix type="matrix" values="0 0 0 0 0 0 0 0 0 0 0 0 0 0 0 0 0 0 0.15 0"/>
<feBlend mode="normal" in2="shape" result="effect1_innerShadow_106_162"/>
</filter>
<filter id="filter16_i_106_162" x="896.266" y="30" width="45.4688" height="41.5" filterUnits="userSpaceOnUse" color-interpolation-filters="sRGB">
<feFlood flood-opacity="0" result="BackgroundImageFix"/>
<feBlend mode="normal" in="SourceGraphic" in2="BackgroundImageFix" result="shape"/>
<feColorMatrix in="SourceAlpha" type="matrix" values="0 0 0 0 0 0 0 0 0 0 0 0 0 0 0 0 0 0 127 0" result="hardAlpha"/>
<feOffset/>
<feGaussianBlur stdDeviation="7.5"/>
<feComposite in2="hardAlpha" operator="arithmetic" k2="-1" k3="1"/>
<feColorMatrix type="matrix" values="0 0 0 0 0 0 0 0 0 0 0 0 0 0 0 0 0 0 0.15 0"/>
<feBlend mode="normal" in2="shape" result="effect1_innerShadow_106_162"/>
</filter>
<filter id="filter17_i_106_162" x="1066.27" y="114" width="45.4688" height="41.5" filterUnits="userSpaceOnUse" color-interpolation-filters="sRGB">
<feFlood flood-opacity="0" result="BackgroundImageFix"/>
<feBlend mode="normal" in="SourceGraphic" in2="BackgroundImageFix" result="shape"/>
<feColorMatrix in="SourceAlpha" type="matrix" values="0 0 0 0 0 0 0 0 0 0 0 0 0 0 0 0 0 0 127 0" result="hardAlpha"/>
<feOffset/>
<feGaussianBlur stdDeviation="7.5"/>
<feComposite in2="hardAlpha" operator="arithmetic" k2="-1" k3="1"/>
<feColorMatrix type="matrix" values="0 0 0 0 0 0 0 0 0 0 0 0 0 0 0 0 0 0 0.15 0"/>
<feBlend mode="normal" in2="shape" result="effect1_innerShadow_106_162"/>
</filter>
<filter id="filter18_i_106_162" x="998.194" y="60" width="31.6123" height="29.5" filterUnits="userSpaceOnUse" color-interpolation-filters="sRGB">
<feFlood flood-opacity="0" result="BackgroundImageFix"/>
<feBlend mode="normal" in="SourceGraphic" in2="BackgroundImageFix" result="shape"/>
<feColorMatrix in="SourceAlpha" type="matrix" values="0 0 0 0 0 0 0 0 0 0 0 0 0 0 0 0 0 0 127 0" result="hardAlpha"/>
<feOffset/>
<feGaussianBlur stdDeviation="7.5"/>
<feComposite in2="hardAlpha" operator="arithmetic" k2="-1" k3="1"/>
<feColorMatrix type="matrix" values="0 0 0 0 0 0 0 0 0 0 0 0 0 0 0 0 0 0 0.15 0"/>
<feBlend mode="normal" in2="shape" result="effect1_innerShadow_106_162"/>
</filter>
<filter id="filter19_i_106_162" x="804.194" y="96" width="31.6123" height="29.5" filterUnits="userSpaceOnUse" color-interpolation-filters="sRGB">
<feFlood flood-opacity="0" result="BackgroundImageFix"/>
<feBlend mode="normal" in="SourceGraphic" in2="BackgroundImageFix" result="shape"/>
<feColorMatrix in="SourceAlpha" type="matrix" values="0 0 0 0 0 0 0 0 0 0 0 0 0 0 0 0 0 0 127 0" result="hardAlpha"/>
<feOffset/>
<feGaussianBlur stdDeviation="7.5"/>
<feComposite in2="hardAlpha" operator="arithmetic" k2="-1" k3="1"/>
<feColorMatrix type="matrix" values="0 0 0 0 0 0 0 0 0 0 0 0 0 0 0 0 0 0 0.15 0"/>
<feBlend mode="normal" in2="shape" result="effect1_innerShadow_106_162"/>
</filter>
<filter id="filter20_i_106_162" x="1255" y="89.4714" width="55" height="61.0571" filterUnits="userSpaceOnUse" color-interpolation-filters="sRGB">
<feFlood flood-opacity="0" result="BackgroundImageFix"/>
<feBlend mode="normal" in="SourceGraphic" in2="BackgroundImageFix" result="shape"/>
<feColorMatrix in="SourceAlpha" type="matrix" values="0 0 0 0 0 0 0 0 0 0 0 0 0 0 0 0 0 0 127 0" result="hardAlpha"/>
<feOffset/>
<feGaussianBlur stdDeviation="7.5"/>
<feComposite in2="hardAlpha" operator="arithmetic" k2="-1" k3="1"/>
<feColorMatrix type="matrix" values="0 0 0 0 0 0 0 0 0 0 0 0 0 0 0 0 0 0 0.15 0"/>
<feBlend mode="normal" in2="shape" result="effect1_innerShadow_106_162"/>
</filter>
<filter id="filter21_i_106_162" x="1262.5" y="6.26562" width="41.5" height="45.4688" filterUnits="userSpaceOnUse" color-interpolation-filters="sRGB">
<feFlood flood-opacity="0" result="BackgroundImageFix"/>
<feBlend mode="normal" in="SourceGraphic" in2="BackgroundImageFix" result="shape"/>
<feColorMatrix in="SourceAlpha" type="matrix" values="0 0 0 0 0 0 0 0 0 0 0 0 0 0 0 0 0 0 127 0" result="hardAlpha"/>
<feOffset/>
<feGaussianBlur stdDeviation="7.5"/>
<feComposite in2="hardAlpha" operator="arithmetic" k2="-1" k3="1"/>
<feColorMatrix type="matrix" values="0 0 0 0 0 0 0 0 0 0 0 0 0 0 0 0 0 0 0.15 0"/>
<feBlend mode="normal" in2="shape" result="effect1_innerShadow_106_162"/>
</filter>
<filter id="filter22_i_106_162" x="1339.5" y="47.2656" width="41.5" height="45.4688" filterUnits="userSpaceOnUse" color-interpolation-filters="sRGB">
<feFlood flood-opacity="0" result="BackgroundImageFix"/>
<feBlend mode="normal" in="SourceGraphic" in2="BackgroundImageFix" result="shape"/>
<feColorMatrix in="SourceAlpha" type="matrix" values="0 0 0 0 0 0 0 0 0 0 0 0 0 0 0 0 0 0 127 0" result="hardAlpha"/>
<feOffset/>
<feGaussianBlur stdDeviation="7.5"/>
<feComposite in2="hardAlpha" operator="arithmetic" k2="-1" k3="1"/>
<feColorMatrix type="matrix" values="0 0 0 0 0 0 0 0 0 0 0 0 0 0 0 0 0 0 0.15 0"/>
<feBlend mode="normal" in2="shape" result="effect1_innerShadow_106_162"/>
</filter>
<filter id="filter23_i_106_162" x="1321.5" y="149.194" width="29.5" height="31.6123" filterUnits="userSpaceOnUse" color-interpolation-filters="sRGB">
<feFlood flood-opacity="0" result="BackgroundImageFix"/>
<feBlend mode="normal" in="SourceGraphic" in2="BackgroundImageFix" result="shape"/>
<feColorMatrix in="SourceAlpha" type="matrix" values="0 0 0 0 0 0 0 0 0 0 0 0 0 0 0 0 0 0 127 0" result="hardAlpha"/>
<feOffset/>
<feGaussianBlur stdDeviation="7.5"/>
<feComposite in2="hardAlpha" operator="arithmetic" k2="-1" k3="1"/>
<feColorMatrix type="matrix" values="0 0 0 0 0 0 0 0 0 0 0 0 0 0 0 0 0 0 0.15 0"/>
<feBlend mode="normal" in2="shape" result="effect1_innerShadow_106_162"/>
</filter>
<filter id="filter24_i_106_162" x="1602.47" y="16" width="61.0571" height="55" filterUnits="userSpaceOnUse" color-interpolation-filters="sRGB">
<feFlood flood-opacity="0" result="BackgroundImageFix"/>
<feBlend mode="normal" in="SourceGraphic" in2="BackgroundImageFix" result="shape"/>
<feColorMatrix in="SourceAlpha" type="matrix" values="0 0 0 0 0 0 0 0 0 0 0 0 0 0 0 0 0 0 127 0" result="hardAlpha"/>
<feOffset/>
<feGaussianBlur stdDeviation="7.5"/>
<feComposite in2="hardAlpha" operator="arithmetic" k2="-1" k3="1"/>
<feColorMatrix type="matrix" values="0 0 0 0 1 0 0 0 0 1 0 0 0 0 1 0 0 0 0.15 0"/>
<feBlend mode="normal" in2="shape" result="effect1_innerShadow_106_162"/>
</filter>
<filter id="filter25_i_106_162" x="1776.47" y="105" width="61.0571" height="55" filterUnits="userSpaceOnUse" color-interpolation-filters="sRGB">
<feFlood flood-opacity="0" result="BackgroundImageFix"/>
<feBlend mode="normal" in="SourceGraphic" in2="BackgroundImageFix" result="shape"/>
<feColorMatrix in="SourceAlpha" type="matrix" values="0 0 0 0 0 0 0 0 0 0 0 0 0 0 0 0 0 0 127 0" result="hardAlpha"/>
<feOffset/>
<feGaussianBlur stdDeviation="7.5"/>
<feComposite in2="hardAlpha" operator="arithmetic" k2="-1" k3="1"/>
<feColorMatrix type="matrix" values="0 0 0 0 1 0 0 0 0 1 0 0 0 0 1 0 0 0 0.15 0"/>
<feBlend mode="normal" in2="shape" result="effect1_innerShadow_106_162"/>
</filter>
<filter id="filter26_i_106_162" x="1693.27" y="111" width="45.4688" height="41.5" filterUnits="userSpaceOnUse" color-interpolation-filters="sRGB">
<feFlood flood-opacity="0" result="BackgroundImageFix"/>
<feBlend mode="normal" in="SourceGraphic" in2="BackgroundImageFix" result="shape"/>
<feColorMatrix in="SourceAlpha" type="matrix" values="0 0 0 0 0 0 0 0 0 0 0 0 0 0 0 0 0 0 127 0" result="hardAlpha"/>
<feOffset/>
<feGaussianBlur stdDeviation="7.5"/>
<feComposite in2="hardAlpha" operator="arithmetic" k2="-1" k3="1"/>
<feColorMatrix type="matrix" values="0 0 0 0 1 0 0 0 0 1 0 0 0 0 1 0 0 0 0.15 0"/>
<feBlend mode="normal" in2="shape" result="effect1_innerShadow_106_162"/>
</filter>
<filter id="filter27_i_106_162" x="1904.27" y="12" width="45.4688" height="41.5" filterUnits="userSpaceOnUse" color-interpolation-filters="sRGB">
<feFlood flood-opacity="0" result="BackgroundImageFix"/>
<feBlend mode="normal" in="SourceGraphic" in2="BackgroundImageFix" result="shape"/>
<feColorMatrix in="SourceAlpha" type="matrix" values="0 0 0 0 0 0 0 0 0 0 0 0 0 0 0 0 0 0 127 0" result="hardAlpha"/>
<feOffset/>
<feGaussianBlur stdDeviation="7.5"/>
<feComposite in2="hardAlpha" operator="arithmetic" k2="-1" k3="1"/>
<feColorMatrix type="matrix" values="0 0 0 0 0 0 0 0 0 0 0 0 0 0 0 0 0 0 0.15 0"/>
<feBlend mode="normal" in2="shape" result="effect1_innerShadow_106_162"/>
</filter>
<filter id="filter28_i_106_162" x="1734.27" y="34" width="45.4688" height="41.5" filterUnits="userSpaceOnUse" color-interpolation-filters="sRGB">
<feFlood flood-opacity="0" result="BackgroundImageFix"/>
<feBlend mode="normal" in="SourceGraphic" in2="BackgroundImageFix" result="shape"/>
<feColorMatrix in="SourceAlpha" type="matrix" values="0 0 0 0 0 0 0 0 0 0 0 0 0 0 0 0 0 0 127 0" result="hardAlpha"/>
<feOffset/>
<feGaussianBlur stdDeviation="7.5"/>
<feComposite in2="hardAlpha" operator="arithmetic" k2="-1" k3="1"/>
<feColorMatrix type="matrix" values="0 0 0 0 1 0 0 0 0 1 0 0 0 0 1 0 0 0 0.15 0"/>
<feBlend mode="normal" in2="shape" result="effect1_innerShadow_106_162"/>
</filter>
<filter id="filter29_i_106_162" x="1904.27" y="118" width="45.4688" height="41.5" filterUnits="userSpaceOnUse" color-interpolation-filters="sRGB">
<feFlood flood-opacity="0" result="BackgroundImageFix"/>
<feBlend mode="normal" in="SourceGraphic" in2="BackgroundImageFix" result="shape"/>
<feColorMatrix in="SourceAlpha" type="matrix" values="0 0 0 0 0 0 0 0 0 0 0 0 0 0 0 0 0 0 127 0" result="hardAlpha"/>
<feOffset/>
<feGaussianBlur stdDeviation="7.5"/>
<feComposite in2="hardAlpha" operator="arithmetic" k2="-1" k3="1"/>
<feColorMatrix type="matrix" values="0 0 0 0 0 0 0 0 0 0 0 0 0 0 0 0 0 0 0.15 0"/>
<feBlend mode="normal" in2="shape" result="effect1_innerShadow_106_162"/>
</filter>
<filter id="filter30_i_106_162" x="1836.19" y="64" width="31.6123" height="29.5" filterUnits="userSpaceOnUse" color-interpolation-filters="sRGB">
<feFlood flood-opacity="0" result="BackgroundImageFix"/>
<feBlend mode="normal" in="SourceGraphic" in2="BackgroundImageFix" result="shape"/>
<feColorMatrix in="SourceAlpha" type="matrix" values="0 0 0 0 0 0 0 0 0 0 0 0 0 0 0 0 0 0 127 0" result="hardAlpha"/>
<feOffset/>
<feGaussianBlur stdDeviation="7.5"/>
<feComposite in2="hardAlpha" operator="arithmetic" k2="-1" k3="1"/>
<feColorMatrix type="matrix" values="0 0 0 0 1 0 0 0 0 1 0 0 0 0 1 0 0 0 0.15 0"/>
<feBlend mode="normal" in2="shape" result="effect1_innerShadow_106_162"/>
</filter>
<filter id="filter31_i_106_162" x="1642.19" y="100" width="31.6123" height="29.5" filterUnits="userSpaceOnUse" color-interpolation-filters="sRGB">
<feFlood flood-opacity="0" result="BackgroundImageFix"/>
<feBlend mode="normal" in="SourceGraphic" in2="BackgroundImageFix" result="shape"/>
<feColorMatrix in="SourceAlpha" type="matrix" values="0 0 0 0 0 0 0 0 0 0 0 0 0 0 0 0 0 0 127 0" result="hardAlpha"/>
<feOffset/>
<feGaussianBlur stdDeviation="7.5"/>
<feComposite in2="hardAlpha" operator="arithmetic" k2="-1" k3="1"/>
<feColorMatrix type="matrix" values="0 0 0 0 1 0 0 0 0 1 0 0 0 0 1 0 0 0 0.15 0"/>
<feBlend mode="normal" in2="shape" result="effect1_innerShadow_106_162"/>
</filter>
<clipPath id="clip0_106_162">
<rect width="1903" height="164" fill="white"/>
</clipPath>
</defs>
</svg>
