<svg width="48" height="47" viewBox="0 0 48 47" fill="none" xmlns="http://www.w3.org/2000/svg">
<g filter="url(#filter0_d_111_163)">
<path d="M40.1706 29.0874L40.5772 27.46L40.8853 25.824L41.0916 24.1974L41.1939 22.5979L41.191 21.0432L41.0829 19.5501L40.8708 18.1352L40.5571 16.8138L40.1451 15.6006L39.6395 14.5086L39.0457 13.55L38.3703 12.7352L37.6206 12.0732L36.8048 11.5712L35.8896 11.5038L34.9365 12.4816L33.7672 12.3736L32.877 12.0316L32.068 11.5895L31.0619 12.0985L30.0615 12.7673L29.0779 13.5885L28.1219 14.5531L27.2039 15.6505L26.3341 16.8688L25.5218 18.1945L24.776 19.6131L24.2394 21.1536L24.4631 22.562L24.5183 25.1121L22.9733 27.2549L22.5919 28.6653L22.5074 29.739L22.4495 30.5128L21.9921 30.7567L21.9951 32.3114L22.1032 33.8044L22.3152 35.2194L22.629 36.5407L23.0409 37.754L23.5465 38.846L24.1403 39.8046L24.8158 40.6194L25.5655 41.2814L26.3812 41.7834L27.254 42.1199L28.1744 42.2873L29.1322 42.2836L30.117 42.1089L31.118 41.7651L32.1242 41.2561L33.1245 40.5873L34.1081 39.7661L35.0641 38.8015L35.9821 37.7041L36.852 36.4858L37.6642 35.1601L38.41 33.7415L39.0811 32.2454L39.6701 30.6884L40.1706 29.0874Z" fill="#965B3E"/>
</g>
<g filter="url(#filter1_d_111_163)">
<path d="M12.6439 23.6521L13.9956 24.6454L15.3925 25.5509L16.8194 26.3586L18.2606 27.0598L19.7004 27.6466L21.1229 28.1128L22.5126 28.4531L23.8542 28.6639L25.1331 28.7428L26.3352 28.689L27.4474 28.5031L28.4575 28.187L29.3543 27.7444L30.1282 27.1799L30.5376 26.3586L29.9942 25.1059L30.5376 24.0649L31.1916 23.3708L31.9075 22.79L31.818 21.6659L31.5785 20.4867L31.1916 19.2652L30.6616 18.0148L29.9942 16.7492L29.1969 15.4823L28.2782 14.228L27.2483 13L26.0264 11.9192L24.6383 11.5922L22.2578 10.6762L20.8608 8.43406L19.7004 7.54637L18.739 7.06099L18.0449 6.71398L17.9927 6.19831L16.553 5.61145L15.1304 5.14531L13.7408 4.80499L12.3991 4.59421L11.1202 4.51529L9.91813 4.56909L8.80595 4.75502L7.79589 5.07105L6.89902 5.51371L6.12515 6.07814L5.48278 6.75818L4.97894 7.54637L4.61915 8.43406L4.40735 9.41154L4.34586 10.4681L4.43535 11.5922L4.67485 12.7714L5.06173 13.9929L5.59176 15.2433L6.25912 16.5089L7.0565 17.7758L7.97517 19.0301L9.00506 20.2581L10.1349 21.4464L11.3523 22.5818L12.6439 23.6521Z" fill="#965B3E"/>
</g>
<defs>
<filter id="filter0_d_111_163" x="19.9921" y="7.50391" width="27.2018" height="38.7834" filterUnits="userSpaceOnUse" color-interpolation-filters="sRGB">
<feFlood flood-opacity="0" result="BackgroundImageFix"/>
<feColorMatrix in="SourceAlpha" type="matrix" values="0 0 0 0 0 0 0 0 0 0 0 0 0 0 0 0 0 0 127 0" result="hardAlpha"/>
<feOffset dx="2"/>
<feGaussianBlur stdDeviation="2"/>
<feComposite in2="hardAlpha" operator="out"/>
<feColorMatrix type="matrix" values="0 0 0 0 0 0 0 0 0 0 0 0 0 0 0 0 0 0 0.63 0"/>
<feBlend mode="normal" in2="BackgroundImageFix" result="effect1_dropShadow_111_163"/>
<feBlend mode="normal" in="SourceGraphic" in2="effect1_dropShadow_111_163" result="shape"/>
</filter>
<filter id="filter1_d_111_163" x="2.34589" y="0.515381" width="35.5616" height="32.2273" filterUnits="userSpaceOnUse" color-interpolation-filters="sRGB">
<feFlood flood-opacity="0" result="BackgroundImageFix"/>
<feColorMatrix in="SourceAlpha" type="matrix" values="0 0 0 0 0 0 0 0 0 0 0 0 0 0 0 0 0 0 127 0" result="hardAlpha"/>
<feOffset dx="2"/>
<feGaussianBlur stdDeviation="2"/>
<feComposite in2="hardAlpha" operator="out"/>
<feColorMatrix type="matrix" values="0 0 0 0 0 0 0 0 0 0 0 0 0 0 0 0 0 0 0.63 0"/>
<feBlend mode="normal" in2="BackgroundImageFix" result="effect1_dropShadow_111_163"/>
<feBlend mode="normal" in="SourceGraphic" in2="effect1_dropShadow_111_163" result="shape"/>
</filter>
</defs>
</svg>
