<svg width="326" height="254" viewBox="0 0 326 254" fill="none" xmlns="http://www.w3.org/2000/svg">
<g clip-path="url(#clip0_126_199)">
<path d="M556.927 74.9653C426.26 133.632 79.9071 321.976 13.9262 223.974C-17.4905 177.311 20.7779 139.547 41.4262 132.972C80.5376 120.517 137.665 170.261 96.9071 202.137C54.1103 235.607 26.4071 224.137 20.9071 195.637C16.6615 173.637 49.8645 124.232 79.9071 156.137C110.931 189.084 58.9071 213.647 46.9071 199.77C36.673 191.088 46.9071 161.637 61.9071 173.637" stroke="#9F846A" stroke-width="4" stroke-linecap="round"/>
<path d="M248.844 153.671C172.996 6.88328 70.2857 140.991 140.96 169.396C191.372 189.656 214.587 163.617 209.1 135.114C204.865 113.112 155.678 79.5867 139.645 120.372C123.09 162.49 180.516 165.957 186.499 148.615C192.773 136.751 172.326 113.213 162.86 129.929" stroke="#9F846A" stroke-width="4" stroke-linecap="round"/>
<path d="M40.4937 104.497L41.2408 102.642L40.4937 104.497ZM108.656 70.2602L110.62 69.8834L108.656 70.2602ZM39.2108 55.4734L41.0717 56.2063L39.2108 55.4734ZM86.0458 83.7462L84.1555 83.0927L84.206 82.9466L84.2784 82.81L86.0458 83.7462ZM64.1591 66.0314C63.6142 66.9922 62.3936 67.3294 61.4328 66.7845C60.472 66.2396 60.1348 65.019 60.6797 64.0582L62.4194 65.0448L64.1591 66.0314ZM148.388 88.8435L146.611 89.7605C127.795 53.2894 107.468 34.5936 88.8957 27.1997C70.3936 19.8339 53.3598 23.5704 40.696 32.568C27.9643 41.6138 19.7311 55.9193 18.8877 69.5238C18.4675 76.3005 19.8788 82.8725 23.434 88.5759C26.9852 94.2728 32.7504 99.2234 41.2408 102.642L40.4937 104.497L39.7467 106.353C30.5731 102.659 24.0947 97.1973 20.0395 90.6918C15.9884 84.1929 14.4306 76.7725 14.8953 69.2763C15.8217 54.3352 24.7745 38.9734 38.3793 29.3072C52.0519 19.5929 70.5052 15.573 90.3752 23.4834C110.175 31.3657 131.104 50.9789 150.166 87.9265L148.388 88.8435ZM40.4937 104.497L41.2408 102.642C66.1251 112.662 83.7678 111.035 94.4237 104.009C105.032 97.0145 109.308 84.277 106.692 70.637L108.656 70.2602L110.62 69.8834C113.472 84.7496 108.866 99.2773 96.6256 107.348C84.4329 115.388 65.2605 116.626 39.7467 106.353L40.4937 104.497ZM108.656 70.2602L106.692 70.637C105.74 65.674 102.166 59.7895 96.8493 54.3275C91.5666 48.8999 84.7488 44.083 77.6175 41.1764C70.4719 38.2639 63.1959 37.339 56.8586 39.3902C50.6018 41.4154 44.9123 46.4545 41.0717 56.2063L39.2108 55.4734L37.3499 54.7405C41.5387 44.1047 48.0168 38.0478 55.6269 35.5846C63.1565 33.1474 71.4467 34.3417 79.1273 37.4723C86.8223 40.6087 94.0909 45.7585 99.7157 51.5376C105.307 57.2821 109.461 63.8441 110.62 69.8834L108.656 70.2602ZM39.2108 55.4734L41.0717 56.2063C37.0756 66.3531 37.6572 73.8342 40.4599 79.1621C43.2849 84.5325 48.5713 88.1072 54.745 89.9889C60.9203 91.8711 67.7774 91.9879 73.3943 90.6214C79.1162 89.2293 82.9901 86.4641 84.1555 83.0927L86.0458 83.7462L87.936 84.3997C86.1045 89.6977 80.5525 92.9965 74.3399 94.508C68.0222 96.045 60.4358 95.9051 53.5788 93.8151C46.7201 91.7246 40.3851 87.6118 36.9198 81.0243C33.4322 74.3944 33.0545 65.6472 37.3499 54.7405L39.2108 55.4734ZM86.0458 83.7462L84.2784 82.81C85.5057 80.4931 85.5177 77.4059 84.4357 74.0919C83.3615 70.8019 81.2831 67.5478 78.7576 65.1257C76.2037 62.6765 73.4177 61.2836 70.9646 61.2497C68.6919 61.2183 66.2472 62.3496 64.1591 66.0314L62.4194 65.0448L60.6797 64.0582C63.3298 59.3854 66.9927 57.1945 71.0199 57.2501C74.8667 57.3032 78.5729 59.4064 81.5262 62.2388C84.5079 65.0983 86.952 68.9113 88.2381 72.8504C89.5165 76.7657 89.7268 81.0696 87.8131 84.6824L86.0458 83.7462Z" fill="#9F846A"/>
</g>
<defs>
<clipPath id="clip0_126_199">
<rect width="326" height="254" fill="white"/>
</clipPath>
</defs>
</svg>
