<svg width="381" height="474" viewBox="0 0 381 474" fill="none" xmlns="http://www.w3.org/2000/svg">
<path d="M378.567 471.091C351.175 451.792 292.326 405.12 276.071 372.822C255.752 332.45 268.952 285.548 271.236 265.046C279.053 194.858 251.812 146.281 225.873 100.028L225.076 98.6058C195.131 45.197 92.3672 -22.4889 16.171 10.8715C-57.072 42.9388 180.146 64.3552 125.977 25.5305C86.9853 -2.4165 36.9231 7.42211 13.3422 14.315M299.298 361.88C308.866 307.94 257.729 291.925 231.498 268.797C205.267 245.669 185.918 205.749 183.061 164.598C180.158 122.78 172.676 96.1332 157.298 68.7056C139.704 37.3256 79.3254 -2.44308 34.5567 17.1576C-8.4768 35.9986 130.9 48.5816 99.0728 25.7704C76.1632 9.35032 46.7495 15.1309 32.8947 19.1809" stroke="#CC9157" stroke-opacity="0.5" stroke-width="4" stroke-linecap="round"/>
</svg>
