<svg width="335" height="46" viewBox="0 0 335 46" fill="none" xmlns="http://www.w3.org/2000/svg">
<path d="M316.999 17.3433C312.999 16.3433 314.499 7.3425 320.499 9.8425C326.499 12.3425 325.999 18.3425 323.999 20.8425C321.999 23.3425 315.661 28.9881 308.999 19.8434C300.807 8.5965 318.694 -4.69939 327.408 5.84336C333.895 13.6917 333.11 21.0767 332.499 24.8434C331.499 31.01 324.499 43.3434 304.499 43.3434C304.499 43.3434 209.498 26.0024 165.998 26.0024C122.498 26.0024 30.3957 43.3434 30.3957 43.3434C10.3957 43.3434 3.39571 31.01 2.39571 24.8434C1.7849 21.0767 0.999625 13.6917 7.48675 5.84336C16.2009 -4.69939 34.0884 8.5965 25.8957 19.8434C19.2343 28.9881 12.8957 23.3425 10.8957 20.8425C8.89571 18.3425 8.39571 12.3425 14.3957 9.8425C20.3957 7.3425 21.8957 16.3433 17.8957 17.3433" stroke="#CC9157" stroke-opacity="0.5" stroke-width="4" stroke-linecap="round"/>
</svg>
