<svg width="351" height="325" viewBox="0 0 351 325" fill="none" xmlns="http://www.w3.org/2000/svg">
<path d="M188.813 332.63C186.837 310.032 182.368 231.869 202.311 126.404C208.394 90.224 232.594 19.8899 284.821 10.0143C350.105 -2.3302 350.77 45.1874 347.907 67.5839C344.81 91.8092 302.227 114.362 272.955 74.2407C255.33 50.0823 304.5 13.1073 323.276 42.9532C339.083 68.0781 302.718 78.7748 294.521 71.7082C285.747 64.1438 292.054 40.0243 311.873 57.5472M188.813 332.63C189.196 337.009 189.486 339.302 189.486 339.302M188.813 332.63C191.664 309.652 195.803 284.862 200.897 257.926C206.979 221.746 231.18 151.412 283.407 141.536C348.69 129.192 349.356 176.709 346.493 199.106C343.396 223.331 300.813 245.884 271.541 205.763C253.916 181.604 303.085 144.629 321.862 174.475C337.669 199.6 301.304 210.297 293.107 203.23C284.333 195.666 290.639 171.546 310.459 189.069M188.813 332.63C178.338 417.054 185.249 477 226.089 528.94M161.949 326.63C163.925 304.032 168.394 225.869 148.451 120.404C142.369 84.2241 118.168 13.89 65.9411 4.01441C0.657513 -8.33008 -0.00810587 39.1875 2.85522 61.5841C5.95236 85.8094 48.5348 108.363 77.8069 68.2408C95.4323 44.0824 46.2626 7.10738 27.486 36.9533C11.6794 62.0782 48.0445 72.7749 56.241 65.7083C65.0151 58.1439 58.7086 34.0244 38.8889 51.5473M161.949 326.63C161.566 331.009 161.276 333.302 161.276 333.302M161.949 326.63C159.098 303.652 154.959 278.862 149.866 251.926C143.783 215.746 119.582 145.412 67.3554 135.536C2.07175 123.192 1.4061 170.709 4.26943 193.106C7.36657 217.331 49.9491 239.884 79.2211 199.763C96.8466 175.604 47.6768 138.629 28.9002 168.475C13.0936 193.6 49.4587 204.297 57.6552 197.23C66.4293 189.666 60.1228 165.546 40.3031 183.069M161.949 326.63C172.424 411.054 165.513 471 124.673 522.941" stroke="#CC9157" stroke-opacity="0.31" stroke-width="4" stroke-linecap="round"/>
<g filter="url(#filter0_d_79_1370)">
<path fill-rule="evenodd" clip-rule="evenodd" d="M173.358 269.287C171.892 265.585 172.396 261.59 174.368 258.461L174.587 259.274C176.303 265.675 182.884 269.474 189.285 267.758L212.993 261.406L226.974 257.66L234.661 277.061L243.701 299.879C246.142 306.041 243.126 313.015 236.965 315.456L208.954 326.553C202.793 328.994 195.819 325.978 193.377 319.817L173.358 269.287Z" fill="#634840"/>
</g>
<g filter="url(#filter1_d_79_1370)">
<path d="M204.295 328.261C200.701 329.685 196.633 327.925 195.209 324.331L171.551 264.617C170.127 261.023 171.886 256.955 175.481 255.531L212.816 240.739C216.411 239.315 220.479 241.075 221.903 244.669L245.56 304.383C246.984 307.977 245.225 312.045 241.631 313.469L204.295 328.261ZM216.518 302.689C221.335 300.803 223.123 294.909 220.164 290.665L215.447 283.897C214.726 282.862 214.259 281.671 214.086 280.421L212.955 272.249C212.245 267.125 206.931 264.011 202.114 265.897L200.409 266.566C195.591 268.452 193.803 274.345 196.762 278.589L201.479 285.357C202.2 286.392 202.667 287.583 202.84 288.833L203.971 297.005C204.681 302.129 209.995 305.243 214.812 303.357L216.518 302.689Z" fill="#725148"/>
</g>
<defs>
<filter id="filter0_d_79_1370" x="147.512" y="238.66" width="102.036" height="99.7402" filterUnits="userSpaceOnUse" color-interpolation-filters="sRGB">
<feFlood flood-opacity="0" result="BackgroundImageFix"/>
<feColorMatrix in="SourceAlpha" type="matrix" values="0 0 0 0 0 0 0 0 0 0 0 0 0 0 0 0 0 0 127 0" result="hardAlpha"/>
<feOffset dx="-10" dy="-4"/>
<feGaussianBlur stdDeviation="7.5"/>
<feComposite in2="hardAlpha" operator="out"/>
<feColorMatrix type="matrix" values="0 0 0 0 0 0 0 0 0 0 0 0 0 0 0 0 0 0 0.25 0"/>
<feBlend mode="normal" in2="BackgroundImageFix" result="effect1_dropShadow_79_1370"/>
<feBlend mode="normal" in="SourceGraphic" in2="effect1_dropShadow_79_1370" result="shape"/>
</filter>
<filter id="filter1_d_79_1370" x="156.057" y="225.245" width="104.997" height="118.51" filterUnits="userSpaceOnUse" color-interpolation-filters="sRGB">
<feFlood flood-opacity="0" result="BackgroundImageFix"/>
<feColorMatrix in="SourceAlpha" type="matrix" values="0 0 0 0 0 0 0 0 0 0 0 0 0 0 0 0 0 0 127 0" result="hardAlpha"/>
<feOffset/>
<feGaussianBlur stdDeviation="7.5"/>
<feComposite in2="hardAlpha" operator="out"/>
<feColorMatrix type="matrix" values="0 0 0 0 0 0 0 0 0 0 0 0 0 0 0 0 0 0 0.25 0"/>
<feBlend mode="normal" in2="BackgroundImageFix" result="effect1_dropShadow_79_1370"/>
<feBlend mode="normal" in="SourceGraphic" in2="effect1_dropShadow_79_1370" result="shape"/>
</filter>
</defs>
</svg>
