<svg width="310" height="368" viewBox="0 0 310 368" fill="none" xmlns="http://www.w3.org/2000/svg">
<path d="M1.84574 297.024L4.85415e-05 296.254L1.5407 292.563L3.38639 293.333L2.61607 295.179L1.84574 297.024ZM190.2 29.7779L189.705 31.7156L189.528 31.6704L189.362 31.594L190.2 29.7779ZM94.8386 97.6836L92.9886 98.4434L92.9336 98.3096L92.8985 98.1693L94.8386 97.6836ZM212.71 111.621C212.16 110.663 212.49 109.441 213.448 108.891C214.406 108.34 215.628 108.671 216.178 109.628L214.444 110.625L212.71 111.621ZM2.61607 295.179L3.38639 293.333C29.1541 304.088 72.1911 314.028 117.346 308.817C162.436 303.614 209.579 283.32 243.885 233.653L245.531 234.79L247.177 235.926C212.094 286.717 163.809 307.482 117.804 312.791C71.8632 318.092 28.1374 307.998 1.84574 297.024L2.61607 295.179ZM245.531 234.79L243.885 233.653C278.097 184.123 273.016 135.874 255.1 98.8091C246.127 80.247 233.937 64.5051 221.856 52.8669C209.722 41.1761 197.89 33.8078 189.705 31.7156L190.2 29.7779L190.695 27.8402C199.863 30.1836 212.296 38.1024 224.632 49.9863C237.022 61.923 249.505 78.0437 258.701 97.0684C277.122 135.177 282.354 184.998 247.177 235.926L245.531 234.79ZM190.2 29.7779L189.362 31.594C162.779 19.3318 135.856 21.074 117.551 33.0781C99.3602 45.0082 89.2988 67.3221 96.7787 97.1978L94.8386 97.6836L92.8985 98.1693C85.0539 66.8371 95.5825 42.7021 115.358 29.7333C135.02 16.8386 163.44 15.2319 191.038 27.9618L190.2 29.7779ZM94.8386 97.6836L96.6886 96.9237C104.756 116.565 116.863 128.479 130.202 135.048C143.576 141.636 158.335 142.92 171.756 141.027C185.197 139.131 197.141 134.07 204.837 128.159C208.693 125.198 211.364 122.115 212.696 119.231C214.001 116.406 213.999 113.865 212.71 111.621L214.444 110.625L216.178 109.628C218.246 113.228 218.054 117.171 216.328 120.908C214.629 124.586 211.426 128.142 207.273 131.332C198.951 137.723 186.334 143.011 172.314 144.988C158.275 146.968 142.674 145.65 128.435 138.637C114.16 131.606 101.399 118.921 92.9886 98.4434L94.8386 97.6836Z" fill="#CC9157" fill-opacity="0.5"/>
<path d="M167.701 46.3442L165.78 45.7903L164.672 49.6338L166.594 50.1877L167.148 48.2659L167.701 46.3442ZM143.693 261.348L144.565 259.548L144.372 259.455L144.163 259.404L143.693 261.348ZM129.484 188.358L128.394 186.681L128.279 186.756L128.176 186.846L129.484 188.358ZM184.701 226.37C183.705 226.846 183.282 228.04 183.758 229.037C184.234 230.033 185.428 230.456 186.425 229.98L185.563 228.175L184.701 226.37ZM167.148 48.2659L166.594 50.1877C181.607 54.515 203.666 65.9539 220.764 86.1478C237.811 106.281 249.973 135.164 245.259 174.593L247.245 174.831L249.231 175.068C254.084 134.472 241.539 104.495 223.817 83.563C206.146 62.692 183.373 50.8612 167.701 46.3442L167.148 48.2659ZM247.245 174.831L245.259 174.593C240.558 213.914 219.656 237.229 197.743 249.681C186.761 255.921 175.522 259.431 165.942 260.84C156.266 262.263 148.592 261.501 144.565 259.548L143.693 261.348L142.82 263.148C147.926 265.623 156.567 266.262 166.525 264.798C176.579 263.319 188.293 259.651 199.719 253.158C222.624 240.143 244.365 215.772 249.231 175.068L247.245 174.831ZM143.693 261.348L144.163 259.404C128.426 255.597 117.875 244.471 114.81 231.28C111.752 218.12 116.083 202.592 130.792 189.871L129.484 188.358L128.176 186.846C112.479 200.421 107.481 217.412 110.914 232.185C114.339 246.927 126.095 259.148 143.222 263.292L143.693 261.348ZM129.484 188.358L130.573 190.036C141.549 182.906 151.117 181.443 159.053 183.114C167.033 184.794 173.642 189.701 178.534 195.813C183.435 201.936 186.504 209.135 187.465 215.138C187.946 218.144 187.88 220.734 187.345 222.696C186.816 224.639 185.881 225.807 184.701 226.37L185.563 228.175L186.425 229.98C188.955 228.772 190.469 226.446 191.205 223.747C191.935 221.067 191.952 217.866 191.415 214.506C190.338 207.777 186.963 199.942 181.657 193.314C176.343 186.675 168.984 181.117 159.877 179.2C150.728 177.273 140.093 179.082 128.394 186.681L129.484 188.358Z" fill="#CC9157" fill-opacity="0.5"/>
</svg>
