<svg width="335" height="58" viewBox="0 0 335 58" fill="none" xmlns="http://www.w3.org/2000/svg">
<path d="M30.3958 14.4965L166.999 14.4965L304.499 14.4965M30.3958 14.4965C10.3958 14.4965 3.39575 26.8298 2.39575 32.9965C1.78494 36.7631 0.999665 44.1481 7.48679 51.9965C16.201 62.5392 34.0884 49.2433 25.8958 37.9965C19.2344 28.8517 12.8958 34.4973 10.8958 36.9973C8.89575 39.4973 8.39575 45.4973 14.3958 47.9973C20.3958 50.4973 21.8958 41.4965 17.8958 40.4965M30.3958 14.4965C30.3958 14.4965 82.9981 1.99951 166.998 2C250.998 2.00049 304.499 14.4965 304.499 14.4965M30.3958 14.4965C30.3958 14.4965 82.4983 26.9995 166.998 26.9995C251.498 26.9995 304.499 14.4965 304.499 14.4965M304.499 14.4965C324.499 14.4965 331.499 26.8298 332.499 32.9965C333.11 36.7632 333.895 44.1481 327.408 51.9965C318.694 62.5392 300.807 49.2433 308.999 37.9965C315.661 28.8518 321.999 34.4973 323.999 36.9973C325.999 39.4973 326.499 45.4973 320.499 47.9973C314.499 50.4973 312.999 41.4965 316.999 40.4965" stroke="#CC9157" stroke-opacity="0.5" stroke-width="4" stroke-linecap="round"/>
</svg>
