<svg width="332" height="85" viewBox="0 0 332 85" fill="none" xmlns="http://www.w3.org/2000/svg">
<path d="M2.30811 38.9003C4.45763 28.7615 6.90236 25.6895 10.5971 21.5427C14.0044 17.7185 18.5817 15.5415 24.2738 14.762C34.1654 13.4073 51.4611 15.8183 58.7123 18.7474C65.2942 21.4061 70.5392 25.0437 79.0035 30.8834C84.6847 34.8029 90.5399 40.118 95.4663 43.3469C101.742 47.4605 109.304 51.5022 114.987 54.2652C121.371 57.3691 135.357 56.4285 152.17 51.9911C161.076 49.6407 166.188 44.7492 179.837 35.104C187.821 29.4625 195.682 20.8 208.09 12.82C222.984 3.24156 235.692 2.61673 242.722 2.15546C247.917 1.81462 256.45 1.99863 266.778 3.06416C277.105 4.1297 288.978 6.26077 297.987 8.27191C306.996 10.283 312.78 12.1097 317.13 13.8118C321.48 15.5139 324.22 17.036 327.965 19.5269" stroke="#9F846A" stroke-width="4" stroke-linecap="round"/>
<path d="M2.00043 51.7821C4.14995 41.6434 6.59468 38.5713 10.2895 34.4245C13.6967 30.6003 18.274 28.4234 23.9661 27.6438C33.8578 26.2891 51.1534 28.7001 58.4046 31.6292C64.9865 34.2879 70.2315 37.9255 78.6959 43.7652C84.377 47.6847 90.2322 52.9999 95.1586 56.2287C101.435 60.3424 108.997 64.384 114.68 67.147C121.064 70.2509 135.049 69.3104 151.863 64.873C160.768 62.5226 165.881 57.631 179.53 47.9858C187.513 42.3443 195.374 33.6818 207.782 25.7019C222.676 16.1234 235.385 15.4986 242.415 15.0373C247.609 14.6965 256.142 14.8805 266.47 15.946C276.798 17.0115 288.671 19.1426 297.679 21.1537C306.688 23.1649 312.472 24.9915 316.822 26.6936C321.172 28.3957 323.912 29.9179 327.657 32.4087" stroke="#9F846A" stroke-width="4" stroke-linecap="round"/>
<path d="M4.00043 65.7821C6.14995 55.6434 8.59468 52.5713 12.2895 48.4245C15.6967 44.6003 20.274 42.4234 25.9661 41.6438C35.8578 40.2891 53.1534 42.7001 60.4046 45.6292C66.9865 48.2879 72.2315 51.9255 80.6959 57.7652C86.377 61.6847 92.2322 66.9999 97.1586 70.2287C103.435 74.3424 110.997 78.384 116.68 81.147C123.064 84.2509 137.049 83.3104 153.863 78.873C162.768 76.5226 167.881 71.631 181.53 61.9858C189.513 56.3443 197.374 47.6818 209.782 39.7019C224.676 30.1234 237.385 29.4986 244.415 29.0373C249.609 28.6965 258.142 28.8805 268.47 29.946C278.798 31.0115 290.671 33.1426 299.679 35.1537C308.688 37.1649 314.472 38.9915 318.822 40.6936C323.172 42.3957 325.912 43.9179 329.657 46.4087" stroke="#9F846A" stroke-width="4" stroke-linecap="round"/>
</svg>
