<svg width="241" height="54" viewBox="0 0 241 54" fill="none" xmlns="http://www.w3.org/2000/svg">
<path d="M220.5 17.3433C216.5 16.3433 218 7.3425 224 9.8425C230 12.3425 229.5 18.3425 227.5 20.8425C225.5 23.3425 219.161 28.9881 212.5 19.8434C204.307 8.5965 222.195 -4.69939 230.909 5.84336C237.396 13.6917 238.611 33.0766 238 36.8433C237 43.0099 234 50.6876 212.5 50.6876C192.5 50.6876 99.6667 50.8433 70.5001 50.8433C41.3334 50.8433 47.6401 51.0318 27.6401 51.0318C6.14012 51.0318 3.14014 43.3542 2.14014 37.1875C1.52932 33.4208 2.74404 14.036 9.23116 6.1876C17.9453 -4.35515 35.8328 8.94074 27.6401 20.1876C20.9788 29.3323 14.6401 23.6867 12.6401 21.1867C10.6401 18.6867 10.1401 12.6867 16.1401 10.1867C22.1401 7.68674 23.6401 16.6876 19.6401 17.6876" stroke="#CC9157" stroke-opacity="0.5" stroke-width="4" stroke-linecap="round"/>
</svg>
