<svg width="227" height="97" viewBox="0 0 227 97" fill="none" xmlns="http://www.w3.org/2000/svg">
<path d="M53.9993 43.3434H196.499C216.499 43.3434 223.499 31.01 224.499 24.8434C225.11 21.0767 225.895 13.6917 219.408 5.84336C210.694 -4.69939 192.807 8.5965 200.999 19.8434C207.661 28.9881 213.999 23.3425 215.999 20.8425C217.999 18.3425 218.499 12.3425 212.499 9.8425C206.499 7.3425 204.999 16.3433 208.999 17.3433M172.896 52.9989L30.3958 52.9989C10.3958 52.9989 3.39577 65.3322 2.39577 71.4989C1.78496 75.2656 0.999685 82.6505 7.48681 90.4989C16.201 101.042 34.0884 87.7458 25.8958 76.4989C19.2344 67.3542 12.8958 72.9998 10.8958 75.4998C8.89577 77.9998 8.39577 83.9998 14.3958 86.4998C20.3958 88.9998 21.8958 79.9989 17.8958 78.9989" stroke="#CC9157" stroke-opacity="0.5" stroke-width="4" stroke-linecap="round"/>
</svg>
