<svg width="329" height="254" viewBox="0 0 329 254" fill="none" xmlns="http://www.w3.org/2000/svg">
<g clip-path="url(#clip0_126_200)">
<path d="M557.5 74.9893C426.834 133.656 80.4808 322 14.5 223.998C-16.9168 177.335 21.3517 139.571 41.9999 132.996C81.1113 120.541 138.239 170.285 97.4808 202.161C54.6841 235.631 26.9809 224.161 21.4808 195.661C17.2352 173.661 50.4383 124.255 80.4808 156.161C111.505 189.108 59.4808 213.671 47.4808 199.794C37.2468 191.112 47.4808 161.661 62.4809 173.661" stroke="#CC9157" stroke-opacity="0.5" stroke-width="4" stroke-linecap="round"/>
<path d="M249.418 153.695C173.57 6.9072 70.8595 141.015 141.534 169.419C191.945 189.68 215.16 163.641 209.674 135.138C205.438 113.136 156.251 79.6107 140.219 120.396C123.663 162.514 181.09 165.981 187.073 148.639C193.347 136.775 172.899 113.237 163.434 129.953" stroke="#CC9157" stroke-opacity="0.5" stroke-width="4" stroke-linecap="round"/>
<path d="M41.0675 104.521L41.8145 102.666L41.0675 104.521ZM109.23 70.2841L111.194 69.9074L109.23 70.2841ZM39.7846 55.4973L41.6455 56.2302L39.7846 55.4973ZM86.6195 83.7701L84.7293 83.1167L84.7798 82.9706L84.8522 82.834L86.6195 83.7701ZM64.7329 66.0553C64.188 67.0161 62.9674 67.3533 62.0066 66.8084C61.0458 66.2635 60.7086 65.0429 61.2535 64.0821L62.9932 65.0687L64.7329 66.0553ZM148.962 88.8674L147.185 89.7844C128.369 53.3133 108.042 34.6176 89.4695 27.2237C70.9674 19.8578 53.9336 23.5944 41.2698 32.5919C28.5381 41.6377 20.3049 55.9432 19.4614 69.5478C19.0413 76.3245 20.4526 82.8964 24.0078 88.5998C27.559 94.2967 33.3241 99.2474 41.8145 102.666L41.0675 104.521L40.3205 106.377C31.1469 102.683 24.6685 97.2212 20.6133 90.7158C16.5622 84.2168 15.0043 76.7964 15.4691 69.3002C16.3955 54.3592 25.3482 38.9973 38.953 29.3312C52.6257 19.6168 71.079 15.5969 90.949 23.5073C110.748 31.3896 131.678 51.0028 150.739 87.9505L148.962 88.8674ZM41.0675 104.521L41.8145 102.666C66.6989 112.686 84.3416 111.059 94.9975 104.033C105.605 97.0384 109.882 84.3009 107.265 70.6609L109.23 70.2841L111.194 69.9074C114.045 84.7736 109.44 99.3012 97.1993 107.372C85.0067 115.411 65.8343 116.65 40.3205 106.377L41.0675 104.521ZM109.23 70.2841L107.265 70.6609C106.313 65.6979 102.739 59.8135 97.4231 54.3514C92.1404 48.9239 85.3226 44.107 78.1913 41.2003C71.0456 38.2879 63.7696 37.3629 57.4324 39.4141C51.1756 41.4393 45.4861 46.4784 41.6455 56.2302L39.7846 55.4973L37.9237 54.7645C42.1125 44.1286 48.5906 38.0717 56.2006 35.6085C63.7303 33.1713 72.0204 34.3657 79.7011 37.4962C87.396 40.6326 94.6647 45.7825 100.289 51.5615C105.881 57.3061 110.035 63.868 111.194 69.9074L109.23 70.2841ZM39.7846 55.4973L41.6455 56.2302C37.6493 66.377 38.231 73.8581 41.0337 79.186C43.8587 84.5564 49.145 88.1311 55.3187 90.0128C61.4941 91.895 68.3511 92.0119 73.9681 90.6453C79.69 89.2532 83.5638 86.488 84.7293 83.1167L86.6195 83.7701L88.5098 84.4236C86.6782 89.7217 81.1263 93.0204 74.9136 94.5319C68.5959 96.069 61.0096 95.929 54.1525 93.839C47.2939 91.7486 40.9589 87.6357 37.4936 81.0482C34.006 74.4183 33.6283 65.6712 37.9237 54.7645L39.7846 55.4973ZM86.6195 83.7701L84.8522 82.834C86.0794 80.517 86.0915 77.4298 85.0095 74.1159C83.9352 70.8258 81.8569 67.5717 79.3314 65.1496C76.7774 62.7004 73.9915 61.3075 71.5384 61.2736C69.2657 61.2423 66.821 62.3735 64.7329 66.0553L62.9932 65.0687L61.2535 64.0821C63.9036 59.4093 67.5664 57.2184 71.5936 57.274C75.4404 57.3271 79.1466 59.4303 82.1 62.2627C85.0817 65.1222 87.5258 68.9353 88.8119 72.8744C90.0903 76.7896 90.3006 81.0935 88.3869 84.7063L86.6195 83.7701Z" fill="#CC9157" fill-opacity="0.5"/>
</g>
<defs>
<clipPath id="clip0_126_200">
<rect width="329" height="254" fill="white"/>
</clipPath>
</defs>
</svg>
