<svg width="290" height="589" viewBox="0 0 290 589" fill="none" xmlns="http://www.w3.org/2000/svg">
<g clip-path="url(#clip0_94_131)">
<g filter="url(#filter0_d_94_131)">
<path d="M45.9283 90.0728C42.102 92.2819 40.791 97.1746 43.0001 101.001L240.651 443.342L412.916 741.714C415.125 745.541 420.018 746.852 423.844 744.642L756.525 552.569C760.351 550.36 761.662 545.467 759.453 541.641L574.495 221.284L389.537 -99.0722C387.328 -102.899 382.435 -104.21 378.609 -102L45.9283 90.0728Z" fill="#634840"/>
</g>
<g filter="url(#filter1_d_94_131)">
<path d="M303.975 219.024C311.628 214.606 314.25 204.821 309.832 197.168L229.5 58.0297C225.082 50.3771 215.297 47.755 207.644 52.1733L119.845 102.864C112.192 107.282 109.57 117.068 113.988 124.721L194.32 263.859C198.738 271.512 208.524 274.134 216.176 269.715L303.975 219.024ZM236.794 202.997C224.792 209.991 209.408 203.926 205.408 190.623L200.435 174.086C199.391 170.612 197.539 167.433 195.031 164.811L183.093 152.332C173.492 142.294 175.799 125.919 187.801 118.925C199.802 111.931 215.187 117.996 219.187 131.299L224.159 147.835C225.204 151.31 227.056 154.489 229.564 157.111L241.501 169.59C251.103 179.628 248.796 196.003 236.794 202.997Z" fill="#725148"/>
</g>
<g filter="url(#filter2_d_94_131)">
<rect width="133.382" height="192.663" rx="16" transform="matrix(0.866025 -0.5 -0.5 -0.866025 356.337 188.794)" fill="#725148"/>
</g>
<g filter="url(#filter3_d_94_131)">
<rect width="133.382" height="192.663" rx="16" transform="matrix(0.866025 -0.5 -0.5 -0.866025 318.743 480.232)" fill="#725148"/>
</g>
</g>
<defs>
<filter id="filter0_d_94_131" x="-8.073" y="-147.074" width="798.599" height="928.789" filterUnits="userSpaceOnUse" color-interpolation-filters="sRGB">
<feFlood flood-opacity="0" result="BackgroundImageFix"/>
<feColorMatrix in="SourceAlpha" type="matrix" values="0 0 0 0 0 0 0 0 0 0 0 0 0 0 0 0 0 0 127 0" result="hardAlpha"/>
<feOffset dx="-10" dy="-4"/>
<feGaussianBlur stdDeviation="20"/>
<feComposite in2="hardAlpha" operator="out"/>
<feColorMatrix type="matrix" values="0 0 0 0 0 0 0 0 0 0 0 0 0 0 0 0 0 0 0.25 0"/>
<feBlend mode="normal" in2="BackgroundImageFix" result="effect1_dropShadow_94_131"/>
<feBlend mode="normal" in="SourceGraphic" in2="effect1_dropShadow_94_131" result="shape"/>
</filter>
<filter id="filter1_d_94_131" x="96.842" y="35.0269" width="230.136" height="251.835" filterUnits="userSpaceOnUse" color-interpolation-filters="sRGB">
<feFlood flood-opacity="0" result="BackgroundImageFix"/>
<feColorMatrix in="SourceAlpha" type="matrix" values="0 0 0 0 0 0 0 0 0 0 0 0 0 0 0 0 0 0 127 0" result="hardAlpha"/>
<feOffset/>
<feGaussianBlur stdDeviation="7.5"/>
<feComposite in2="hardAlpha" operator="out"/>
<feColorMatrix type="matrix" values="0 0 0 0 0 0 0 0 0 0 0 0 0 0 0 0 0 0 0.25 0"/>
<feBlend mode="normal" in2="BackgroundImageFix" result="effect1_dropShadow_94_131"/>
<feBlend mode="normal" in="SourceGraphic" in2="effect1_dropShadow_94_131" result="shape"/>
</filter>
<filter id="filter2_d_94_131" x="250.859" y="-53.8945" width="230.136" height="251.835" filterUnits="userSpaceOnUse" color-interpolation-filters="sRGB">
<feFlood flood-opacity="0" result="BackgroundImageFix"/>
<feColorMatrix in="SourceAlpha" type="matrix" values="0 0 0 0 0 0 0 0 0 0 0 0 0 0 0 0 0 0 127 0" result="hardAlpha"/>
<feOffset/>
<feGaussianBlur stdDeviation="7.5"/>
<feComposite in2="hardAlpha" operator="out"/>
<feColorMatrix type="matrix" values="0 0 0 0 0 0 0 0 0 0 0 0 0 0 0 0 0 0 0.25 0"/>
<feBlend mode="normal" in2="BackgroundImageFix" result="effect1_dropShadow_94_131"/>
<feBlend mode="normal" in="SourceGraphic" in2="effect1_dropShadow_94_131" result="shape"/>
</filter>
<filter id="filter3_d_94_131" x="213.265" y="237.543" width="230.136" height="251.835" filterUnits="userSpaceOnUse" color-interpolation-filters="sRGB">
<feFlood flood-opacity="0" result="BackgroundImageFix"/>
<feColorMatrix in="SourceAlpha" type="matrix" values="0 0 0 0 0 0 0 0 0 0 0 0 0 0 0 0 0 0 127 0" result="hardAlpha"/>
<feOffset/>
<feGaussianBlur stdDeviation="7.5"/>
<feComposite in2="hardAlpha" operator="out"/>
<feColorMatrix type="matrix" values="0 0 0 0 0 0 0 0 0 0 0 0 0 0 0 0 0 0 0.25 0"/>
<feBlend mode="normal" in2="BackgroundImageFix" result="effect1_dropShadow_94_131"/>
<feBlend mode="normal" in="SourceGraphic" in2="effect1_dropShadow_94_131" result="shape"/>
</filter>
<clipPath id="clip0_94_131">
<rect width="290" height="599" fill="white" transform="translate(0 -10)"/>
</clipPath>
</defs>
</svg>
