<svg width="1903" height="100" viewBox="0 0 1903 100" fill="none" xmlns="http://www.w3.org/2000/svg">
<g clip-path="url(#clip0_94_130)">
<g filter="url(#filter0_d_94_130)">
<path fill-rule="evenodd" clip-rule="evenodd" d="M189.527 22.9181C188.06 19.2159 188.564 15.2208 190.536 12.0916L190.755 12.9047C192.471 19.3062 199.052 23.1048 205.453 21.3895L229.161 15.0369L243.142 11.2913L250.829 30.6921L259.869 53.5103C262.31 59.6717 259.294 66.6459 253.133 69.087L225.121 80.1838C218.96 82.6247 211.987 79.6091 209.546 73.4479L189.527 22.9181Z" fill="#634840"/>
</g>
<g filter="url(#filter1_d_94_130)">
<path d="M220.463 81.8916C216.869 83.3155 212.801 81.5562 211.377 77.962L187.719 18.2481C186.295 14.6539 188.055 10.5859 191.649 9.16197L210.608 1.65079C209.563 3.90712 209.564 6.63573 210.937 9.01499L211.854 10.6015C214.44 15.0815 220.535 15.9659 224.288 12.4053L230.272 6.72667C231.187 5.85819 232.295 5.21822 233.505 4.85969L239.918 2.96093L261.728 58.0136C263.152 61.6078 261.393 65.6758 257.799 67.0998L220.463 81.8916ZM232.686 56.3203C237.503 54.4342 239.291 48.54 236.333 44.2958L231.616 37.528C230.894 36.4928 230.427 35.3017 230.254 34.0517L229.123 25.8803C228.413 20.7558 223.099 17.6423 218.282 19.5283L216.577 20.1964C211.76 22.0824 209.972 27.9758 212.93 32.22L217.647 38.9877C218.368 40.0229 218.835 41.2141 219.008 42.464L220.14 50.6355C220.85 55.76 226.163 58.8735 230.981 56.9874L232.686 56.3203Z" fill="#725148"/>
</g>
<rect width="1903" height="17" fill="#40597C"/>
<g filter="url(#filter2_d_94_130)">
<rect width="1903" height="16" transform="translate(0 16.5015)" fill="#5374A2"/>
</g>
</g>
<defs>
<filter id="filter0_d_94_130" x="163.68" y="-7.7085" width="102.036" height="99.7393" filterUnits="userSpaceOnUse" color-interpolation-filters="sRGB">
<feFlood flood-opacity="0" result="BackgroundImageFix"/>
<feColorMatrix in="SourceAlpha" type="matrix" values="0 0 0 0 0 0 0 0 0 0 0 0 0 0 0 0 0 0 127 0" result="hardAlpha"/>
<feOffset dx="-10" dy="-4"/>
<feGaussianBlur stdDeviation="7.5"/>
<feComposite in2="hardAlpha" operator="out"/>
<feColorMatrix type="matrix" values="0 0 0 0 0 0 0 0 0 0 0 0 0 0 0 0 0 0 0.25 0"/>
<feBlend mode="normal" in2="BackgroundImageFix" result="effect1_dropShadow_94_130"/>
<feBlend mode="normal" in="SourceGraphic" in2="effect1_dropShadow_94_130" result="shape"/>
</filter>
<filter id="filter1_d_94_130" x="172.225" y="-13.3491" width="104.997" height="110.735" filterUnits="userSpaceOnUse" color-interpolation-filters="sRGB">
<feFlood flood-opacity="0" result="BackgroundImageFix"/>
<feColorMatrix in="SourceAlpha" type="matrix" values="0 0 0 0 0 0 0 0 0 0 0 0 0 0 0 0 0 0 127 0" result="hardAlpha"/>
<feOffset/>
<feGaussianBlur stdDeviation="7.5"/>
<feComposite in2="hardAlpha" operator="out"/>
<feColorMatrix type="matrix" values="0 0 0 0 0 0 0 0 0 0 0 0 0 0 0 0 0 0 0.25 0"/>
<feBlend mode="normal" in2="BackgroundImageFix" result="effect1_dropShadow_94_130"/>
<feBlend mode="normal" in="SourceGraphic" in2="effect1_dropShadow_94_130" result="shape"/>
</filter>
<filter id="filter2_d_94_130" x="-4" y="8.50146" width="1911" height="24" filterUnits="userSpaceOnUse" color-interpolation-filters="sRGB">
<feFlood flood-opacity="0" result="BackgroundImageFix"/>
<feColorMatrix in="SourceAlpha" type="matrix" values="0 0 0 0 0 0 0 0 0 0 0 0 0 0 0 0 0 0 127 0" result="hardAlpha"/>
<feOffset dy="-4"/>
<feGaussianBlur stdDeviation="2"/>
<feComposite in2="hardAlpha" operator="out"/>
<feColorMatrix type="matrix" values="0 0 0 0 0 0 0 0 0 0 0 0 0 0 0 0 0 0 0.25 0"/>
<feBlend mode="normal" in2="BackgroundImageFix" result="effect1_dropShadow_94_130"/>
<feBlend mode="normal" in="SourceGraphic" in2="effect1_dropShadow_94_130" result="shape"/>
</filter>
<clipPath id="clip0_94_130">
<rect width="1903" height="100" fill="white"/>
</clipPath>
</defs>
</svg>
