<svg width="157" height="315" viewBox="0 0 157 315" fill="none" xmlns="http://www.w3.org/2000/svg">
<g clip-path="url(#clip0_98_132)">
<g filter="url(#filter0_d_98_132)">
<path d="M247.243 199.766C248.678 198.937 249.17 197.102 248.341 195.668L195.232 103.679L148.997 23.5982C148.168 22.1633 146.334 21.6717 144.899 22.5001L56.2485 73.6824C54.8136 74.5108 54.322 76.3456 55.1504 77.7804L104.823 163.815L154.495 249.85C155.323 251.285 157.158 251.776 158.593 250.948L247.243 199.766Z" fill="#634840"/>
</g>
<g filter="url(#filter1_d_98_132)">
<rect width="36.1215" height="52.1755" rx="4" transform="matrix(-0.866025 0.5 0.5 0.866025 178.198 96.0601)" fill="#725148"/>
</g>
<g filter="url(#filter2_d_98_132)">
<rect width="36.1215" height="52.1755" rx="4" transform="matrix(-0.866025 0.5 0.5 0.866025 102.374 61.0527)" fill="#725148"/>
</g>
<g filter="url(#filter3_d_98_132)">
<rect width="36.1215" height="52.1755" rx="1" transform="matrix(-0.866025 0.5 0.5 0.866025 167.603 176.229)" fill="#725148"/>
</g>
<g filter="url(#filter4_d_98_132)">
<path d="M108.671 136.202C106.757 137.306 106.102 139.753 107.206 141.666L129.294 179.923C130.399 181.836 132.845 182.492 134.758 181.387L159.112 167.327C161.025 166.222 161.681 163.776 160.576 161.863L138.488 123.605C137.384 121.692 134.937 121.037 133.024 122.141L108.671 136.202ZM128.565 157.093C128.642 157.07 128.717 157.038 128.787 156.998L140.742 150.096C140.812 150.056 140.877 150.006 140.935 149.951L141.042 149.847L144.478 153.32C144.755 153.599 144.842 154.016 144.701 154.383L141.21 163.452C141.04 163.892 140.586 164.154 140.121 164.081L130.52 162.57C130.132 162.509 129.815 162.225 129.712 161.845L128.423 157.133L128.565 157.093ZM121.857 133.125C121.586 132.133 122.809 131.427 123.532 132.158L138.56 147.341L127.492 153.731L121.857 133.125Z" fill="#725148"/>
</g>
<g filter="url(#filter5_d_98_132)">
<path d="M116.406 53.4556C114.493 54.5601 113.837 57.0065 114.942 58.9197L136.143 95.6412C137.248 97.5541 139.694 98.2098 141.607 97.1053L164.898 83.6585C166.811 82.554 167.466 80.1075 166.362 78.1944L145.161 41.4729C144.056 39.5597 141.61 38.9042 139.697 40.0088L116.406 53.4556ZM134.142 57.5559C137.282 55.7262 141.306 57.3126 142.353 60.7925L143.517 64.6633C143.881 65.8718 144.524 66.9773 145.397 67.8892L148.19 70.8104C150.702 73.4363 150.099 77.7191 146.959 79.5489C143.82 81.3786 139.794 79.7927 138.748 76.3128L137.585 72.4423C137.221 71.2337 136.577 70.1276 135.705 69.2156L132.91 66.2957C130.399 63.6697 131.002 59.3856 134.142 57.5559Z" fill="#725148"/>
</g>
<g filter="url(#filter6_d_98_132)">
<path d="M27.1308 174.459C25.9545 175.626 25.9469 177.525 27.1137 178.702L99.3051 251.475L162.143 314.819C163.309 315.995 165.209 316.003 166.385 314.836L236.443 245.339C237.619 244.172 237.627 242.272 236.46 241.096L168.945 173.037L101.431 104.979C100.264 103.802 98.3646 103.795 97.1883 104.962L27.1308 174.459Z" fill="#634840"/>
</g>
<g filter="url(#filter7_d_98_132)">
<rect width="34.8937" height="50.402" rx="4" transform="matrix(0.70994 -0.704263 -0.704263 -0.70994 124.634 260.46)" fill="#725148"/>
</g>
<g filter="url(#filter8_d_98_132)">
<path d="M100.148 191.911C101.716 190.355 101.726 187.822 100.171 186.254L70.3082 156.151C68.7524 154.583 66.2197 154.572 64.6514 156.128L45.5586 175.068C43.9904 176.624 43.9804 179.157 45.5359 180.725L75.3983 210.828C76.9541 212.397 79.4868 212.407 81.0551 210.851L100.148 191.911ZM81.9527 192.468C79.3833 195.037 75.0876 194.529 73.1884 191.431L71.0754 187.985C70.4159 186.909 69.5116 186.004 68.4357 185.345L64.9894 183.233C61.8913 181.334 61.3831 177.039 63.9522 174.469C66.5217 171.899 70.8181 172.406 72.7172 175.505L74.8288 178.951C75.4884 180.027 76.3931 180.932 77.4692 181.591L80.9155 183.702C84.0139 185.601 84.5222 189.898 81.9527 192.468Z" fill="#725148"/>
</g>
<g filter="url(#filter9_d_98_132)">
<path d="M179.596 205.938C181.164 204.382 181.174 201.849 179.619 200.281L149.756 170.178C148.2 168.61 145.668 168.599 144.099 170.155L125.007 189.095C123.438 190.651 123.428 193.184 124.984 194.752L154.846 224.855C156.402 226.423 158.935 226.434 160.503 224.878L179.596 205.938ZM161.401 206.494C158.831 209.064 154.536 208.556 152.636 205.458L150.523 202.012C149.864 200.936 148.96 200.031 147.884 199.372L144.437 197.259C141.339 195.36 140.831 191.065 143.4 188.496C145.97 185.926 150.266 186.433 152.165 189.531L154.277 192.977C154.936 194.054 155.841 194.959 156.917 195.618L160.363 197.729C163.462 199.628 163.97 203.925 161.401 206.494Z" fill="#725148"/>
</g>
<g filter="url(#filter10_d_98_132)">
<path d="M192.023 284.457C193.591 282.901 193.601 280.368 192.046 278.8L162.183 248.697C160.627 247.129 158.095 247.118 156.526 248.674L137.434 267.614C135.865 269.17 135.855 271.703 137.411 273.271L167.273 303.374C168.829 304.942 171.362 304.953 172.93 303.397L192.023 284.457ZM173.828 285.013C171.258 287.583 166.962 287.075 165.063 283.977L162.95 280.531C162.291 279.455 161.387 278.55 160.311 277.891L156.864 275.778C153.766 273.88 153.258 269.584 155.827 267.015C158.397 264.445 162.693 264.952 164.592 268.051L166.704 271.497C167.363 272.573 168.268 273.478 169.344 274.137L172.79 276.248C175.889 278.147 176.397 282.444 173.828 285.013Z" fill="#725148"/>
</g>
<g filter="url(#filter11_d_98_132)">
<rect width="34.8937" height="50.402" rx="4" transform="matrix(0.70994 -0.704263 -0.704263 -0.70994 111.245 180.902)" fill="#725148"/>
</g>
</g>
<defs>
<filter id="filter0_d_98_132" x="29.748" y="-2.90234" width="223.996" height="259.252" filterUnits="userSpaceOnUse" color-interpolation-filters="sRGB">
<feFlood flood-opacity="0" result="BackgroundImageFix"/>
<feColorMatrix in="SourceAlpha" type="matrix" values="0 0 0 0 0 0 0 0 0 0 0 0 0 0 0 0 0 0 127 0" result="hardAlpha"/>
<feOffset dx="-10" dy="-10"/>
<feGaussianBlur stdDeviation="7.5"/>
<feComposite in2="hardAlpha" operator="out"/>
<feColorMatrix type="matrix" values="0 0 0 0 0 0 0 0 0 0 0 0 0 0 0 0 0 0 0.25 0"/>
<feBlend mode="normal" in2="BackgroundImageFix" result="effect1_dropShadow_98_132"/>
<feBlend mode="normal" in="SourceGraphic" in2="effect1_dropShadow_98_132" result="shape"/>
</filter>
<filter id="filter1_d_98_132" x="133.379" y="82.5234" width="84.4431" height="90.3193" filterUnits="userSpaceOnUse" color-interpolation-filters="sRGB">
<feFlood flood-opacity="0" result="BackgroundImageFix"/>
<feColorMatrix in="SourceAlpha" type="matrix" values="0 0 0 0 0 0 0 0 0 0 0 0 0 0 0 0 0 0 127 0" result="hardAlpha"/>
<feOffset/>
<feGaussianBlur stdDeviation="7.5"/>
<feComposite in2="hardAlpha" operator="out"/>
<feColorMatrix type="matrix" values="0 0 0 0 0 0 0 0 0 0 0 0 0 0 0 0 0 0 0.25 0"/>
<feBlend mode="normal" in2="BackgroundImageFix" result="effect1_dropShadow_98_132"/>
<feBlend mode="normal" in="SourceGraphic" in2="effect1_dropShadow_98_132" result="shape"/>
</filter>
<filter id="filter2_d_98_132" x="57.5548" y="47.5161" width="84.4431" height="90.3193" filterUnits="userSpaceOnUse" color-interpolation-filters="sRGB">
<feFlood flood-opacity="0" result="BackgroundImageFix"/>
<feColorMatrix in="SourceAlpha" type="matrix" values="0 0 0 0 0 0 0 0 0 0 0 0 0 0 0 0 0 0 127 0" result="hardAlpha"/>
<feOffset/>
<feGaussianBlur stdDeviation="7.5"/>
<feComposite in2="hardAlpha" operator="out"/>
<feColorMatrix type="matrix" values="0 0 0 0 0 0 0 0 0 0 0 0 0 0 0 0 0 0 0.25 0"/>
<feBlend mode="normal" in2="BackgroundImageFix" result="effect1_dropShadow_98_132"/>
<feBlend mode="normal" in="SourceGraphic" in2="effect1_dropShadow_98_132" result="shape"/>
</filter>
<filter id="filter3_d_98_132" x="121.687" y="161.595" width="86.6382" height="92.5146" filterUnits="userSpaceOnUse" color-interpolation-filters="sRGB">
<feFlood flood-opacity="0" result="BackgroundImageFix"/>
<feColorMatrix in="SourceAlpha" type="matrix" values="0 0 0 0 0 0 0 0 0 0 0 0 0 0 0 0 0 0 127 0" result="hardAlpha"/>
<feOffset/>
<feGaussianBlur stdDeviation="7.5"/>
<feComposite in2="hardAlpha" operator="out"/>
<feColorMatrix type="matrix" values="0 0 0 0 0 0 0 0 0 0 0 0 0 0 0 0 0 0 0.25 0"/>
<feBlend mode="normal" in2="BackgroundImageFix" result="effect1_dropShadow_98_132"/>
<feBlend mode="normal" in="SourceGraphic" in2="effect1_dropShadow_98_132" result="shape"/>
</filter>
<filter id="filter4_d_98_132" x="91.6699" y="106.604" width="84.4427" height="90.3193" filterUnits="userSpaceOnUse" color-interpolation-filters="sRGB">
<feFlood flood-opacity="0" result="BackgroundImageFix"/>
<feColorMatrix in="SourceAlpha" type="matrix" values="0 0 0 0 0 0 0 0 0 0 0 0 0 0 0 0 0 0 127 0" result="hardAlpha"/>
<feOffset/>
<feGaussianBlur stdDeviation="7.5"/>
<feComposite in2="hardAlpha" operator="out"/>
<feColorMatrix type="matrix" values="0 0 0 0 0 0 0 0 0 0 0 0 0 0 0 0 0 0 0.25 0"/>
<feBlend mode="normal" in2="BackgroundImageFix" result="effect1_dropShadow_98_132"/>
<feBlend mode="normal" in="SourceGraphic" in2="effect1_dropShadow_98_132" result="shape"/>
</filter>
<filter id="filter5_d_98_132" x="99.4055" y="24.4722" width="82.4929" height="88.1694" filterUnits="userSpaceOnUse" color-interpolation-filters="sRGB">
<feFlood flood-opacity="0" result="BackgroundImageFix"/>
<feColorMatrix in="SourceAlpha" type="matrix" values="0 0 0 0 0 0 0 0 0 0 0 0 0 0 0 0 0 0 127 0" result="hardAlpha"/>
<feOffset/>
<feGaussianBlur stdDeviation="7.5"/>
<feComposite in2="hardAlpha" operator="out"/>
<feColorMatrix type="matrix" values="0 0 0 0 0 0 0 0 0 0 0 0 0 0 0 0 0 0 0.25 0"/>
<feBlend mode="normal" in2="BackgroundImageFix" result="effect1_dropShadow_98_132"/>
<feBlend mode="normal" in="SourceGraphic" in2="effect1_dropShadow_98_132" result="shape"/>
</filter>
<filter id="filter6_d_98_132" x="1.24356" y="85.0913" width="241.086" height="241.615" filterUnits="userSpaceOnUse" color-interpolation-filters="sRGB">
<feFlood flood-opacity="0" result="BackgroundImageFix"/>
<feColorMatrix in="SourceAlpha" type="matrix" values="0 0 0 0 0 0 0 0 0 0 0 0 0 0 0 0 0 0 127 0" result="hardAlpha"/>
<feOffset dx="-10" dy="-4"/>
<feGaussianBlur stdDeviation="7.5"/>
<feComposite in2="hardAlpha" operator="out"/>
<feColorMatrix type="matrix" values="0 0 0 0 0 0 0 0 0 0 0 0 0 0 0 0 0 0 0.25 0"/>
<feBlend mode="normal" in2="BackgroundImageFix" result="effect1_dropShadow_98_132"/>
<feBlend mode="normal" in="SourceGraphic" in2="effect1_dropShadow_98_132" result="shape"/>
</filter>
<filter id="filter7_d_98_132" x="75.7941" y="186.761" width="86.955" height="87.043" filterUnits="userSpaceOnUse" color-interpolation-filters="sRGB">
<feFlood flood-opacity="0" result="BackgroundImageFix"/>
<feColorMatrix in="SourceAlpha" type="matrix" values="0 0 0 0 0 0 0 0 0 0 0 0 0 0 0 0 0 0 127 0" result="hardAlpha"/>
<feOffset/>
<feGaussianBlur stdDeviation="7.5"/>
<feComposite in2="hardAlpha" operator="out"/>
<feColorMatrix type="matrix" values="0 0 0 0 0 0 0 0 0 0 0 0 0 0 0 0 0 0 0.25 0"/>
<feBlend mode="normal" in2="BackgroundImageFix" result="effect1_dropShadow_98_132"/>
<feBlend mode="normal" in="SourceGraphic" in2="effect1_dropShadow_98_132" result="shape"/>
</filter>
<filter id="filter8_d_98_132" x="29.3758" y="139.968" width="86.955" height="87.043" filterUnits="userSpaceOnUse" color-interpolation-filters="sRGB">
<feFlood flood-opacity="0" result="BackgroundImageFix"/>
<feColorMatrix in="SourceAlpha" type="matrix" values="0 0 0 0 0 0 0 0 0 0 0 0 0 0 0 0 0 0 127 0" result="hardAlpha"/>
<feOffset/>
<feGaussianBlur stdDeviation="7.5"/>
<feComposite in2="hardAlpha" operator="out"/>
<feColorMatrix type="matrix" values="0 0 0 0 0 0 0 0 0 0 0 0 0 0 0 0 0 0 0.25 0"/>
<feBlend mode="normal" in2="BackgroundImageFix" result="effect1_dropShadow_98_132"/>
<feBlend mode="normal" in="SourceGraphic" in2="effect1_dropShadow_98_132" result="shape"/>
</filter>
<filter id="filter9_d_98_132" x="108.824" y="153.995" width="86.955" height="87.043" filterUnits="userSpaceOnUse" color-interpolation-filters="sRGB">
<feFlood flood-opacity="0" result="BackgroundImageFix"/>
<feColorMatrix in="SourceAlpha" type="matrix" values="0 0 0 0 0 0 0 0 0 0 0 0 0 0 0 0 0 0 127 0" result="hardAlpha"/>
<feOffset/>
<feGaussianBlur stdDeviation="7.5"/>
<feComposite in2="hardAlpha" operator="out"/>
<feColorMatrix type="matrix" values="0 0 0 0 0 0 0 0 0 0 0 0 0 0 0 0 0 0 0.25 0"/>
<feBlend mode="normal" in2="BackgroundImageFix" result="effect1_dropShadow_98_132"/>
<feBlend mode="normal" in="SourceGraphic" in2="effect1_dropShadow_98_132" result="shape"/>
</filter>
<filter id="filter10_d_98_132" x="121.251" y="232.514" width="86.955" height="87.043" filterUnits="userSpaceOnUse" color-interpolation-filters="sRGB">
<feFlood flood-opacity="0" result="BackgroundImageFix"/>
<feColorMatrix in="SourceAlpha" type="matrix" values="0 0 0 0 0 0 0 0 0 0 0 0 0 0 0 0 0 0 127 0" result="hardAlpha"/>
<feOffset/>
<feGaussianBlur stdDeviation="7.5"/>
<feComposite in2="hardAlpha" operator="out"/>
<feColorMatrix type="matrix" values="0 0 0 0 0 0 0 0 0 0 0 0 0 0 0 0 0 0 0.25 0"/>
<feBlend mode="normal" in2="BackgroundImageFix" result="effect1_dropShadow_98_132"/>
<feBlend mode="normal" in="SourceGraphic" in2="effect1_dropShadow_98_132" result="shape"/>
</filter>
<filter id="filter11_d_98_132" x="62.406" y="107.203" width="86.955" height="87.043" filterUnits="userSpaceOnUse" color-interpolation-filters="sRGB">
<feFlood flood-opacity="0" result="BackgroundImageFix"/>
<feColorMatrix in="SourceAlpha" type="matrix" values="0 0 0 0 0 0 0 0 0 0 0 0 0 0 0 0 0 0 127 0" result="hardAlpha"/>
<feOffset/>
<feGaussianBlur stdDeviation="7.5"/>
<feComposite in2="hardAlpha" operator="out"/>
<feColorMatrix type="matrix" values="0 0 0 0 0 0 0 0 0 0 0 0 0 0 0 0 0 0 0.25 0"/>
<feBlend mode="normal" in2="BackgroundImageFix" result="effect1_dropShadow_98_132"/>
<feBlend mode="normal" in="SourceGraphic" in2="effect1_dropShadow_98_132" result="shape"/>
</filter>
<clipPath id="clip0_98_132">
<rect width="157" height="315" fill="white"/>
</clipPath>
</defs>
</svg>
