<svg width="105" height="20" viewBox="0 0 105 20" fill="none" xmlns="http://www.w3.org/2000/svg">
<path d="M100 0C102.761 0 105 2.23858 105 5V5.6748C102.94 6.05209 101.339 6.40336 100.125 6.7373C98.7518 7.11495 97.8244 7.47853 97.2832 7.84375C97.0163 8.02394 96.7776 8.2475 96.6699 8.53516C96.5458 8.86723 96.6315 9.18101 96.8125 9.4209C96.9753 9.63659 97.2167 9.80091 97.4619 9.92969C97.7155 10.0628 98.0181 10.1816 98.3457 10.2881C99.6456 10.7105 101.563 11.0117 103.126 11.207C103.847 11.2972 104.502 11.3651 105 11.4131V15C105 17.2506 103.513 19.1531 101.468 19.7803C101.402 19.757 101.335 19.7341 101.267 19.7119C99.9668 19.2895 98.0488 18.9883 96.4863 18.793C95.6991 18.6946 94.9909 18.6214 94.4795 18.5732C94.2241 18.5492 94.0172 18.5315 93.874 18.5195C93.8026 18.5136 93.7459 18.5089 93.708 18.5059C93.6894 18.5044 93.6749 18.5037 93.665 18.5029C93.6603 18.5026 93.6559 18.5022 93.6533 18.502H93.6504L93.6494 18.501C93.3741 18.4804 93.1339 18.6876 93.1133 18.9629C93.0928 19.2381 93.2999 19.4784 93.5752 19.499H93.5781C93.5803 19.4992 93.5837 19.4997 93.5879 19.5C93.5971 19.5007 93.6118 19.5015 93.6299 19.5029C93.6664 19.5058 93.7205 19.5098 93.79 19.5156C93.9301 19.5273 94.1339 19.5456 94.3857 19.5693C94.8898 19.6168 95.5877 19.6883 96.3623 19.7852C96.8544 19.8467 97.3731 19.9192 97.8906 20H90.7178C90.5188 19.9473 90.3302 19.8937 90.1553 19.8369C89.8583 19.7404 89.6135 19.6424 89.4277 19.5449C89.27 19.4621 89.181 19.3926 89.1357 19.3467C89.1662 19.3108 89.227 19.2507 89.3438 19.1719C89.7403 18.9044 90.5315 18.5762 91.8916 18.2021C93.2374 17.8321 95.0952 17.4282 97.5869 16.9922C97.8587 16.9445 98.0406 16.6859 97.9932 16.4141C97.9456 16.1422 97.6869 15.9604 97.415 16.0078C94.9072 16.4467 93.0144 16.8555 91.626 17.2373C90.2528 17.615 89.3254 17.9785 88.7842 18.3438C88.5173 18.5239 88.2786 18.7475 88.1709 19.0352C88.0468 19.3671 88.1317 19.6811 88.3125 19.9209C88.3331 19.9481 88.355 19.9744 88.3779 20H66.2354C66.0766 19.8226 65.8647 19.6829 65.6504 19.5703C65.3968 19.4372 65.0942 19.3184 64.7666 19.2119C63.4668 18.7895 61.5488 18.4883 59.9863 18.293C59.1991 18.1946 58.4909 18.1214 57.9795 18.0732C57.7241 18.0492 57.5172 18.0315 57.374 18.0195C57.3026 18.0136 57.2459 18.0089 57.208 18.0059C57.1894 18.0044 57.1748 18.0037 57.165 18.0029C57.1603 18.0026 57.1559 18.0022 57.1533 18.002C57.1523 18.0019 57.1511 18.002 57.1504 18.002L57.1494 18.001C56.8741 17.9804 56.6339 18.1876 56.6133 18.4629C56.5928 18.7381 56.7999 18.9784 57.0752 18.999H57.0781C57.0803 18.9992 57.0837 18.9997 57.0879 19C57.0971 19.0007 57.1118 19.0015 57.1299 19.0029C57.1664 19.0058 57.2205 19.0098 57.29 19.0156C57.4301 19.0273 57.6339 19.0456 57.8857 19.0693C58.3898 19.1168 59.0877 19.1883 59.8623 19.2852C61.1967 19.452 62.7282 19.6912 63.8945 20H56.7217C55.5962 19.8242 54.4772 19.604 53.6553 19.3369C53.3583 19.2404 53.1135 19.1424 52.9277 19.0449C52.77 18.9621 52.681 18.8926 52.6357 18.8467C52.6662 18.8108 52.727 18.7507 52.8438 18.6719C53.2403 18.4044 54.0315 18.0762 55.3916 17.7021C56.7374 17.3321 58.5952 16.9282 61.0869 16.4922C61.3587 16.4445 61.5406 16.1859 61.4932 15.9141C61.4456 15.6422 61.1869 15.4604 60.915 15.5078C58.4072 15.9467 56.5144 16.3555 55.126 16.7373C53.7528 17.115 52.8254 17.4785 52.2842 17.8438C52.0172 18.0239 51.7786 18.2475 51.6709 18.5352C51.5468 18.8671 51.6317 19.1811 51.8125 19.4209C51.9754 19.6366 52.2176 19.8009 52.4629 19.9297C52.509 19.9539 52.5572 19.9767 52.6064 20H26.4258C26.6039 19.8503 26.7525 19.6747 26.8311 19.4648C26.9551 19.133 26.8693 18.8189 26.6885 18.5791C26.5256 18.3633 26.2834 18.1991 26.0381 18.0703C25.7847 17.9373 25.4827 17.8183 25.1553 17.7119C23.8555 17.2895 21.9375 16.9883 20.375 16.793C19.5876 16.6945 18.8786 16.6214 18.3672 16.5732C18.1117 16.5492 17.9048 16.5315 17.7617 16.5195C17.6904 16.5136 17.6346 16.5089 17.5967 16.5059C17.5779 16.5044 17.5626 16.5037 17.5527 16.5029C17.5482 16.5026 17.5445 16.5022 17.542 16.502H17.5391L17.5381 16.501C17.2627 16.4803 17.0226 16.6875 17.002 16.9629C16.9815 17.2381 17.1876 17.4784 17.4629 17.499H17.4658C17.4681 17.4992 17.4721 17.4997 17.4766 17.5C17.4858 17.5007 17.4997 17.5015 17.5176 17.5029C17.5541 17.5058 17.6089 17.5098 17.6787 17.5156C17.8187 17.5273 18.0219 17.5456 18.2734 17.5693C18.7776 17.6168 19.4761 17.6883 20.251 17.7852C21.8133 17.9805 23.6457 18.2731 24.8457 18.6631C25.1427 18.7596 25.3875 18.8576 25.5732 18.9551C25.7297 19.0372 25.8187 19.1064 25.8643 19.1523C25.8338 19.1882 25.7748 19.2494 25.6582 19.3281C25.3705 19.5223 24.8741 19.7476 24.1035 20H5C3.02418 20 1.3159 18.854 0.503906 17.1904C0.544794 17.1956 0.585548 17.202 0.625977 17.207C1.41318 17.3054 2.12146 17.3786 2.63281 17.4268C2.88854 17.4509 3.09615 17.4685 3.23926 17.4805C3.31052 17.4864 3.36647 17.4911 3.4043 17.4941C3.42291 17.4956 3.43748 17.4963 3.44727 17.4971C3.4521 17.4974 3.45645 17.4979 3.45898 17.498C3.46006 17.4981 3.46132 17.498 3.46191 17.498L3.46289 17.499C3.73812 17.5195 3.97838 17.3124 3.99902 17.0371C4.01948 16.7621 3.81301 16.522 3.53809 16.501H3.53418C3.53201 16.5008 3.52859 16.5003 3.52441 16.5C3.51526 16.4993 3.50057 16.4985 3.48242 16.4971C3.44597 16.4942 3.39181 16.4902 3.32227 16.4844C3.18226 16.4727 2.97843 16.4544 2.72656 16.4307C2.22254 16.3832 1.52467 16.3117 0.75 16.2148C0.546794 16.1894 0.339285 16.1586 0.128906 16.1299C0.0683851 15.8679 0.0282966 15.5982 0.0107422 15.3223C2.06539 14.9457 3.66282 14.596 4.875 14.2627C6.24824 13.885 7.17569 13.5215 7.7168 13.1562C7.98369 12.9761 8.2224 12.7525 8.33008 12.4648C8.45408 12.133 8.3692 11.8189 8.18848 11.5791C8.02567 11.3634 7.78333 11.1991 7.53809 11.0703C7.28452 10.9372 6.9819 10.8184 6.6543 10.7119C5.35445 10.2895 3.43653 9.98829 1.87402 9.79297C1.15289 9.70283 0.497943 9.63392 0 9.58594V5C0 3.36503 0.784677 1.91327 1.99805 1.00098C2.21846 1.10509 2.46771 1.20141 2.73438 1.28809C4.03428 1.71052 5.95215 2.01172 7.51465 2.20703C8.30182 2.30542 9.0101 2.37857 9.52148 2.42676C9.77721 2.45085 9.98482 2.4685 10.1279 2.48047C10.1993 2.48644 10.2551 2.49115 10.293 2.49414C10.3115 2.49561 10.3261 2.49631 10.3359 2.49707C10.3408 2.49744 10.3451 2.49785 10.3477 2.49805C10.3489 2.49822 10.3509 2.49897 10.3516 2.49902L10.4531 2.49609C10.6837 2.4665 10.8696 2.27794 10.8877 2.03711C10.9082 1.762 10.7018 1.52183 10.4268 1.50098H10.4238C10.4216 1.50081 10.4176 1.50035 10.4131 1.5C10.404 1.4993 10.39 1.49849 10.3721 1.49707C10.3356 1.49418 10.2808 1.49022 10.2109 1.48438C10.071 1.47267 9.8678 1.45437 9.61621 1.43066C9.11211 1.38316 8.41359 1.3117 7.63867 1.21484C6.11304 1.02414 4.3303 0.738678 3.12988 0.362305C3.70766 0.129099 4.33869 1.20537e-08 5 0H6.47656C6.48576 0.000703845 6.49968 0.00151411 6.51758 0.00292969C6.5541 0.00581691 6.60885 0.00978328 6.67871 0.015625C6.8187 0.027334 7.02192 0.0456358 7.27344 0.0693359C7.77757 0.116843 8.47609 0.188295 9.25098 0.285156C10.8133 0.480457 12.6457 0.773098 13.8457 1.16309C14.1427 1.25962 14.3875 1.35761 14.5732 1.45508C14.7297 1.53721 14.8187 1.60643 14.8643 1.65234C14.8338 1.68816 14.7748 1.74937 14.6582 1.82812C14.2619 2.09563 13.47 2.42366 12.1094 2.79785C10.7636 3.16793 8.90577 3.57176 6.41406 4.00781C6.14216 4.05542 5.96036 4.31403 6.00781 4.58594C6.05543 4.85792 6.31492 5.03979 6.58691 4.99219C9.09444 4.55336 10.9867 4.14448 12.375 3.7627C13.7484 3.38499 14.6766 3.02152 15.2178 2.65625C15.4846 2.47607 15.7235 2.25243 15.8311 1.96484C15.9551 1.63296 15.8693 1.31893 15.6885 1.0791C15.5256 0.863328 15.2834 0.69912 15.0381 0.570312C14.7847 0.437272 14.4827 0.318343 14.1553 0.211914C13.9231 0.13647 13.6703 0.0677957 13.4043 0H41.9141C41.6647 0.115331 41.4549 0.22857 41.2842 0.34375C41.0172 0.523928 40.7786 0.74752 40.6709 1.03516C40.5468 1.36705 40.6317 1.68106 40.8125 1.9209C40.9754 2.13663 41.2176 2.3009 41.4629 2.42969C41.7165 2.5628 42.0191 2.68162 42.3467 2.78809C43.6466 3.21049 45.5645 3.51173 47.127 3.70703C47.9142 3.80543 48.6225 3.87857 49.1338 3.92676C49.3893 3.95083 49.5962 3.9685 49.7393 3.98047C49.8107 3.98644 49.8674 3.99114 49.9053 3.99414C49.9239 3.99561 49.9385 3.99632 49.9482 3.99707C49.9531 3.99745 49.9574 3.99785 49.96 3.99805C49.961 3.9981 49.9623 3.998 49.9629 3.99805V3.99902H49.9639C50.239 4.0194 50.4794 3.81232 50.5 3.53711C50.5205 3.26196 50.3132 3.02174 50.0381 3.00098H50.0352C50.033 3.00081 50.0296 3.00033 50.0254 3C50.0162 2.99929 50.0015 2.9985 49.9834 2.99707C49.947 2.99419 49.8928 2.99019 49.8232 2.98438C49.6832 2.97267 49.4794 2.9544 49.2275 2.93066C48.7235 2.88317 48.0257 2.81167 47.251 2.71484C45.6887 2.51955 43.8554 2.22691 42.6553 1.83691C42.3583 1.74037 42.1135 1.6424 41.9277 1.54492C41.77 1.46213 41.681 1.39262 41.6357 1.34668C41.6662 1.31084 41.727 1.25065 41.8438 1.17188C42.2403 0.904434 43.0315 0.576172 44.3916 0.202148C44.6336 0.135614 44.8922 0.0687032 45.168 0H79.7383C78.8418 0.28528 78.1993 0.563601 77.7842 0.84375C77.5173 1.02393 77.2786 1.24752 77.1709 1.53516C77.0468 1.86705 77.1317 2.18106 77.3125 2.4209C77.4753 2.63662 77.7176 2.8009 77.9629 2.92969C78.2165 3.0628 78.5191 3.18162 78.8467 3.28809C80.1466 3.71049 82.0645 4.01173 83.627 4.20703C84.4142 4.30543 85.1225 4.37857 85.6338 4.42676C85.8893 4.45083 86.0962 4.4685 86.2393 4.48047C86.3107 4.48644 86.3674 4.49114 86.4053 4.49414C86.4239 4.49561 86.4385 4.49632 86.4482 4.49707C86.4531 4.49745 86.4574 4.49785 86.46 4.49805C86.461 4.4981 86.4623 4.498 86.4629 4.49805V4.49902H86.4639C86.739 4.51941 86.9794 4.31232 87 4.03711C87.0205 3.76196 86.8132 3.52174 86.5381 3.50098H86.5352C86.533 3.50081 86.5296 3.50033 86.5254 3.5C86.5162 3.49929 86.5015 3.4985 86.4834 3.49707C86.447 3.49419 86.3928 3.49019 86.3232 3.48438C86.1832 3.47267 85.9794 3.4544 85.7275 3.43066C85.2235 3.38317 84.5257 3.31167 83.751 3.21484C82.1887 3.01955 80.3554 2.72691 79.1553 2.33691C78.8583 2.24037 78.6135 2.1424 78.4277 2.04492C78.2706 1.96242 78.1821 1.89262 78.1367 1.84668C78.1673 1.81079 78.2276 1.7503 78.3438 1.67188C78.7403 1.40443 79.5315 1.07617 80.8916 0.702148C81.6996 0.479961 82.6921 0.246164 83.8955 0H100ZM21.3027 14.0078C18.7952 14.4466 16.903 14.8555 15.5146 15.2373C14.1412 15.615 13.2131 15.9785 12.6719 16.3438C12.405 16.5239 12.1663 16.7475 12.0586 17.0352C11.9345 17.3672 12.0202 17.681 12.2012 17.9209C12.3641 18.1367 12.6062 18.3009 12.8516 18.4297C13.105 18.5627 13.407 18.6817 13.7344 18.7881C15.0343 19.2105 16.9521 19.5117 18.5146 19.707C19.3018 19.8054 20.0101 19.8786 20.5215 19.9268C20.7772 19.9509 20.9848 19.9685 21.1279 19.9805C21.1993 19.9864 21.2551 19.9911 21.293 19.9941C21.3115 19.9956 21.3261 19.9963 21.3359 19.9971C21.3408 19.9974 21.3451 19.9979 21.3477 19.998C21.3489 19.9982 21.3509 19.999 21.3516 19.999L21.4531 19.9961C21.6837 19.9665 21.8696 19.7779 21.8877 19.5371C21.9082 19.262 21.7018 19.0218 21.4268 19.001H21.4238C21.4216 19.0008 21.4176 19.0004 21.4131 19C21.404 18.9993 21.39 18.9985 21.3721 18.9971C21.3356 18.9942 21.2808 18.9902 21.2109 18.9844C21.071 18.9727 20.8678 18.9544 20.6162 18.9307C20.1121 18.8832 19.4136 18.8117 18.6387 18.7148C17.0764 18.5196 15.244 18.2269 14.0439 17.8369C13.7467 17.7403 13.5012 17.6425 13.3154 17.5449C13.1582 17.4623 13.0697 17.3926 13.0244 17.3467C13.055 17.3108 13.115 17.2504 13.2314 17.1719C13.6279 16.9044 14.4191 16.5762 15.7793 16.2021C17.1252 15.832 18.9837 15.4283 21.4756 14.9922C21.7472 14.9444 21.9292 14.6858 21.8818 14.4141C21.8342 14.1421 21.5747 13.9604 21.3027 14.0078ZM79.5264 13.5078C77.0186 13.9467 75.1258 14.3555 73.7373 14.7373C72.3639 15.115 71.4357 15.4785 70.8945 15.8438C70.6277 16.0239 70.3889 16.2476 70.2812 16.5352C70.1572 16.8671 70.243 17.181 70.4238 17.4209C70.5867 17.6367 70.8289 17.8009 71.0742 17.9297C71.3278 18.0628 71.6304 18.1816 71.958 18.2881C73.2578 18.7104 75.175 19.0117 76.7373 19.207C77.5247 19.3055 78.2337 19.3786 78.7451 19.4268C79.0006 19.4508 79.2075 19.4685 79.3506 19.4805C79.4219 19.4864 79.4777 19.4911 79.5156 19.4941C79.5345 19.4956 79.5497 19.4963 79.5596 19.4971C79.5641 19.4974 79.5678 19.4979 79.5703 19.498C79.5713 19.4981 79.5726 19.498 79.5732 19.498L79.5742 19.499H79.5752C79.8503 19.5193 80.0897 19.3122 80.1104 19.0371C80.1283 18.7963 79.9726 18.5831 79.749 18.5195L79.6494 18.501C79.6489 18.5009 79.6475 18.501 79.6465 18.501C79.6443 18.5008 79.6402 18.5004 79.6357 18.5C79.6266 18.4993 79.6126 18.4985 79.5947 18.4971C79.5583 18.4942 79.5034 18.4902 79.4336 18.4844C79.2936 18.4727 79.0904 18.4544 78.8389 18.4307C78.3348 18.3832 77.6362 18.3117 76.8613 18.2148C75.2991 18.0196 73.4666 17.7269 72.2666 17.3369C71.9696 17.2404 71.7248 17.1424 71.5391 17.0449C71.3815 16.9622 71.2924 16.8926 71.2471 16.8467C71.2776 16.8108 71.3375 16.7506 71.4541 16.6719C71.8505 16.4044 72.6423 16.0763 74.0029 15.7021C75.3488 15.3321 77.2065 14.9282 79.6982 14.4922C79.97 14.4445 80.1519 14.1859 80.1045 13.9141C80.0569 13.6423 79.7982 13.4606 79.5264 13.5078ZM43.0264 13.0078C40.5186 13.4467 38.6258 13.8555 37.2373 14.2373C35.8639 14.615 34.9357 14.9785 34.3945 15.3438C34.1277 15.5239 33.8889 15.7476 33.7812 16.0352C33.6572 16.3671 33.7429 16.681 33.9238 16.9209C34.0867 17.1367 34.3289 17.3009 34.5742 17.4297C34.8278 17.5628 35.1304 17.6816 35.458 17.7881C36.7578 18.2104 38.675 18.5117 40.2373 18.707C41.0247 18.8055 41.7337 18.8786 42.2451 18.9268C42.5006 18.9508 42.7075 18.9685 42.8506 18.9805C42.9219 18.9864 42.9777 18.9911 43.0156 18.9941C43.0345 18.9956 43.0497 18.9963 43.0596 18.9971C43.0641 18.9974 43.0678 18.9979 43.0703 18.998C43.0713 18.9981 43.0726 18.998 43.0732 18.998L43.0742 18.999H43.0752C43.3503 19.0193 43.5897 18.8122 43.6104 18.5371C43.6283 18.2963 43.4726 18.0831 43.249 18.0195L43.1494 18.001C43.1489 18.0009 43.1475 18.001 43.1465 18.001C43.1443 18.0008 43.1402 18.0004 43.1357 18C43.1266 17.9993 43.1126 17.9985 43.0947 17.9971C43.0582 17.9942 43.0035 17.9902 42.9336 17.9844C42.7936 17.9727 42.5904 17.9544 42.3389 17.9307C41.8348 17.8832 41.1362 17.8117 40.3613 17.7148C38.7991 17.5196 36.9666 17.2269 35.7666 16.8369C35.4696 16.7404 35.2248 16.6424 35.0391 16.5449C34.8815 16.4622 34.7924 16.3926 34.7471 16.3467C34.7776 16.3108 34.8375 16.2506 34.9541 16.1719C35.3505 15.9044 36.1423 15.5763 37.5029 15.2021C38.8488 14.8321 40.7065 14.4282 43.1982 13.9922C43.47 13.9445 43.6519 13.6859 43.6045 13.4141C43.5569 13.1423 43.2982 12.9606 43.0264 13.0078ZM75.1494 11.501C74.8741 11.4803 74.6339 11.6875 74.6133 11.9629C74.5928 12.2381 74.799 12.4783 75.0742 12.499H75.0771C75.0794 12.4992 75.0835 12.4997 75.0879 12.5C75.097 12.5007 75.111 12.5015 75.1289 12.5029C75.1654 12.5058 75.2202 12.5098 75.29 12.5156C75.43 12.5273 75.6332 12.5456 75.8848 12.5693C76.3889 12.6168 77.0874 12.6883 77.8623 12.7852C79.4246 12.9804 81.257 13.2731 82.457 13.6631C82.7542 13.7597 82.9998 13.8575 83.1855 13.9551C83.3417 14.0371 83.43 14.1065 83.4756 14.1523C83.4451 14.1882 83.386 14.2495 83.2695 14.3281C82.8732 14.5956 82.0819 14.9237 80.7217 15.2979C79.3758 15.668 77.5173 16.0717 75.0254 16.5078C74.7536 16.5555 74.5717 16.8141 74.6191 17.0859C74.6668 17.3579 74.9262 17.5398 75.1982 17.4922C77.7057 17.0534 79.598 16.6445 80.9863 16.2627C82.3598 15.885 83.288 15.5215 83.8291 15.1562C84.0959 14.9761 84.3347 14.7525 84.4424 14.4648C84.5664 14.1329 84.4807 13.8189 84.2998 13.5791C84.137 13.3633 83.8947 13.1991 83.6494 13.0703C83.396 12.9373 83.094 12.8183 82.7666 12.7119C81.4668 12.2895 79.5489 11.9883 77.9863 11.793C77.1992 11.6946 76.4909 11.6214 75.9795 11.5732C75.7238 11.5491 75.5162 11.5315 75.373 11.5195C75.3017 11.5136 75.2459 11.5089 75.208 11.5059C75.1895 11.5044 75.1749 11.5037 75.165 11.5029C75.1603 11.5026 75.1559 11.5022 75.1533 11.502C75.1522 11.5019 75.1511 11.502 75.1504 11.502L75.1494 11.501ZM38.6494 11.001C38.3741 10.9803 38.1339 11.1875 38.1133 11.4629C38.0928 11.7381 38.299 11.9783 38.5742 11.999H38.5771C38.5794 11.9992 38.5835 11.9997 38.5879 12C38.597 12.0007 38.611 12.0015 38.6289 12.0029C38.6654 12.0058 38.7202 12.0098 38.79 12.0156C38.93 12.0273 39.1332 12.0456 39.3848 12.0693C39.8889 12.1168 40.5874 12.1883 41.3623 12.2852C42.9246 12.4804 44.757 12.7731 45.957 13.1631C46.2542 13.2597 46.4998 13.3575 46.6855 13.4551C46.8417 13.5371 46.93 13.6065 46.9756 13.6523C46.9451 13.6882 46.886 13.7495 46.7695 13.8281C46.3732 14.0956 45.5819 14.4238 44.2217 14.7979C42.8758 15.168 41.0173 15.5717 38.5254 16.0078C38.2536 16.0555 38.0717 16.3141 38.1191 16.5859C38.1668 16.8579 38.4263 17.0398 38.6982 16.9922C41.2057 16.5534 43.098 16.1445 44.4863 15.7627C45.8597 15.385 46.788 15.0215 47.3291 14.6562C47.596 14.4761 47.8348 14.2525 47.9424 13.9648C48.0664 13.6329 47.9807 13.3189 47.7998 13.0791C47.6371 12.8635 47.3955 12.6991 47.1504 12.5703C46.8969 12.4372 46.5941 12.3184 46.2666 12.2119C44.9668 11.7895 43.0489 11.4883 41.4863 11.293C40.6992 11.1946 39.9909 11.1214 39.4795 11.0732C39.2238 11.0491 39.0162 11.0315 38.873 11.0195C38.8017 11.0136 38.7459 11.0089 38.708 11.0059C38.6895 11.0044 38.6749 11.0037 38.665 11.0029C38.6603 11.0026 38.6559 11.0022 38.6533 11.002C38.6522 11.0019 38.6511 11.002 38.6504 11.002L38.6494 11.001ZM0 10.5918C0.477544 10.6384 1.0856 10.7021 1.75 10.7852C3.31236 10.9805 5.14568 11.2731 6.3457 11.6631C6.64271 11.7596 6.88754 11.8576 7.07324 11.9551C7.22933 12.037 7.31764 12.1064 7.36328 12.1523C7.33275 12.1882 7.27355 12.2496 7.15723 12.3281C6.76078 12.5956 5.96956 12.9238 4.60938 13.2979C3.46697 13.612 1.95486 13.9467 0 14.3086V13.1895C1.01365 12.9674 2.20202 12.7344 3.58594 12.4922C3.85769 12.4445 4.04052 12.1859 3.99316 11.9141C3.94558 11.6421 3.68599 11.4604 3.41406 11.5078C2.11658 11.7349 0.983499 11.9537 0 12.165V10.5918ZM26.0371 6.00098C25.7617 5.98032 25.5216 6.18753 25.501 6.46289C25.4805 6.73811 25.6867 6.97834 25.9619 6.99902H25.9648C25.9671 6.99921 25.9711 6.99966 25.9756 7C25.9848 7.0007 25.9987 7.00151 26.0166 7.00293C26.0531 7.00582 26.1079 7.00978 26.1777 7.01562C26.3177 7.02733 26.5209 7.04563 26.7725 7.06934C27.2766 7.11684 27.9751 7.18829 28.75 7.28516C30.3123 7.48045 32.1447 7.7731 33.3447 8.16309C33.6417 8.25961 33.8865 8.35763 34.0723 8.45508C34.2286 8.53717 34.3177 8.60643 34.3633 8.65234C34.3328 8.68817 34.2738 8.74943 34.1572 8.82812C33.7609 9.09559 32.9697 9.42374 31.6094 9.79785C30.2635 10.168 28.405 10.5717 25.9131 11.0078C25.6413 11.0555 25.4594 11.3141 25.5068 11.5859C25.5545 11.8579 25.8139 12.0398 26.0859 11.9922C28.5934 11.5534 30.4857 11.1445 31.874 10.7627C33.2474 10.385 34.1757 10.0215 34.7168 9.65625C34.9836 9.47607 35.2225 9.25244 35.3301 8.96484C35.4541 8.63293 35.3684 8.31894 35.1875 8.0791C35.0247 7.86333 34.7824 7.69912 34.5371 7.57031C34.2837 7.43728 33.9817 7.31834 33.6543 7.21191C32.3545 6.78947 30.4366 6.48829 28.874 6.29297C28.0867 6.19455 27.3777 6.12144 26.8662 6.07324C26.6107 6.04917 26.4038 6.0315 26.2607 6.01953C26.1894 6.01357 26.1336 6.00886 26.0957 6.00586C26.0769 6.00437 26.0616 6.00368 26.0518 6.00293C26.0472 6.00258 26.0435 6.00215 26.041 6.00195C26.0399 6.00187 26.0388 6.00196 26.0381 6.00195L26.0371 6.00098ZM69.4141 5.00781C66.9063 5.44668 65.0135 5.85549 63.625 6.2373C62.2518 6.61495 61.3244 6.97853 60.7832 7.34375C60.5163 7.52394 60.2776 7.7475 60.1699 8.03516C60.0458 8.36723 60.1315 8.68101 60.3125 8.9209C60.4753 9.13659 60.7167 9.30091 60.9619 9.42969C61.2155 9.5628 61.5181 9.68162 61.8457 9.78809C63.1456 10.2105 65.0635 10.5117 66.626 10.707C67.4132 10.8054 68.1215 10.8786 68.6328 10.9268C68.8885 10.9509 69.0961 10.9685 69.2393 10.9805C69.3105 10.9864 69.3665 10.9911 69.4043 10.9941C69.4229 10.9956 69.4375 10.9963 69.4473 10.9971C69.4521 10.9974 69.4565 10.9979 69.459 10.998C69.4601 10.9981 69.4613 10.998 69.4619 10.998L69.4629 10.999C69.7381 11.0195 69.9784 10.8124 69.999 10.5371C70.0195 10.2621 69.813 10.022 69.5381 10.001H69.5342C69.532 10.0008 69.5286 10.0003 69.5244 10C69.5153 9.9993 69.5013 9.99848 69.4834 9.99707C69.4469 9.99419 69.3921 9.99021 69.3223 9.98438C69.1823 9.97267 68.9784 9.9544 68.7266 9.93066C68.2225 9.88317 67.5247 9.81167 66.75 9.71484C65.1879 9.51958 63.3554 9.22684 62.1553 8.83691C61.8581 8.74032 61.6126 8.64245 61.4268 8.54492C61.2695 8.46238 61.1811 8.39262 61.1357 8.34668C61.1663 8.3108 61.2265 8.25036 61.3428 8.17188C61.7393 7.90443 62.5305 7.5762 63.8906 7.20215C65.2365 6.83205 67.095 6.42827 69.5869 5.99219C69.8584 5.94426 70.0405 5.68569 69.9932 5.41406C69.9456 5.14213 69.686 4.96036 69.4141 5.00781ZM105 10.4072C104.522 10.3606 103.914 10.2979 103.25 10.2148C101.688 10.0196 99.8554 9.72684 98.6553 9.33691C98.3581 9.24032 98.1126 9.14245 97.9268 9.04492C97.7695 8.96238 97.6811 8.89262 97.6357 8.84668C97.6663 8.8108 97.7265 8.75036 97.8428 8.67188C98.2393 8.40443 99.0305 8.0762 100.391 7.70215C101.533 7.38801 103.045 7.05322 105 6.69141V10.4072ZM29.8018 3.50781C27.2943 3.94663 25.402 4.35552 24.0137 4.7373C22.6403 5.11499 21.7121 5.4785 21.1709 5.84375C20.904 6.02393 20.6653 6.24754 20.5576 6.53516C20.4335 6.86715 20.5193 7.18103 20.7002 7.4209C20.8631 7.63667 21.1053 7.80089 21.3506 7.92969C21.604 8.06271 21.906 8.18167 22.2334 8.28809C23.5333 8.71051 25.4512 9.01172 27.0137 9.20703C27.8011 9.30545 28.5101 9.37857 29.0215 9.42676C29.277 9.45083 29.4839 9.46851 29.627 9.48047C29.6983 9.48644 29.7541 9.49114 29.792 9.49414C29.8108 9.49563 29.8261 9.49631 29.8359 9.49707C29.8405 9.49742 29.8442 9.49786 29.8467 9.49805C29.8477 9.4981 29.849 9.498 29.8496 9.49805L29.8506 9.49902C30.1259 9.51954 30.3661 9.3124 30.3867 9.03711C30.4072 8.76194 30.2009 8.52175 29.9258 8.50098H29.9229C29.9206 8.50081 29.9166 8.50035 29.9121 8.5C29.903 8.4993 29.889 8.49849 29.8711 8.49707C29.8346 8.49418 29.7799 8.49022 29.71 8.48438C29.57 8.47267 29.3668 8.45437 29.1152 8.43066C28.6111 8.38316 27.9126 8.31171 27.1377 8.21484C25.5754 8.01956 23.743 7.72688 22.543 7.33691C22.246 7.2404 22.0012 7.14237 21.8154 7.04492C21.658 6.96226 21.5688 6.89262 21.5234 6.84668C21.554 6.81082 21.614 6.7505 21.7305 6.67188C22.1268 6.40442 22.9181 6.07624 24.2783 5.70215C25.6242 5.33205 27.4827 4.92827 29.9746 4.49219C30.2463 4.44443 30.4283 4.18584 30.3809 3.91406C30.3333 3.64213 30.0737 3.46036 29.8018 3.50781ZM82.6494 1.00098C82.3741 0.980417 82.1339 1.18758 82.1133 1.46289C82.0928 1.73813 82.2999 1.97838 82.5752 1.99902H82.5781C82.5803 1.99921 82.5837 1.99968 82.5879 2C82.5971 2.0007 82.6118 2.0015 82.6299 2.00293C82.6664 2.00581 82.7205 2.00981 82.79 2.01562C82.9301 2.02734 83.1339 2.04561 83.3857 2.06934C83.8898 2.11684 84.5877 2.18833 85.3623 2.28516C86.9247 2.48046 88.758 2.77308 89.958 3.16309C90.255 3.25964 90.4998 3.35759 90.6855 3.45508C90.8416 3.53704 90.9299 3.60643 90.9756 3.65234C90.9451 3.68819 90.8859 3.74958 90.7695 3.82812C90.3731 4.09558 89.5819 4.42379 88.2217 4.79785C86.8759 5.16794 85.0181 5.57174 82.5264 6.00781C82.2544 6.0554 82.0726 6.31399 82.1201 6.58594C82.1677 6.85791 82.4263 7.03976 82.6982 6.99219C85.2061 6.55331 87.0989 6.14452 88.4873 5.7627C89.8605 5.38503 90.788 5.02149 91.3291 4.65625C91.596 4.47607 91.8347 4.25247 91.9424 3.96484C92.0664 3.63305 91.9815 3.3189 91.8008 3.0791C91.638 2.86339 91.3956 2.6991 91.1504 2.57031C90.8968 2.43719 90.5942 2.31839 90.2666 2.21191C88.9668 1.78948 87.0488 1.48829 85.4863 1.29297C84.6991 1.19458 83.9909 1.12143 83.4795 1.07324C83.2241 1.04918 83.0172 1.0315 82.874 1.01953C82.8026 1.01356 82.7459 1.00886 82.708 1.00586C82.6894 1.00439 82.6749 1.00368 82.665 1.00293C82.6603 1.00256 82.6559 1.00216 82.6533 1.00195H82.6504L82.6494 1.00098ZM46.1494 0.500977C45.8741 0.480417 45.6339 0.687584 45.6133 0.962891C45.5928 1.23813 45.7999 1.47838 46.0752 1.49902H46.0781C46.0803 1.49921 46.0837 1.49968 46.0879 1.5C46.0971 1.5007 46.1118 1.5015 46.1299 1.50293C46.1664 1.50581 46.2205 1.50981 46.29 1.51562C46.4301 1.52734 46.6339 1.54561 46.8857 1.56934C47.3898 1.61684 48.0877 1.68833 48.8623 1.78516C50.4247 1.98046 52.258 2.27308 53.458 2.66309C53.755 2.75964 53.9998 2.85759 54.1855 2.95508C54.3416 3.03704 54.4299 3.10643 54.4756 3.15234C54.4451 3.18819 54.3859 3.24958 54.2695 3.32812C53.8731 3.59558 53.0819 3.92379 51.7217 4.29785C50.3759 4.66794 48.5181 5.07174 46.0264 5.50781C45.7544 5.5554 45.5726 5.81399 45.6201 6.08594C45.6677 6.35791 45.9263 6.53976 46.1982 6.49219C48.7061 6.05331 50.5989 5.64452 51.9873 5.2627C53.3605 4.88503 54.288 4.52149 54.8291 4.15625C55.096 3.97607 55.3347 3.75247 55.4424 3.46484C55.5664 3.13305 55.4815 2.8189 55.3008 2.5791C55.138 2.36339 54.8956 2.1991 54.6504 2.07031C54.3968 1.93719 54.0942 1.81839 53.7666 1.71191C52.4668 1.28948 50.5488 0.988289 48.9863 0.792969C48.1991 0.694575 47.4909 0.621433 46.9795 0.573242C46.7241 0.549176 46.5172 0.531502 46.374 0.519531C46.3026 0.513558 46.2459 0.508861 46.208 0.505859C46.1894 0.50439 46.1748 0.503678 46.165 0.50293C46.1603 0.502561 46.1559 0.502155 46.1533 0.501953C46.1523 0.501877 46.1511 0.501962 46.1504 0.501953L46.1494 0.500977Z" fill="#7D3939"/>
</svg>
