<svg width="334" height="218" viewBox="0 0 334 218" fill="none" xmlns="http://www.w3.org/2000/svg">
<g clip-path="url(#clip0_88_121)">
<path d="M444.447 218.109C417.657 215.687 358.009 206.861 333.744 190.931C303.412 171.019 293.763 133.112 287.121 117.942C264.383 66.0073 225.946 43.1693 189.346 21.4237L188.221 20.7551C145.965 -4.35676 47.3508 -10.1656 7.76715 43.6125C-30.2823 95.3061 143.237 14.9774 89.9925 9.72821C51.666 5.94972 20.8102 32.8845 7.18273 47.142M345.5 174C330.501 132.659 288.52 142.05 261 136.5C233.48 130.95 204.004 110.963 185.5 83.5C166.696 55.5917 150.798 40.0692 129.098 27.1733C104.27 12.4189 46.3299 9.00587 23.0728 40.6029C0.717047 70.9752 102.667 23.7785 71.3838 20.6944C48.8653 18.4743 30.7361 34.2997 22.7294 42.6766" stroke="#CC9157" stroke-opacity="0.31" stroke-width="4" stroke-linecap="round"/>
</g>
<defs>
<clipPath id="clip0_88_121">
<rect width="334" height="218" fill="white"/>
</clipPath>
</defs>
</svg>
