<svg width="332" height="234" viewBox="0 0 332 234" fill="none" xmlns="http://www.w3.org/2000/svg">
<path d="M147.794 182.925C147.794 189.085 149.964 194.5 154.482 198C159 201.5 180 213.5 188.5 213.5C197 213.5 217.5 205.5 223 200C228.5 194.5 232.01 190.472 232.01 183" stroke="#CC9157" stroke-opacity="0.5" stroke-width="4"/>
<path d="M201 183C201 191 175.998 190 175.998 183" stroke="#CC9157" stroke-opacity="0.5" stroke-width="4"/>
<g clip-path="url(#clip0_34_1047)">
<path d="M-1.50001 180.5C-1.50001 180.5 52.2483 111.22 158.11 39.0271C187.994 17.745 254.841 -14.8762 298.754 15.0707C353.645 52.5043 320.516 86.575 302.654 100.387C283.334 115.327 237.277 101.164 244.948 52.0952C249.568 22.5496 310.481 31.1725 302.654 65.5539C296.065 94.4968 262.788 76.3465 261.988 65.5539C261.133 54.0008 282.648 41.4051 284.272 67.8103M-109.712 340.477C-99.7264 257.016 -41.7517 203.22 64.1102 131.027C93.9944 109.745 160.841 77.1238 204.754 107.071C259.645 144.504 226.516 178.575 208.654 192.387C189.334 207.327 143.276 193.164 150.948 144.095C155.568 114.55 216.481 123.173 208.654 157.554C202.065 186.497 168.788 168.347 167.988 157.554C167.133 146.001 188.648 133.405 190.272 159.81" stroke="#CC9157" stroke-opacity="0.31" stroke-width="4" stroke-linecap="round"/>
</g>
<defs>
<clipPath id="clip0_34_1047">
<rect width="332" height="216" fill="white"/>
</clipPath>
</defs>
</svg>
