<svg width="48" height="65" viewBox="0 0 48 65" fill="none" xmlns="http://www.w3.org/2000/svg">
<g filter="url(#filter0_d_51_249)">
<path d="M2 51.1643L9.23519 24.9309L15.5596 1.99991L41.5878 9.17851L34.808 33.7607L28.0282 58.3429L2 51.1643Z" fill="#634840"/>
</g>
<g filter="url(#filter1_d_51_249)">
<rect x="13.3999" y="21.1138" width="9" height="13" rx="1" transform="rotate(15.4189 13.3999 21.1138)" fill="#725148"/>
</g>
<g filter="url(#filter2_d_51_249)">
<rect x="29.4879" y="7.91602" width="9" height="13" rx="1" transform="rotate(15.4189 29.4879 7.91602)" fill="#725148"/>
</g>
<g filter="url(#filter3_d_51_249)">
<path d="M16.5922 39.6289C17.1246 39.7758 17.4372 40.3264 17.2903 40.8588L14.3657 51.4629C14.2189 51.9953 13.6682 52.3079 13.1358 52.161L6.38777 50.2999C5.85537 50.1531 5.5428 49.6025 5.68964 49.07L8.61425 38.466C8.76109 37.9336 9.31173 37.621 9.84413 37.7678L16.5922 39.6289ZM13.1152 45.8483C13.0803 45.8474 13.0448 45.842 13.0111 45.8327L9.73878 44.9302C9.70521 44.9209 9.67275 44.9075 9.64237 44.8905C9.63795 44.888 9.63381 44.8845 9.62954 44.8819L9.26192 45.5169C9.06467 45.8572 9.0853 46.2815 9.3144 46.6012L10.0891 47.682C10.3638 48.0647 10.8687 48.2041 11.3007 48.0161L12.5199 47.4852C12.8802 47.3281 13.1148 46.974 13.1198 46.581L13.1288 45.847C13.1244 45.847 13.1197 45.8483 13.1152 45.8483ZM13.1712 42.5086C13.184 41.4802 11.8226 41.1049 11.3063 41.9942L10.0708 44.1232L13.1398 44.9697L13.1712 42.5086Z" fill="#725148"/>
</g>
<g filter="url(#filter4_d_51_249)">
<rect x="20.4481" y="40.6924" width="9" height="13" rx="1" transform="rotate(15.4189 20.4481 40.6924)" fill="#725148"/>
</g>
<g filter="url(#filter5_d_51_249)">
<path d="M32.6801 26.4312C33.2125 26.578 33.5251 27.1287 33.3782 27.6611L30.4536 38.2652C30.3068 38.7976 29.7561 39.1101 29.2237 38.9633L22.4757 37.1022C21.9433 36.9553 21.6307 36.4047 21.7775 35.8723L24.7021 25.2682C24.849 24.7358 25.3996 24.4232 25.932 24.5701L32.6801 26.4312ZM29.219 32.7177C29.1843 32.7168 29.1494 32.7116 29.1159 32.7024L25.8435 31.7999C25.8099 31.7906 25.7766 31.777 25.7462 31.7599C25.742 31.7576 25.7383 31.754 25.7343 31.7516L25.3667 32.3866C25.1693 32.7269 25.19 33.1512 25.4191 33.4709L26.1929 34.5514C26.4675 34.9341 26.9725 35.0734 27.4045 34.8856L28.6237 34.3547C28.9841 34.1976 29.2195 33.8437 29.2246 33.4507L29.2335 32.7167C29.2289 32.7167 29.2237 32.7178 29.219 32.7177ZM29.275 29.378C29.2877 28.3497 27.9263 27.9742 27.4101 28.8637L26.1755 30.9929L29.2445 31.8394L29.275 29.378Z" fill="#725148"/>
</g>
<g filter="url(#filter6_d_51_249)">
<path d="M25.6319 6.85258C26.1643 6.99942 26.4768 7.55005 26.33 8.08246L23.4054 18.6865C23.2585 19.219 22.7079 19.5315 22.1755 19.3847L15.4274 17.5236C14.895 17.3767 14.5825 16.8261 14.7293 16.2937L17.6539 5.68959C17.8008 5.15719 18.3514 4.84462 18.8838 4.99146L25.6319 6.85258ZM22.1718 13.1394C22.1369 13.1384 22.1013 13.1331 22.0677 13.1238L18.7953 12.2213C18.7618 12.212 18.7292 12.1985 18.6989 12.1816C18.6945 12.1791 18.6903 12.1755 18.6861 12.173L18.3184 12.808C18.1212 13.1482 18.1418 13.5726 18.3709 13.8923L19.1456 14.9731C19.4204 15.3556 19.9253 15.4952 20.3572 15.3072L21.5764 14.7763C21.9367 14.6192 22.1713 14.265 22.1764 13.872L22.1853 13.138C22.181 13.138 22.1762 13.1394 22.1718 13.1394ZM22.2277 9.79968C22.2405 8.77128 20.8791 8.39594 20.3628 9.28532L19.1273 11.4143L22.1963 12.2608L22.2277 9.79968Z" fill="#725148"/>
</g>
<defs>
<filter id="filter0_d_51_249" x="0" y="0" width="47.5878" height="64.343" filterUnits="userSpaceOnUse" color-interpolation-filters="sRGB">
<feFlood flood-opacity="0" result="BackgroundImageFix"/>
<feColorMatrix in="SourceAlpha" type="matrix" values="0 0 0 0 0 0 0 0 0 0 0 0 0 0 0 0 0 0 127 0" result="hardAlpha"/>
<feOffset dx="2" dy="2"/>
<feGaussianBlur stdDeviation="2"/>
<feComposite in2="hardAlpha" operator="out"/>
<feColorMatrix type="matrix" values="0 0 0 0 0 0 0 0 0 0 0 0 0 0 0 0 0 0 0.25 0"/>
<feBlend mode="normal" in2="BackgroundImageFix" result="effect1_dropShadow_51_249"/>
<feBlend mode="normal" in="SourceGraphic" in2="effect1_dropShadow_51_249" result="shape"/>
</filter>
<filter id="filter1_d_51_249" x="6.17322" y="17.3435" width="19.6731" height="22.4656" filterUnits="userSpaceOnUse" color-interpolation-filters="sRGB">
<feFlood flood-opacity="0" result="BackgroundImageFix"/>
<feColorMatrix in="SourceAlpha" type="matrix" values="0 0 0 0 0 0 0 0 0 0 0 0 0 0 0 0 0 0 127 0" result="hardAlpha"/>
<feOffset/>
<feGaussianBlur stdDeviation="2"/>
<feComposite in2="hardAlpha" operator="out"/>
<feColorMatrix type="matrix" values="0 0 0 0 0 0 0 0 0 0 0 0 0 0 0 0 0 0 0.25 0"/>
<feBlend mode="normal" in2="BackgroundImageFix" result="effect1_dropShadow_51_249"/>
<feBlend mode="normal" in="SourceGraphic" in2="effect1_dropShadow_51_249" result="shape"/>
</filter>
<filter id="filter2_d_51_249" x="22.2612" y="4.14575" width="19.6731" height="22.4656" filterUnits="userSpaceOnUse" color-interpolation-filters="sRGB">
<feFlood flood-opacity="0" result="BackgroundImageFix"/>
<feColorMatrix in="SourceAlpha" type="matrix" values="0 0 0 0 0 0 0 0 0 0 0 0 0 0 0 0 0 0 127 0" result="hardAlpha"/>
<feOffset/>
<feGaussianBlur stdDeviation="2"/>
<feComposite in2="hardAlpha" operator="out"/>
<feColorMatrix type="matrix" values="0 0 0 0 0 0 0 0 0 0 0 0 0 0 0 0 0 0 0.25 0"/>
<feBlend mode="normal" in2="BackgroundImageFix" result="effect1_dropShadow_51_249"/>
<feBlend mode="normal" in="SourceGraphic" in2="effect1_dropShadow_51_249" result="shape"/>
</filter>
<filter id="filter3_d_51_249" x="1.65344" y="33.7317" width="19.6731" height="22.4656" filterUnits="userSpaceOnUse" color-interpolation-filters="sRGB">
<feFlood flood-opacity="0" result="BackgroundImageFix"/>
<feColorMatrix in="SourceAlpha" type="matrix" values="0 0 0 0 0 0 0 0 0 0 0 0 0 0 0 0 0 0 127 0" result="hardAlpha"/>
<feOffset/>
<feGaussianBlur stdDeviation="2"/>
<feComposite in2="hardAlpha" operator="out"/>
<feColorMatrix type="matrix" values="0 0 0 0 0 0 0 0 0 0 0 0 0 0 0 0 0 0 0.25 0"/>
<feBlend mode="normal" in2="BackgroundImageFix" result="effect1_dropShadow_51_249"/>
<feBlend mode="normal" in="SourceGraphic" in2="effect1_dropShadow_51_249" result="shape"/>
</filter>
<filter id="filter4_d_51_249" x="13.2214" y="36.9221" width="19.6731" height="22.4656" filterUnits="userSpaceOnUse" color-interpolation-filters="sRGB">
<feFlood flood-opacity="0" result="BackgroundImageFix"/>
<feColorMatrix in="SourceAlpha" type="matrix" values="0 0 0 0 0 0 0 0 0 0 0 0 0 0 0 0 0 0 127 0" result="hardAlpha"/>
<feOffset/>
<feGaussianBlur stdDeviation="2"/>
<feComposite in2="hardAlpha" operator="out"/>
<feColorMatrix type="matrix" values="0 0 0 0 0 0 0 0 0 0 0 0 0 0 0 0 0 0 0.25 0"/>
<feBlend mode="normal" in2="BackgroundImageFix" result="effect1_dropShadow_51_249"/>
<feBlend mode="normal" in="SourceGraphic" in2="effect1_dropShadow_51_249" result="shape"/>
</filter>
<filter id="filter5_d_51_249" x="17.7413" y="20.5339" width="19.6731" height="22.4656" filterUnits="userSpaceOnUse" color-interpolation-filters="sRGB">
<feFlood flood-opacity="0" result="BackgroundImageFix"/>
<feColorMatrix in="SourceAlpha" type="matrix" values="0 0 0 0 0 0 0 0 0 0 0 0 0 0 0 0 0 0 127 0" result="hardAlpha"/>
<feOffset/>
<feGaussianBlur stdDeviation="2"/>
<feComposite in2="hardAlpha" operator="out"/>
<feColorMatrix type="matrix" values="0 0 0 0 0 0 0 0 0 0 0 0 0 0 0 0 0 0 0.25 0"/>
<feBlend mode="normal" in2="BackgroundImageFix" result="effect1_dropShadow_51_249"/>
<feBlend mode="normal" in="SourceGraphic" in2="effect1_dropShadow_51_249" result="shape"/>
</filter>
<filter id="filter6_d_51_249" x="10.6931" y="0.955322" width="19.6731" height="22.4656" filterUnits="userSpaceOnUse" color-interpolation-filters="sRGB">
<feFlood flood-opacity="0" result="BackgroundImageFix"/>
<feColorMatrix in="SourceAlpha" type="matrix" values="0 0 0 0 0 0 0 0 0 0 0 0 0 0 0 0 0 0 127 0" result="hardAlpha"/>
<feOffset/>
<feGaussianBlur stdDeviation="2"/>
<feComposite in2="hardAlpha" operator="out"/>
<feColorMatrix type="matrix" values="0 0 0 0 0 0 0 0 0 0 0 0 0 0 0 0 0 0 0.25 0"/>
<feBlend mode="normal" in2="BackgroundImageFix" result="effect1_dropShadow_51_249"/>
<feBlend mode="normal" in="SourceGraphic" in2="effect1_dropShadow_51_249" result="shape"/>
</filter>
</defs>
</svg>
