<svg width="130" height="170" viewBox="0 0 130 170" fill="none" xmlns="http://www.w3.org/2000/svg">
<g filter="url(#filter0_i_33_568)">
<path d="M70.5061 120.616C74.5618 116.56 77.3238 111.393 78.4428 105.767C79.5618 100.142 78.9875 94.311 76.7925 89.0119C74.5976 83.7129 70.8806 79.1837 66.1115 75.9971C61.3425 72.8106 55.7357 71.1097 50 71.1097C44.2644 71.1097 38.6575 72.8106 33.8885 75.9971C29.1194 79.1837 25.4024 83.7129 23.2075 89.0119C21.0126 94.311 20.4383 100.142 21.5572 105.767C22.6762 111.393 25.4382 116.56 29.4939 120.616L36.786 113.324C34.1725 110.71 32.3927 107.381 31.6716 103.755C30.9505 100.13 31.3206 96.373 32.735 92.9583C34.1494 89.5437 36.5447 86.6251 39.6178 84.5717C42.6909 82.5182 46.304 81.4222 50 81.4222C53.696 81.4222 57.3091 82.5182 60.3822 84.5717C63.4554 86.6251 65.8506 89.5437 67.265 92.9583C68.6794 96.373 69.0495 100.13 68.3284 103.755C67.6074 107.381 65.8276 110.71 63.2141 113.324L70.5061 120.616Z" fill="white"/>
</g>
<g filter="url(#filter1_d_33_568)">
<rect x="74.3013" y="154.911" width="9.02921" height="9.02921" rx="2" transform="rotate(-45 74.3013 154.911)" fill="white"/>
<rect x="81.75" y="147.462" width="9.02921" height="9.02921" rx="2" transform="rotate(-45 81.75 147.462)" fill="white"/>
<rect x="81.2179" y="161.828" width="9.02921" height="9.02921" rx="2" transform="rotate(-45 81.2179 161.828)" fill="white"/>
<rect x="88.6666" y="154.379" width="9.02921" height="9.02921" rx="2" transform="rotate(-45 88.6666 154.379)" fill="white"/>
<rect x="74.8334" y="127.776" width="9.02921" height="9.02921" rx="2" transform="rotate(-45 74.8334 127.776)" fill="white"/>
<rect x="82.2821" y="120.328" width="9.02921" height="9.02921" rx="2" transform="rotate(-45 82.2821 120.328)" fill="white"/>
<rect x="81.75" y="134.693" width="9.02921" height="9.02921" rx="2" transform="rotate(-45 81.75 134.693)" fill="white"/>
<rect x="89.1987" y="127.245" width="9.02921" height="9.02921" rx="2" transform="rotate(-45 89.1987 127.245)" fill="white"/>
<rect x="101.436" y="154.379" width="9.02921" height="9.02921" rx="2" transform="rotate(-45 101.436 154.379)" fill="white"/>
<rect x="108.885" y="146.93" width="9.02921" height="9.02921" rx="2" transform="rotate(-45 108.885 146.93)" fill="white"/>
<rect x="108.353" y="161.296" width="9.02921" height="9.02921" rx="2" transform="rotate(-45 108.353 161.296)" fill="white"/>
<rect x="115.801" y="153.847" width="9.02921" height="9.02921" rx="2" transform="rotate(-45 115.801 153.847)" fill="white"/>
<rect x="101.968" y="127.244" width="9.02921" height="9.02921" rx="2" transform="rotate(-45 101.968 127.244)" fill="white"/>
<rect x="109.417" y="119.796" width="9.02921" height="9.02921" rx="2" transform="rotate(-45 109.417 119.796)" fill="white"/>
<rect x="108.885" y="134.161" width="9.02921" height="9.02921" rx="2" transform="rotate(-45 108.885 134.161)" fill="white"/>
<rect x="116.333" y="126.712" width="9.02921" height="9.02921" rx="2" transform="rotate(-45 116.333 126.712)" fill="white"/>
</g>
<g filter="url(#filter2_d_33_568)">
<rect x="3.06104" y="73.1263" width="15.6553" height="15.6553" rx="2" transform="rotate(-45 3.06104 73.1263)" fill="white"/>
<rect x="15.976" y="60.2113" width="15.6553" height="15.6553" rx="2" transform="rotate(-45 15.976 60.2113)" fill="white"/>
<rect x="15.0535" y="85.1188" width="15.6553" height="15.6553" rx="2" transform="rotate(-45 15.0535 85.1188)" fill="white"/>
<rect x="27.9685" y="72.2037" width="15.6553" height="15.6553" rx="2" transform="rotate(-45 27.9685 72.2037)" fill="white"/>
<rect x="3.98353" y="26.079" width="15.6553" height="15.6553" rx="2" transform="rotate(-45 3.98353 26.079)" fill="white"/>
<rect x="16.8984" y="13.1639" width="15.6553" height="15.6553" rx="2" transform="rotate(-45 16.8984 13.1639)" fill="white"/>
<rect x="15.976" y="38.0714" width="15.6553" height="15.6553" rx="2" transform="rotate(-45 15.976 38.0714)" fill="white"/>
<rect x="28.891" y="25.1564" width="15.6553" height="15.6553" rx="2" transform="rotate(-45 28.891 25.1564)" fill="white"/>
<rect x="50.1084" y="72.204" width="15.6553" height="15.6553" rx="2" transform="rotate(-45 50.1084 72.204)" fill="white"/>
<rect x="63.0233" y="59.2889" width="15.6553" height="15.6553" rx="2" transform="rotate(-45 63.0233 59.2889)" fill="white"/>
<rect x="62.1008" y="84.1964" width="15.6553" height="15.6553" rx="2" transform="rotate(-45 62.1008 84.1964)" fill="white"/>
<rect x="75.0159" y="71.2814" width="15.6553" height="15.6553" rx="2" transform="rotate(-45 75.0159 71.2814)" fill="white"/>
<rect x="51.0308" y="25.1566" width="15.6553" height="15.6553" rx="2" transform="rotate(-45 51.0308 25.1566)" fill="white"/>
<rect x="63.9457" y="12.2416" width="15.6553" height="15.6553" rx="2" transform="rotate(-45 63.9457 12.2416)" fill="white"/>
<rect x="63.0232" y="37.149" width="15.6553" height="15.6553" rx="2" transform="rotate(-45 63.0232 37.149)" fill="white"/>
<rect x="75.9382" y="24.234" width="15.6553" height="15.6553" rx="2" transform="rotate(-45 75.9382 24.234)" fill="white"/>
</g>
<path d="M53 115.348L52.4063 115.348C52.5078 115.536 52.6016 115.749 52.6875 115.989C52.7734 116.226 52.8477 116.477 52.9102 116.743C52.9727 117.006 53.0208 117.276 53.0547 117.555C53.0885 117.834 53.1055 118.107 53.1055 118.375C53.1055 118.724 53.0742 119.038 53.0117 119.317C52.9492 119.593 52.8568 119.827 52.7344 120.02C52.6094 120.213 52.4557 120.361 52.2734 120.465C52.0885 120.569 51.875 120.621 51.6328 120.621C51.3932 120.621 51.1823 120.562 51 120.442C50.8151 120.319 50.655 120.146 50.5195 119.922C50.3815 119.698 50.2656 119.429 50.1719 119.114C50.0755 118.796 49.9948 118.442 49.9297 118.051C49.862 117.661 49.8073 117.239 49.7656 116.786C49.7214 116.33 49.6849 115.851 49.6563 115.348L49.2461 115.348C49.0794 115.348 48.9323 115.379 48.8047 115.442C48.6771 115.504 48.5664 115.592 48.4727 115.703C48.3763 115.815 48.2969 115.947 48.2344 116.098C48.1693 116.249 48.1172 116.413 48.0781 116.59C48.0391 116.765 48.0117 116.95 47.9961 117.145C47.9779 117.338 47.9688 117.532 47.9688 117.727C47.9688 117.99 47.9818 118.23 48.0078 118.446C48.0339 118.662 48.0703 118.864 48.1172 119.051C48.1615 119.239 48.2135 119.418 48.2734 119.59C48.3333 119.762 48.3971 119.935 48.4649 120.11L47.8945 120.11C47.7982 119.748 47.7149 119.362 47.6445 118.953C47.5716 118.542 47.5352 118.106 47.5352 117.645C47.5352 117.254 47.569 116.89 47.6367 116.551C47.7018 116.213 47.8073 115.918 47.9531 115.668C48.099 115.418 48.2878 115.222 48.5195 115.078C48.7487 114.935 49.0287 114.864 49.3594 114.864L53 114.864L53 115.348ZM50.0899 115.348C50.1367 116.2 50.2031 116.927 50.2891 117.532C50.375 118.133 50.4805 118.625 50.6055 119.008C50.7305 119.391 50.8763 119.672 51.043 119.852C51.2096 120.029 51.3984 120.118 51.6094 120.118C51.7813 120.118 51.9336 120.075 52.0664 119.989C52.1992 119.9 52.3112 119.774 52.4024 119.61C52.4909 119.446 52.5586 119.246 52.6055 119.012C52.6497 118.778 52.6719 118.515 52.6719 118.223C52.6719 118.051 52.6628 117.874 52.6445 117.692C52.6237 117.507 52.5964 117.323 52.5625 117.141C52.526 116.959 52.4844 116.779 52.4375 116.602C52.388 116.425 52.3346 116.258 52.2774 116.102C52.2201 115.946 52.1589 115.804 52.0938 115.676C52.0287 115.546 51.9622 115.437 51.8945 115.348L50.0899 115.348ZM48.4258 108.762C48.3763 108.864 48.3242 108.981 48.2695 109.114C48.2122 109.246 48.1615 109.399 48.1172 109.571C48.0729 109.74 48.0365 109.931 48.0078 110.145C47.9766 110.358 47.9609 110.595 47.9609 110.856C47.9609 111.171 47.9792 111.452 48.0156 111.7C48.0521 111.944 48.1094 112.153 48.1875 112.325C48.263 112.494 48.3594 112.624 48.4766 112.715C48.5938 112.804 48.7331 112.848 48.8945 112.848C49.03 112.848 49.1484 112.806 49.25 112.723C49.3516 112.637 49.4414 112.523 49.5195 112.379C49.5977 112.233 49.6693 112.064 49.7344 111.871C49.7969 111.676 49.8568 111.47 49.9141 111.254C49.9688 111.036 50.0247 110.812 50.082 110.582C50.1393 110.351 50.2018 110.127 50.2695 109.911C50.3346 109.692 50.4089 109.486 50.4922 109.293C50.5729 109.098 50.668 108.929 50.7774 108.786C50.8867 108.64 51.0117 108.525 51.1524 108.442C51.293 108.356 51.4557 108.313 51.6406 108.313C51.8412 108.313 52.0169 108.351 52.168 108.426C52.3164 108.502 52.4453 108.605 52.5547 108.735C52.6615 108.862 52.7513 109.013 52.8242 109.188C52.8945 109.36 52.9505 109.545 52.9922 109.743C53.0339 109.938 53.0625 110.141 53.0781 110.352C53.0964 110.56 53.1055 110.766 53.1055 110.969C53.1055 111.435 53.0716 111.858 53.0039 112.239C52.9362 112.616 52.8438 112.977 52.7266 113.321L52.1289 113.321C52.3399 112.967 52.4844 112.593 52.5625 112.2C52.6406 111.804 52.6797 111.388 52.6797 110.953C52.6797 110.646 52.6615 110.362 52.625 110.102C52.5885 109.842 52.5313 109.616 52.4531 109.426C52.3724 109.236 52.2682 109.089 52.1406 108.985C52.013 108.878 51.8568 108.825 51.6719 108.825C51.5234 108.825 51.3932 108.868 51.2813 108.953C51.1693 109.037 51.0716 109.151 50.9883 109.297C50.9024 109.44 50.8268 109.61 50.7617 109.805C50.6966 109.998 50.6367 110.202 50.582 110.418C50.5247 110.634 50.4701 110.858 50.418 111.09C50.3633 111.319 50.3047 111.542 50.2422 111.758C50.1797 111.974 50.1094 112.18 50.0313 112.375C49.9531 112.568 49.862 112.737 49.7578 112.883C49.651 113.026 49.5287 113.141 49.3906 113.227C49.2526 113.31 49.0925 113.352 48.9102 113.352C48.7305 113.352 48.5716 113.318 48.4336 113.25C48.293 113.183 48.1719 113.09 48.0703 112.973C47.9688 112.853 47.8841 112.714 47.8164 112.555C47.7461 112.396 47.6914 112.227 47.6524 112.047C47.6107 111.865 47.5807 111.676 47.5625 111.481C47.5443 111.286 47.5352 111.093 47.5352 110.903C47.5352 110.694 47.5443 110.498 47.5625 110.313C47.5807 110.125 47.6055 109.946 47.6367 109.774C47.6654 109.599 47.6992 109.43 47.7383 109.266C47.7774 109.099 47.819 108.931 47.8633 108.762L48.4258 108.762ZM48.4258 102.465C48.3763 102.567 48.3242 102.684 48.2695 102.817C48.2122 102.95 48.1615 103.102 48.1172 103.274C48.0729 103.443 48.0365 103.634 48.0078 103.848C47.9766 104.062 47.9609 104.299 47.9609 104.559C47.9609 104.874 47.9792 105.155 48.0156 105.403C48.0521 105.648 48.1094 105.856 48.1875 106.028C48.263 106.197 48.3594 106.327 48.4766 106.418C48.5938 106.507 48.7331 106.551 48.8945 106.551C49.03 106.551 49.1484 106.509 49.25 106.426C49.3516 106.34 49.4414 106.226 49.5195 106.082C49.5977 105.937 49.6693 105.767 49.7344 105.575C49.7969 105.379 49.8568 105.174 49.9141 104.957C49.9688 104.739 50.0247 104.515 50.082 104.286C50.1393 104.054 50.2018 103.83 50.2695 103.614C50.3346 103.395 50.4089 103.189 50.4922 102.996C50.5729 102.801 50.668 102.632 50.7774 102.489C50.8867 102.343 51.0117 102.228 51.1524 102.145C51.293 102.059 51.4557 102.016 51.6406 102.016C51.8412 102.016 52.0169 102.054 52.168 102.129C52.3164 102.205 52.4453 102.308 52.5547 102.438C52.6615 102.565 52.7513 102.717 52.8242 102.891C52.8945 103.063 52.9505 103.248 52.9922 103.446C53.0339 103.641 53.0625 103.844 53.0781 104.055C53.0964 104.263 53.1055 104.469 53.1055 104.672C53.1055 105.138 53.0716 105.562 53.0039 105.942C52.9362 106.319 52.8438 106.68 52.7266 107.024L52.1289 107.024C52.3399 106.67 52.4844 106.296 52.5625 105.903C52.6406 105.507 52.6797 105.092 52.6797 104.657C52.6797 104.349 52.6615 104.065 52.625 103.805C52.5885 103.545 52.5313 103.319 52.4531 103.129C52.3724 102.939 52.2682 102.792 52.1406 102.688C52.013 102.581 51.8568 102.528 51.6719 102.528C51.5234 102.528 51.3932 102.571 51.2813 102.657C51.1693 102.74 51.0716 102.855 50.9883 103C50.9024 103.144 50.8268 103.313 50.7617 103.508C50.6966 103.701 50.6367 103.905 50.582 104.121C50.5247 104.338 50.4701 104.562 50.418 104.793C50.3633 105.023 50.3047 105.245 50.2422 105.461C50.1797 105.677 50.1094 105.883 50.0313 106.078C49.9531 106.271 49.862 106.44 49.7578 106.586C49.651 106.73 49.5287 106.844 49.3906 106.93C49.2526 107.013 49.0925 107.055 48.9102 107.055C48.7305 107.055 48.5716 107.021 48.4336 106.953C48.293 106.886 48.1719 106.793 48.0703 106.676C47.9688 106.556 47.8841 106.417 47.8164 106.258C47.7461 106.099 47.6914 105.93 47.6524 105.75C47.6107 105.568 47.5807 105.379 47.5625 105.184C47.5443 104.989 47.5352 104.796 47.5352 104.606C47.5352 104.398 47.5443 104.201 47.5625 104.016C47.5807 103.828 47.6055 103.649 47.6367 103.477C47.6654 103.302 47.6992 103.133 47.7383 102.969C47.7774 102.802 47.819 102.634 47.8633 102.465L48.4258 102.465ZM52.7188 95.0941C52.7865 95.3129 52.8451 95.516 52.8945 95.7035C52.9414 95.891 52.9792 96.0759 53.0078 96.2582C53.0391 96.4405 53.0612 96.6267 53.0742 96.8168C53.0898 97.0043 53.0977 97.2113 53.0977 97.4379C53.0977 97.9639 53.0339 98.4392 52.9063 98.8636C52.7787 99.2881 52.5964 99.6501 52.3594 99.9496C52.1198 100.246 51.8307 100.476 51.4922 100.637C51.1537 100.799 50.7734 100.879 50.3516 100.879C49.9427 100.879 49.5677 100.802 49.2266 100.649C48.8854 100.493 48.5925 100.275 48.3477 99.9965C48.1029 99.7178 47.9128 99.3845 47.7774 98.9965C47.6419 98.6084 47.5742 98.1801 47.5742 97.7113C47.5742 97.2243 47.6393 96.7907 47.7695 96.4105C47.8997 96.0303 48.0859 95.71 48.3281 95.4496C48.5703 95.1892 48.8646 94.9913 49.2109 94.8558C49.5547 94.7204 49.9427 94.6527 50.375 94.6527L50.4961 94.6527L50.4961 100.375C50.8294 100.347 51.1302 100.263 51.3984 100.125C51.6667 99.9873 51.8945 99.792 52.082 99.5394C52.2695 99.2842 52.4141 98.9717 52.5156 98.6019C52.6146 98.2295 52.6641 97.7959 52.6641 97.3011C52.6641 97.0902 52.6497 96.8767 52.6211 96.6605C52.5925 96.4444 52.5547 96.2373 52.5078 96.0394C52.4583 95.8415 52.4037 95.6605 52.3438 95.4965C52.2813 95.3324 52.2175 95.1983 52.1523 95.0941L52.7188 95.0941ZM50.0703 95.1332C49.7969 95.1514 49.5365 95.2126 49.2891 95.3168C49.0391 95.4209 48.819 95.5772 48.6289 95.7855C48.4388 95.9913 48.2878 96.2543 48.1758 96.5746C48.0638 96.8923 48.0078 97.2738 48.0078 97.7191C48.0078 98.1384 48.0638 98.5056 48.1758 98.8207C48.2878 99.1358 48.4388 99.4027 48.6289 99.6215C48.8164 99.8402 49.0352 100.012 49.2852 100.137C49.5326 100.262 49.7943 100.342 50.0703 100.375L50.0703 95.1332ZM48.0781 91.2113L53 91.2113L53 91.6957L48.0781 91.6957L48.0781 94.1371L47.6328 94.1371L47.6328 88.7699L48.0781 88.7699L48.0781 91.2113ZM53.9766 88.6176L53.5273 88.6176L53.5273 84.6176L53.9766 84.6176L53.9766 88.6176ZM53 82.7152L53 83.2894L48.0781 80.1683L48.0781 84.6176L47.6328 84.6176L47.6328 79.4965L47.9023 79.4965L53 82.7152Z" fill="#2D2749"/>
<path d="M73.5878 16.4925L73.1818 16.8985L71.9084 11.2112L68.7624 14.3573L68.4475 14.0424L72.0686 10.4213L72.2592 10.6119L73.5878 16.4925ZM80.1451 9.93514L78.6232 9.45729L76.0461 12.0344L76.524 13.5563L76.1455 13.9347L74.3363 8.15356L74.7424 7.74753L80.5235 9.55673L80.1451 9.93514ZM74.875 8.28338L75.897 11.5482L78.137 9.30814L74.875 8.28338Z" fill="#2D2749"/>
<defs>
<filter id="filter0_i_33_568" x="21" y="71.1097" width="58" height="50.5061" filterUnits="userSpaceOnUse" color-interpolation-filters="sRGB">
<feFlood flood-opacity="0" result="BackgroundImageFix"/>
<feBlend mode="normal" in="SourceGraphic" in2="BackgroundImageFix" result="shape"/>
<feColorMatrix in="SourceAlpha" type="matrix" values="0 0 0 0 0 0 0 0 0 0 0 0 0 0 0 0 0 0 127 0" result="hardAlpha"/>
<feOffset dy="1"/>
<feGaussianBlur stdDeviation="2"/>
<feComposite in2="hardAlpha" operator="arithmetic" k2="-1" k3="1"/>
<feColorMatrix type="matrix" values="0 0 0 0 0 0 0 0 0 0 0 0 0 0 0 0 0 0 0.25 0"/>
<feBlend mode="normal" in2="shape" result="effect1_innerShadow_33_568"/>
</filter>
<filter id="filter1_d_33_568" x="72.1296" y="112.239" width="57.1444" height="57.1443" filterUnits="userSpaceOnUse" color-interpolation-filters="sRGB">
<feFlood flood-opacity="0" result="BackgroundImageFix"/>
<feColorMatrix in="SourceAlpha" type="matrix" values="0 0 0 0 0 0 0 0 0 0 0 0 0 0 0 0 0 0 127 0" result="hardAlpha"/>
<feOffset dx="-1"/>
<feGaussianBlur stdDeviation="1"/>
<feComposite in2="hardAlpha" operator="out"/>
<feColorMatrix type="matrix" values="0 0 0 0 0.815686 0 0 0 0 0.921569 0 0 0 0 0.890196 0 0 0 1 0"/>
<feBlend mode="normal" in2="BackgroundImageFix" result="effect1_dropShadow_33_568"/>
<feBlend mode="normal" in="SourceGraphic" in2="effect1_dropShadow_33_568" result="shape"/>
</filter>
<filter id="filter2_d_33_568" x="0.889412" y="0" width="97.3604" height="97.3602" filterUnits="userSpaceOnUse" color-interpolation-filters="sRGB">
<feFlood flood-opacity="0" result="BackgroundImageFix"/>
<feColorMatrix in="SourceAlpha" type="matrix" values="0 0 0 0 0 0 0 0 0 0 0 0 0 0 0 0 0 0 127 0" result="hardAlpha"/>
<feOffset dx="-1"/>
<feGaussianBlur stdDeviation="1"/>
<feComposite in2="hardAlpha" operator="out"/>
<feColorMatrix type="matrix" values="0 0 0 0 0.815686 0 0 0 0 0.921569 0 0 0 0 0.890196 0 0 0 1 0"/>
<feBlend mode="normal" in2="BackgroundImageFix" result="effect1_dropShadow_33_568"/>
<feBlend mode="normal" in="SourceGraphic" in2="effect1_dropShadow_33_568" result="shape"/>
</filter>
</defs>
</svg>
