<svg width="50" height="79" viewBox="0 0 50 79" fill="none" xmlns="http://www.w3.org/2000/svg">
<path d="M21 0V68H20C8.95431 68 4.5101e-07 59.0457 0 48V20C0 8.95431 8.95431 2.2549e-07 20 0H21ZM50 68H27C38.0457 68 47 59.0457 47 48V20C47 8.95431 38.0457 2.2549e-07 27 0H50V68Z" fill="#D0EBE3"/>
<path d="M14 47.1836L12.5859 47.9219L12.5859 51.5664L14 52.3047L14 52.8398L8.63281 50.0312L8.63281 49.457L14 46.6484L14 47.1836ZM9.10547 49.7422L12.1367 51.3281L12.1367 48.1602L9.10547 49.7422ZM9.42578 41.2539C9.3763 41.3555 9.32422 41.4727 9.26953 41.6055C9.21224 41.7383 9.16146 41.8906 9.11719 42.0625C9.07292 42.2318 9.03646 42.4232 9.00781 42.6367C8.97656 42.8503 8.96094 43.0872 8.96094 43.3477C8.96094 43.6628 8.97917 43.944 9.01562 44.1914C9.05208 44.4362 9.10937 44.6445 9.1875 44.8164C9.26302 44.9857 9.35937 45.1159 9.47656 45.207C9.59375 45.2956 9.73307 45.3398 9.89453 45.3398C10.0299 45.3398 10.1484 45.2982 10.25 45.2148C10.3516 45.1289 10.4414 45.0143 10.5195 44.8711C10.5977 44.7253 10.6693 44.556 10.7344 44.3633C10.7969 44.168 10.8568 43.9622 10.9141 43.7461C10.9687 43.5273 11.0247 43.3034 11.082 43.0742C11.1393 42.8424 11.2018 42.6185 11.2695 42.4023C11.3346 42.1836 11.4089 41.9779 11.4922 41.7852C11.5729 41.5898 11.668 41.4206 11.7773 41.2773C11.8867 41.1315 12.0117 41.0169 12.1523 40.9336C12.293 40.8477 12.4557 40.8047 12.6406 40.8047C12.8411 40.8047 13.0169 40.8424 13.168 40.918C13.3164 40.9935 13.4453 41.0964 13.5547 41.2266C13.6615 41.3542 13.7513 41.5052 13.8242 41.6797C13.8945 41.8516 13.9505 42.0365 13.9922 42.2344C14.0339 42.4297 14.0625 42.6328 14.0781 42.8437C14.0964 43.0521 14.1055 43.2578 14.1055 43.4609C14.1055 43.9271 14.0716 44.3503 14.0039 44.7305C13.9362 45.1081 13.8437 45.4687 13.7266 45.8125L13.1289 45.8125C13.3398 45.4583 13.4844 45.0846 13.5625 44.6914C13.6406 44.2956 13.6797 43.8802 13.6797 43.4453C13.6797 43.138 13.6615 42.8542 13.625 42.5937C13.5885 42.3333 13.5312 42.1081 13.4531 41.918C13.3724 41.7279 13.2682 41.5807 13.1406 41.4766C13.013 41.3698 12.8568 41.3164 12.6719 41.3164C12.5234 41.3164 12.3932 41.3594 12.2812 41.4453C12.1693 41.5286 12.0716 41.6432 11.9883 41.7891C11.9023 41.9323 11.8268 42.1016 11.7617 42.2969C11.6966 42.4896 11.6367 42.694 11.582 42.9102C11.5247 43.1263 11.4701 43.3503 11.418 43.582C11.3633 43.8112 11.3047 44.0339 11.2422 44.25C11.1797 44.4661 11.1094 44.6719 11.0312 44.8672C10.9531 45.0599 10.862 45.2292 10.7578 45.375C10.651 45.5182 10.5286 45.6328 10.3906 45.7187C10.2526 45.8021 10.0924 45.8437 9.91016 45.8437C9.73047 45.8437 9.57161 45.8099 9.43359 45.7422C9.29297 45.6745 9.17187 45.582 9.07031 45.4648C8.96875 45.3451 8.88411 45.2057 8.81641 45.0469C8.74609 44.888 8.69141 44.7187 8.65234 44.5391C8.61068 44.3568 8.58073 44.168 8.5625 43.9727C8.54427 43.7773 8.53516 43.5846 8.53516 43.3945C8.53516 43.1862 8.54427 42.9896 8.5625 42.8047C8.58073 42.6172 8.60547 42.4375 8.63672 42.2656C8.66536 42.0911 8.69922 41.9219 8.73828 41.7578C8.77734 41.5911 8.81901 41.4232 8.86328 41.2539L9.42578 41.2539ZM9.42578 34.957C9.3763 35.0586 9.32422 35.1758 9.26953 35.3086C9.21224 35.4414 9.16146 35.5937 9.11719 35.7656C9.07292 35.9349 9.03646 36.1263 9.00781 36.3398C8.97656 36.5534 8.96094 36.7904 8.96094 37.0508C8.96094 37.3659 8.97917 37.6471 9.01562 37.8945C9.05208 38.1393 9.10937 38.3477 9.1875 38.5195C9.26302 38.6888 9.35937 38.819 9.47656 38.9102C9.59375 38.9987 9.73307 39.043 9.89453 39.043C10.0299 39.043 10.1484 39.0013 10.25 38.918C10.3516 38.832 10.4414 38.7174 10.5195 38.5742C10.5977 38.4284 10.6693 38.2591 10.7344 38.0664C10.7969 37.8711 10.8568 37.6654 10.9141 37.4492C10.9687 37.2305 11.0247 37.0065 11.082 36.7773C11.1393 36.5456 11.2018 36.3216 11.2695 36.1055C11.3346 35.8867 11.4089 35.681 11.4922 35.4883C11.5729 35.293 11.668 35.1237 11.7773 34.9805C11.8867 34.8346 12.0117 34.7201 12.1523 34.6367C12.293 34.5508 12.4557 34.5078 12.6406 34.5078C12.8411 34.5078 13.0169 34.5456 13.168 34.6211C13.3164 34.6966 13.4453 34.7995 13.5547 34.9297C13.6615 35.0573 13.7513 35.2083 13.8242 35.3828C13.8945 35.5547 13.9505 35.7396 13.9922 35.9375C14.0339 36.1328 14.0625 36.3359 14.0781 36.5469C14.0964 36.7552 14.1055 36.9609 14.1055 37.1641C14.1055 37.6302 14.0716 38.0534 14.0039 38.4336C13.9362 38.8112 13.8437 39.1719 13.7266 39.5156L13.1289 39.5156C13.3398 39.1615 13.4844 38.7878 13.5625 38.3945C13.6406 37.9987 13.6797 37.5833 13.6797 37.1484C13.6797 36.8411 13.6615 36.5573 13.625 36.2969C13.5885 36.0365 13.5312 35.8112 13.4531 35.6211C13.3724 35.431 13.2682 35.2839 13.1406 35.1797C13.013 35.0729 12.8568 35.0195 12.6719 35.0195C12.5234 35.0195 12.3932 35.0625 12.2812 35.1484C12.1693 35.2318 12.0716 35.3464 11.9883 35.4922C11.9023 35.6354 11.8268 35.8047 11.7617 36C11.6966 36.1927 11.6367 36.3971 11.582 36.6133C11.5247 36.8294 11.4701 37.0534 11.418 37.2852C11.3633 37.5143 11.3047 37.737 11.2422 37.9531C11.1797 38.1693 11.1094 38.375 11.0312 38.5703C10.9531 38.763 10.862 38.9323 10.7578 39.0781C10.651 39.2214 10.5286 39.3359 10.3906 39.4219C10.2526 39.5052 10.0924 39.5469 9.91016 39.5469C9.73047 39.5469 9.57161 39.513 9.43359 39.4453C9.29297 39.3776 9.17187 39.2852 9.07031 39.168C8.96875 39.0482 8.88411 38.9089 8.81641 38.75C8.74609 38.5911 8.69141 38.4219 8.65234 38.2422C8.61068 38.0599 8.58073 37.8711 8.5625 37.6758C8.54427 37.4805 8.53516 37.2878 8.53516 37.0977C8.53516 36.8893 8.54427 36.6927 8.5625 36.5078C8.58073 36.3203 8.60547 36.1406 8.63672 35.9687C8.66536 35.7943 8.69922 35.625 8.73828 35.4609C8.77734 35.2943 8.81901 35.1263 8.86328 34.957L9.42578 34.957ZM13.7187 27.5859C13.7865 27.8047 13.8451 28.0078 13.8945 28.1953C13.9414 28.3828 13.9792 28.5677 14.0078 28.75C14.0391 28.9323 14.0612 29.1185 14.0742 29.3086C14.0898 29.4961 14.0977 29.7031 14.0977 29.9297C14.0977 30.4557 14.0339 30.931 13.9062 31.3555C13.7786 31.7799 13.5964 32.1419 13.3594 32.4414C13.1198 32.7383 12.8307 32.9674 12.4922 33.1289C12.1536 33.2904 11.7734 33.3711 11.3516 33.3711C10.9427 33.3711 10.5677 33.2943 10.2266 33.1406C9.88542 32.9844 9.59245 32.7669 9.34766 32.4883C9.10286 32.2096 8.91276 31.8763 8.77734 31.4883C8.64193 31.1003 8.57422 30.6719 8.57422 30.2031C8.57422 29.7161 8.63932 29.2826 8.76953 28.9023C8.89974 28.5221 9.08594 28.2018 9.32812 27.9414C9.57031 27.681 9.86458 27.4831 10.2109 27.3477C10.5547 27.2122 10.9427 27.1445 11.375 27.1445L11.4961 27.1445L11.4961 32.8672C11.8294 32.8385 12.1302 32.7552 12.3984 32.6172C12.6667 32.4792 12.8945 32.2839 13.082 32.0312C13.2695 31.776 13.4141 31.4635 13.5156 31.0937C13.6146 30.7214 13.6641 30.2878 13.6641 29.793C13.6641 29.582 13.6497 29.3685 13.6211 29.1523C13.5924 28.9362 13.5547 28.7292 13.5078 28.5312C13.4583 28.3333 13.4036 28.1523 13.3437 27.9883C13.2812 27.8242 13.2174 27.6901 13.1523 27.5859L13.7187 27.5859ZM11.0703 27.625C10.7969 27.6432 10.5365 27.7044 10.2891 27.8086C10.0391 27.9128 9.81901 28.069 9.62891 28.2773C9.4388 28.4831 9.28776 28.7461 9.17578 29.0664C9.0638 29.3841 9.00781 29.7656 9.00781 30.2109C9.00781 30.6302 9.0638 30.9974 9.17578 31.3125C9.28776 31.6276 9.4388 31.8945 9.62891 32.1133C9.81641 32.332 10.0352 32.5039 10.2852 32.6289C10.5326 32.7539 10.7943 32.8333 11.0703 32.8672L11.0703 27.625ZM9.07812 23.7031L14 23.7031L14 24.1875L9.07812 24.1875L9.07812 26.6289L8.63281 26.6289L8.63281 21.2617L9.07812 21.2617L9.07812 23.7031ZM14.9766 21.1094L14.5273 21.1094L14.5273 17.1094L14.9766 17.1094L14.9766 21.1094ZM14 15.8281L9.0625 15.8281L9.46484 17.1094L9.03125 17.1094L8.63281 15.8281L8.63281 15.3477L14 15.3477L14 15.8281Z" fill="#2D2749"/>
<path d="M36 49.1836L34.5859 49.9219L34.5859 53.5664L36 54.3047L36 54.8398L30.6328 52.0312L30.6328 51.457L36 48.6484L36 49.1836ZM31.1055 51.7422L34.1367 53.3281L34.1367 50.1602L31.1055 51.7422ZM31.4258 43.2539C31.3763 43.3555 31.3242 43.4727 31.2695 43.6055C31.2122 43.7383 31.1615 43.8906 31.1172 44.0625C31.0729 44.2318 31.0365 44.4232 31.0078 44.6367C30.9766 44.8503 30.9609 45.0872 30.9609 45.3477C30.9609 45.6628 30.9792 45.944 31.0156 46.1914C31.0521 46.4362 31.1094 46.6445 31.1875 46.8164C31.263 46.9857 31.3594 47.1159 31.4766 47.207C31.5937 47.2956 31.7331 47.3398 31.8945 47.3398C32.0299 47.3398 32.1484 47.2982 32.25 47.2148C32.3516 47.1289 32.4414 47.0143 32.5195 46.8711C32.5977 46.7253 32.6693 46.556 32.7344 46.3633C32.7969 46.168 32.8568 45.9622 32.9141 45.7461C32.9687 45.5273 33.0247 45.3034 33.082 45.0742C33.1393 44.8424 33.2018 44.6185 33.2695 44.4023C33.3346 44.1836 33.4089 43.9779 33.4922 43.7852C33.5729 43.5898 33.668 43.4206 33.7773 43.2773C33.8867 43.1315 34.0117 43.0169 34.1523 42.9336C34.293 42.8477 34.4557 42.8047 34.6406 42.8047C34.8411 42.8047 35.0169 42.8424 35.168 42.918C35.3164 42.9935 35.4453 43.0964 35.5547 43.2266C35.6615 43.3542 35.7513 43.5052 35.8242 43.6797C35.8945 43.8516 35.9505 44.0365 35.9922 44.2344C36.0339 44.4297 36.0625 44.6328 36.0781 44.8437C36.0964 45.0521 36.1055 45.2578 36.1055 45.4609C36.1055 45.9271 36.0716 46.3503 36.0039 46.7305C35.9362 47.1081 35.8437 47.4687 35.7266 47.8125L35.1289 47.8125C35.3398 47.4583 35.4844 47.0846 35.5625 46.6914C35.6406 46.2956 35.6797 45.8802 35.6797 45.4453C35.6797 45.138 35.6615 44.8542 35.625 44.5937C35.5885 44.3333 35.5312 44.1081 35.4531 43.918C35.3724 43.7279 35.2682 43.5807 35.1406 43.4766C35.013 43.3698 34.8568 43.3164 34.6719 43.3164C34.5234 43.3164 34.3932 43.3594 34.2812 43.4453C34.1693 43.5286 34.0716 43.6432 33.9883 43.7891C33.9023 43.9323 33.8268 44.1016 33.7617 44.2969C33.6966 44.4896 33.6367 44.694 33.582 44.9102C33.5247 45.1263 33.4701 45.3503 33.418 45.582C33.3633 45.8112 33.3047 46.0339 33.2422 46.25C33.1797 46.4661 33.1094 46.6719 33.0312 46.8672C32.9531 47.0599 32.862 47.2292 32.7578 47.375C32.651 47.5182 32.5286 47.6328 32.3906 47.7187C32.2526 47.8021 32.0924 47.8437 31.9102 47.8437C31.7305 47.8437 31.5716 47.8099 31.4336 47.7422C31.293 47.6745 31.1719 47.582 31.0703 47.4648C30.9687 47.3451 30.8841 47.2057 30.8164 47.0469C30.7461 46.888 30.6914 46.7187 30.6523 46.5391C30.6107 46.3568 30.5807 46.168 30.5625 45.9727C30.5443 45.7773 30.5352 45.5846 30.5352 45.3945C30.5352 45.1862 30.5443 44.9896 30.5625 44.8047C30.5807 44.6172 30.6055 44.4375 30.6367 44.2656C30.6654 44.0911 30.6992 43.9219 30.7383 43.7578C30.7773 43.5911 30.819 43.4232 30.8633 43.2539L31.4258 43.2539ZM31.4258 36.957C31.3763 37.0586 31.3242 37.1758 31.2695 37.3086C31.2122 37.4414 31.1615 37.5937 31.1172 37.7656C31.0729 37.9349 31.0365 38.1263 31.0078 38.3398C30.9766 38.5534 30.9609 38.7904 30.9609 39.0508C30.9609 39.3659 30.9792 39.6471 31.0156 39.8945C31.0521 40.1393 31.1094 40.3477 31.1875 40.5195C31.263 40.6888 31.3594 40.819 31.4766 40.9102C31.5937 40.9987 31.7331 41.043 31.8945 41.043C32.0299 41.043 32.1484 41.0013 32.25 40.918C32.3516 40.832 32.4414 40.7174 32.5195 40.5742C32.5977 40.4284 32.6693 40.2591 32.7344 40.0664C32.7969 39.8711 32.8568 39.6654 32.9141 39.4492C32.9687 39.2305 33.0247 39.0065 33.082 38.7773C33.1393 38.5456 33.2018 38.3216 33.2695 38.1055C33.3346 37.8867 33.4089 37.681 33.4922 37.4883C33.5729 37.293 33.668 37.1237 33.7773 36.9805C33.8867 36.8346 34.0117 36.7201 34.1523 36.6367C34.293 36.5508 34.4557 36.5078 34.6406 36.5078C34.8411 36.5078 35.0169 36.5456 35.168 36.6211C35.3164 36.6966 35.4453 36.7995 35.5547 36.9297C35.6615 37.0573 35.7513 37.2083 35.8242 37.3828C35.8945 37.5547 35.9505 37.7396 35.9922 37.9375C36.0339 38.1328 36.0625 38.3359 36.0781 38.5469C36.0964 38.7552 36.1055 38.9609 36.1055 39.1641C36.1055 39.6302 36.0716 40.0534 36.0039 40.4336C35.9362 40.8112 35.8437 41.1719 35.7266 41.5156L35.1289 41.5156C35.3398 41.1615 35.4844 40.7878 35.5625 40.3945C35.6406 39.9987 35.6797 39.5833 35.6797 39.1484C35.6797 38.8411 35.6615 38.5573 35.625 38.2969C35.5885 38.0365 35.5312 37.8112 35.4531 37.6211C35.3724 37.431 35.2682 37.2839 35.1406 37.1797C35.013 37.0729 34.8568 37.0195 34.6719 37.0195C34.5234 37.0195 34.3932 37.0625 34.2812 37.1484C34.1693 37.2318 34.0716 37.3464 33.9883 37.4922C33.9023 37.6354 33.8268 37.8047 33.7617 38C33.6966 38.1927 33.6367 38.3971 33.582 38.6133C33.5247 38.8294 33.4701 39.0534 33.418 39.2852C33.3633 39.5143 33.3047 39.737 33.2422 39.9531C33.1797 40.1693 33.1094 40.375 33.0312 40.5703C32.9531 40.763 32.862 40.9323 32.7578 41.0781C32.651 41.2214 32.5286 41.3359 32.3906 41.4219C32.2526 41.5052 32.0924 41.5469 31.9102 41.5469C31.7305 41.5469 31.5716 41.513 31.4336 41.4453C31.293 41.3776 31.1719 41.2852 31.0703 41.168C30.9687 41.0482 30.8841 40.9089 30.8164 40.75C30.7461 40.5911 30.6914 40.4219 30.6523 40.2422C30.6107 40.0599 30.5807 39.8711 30.5625 39.6758C30.5443 39.4805 30.5352 39.2878 30.5352 39.0977C30.5352 38.8893 30.5443 38.6927 30.5625 38.5078C30.5807 38.3203 30.6055 38.1406 30.6367 37.9687C30.6654 37.7943 30.6992 37.625 30.7383 37.4609C30.7773 37.2943 30.819 37.1263 30.8633 36.957L31.4258 36.957ZM35.7187 29.5859C35.7865 29.8047 35.8451 30.0078 35.8945 30.1953C35.9414 30.3828 35.9792 30.5677 36.0078 30.75C36.0391 30.9323 36.0612 31.1185 36.0742 31.3086C36.0898 31.4961 36.0977 31.7031 36.0977 31.9297C36.0977 32.4557 36.0339 32.931 35.9062 33.3555C35.7786 33.7799 35.5964 34.1419 35.3594 34.4414C35.1198 34.7383 34.8307 34.9674 34.4922 35.1289C34.1536 35.2904 33.7734 35.3711 33.3516 35.3711C32.9427 35.3711 32.5677 35.2943 32.2266 35.1406C31.8854 34.9844 31.5924 34.7669 31.3477 34.4883C31.1029 34.2096 30.9128 33.8763 30.7773 33.4883C30.6419 33.1003 30.5742 32.6719 30.5742 32.2031C30.5742 31.7161 30.6393 31.2826 30.7695 30.9023C30.8997 30.5221 31.0859 30.2018 31.3281 29.9414C31.5703 29.681 31.8646 29.4831 32.2109 29.3477C32.5547 29.2122 32.9427 29.1445 33.375 29.1445L33.4961 29.1445L33.4961 34.8672C33.8294 34.8385 34.1302 34.7552 34.3984 34.6172C34.6667 34.4792 34.8945 34.2839 35.082 34.0312C35.2695 33.776 35.4141 33.4635 35.5156 33.0937C35.6146 32.7214 35.6641 32.2878 35.6641 31.793C35.6641 31.582 35.6497 31.3685 35.6211 31.1523C35.5924 30.9362 35.5547 30.7292 35.5078 30.5312C35.4583 30.3333 35.4036 30.1523 35.3437 29.9883C35.2812 29.8242 35.2174 29.6901 35.1523 29.5859L35.7187 29.5859ZM33.0703 29.625C32.7969 29.6432 32.5365 29.7044 32.2891 29.8086C32.0391 29.9128 31.819 30.069 31.6289 30.2773C31.4388 30.4831 31.2878 30.7461 31.1758 31.0664C31.0638 31.3841 31.0078 31.7656 31.0078 32.2109C31.0078 32.6302 31.0638 32.9974 31.1758 33.3125C31.2878 33.6276 31.4388 33.8945 31.6289 34.1133C31.8164 34.332 32.0352 34.5039 32.2852 34.6289C32.5326 34.7539 32.7943 34.8333 33.0703 34.8672L33.0703 29.625ZM31.0781 25.7031L36 25.7031L36 26.1875L31.0781 26.1875L31.0781 28.6289L30.6328 28.6289L30.6328 23.2617L31.0781 23.2617L31.0781 25.7031ZM36.9766 23.1094L36.5273 23.1094L36.5273 19.1094L36.9766 19.1094L36.9766 23.1094ZM36 18.7891L35.6719 18.7891C35.2943 18.1146 34.9479 17.5039 34.6328 16.957C34.3151 16.4076 34.0182 15.9401 33.7422 15.5547C33.4635 15.1693 33.1992 14.8737 32.9492 14.668C32.6966 14.4622 32.4466 14.3646 32.1992 14.375C32.0143 14.3828 31.8464 14.4349 31.6953 14.5312C31.5417 14.625 31.4115 14.7617 31.3047 14.9414C31.1953 15.1211 31.1107 15.3424 31.0508 15.6055C30.9909 15.8685 30.9609 16.1719 30.9609 16.5156C30.9609 16.7292 30.9727 16.9336 30.9961 17.1289C31.0195 17.3216 31.056 17.5091 31.1055 17.6914C31.1523 17.8711 31.2122 18.0469 31.2852 18.2187C31.3581 18.3906 31.444 18.5599 31.543 18.7266L31.0078 18.7266C30.9349 18.5469 30.8698 18.3724 30.8125 18.2031C30.7526 18.0339 30.7018 17.862 30.6602 17.6875C30.6185 17.513 30.5872 17.332 30.5664 17.1445C30.5456 16.957 30.5352 16.7565 30.5352 16.543C30.5352 16.1602 30.5729 15.806 30.6484 15.4805C30.724 15.1549 30.8346 14.8737 30.9805 14.6367C31.1237 14.3997 31.3008 14.2148 31.5117 14.082C31.7227 13.9466 31.9648 13.8789 32.2383 13.8789C32.4857 13.8789 32.7331 13.9635 32.9805 14.1328C33.2279 14.3021 33.4844 14.5495 33.75 14.875C34.0156 15.1979 34.2956 15.5964 34.5898 16.0703C34.8841 16.5443 35.2044 17.0859 35.5508 17.6953L35.5508 13.7656L36 13.7656L36 18.7891Z" fill="#2D2749"/>
<path d="M10.8164 77L10.0781 75.5859H6.43359L5.69531 77H5.16016L7.96875 71.6328H8.54297L11.3516 77H10.8164ZM8.25781 72.1055L6.67187 75.1367H9.83984L8.25781 72.1055ZM16.7461 72.4258C16.6445 72.3763 16.5273 72.3242 16.3945 72.2695C16.2617 72.2122 16.1094 72.1615 15.9375 72.1172C15.7682 72.0729 15.5768 72.0365 15.3633 72.0078C15.1497 71.9766 14.9128 71.9609 14.6523 71.9609C14.3372 71.9609 14.056 71.9792 13.8086 72.0156C13.5638 72.0521 13.3555 72.1094 13.1836 72.1875C13.0143 72.263 12.8841 72.3594 12.793 72.4766C12.7044 72.5938 12.6602 72.7331 12.6602 72.8945C12.6602 73.0299 12.7018 73.1484 12.7852 73.25C12.8711 73.3516 12.9857 73.4414 13.1289 73.5195C13.2747 73.5977 13.444 73.6693 13.6367 73.7344C13.832 73.7969 14.0378 73.8568 14.2539 73.9141C14.4727 73.9688 14.6966 74.0247 14.9258 74.082C15.1576 74.1393 15.3815 74.2018 15.5977 74.2695C15.8164 74.3346 16.0221 74.4089 16.2148 74.4922C16.4102 74.5729 16.5794 74.668 16.7227 74.7773C16.8685 74.8867 16.9831 75.0117 17.0664 75.1523C17.1523 75.293 17.1953 75.4557 17.1953 75.6406C17.1953 75.8411 17.1576 76.0169 17.082 76.168C17.0065 76.3164 16.9036 76.4453 16.7734 76.5547C16.6458 76.6615 16.4948 76.7513 16.3203 76.8242C16.1484 76.8945 15.9635 76.9505 15.7656 76.9922C15.5703 77.0339 15.3672 77.0625 15.1562 77.0781C14.9479 77.0964 14.7422 77.1055 14.5391 77.1055C14.0729 77.1055 13.6497 77.0716 13.2695 77.0039C12.8919 76.9362 12.5312 76.8438 12.1875 76.7266V76.1289C12.5417 76.3398 12.9154 76.4844 13.3086 76.5625C13.7044 76.6406 14.1198 76.6797 14.5547 76.6797C14.862 76.6797 15.1458 76.6615 15.4062 76.625C15.6667 76.5885 15.8919 76.5312 16.082 76.4531C16.2721 76.3724 16.4193 76.2682 16.5234 76.1406C16.6302 76.013 16.6836 75.8568 16.6836 75.6719C16.6836 75.5234 16.6406 75.3932 16.5547 75.2812C16.4714 75.1693 16.3568 75.0716 16.2109 74.9883C16.0677 74.9023 15.8984 74.8268 15.7031 74.7617C15.5104 74.6966 15.306 74.6367 15.0898 74.582C14.8737 74.5247 14.6497 74.4701 14.418 74.418C14.1888 74.3633 13.9661 74.3047 13.75 74.2422C13.5339 74.1797 13.3281 74.1094 13.1328 74.0312C12.9401 73.9531 12.7708 73.862 12.625 73.7578C12.4818 73.651 12.3672 73.5286 12.2812 73.3906C12.1979 73.2526 12.1562 73.0924 12.1562 72.9102C12.1562 72.7305 12.1901 72.5716 12.2578 72.4336C12.3255 72.293 12.418 72.1719 12.5352 72.0703C12.6549 71.9688 12.7943 71.8841 12.9531 71.8164C13.112 71.7461 13.2812 71.6914 13.4609 71.6523C13.6432 71.6107 13.832 71.5807 14.0273 71.5625C14.2227 71.5443 14.4154 71.5352 14.6055 71.5352C14.8138 71.5352 15.0104 71.5443 15.1953 71.5625C15.3828 71.5807 15.5625 71.6055 15.7344 71.6367C15.9089 71.6654 16.0781 71.6992 16.2422 71.7383C16.4089 71.7773 16.5768 71.819 16.7461 71.8633V72.4258ZM23.043 72.4258C22.9414 72.3763 22.8242 72.3242 22.6914 72.2695C22.5586 72.2122 22.4062 72.1615 22.2344 72.1172C22.0651 72.0729 21.8737 72.0365 21.6602 72.0078C21.4466 71.9766 21.2096 71.9609 20.9492 71.9609C20.6341 71.9609 20.3529 71.9792 20.1055 72.0156C19.8607 72.0521 19.6523 72.1094 19.4805 72.1875C19.3112 72.263 19.181 72.3594 19.0898 72.4766C19.0013 72.5938 18.957 72.7331 18.957 72.8945C18.957 73.0299 18.9987 73.1484 19.082 73.25C19.168 73.3516 19.2826 73.4414 19.4258 73.5195C19.5716 73.5977 19.7409 73.6693 19.9336 73.7344C20.1289 73.7969 20.3346 73.8568 20.5508 73.9141C20.7695 73.9688 20.9935 74.0247 21.2227 74.082C21.4544 74.1393 21.6784 74.2018 21.8945 74.2695C22.1133 74.3346 22.319 74.4089 22.5117 74.4922C22.707 74.5729 22.8763 74.668 23.0195 74.7773C23.1654 74.8867 23.2799 75.0117 23.3633 75.1523C23.4492 75.293 23.4922 75.4557 23.4922 75.6406C23.4922 75.8411 23.4544 76.0169 23.3789 76.168C23.3034 76.3164 23.2005 76.4453 23.0703 76.5547C22.9427 76.6615 22.7917 76.7513 22.6172 76.8242C22.4453 76.8945 22.2604 76.9505 22.0625 76.9922C21.8672 77.0339 21.6641 77.0625 21.4531 77.0781C21.2448 77.0964 21.0391 77.1055 20.8359 77.1055C20.3698 77.1055 19.9466 77.0716 19.5664 77.0039C19.1888 76.9362 18.8281 76.8438 18.4844 76.7266V76.1289C18.8385 76.3398 19.2122 76.4844 19.6055 76.5625C20.0013 76.6406 20.4167 76.6797 20.8516 76.6797C21.1589 76.6797 21.4427 76.6615 21.7031 76.625C21.9635 76.5885 22.1888 76.5312 22.3789 76.4531C22.569 76.3724 22.7161 76.2682 22.8203 76.1406C22.9271 76.013 22.9805 75.8568 22.9805 75.6719C22.9805 75.5234 22.9375 75.3932 22.8516 75.2812C22.7682 75.1693 22.6536 75.0716 22.5078 74.9883C22.3646 74.9023 22.1953 74.8268 22 74.7617C21.8073 74.6966 21.6029 74.6367 21.3867 74.582C21.1706 74.5247 20.9466 74.4701 20.7148 74.418C20.4857 74.3633 20.263 74.3047 20.0469 74.2422C19.8307 74.1797 19.625 74.1094 19.4297 74.0312C19.237 73.9531 19.0677 73.862 18.9219 73.7578C18.7786 73.651 18.6641 73.5286 18.5781 73.3906C18.4948 73.2526 18.4531 73.0924 18.4531 72.9102C18.4531 72.7305 18.487 72.5716 18.5547 72.4336C18.6224 72.293 18.7148 72.1719 18.832 72.0703C18.9518 71.9688 19.0911 71.8841 19.25 71.8164C19.4089 71.7461 19.5781 71.6914 19.7578 71.6523C19.9401 71.6107 20.1289 71.5807 20.3242 71.5625C20.5195 71.5443 20.7122 71.5352 20.9023 71.5352C21.1107 71.5352 21.3073 71.5443 21.4922 71.5625C21.6797 71.5807 21.8594 71.6055 22.0312 71.6367C22.2057 71.6654 22.375 71.6992 22.5391 71.7383C22.7057 71.7773 22.8737 71.819 23.043 71.8633V72.4258ZM30.4141 76.7188C30.1953 76.7865 29.9922 76.8451 29.8047 76.8945C29.6172 76.9414 29.4323 76.9792 29.25 77.0078C29.0677 77.0391 28.8815 77.0612 28.6914 77.0742C28.5039 77.0898 28.2969 77.0977 28.0703 77.0977C27.5443 77.0977 27.069 77.0339 26.6445 76.9062C26.2201 76.7786 25.8581 76.5964 25.5586 76.3594C25.2617 76.1198 25.0326 75.8307 24.8711 75.4922C24.7096 75.1536 24.6289 74.7734 24.6289 74.3516C24.6289 73.9427 24.7057 73.5677 24.8594 73.2266C25.0156 72.8854 25.2331 72.5924 25.5117 72.3477C25.7904 72.1029 26.1237 71.9128 26.5117 71.7773C26.8997 71.6419 27.3281 71.5742 27.7969 71.5742C28.2839 71.5742 28.7174 71.6393 29.0977 71.7695C29.4779 71.8997 29.7982 72.0859 30.0586 72.3281C30.319 72.5703 30.5169 72.8646 30.6523 73.2109C30.7878 73.5547 30.8555 73.9427 30.8555 74.375V74.4961H25.1328C25.1615 74.8294 25.2448 75.1302 25.3828 75.3984C25.5208 75.6667 25.7161 75.8945 25.9688 76.082C26.224 76.2695 26.5365 76.4141 26.9062 76.5156C27.2786 76.6146 27.7122 76.6641 28.207 76.6641C28.418 76.6641 28.6315 76.6497 28.8477 76.6211C29.0638 76.5924 29.2708 76.5547 29.4688 76.5078C29.6667 76.4583 29.8477 76.4036 30.0117 76.3438C30.1758 76.2812 30.3099 76.2174 30.4141 76.1523V76.7188ZM30.375 74.0703C30.3568 73.7969 30.2956 73.5365 30.1914 73.2891C30.0872 73.0391 29.931 72.819 29.7227 72.6289C29.5169 72.4388 29.2539 72.2878 28.9336 72.1758C28.6159 72.0638 28.2344 72.0078 27.7891 72.0078C27.3698 72.0078 27.0026 72.0638 26.6875 72.1758C26.3724 72.2878 26.1055 72.4388 25.8867 72.6289C25.668 72.8164 25.4961 73.0352 25.3711 73.2852C25.2461 73.5326 25.1667 73.7943 25.1328 74.0703H30.375ZM34.2969 72.0781V77H33.8125V72.0781H31.3711V71.6328H36.7383V72.0781H34.2969ZM36.8906 77.9766V77.5273H40.8906V77.9766H36.8906ZM44.3242 74.1367C44.6315 74.1758 44.8984 74.237 45.125 74.3203C45.3542 74.4036 45.543 74.5026 45.6914 74.6172C45.8424 74.7318 45.9544 74.862 46.0273 75.0078C46.1003 75.151 46.1367 75.3034 46.1367 75.4648C46.1367 75.7461 46.0651 75.9909 45.9219 76.1992C45.7812 76.4049 45.5885 76.5755 45.3438 76.7109C45.1016 76.8438 44.8164 76.9427 44.4883 77.0078C44.1628 77.0729 43.8164 77.1055 43.4492 77.1055C43.1862 77.1055 42.9492 77.0951 42.7383 77.0742C42.5273 77.056 42.3333 77.0286 42.1562 76.9922C41.9792 76.9557 41.8138 76.9128 41.6602 76.8633C41.5065 76.8112 41.3568 76.7552 41.2109 76.6953V76.1289C41.5365 76.3216 41.8724 76.4622 42.2188 76.5508C42.5651 76.6367 42.9362 76.6797 43.332 76.6797C43.7305 76.6797 44.0742 76.651 44.3633 76.5938C44.6549 76.5339 44.8945 76.4518 45.082 76.3477C45.2721 76.2409 45.4128 76.1133 45.5039 75.9648C45.5977 75.8164 45.6445 75.6523 45.6445 75.4727C45.6445 75.0846 45.4089 74.8021 44.9375 74.625C44.4688 74.4479 43.7487 74.3568 42.7773 74.3516V73.9297C43.6628 73.9297 44.3294 73.8529 44.7773 73.6992C45.2253 73.543 45.4492 73.2943 45.4492 72.9531C45.4492 72.6354 45.2695 72.3893 44.9102 72.2148C44.5534 72.0404 44.0273 71.9531 43.332 71.9531C43.1289 71.9531 42.9388 71.9635 42.7617 71.9844C42.5872 72.0052 42.4193 72.0365 42.2578 72.0781C42.0964 72.1198 41.9388 72.1706 41.7852 72.2305C41.6315 72.2904 41.4753 72.3607 41.3164 72.4414V71.8789C41.4909 71.8216 41.6615 71.7721 41.8281 71.7305C41.9948 71.6862 42.1628 71.6497 42.332 71.6211C42.5013 71.5924 42.6745 71.5716 42.8516 71.5586C43.0286 71.543 43.2148 71.5352 43.4102 71.5352C43.6289 71.5352 43.8424 71.5456 44.0508 71.5664C44.2617 71.5872 44.4609 71.6211 44.6484 71.668C44.8359 71.7122 45.0078 71.7708 45.1641 71.8438C45.3229 71.9141 45.4596 72.0013 45.5742 72.1055C45.6888 72.207 45.7773 72.3255 45.8398 72.4609C45.9049 72.5964 45.9375 72.75 45.9375 72.9219C45.9375 73.0599 45.9036 73.194 45.8359 73.3242C45.7708 73.4544 45.6706 73.5742 45.5352 73.6836C45.4023 73.793 45.2344 73.888 45.0312 73.9688C44.8307 74.0469 44.5951 74.1029 44.3242 74.1367Z" fill="#2D2749"/>
</svg>
