<svg width="638" height="431" viewBox="0 0 638 431" fill="none" xmlns="http://www.w3.org/2000/svg">
<g clip-path="url(#clip0_120_48)">
<path d="M374.763 265.93C375.541 265.237 376.353 264.577 377.198 263.954C383.187 259.541 390.458 257.213 397.897 257.329C405.335 257.444 412.531 259.996 418.379 264.593C424.228 269.19 428.408 275.58 430.277 282.78C432.147 289.981 431.603 297.596 428.73 304.458C425.856 311.32 420.811 317.05 414.369 320.769L413.544 319.341L412.617 317.413C412.526 317.223 412.407 317.068 412.261 316.949C412.21 316.906 412.154 316.87 412.098 316.837L406.225 306.667C411.483 303.648 415.024 297.977 415.024 291.479C415.024 281.814 407.189 273.98 397.525 273.979C393.268 273.979 389.366 275.5 386.332 278.027L374.763 265.93ZM414.86 319.249L416.921 317.741C417.099 317.61 417.262 317.474 417.41 317.332C417.557 317.188 417.682 317.039 417.787 316.884C417.892 316.73 417.971 316.569 418.025 316.402C418.081 316.233 418.106 316.058 418.1 315.878C418.096 315.698 418.057 315.51 417.985 315.316C417.912 315.12 417.8 314.919 417.647 314.711C417.496 314.504 417.339 314.337 417.176 314.21C417.012 314.083 416.844 313.99 416.673 313.931C416.502 313.87 416.329 313.841 416.152 313.844C415.975 313.846 415.796 313.874 415.615 313.928C415.437 313.982 415.257 314.058 415.077 314.155C414.896 314.252 414.716 314.365 414.538 314.496L412.482 316.001L414.86 319.249ZM408.607 317.916L408.846 318.412C408.935 318.282 409.033 318.15 409.139 318.015C409.245 317.878 409.362 317.743 409.492 317.612C409.621 317.48 409.765 317.354 409.925 317.234C410.084 317.114 410.261 317.007 410.456 316.913C410.701 316.796 410.934 316.721 411.154 316.689C411.376 316.654 411.579 316.659 411.766 316.703C411.885 316.731 411.995 316.777 412.098 316.837L413.544 319.341L413.805 319.884L412.828 320.354L411.851 318.321C411.786 318.185 411.715 318.068 411.64 317.97C411.564 317.87 411.476 317.797 411.375 317.75C411.276 317.7 411.159 317.681 411.026 317.693C410.894 317.702 410.739 317.749 410.563 317.834C410.43 317.898 410.298 317.984 410.168 318.092C410.039 318.198 409.917 318.315 409.801 318.444C409.685 318.574 409.58 318.709 409.486 318.852C409.394 318.993 409.317 319.132 409.257 319.267L410.351 321.544L409.371 322.014L407.628 318.387L408.607 317.916ZM414.965 315.269C415.172 315.117 415.361 315.008 415.532 314.941C415.702 314.872 415.859 314.843 416.003 314.854C416.147 314.863 416.28 314.91 416.404 314.996C416.529 315.081 416.649 315.202 416.763 315.358C416.877 315.514 416.956 315.664 416.999 315.809C417.044 315.953 417.05 316.096 417.016 316.239C416.983 316.38 416.909 316.521 416.793 316.664C416.676 316.805 416.515 316.952 416.309 317.103L415.22 317.901L413.876 316.066L414.965 315.269ZM403.325 320.129C403.495 319.883 403.722 319.666 404.005 319.478C404.288 319.289 404.62 319.142 405.003 319.038C405.356 318.943 405.691 318.904 406.009 318.921C406.329 318.936 406.618 319.008 406.878 319.138C407.14 319.268 407.365 319.455 407.554 319.697C407.745 319.939 407.888 320.238 407.984 320.594L408.055 320.854L404.226 321.889C404.293 322.002 404.378 322.099 404.482 322.18C404.589 322.261 404.72 322.319 404.873 322.354C405.026 322.389 405.205 322.401 405.41 322.388C405.617 322.375 405.856 322.331 406.127 322.257C406.32 322.205 406.505 322.144 406.684 322.071C406.862 321.997 407.026 321.919 407.176 321.838C407.326 321.755 407.458 321.673 407.574 321.591C407.691 321.509 407.783 321.434 407.849 321.365L408.095 322.273C407.805 322.464 407.507 322.626 407.2 322.757C406.896 322.89 406.578 323.001 406.246 323.09C405.822 323.205 405.431 323.262 405.075 323.261C404.72 323.258 404.406 323.2 404.133 323.087C403.86 322.975 403.63 322.81 403.444 322.592C403.257 322.373 403.121 322.105 403.036 321.789C402.956 321.494 402.942 321.205 402.993 320.923C403.045 320.637 403.156 320.373 403.325 320.129ZM403.26 324.192L403.358 324.941L400.385 325.334L400.285 324.585L403.26 324.192ZM404.259 320.456C404.168 320.574 404.104 320.691 404.067 320.809C404.03 320.926 404.013 321.03 404.017 321.119L406.803 320.367C406.767 320.273 406.712 320.182 406.636 320.093C406.56 320.002 406.46 319.929 406.334 319.874C406.208 319.819 406.053 319.788 405.871 319.78C405.689 319.771 405.471 319.801 405.221 319.869C404.985 319.933 404.789 320.017 404.634 320.122C404.478 320.226 404.353 320.338 404.259 320.456ZM400.106 320.169L400.116 321.045L398.404 321.063L398.438 324.212L397.35 324.223L397.317 321.074L395.609 321.092L395.6 320.216L400.106 320.169ZM390.81 320.706C390.97 320.465 391.176 320.266 391.427 320.108C391.681 319.949 391.975 319.839 392.309 319.778C392.643 319.715 393.007 319.712 393.399 319.767C393.761 319.819 394.085 319.915 394.37 320.056C394.658 320.196 394.896 320.376 395.084 320.598C395.273 320.82 395.406 321.08 395.484 321.377C395.564 321.674 395.579 322.006 395.527 322.371L395.489 322.639L391.562 322.08C391.579 322.211 391.619 322.334 391.683 322.45C391.75 322.566 391.847 322.671 391.973 322.764C392.1 322.856 392.26 322.937 392.453 323.006C392.649 323.075 392.886 323.129 393.165 323.169C393.362 323.197 393.557 323.213 393.749 323.217C393.943 323.218 394.124 323.212 394.294 323.197C394.464 323.179 394.619 323.156 394.757 323.126C394.897 323.097 395.011 323.063 395.099 323.027L394.967 323.958C394.625 324.019 394.287 324.051 393.954 324.051C393.622 324.053 393.286 324.03 392.946 323.982C392.511 323.92 392.129 323.818 391.802 323.676C391.477 323.534 391.211 323.358 391.005 323.147C390.798 322.936 390.651 322.693 390.566 322.418C390.481 322.144 390.462 321.844 390.508 321.519C390.551 321.218 390.652 320.946 390.81 320.706ZM391.842 321.026C391.761 321.119 391.705 321.207 391.674 321.291L394.53 321.697C394.535 321.597 394.52 321.491 394.484 321.38C394.451 321.267 394.387 321.16 394.293 321.06C394.199 320.96 394.069 320.87 393.904 320.791C393.74 320.711 393.53 320.653 393.273 320.616C393.031 320.582 392.818 320.582 392.634 320.617C392.449 320.652 392.29 320.705 392.158 320.777C392.027 320.849 391.922 320.932 391.842 321.026ZM391.214 289.521C391.552 288.369 392.205 287.339 393.095 286.544L398.364 292.052C398.555 292.251 398.871 292.258 399.071 292.068C399.27 291.877 399.277 291.561 399.087 291.362L393.895 285.934C394.957 285.25 396.2 284.892 397.469 284.911C398.872 284.933 400.229 285.415 401.332 286.282C402.436 287.149 403.224 288.355 403.577 289.713C403.93 291.071 403.827 292.508 403.285 293.802C402.743 295.096 401.791 296.178 400.576 296.88L406.225 306.667C403.662 308.138 400.691 308.979 397.524 308.979C394.065 308.979 390.84 307.976 388.125 306.244L393.991 296.777C392.798 296.038 391.88 294.928 391.378 293.618C390.877 292.307 390.819 290.868 391.214 289.521ZM386.529 318.861C386.627 318.757 386.74 318.678 386.867 318.624C386.997 318.568 387.137 318.535 387.286 318.522C387.437 318.51 387.591 318.512 387.748 318.529C387.904 318.545 388.061 318.571 388.215 318.607C388.369 318.643 388.514 318.683 388.65 318.726C388.799 318.773 388.95 318.828 389.101 318.892C389.255 318.956 389.404 319.027 389.548 319.102C389.693 319.176 389.83 319.254 389.961 319.334C390.093 319.414 390.214 319.493 390.322 319.57L390.044 320.459C389.982 320.4 389.899 320.33 389.793 320.248C389.688 320.166 389.566 320.082 389.427 319.995C389.289 319.907 389.136 319.821 388.968 319.74C388.799 319.656 388.622 319.586 388.436 319.527C388.287 319.48 388.157 319.445 388.048 319.421C387.941 319.397 387.849 319.382 387.772 319.374C387.696 319.366 387.633 319.367 387.584 319.374C387.537 319.38 387.499 319.389 387.47 319.403C387.442 319.416 387.42 319.432 387.406 319.45C387.394 319.469 387.386 319.487 387.381 319.504C387.363 319.559 387.376 319.617 387.418 319.678C387.461 319.736 387.526 319.798 387.612 319.862C387.699 319.924 387.802 319.989 387.921 320.059C388.041 320.128 388.168 320.201 388.301 320.278C388.437 320.353 388.576 320.433 388.717 320.518C388.86 320.602 388.996 320.691 389.124 320.785C389.254 320.879 389.374 320.979 389.482 321.084C389.591 321.188 389.681 321.298 389.751 321.414C389.821 321.53 389.866 321.652 389.887 321.782C389.907 321.911 389.895 322.048 389.85 322.191C389.792 322.375 389.71 322.523 389.604 322.635C389.497 322.747 389.374 322.832 389.235 322.889C389.099 322.946 388.95 322.981 388.789 322.991C388.628 323 388.464 322.994 388.296 322.974C388.13 322.955 387.965 322.925 387.8 322.884C387.637 322.843 387.482 322.8 387.337 322.754C386.957 322.635 386.615 322.492 386.31 322.326C386.007 322.164 385.746 321.997 385.527 321.827L385.815 320.91C386.026 321.132 386.282 321.334 386.583 321.516C386.886 321.699 387.224 321.849 387.596 321.966C387.816 322.035 387.999 322.08 388.144 322.101C388.291 322.12 388.409 322.125 388.499 322.114C388.589 322.102 388.655 322.078 388.696 322.044C388.738 322.01 388.764 321.973 388.776 321.934C388.795 321.872 388.784 321.81 388.742 321.748C388.701 321.684 388.637 321.62 388.551 321.557C388.465 321.491 388.362 321.424 388.242 321.356C388.123 321.285 387.996 321.213 387.859 321.139C387.725 321.065 387.586 320.987 387.444 320.905C387.302 320.824 387.165 320.737 387.034 320.647C386.905 320.555 386.786 320.459 386.676 320.359C386.567 320.257 386.476 320.151 386.405 320.039C386.334 319.925 386.288 319.804 386.266 319.679C386.245 319.552 386.256 319.416 386.301 319.272C386.355 319.103 386.43 318.966 386.529 318.861ZM382.424 316.889C382.537 316.801 382.66 316.74 382.794 316.706C382.931 316.67 383.074 316.658 383.224 316.668C383.375 316.679 383.527 316.705 383.679 316.745C383.831 316.785 383.981 316.834 384.128 316.893C384.275 316.953 384.413 317.014 384.541 317.077C384.681 317.146 384.822 317.223 384.962 317.309C385.104 317.396 385.24 317.489 385.371 317.585C385.503 317.68 385.628 317.777 385.745 317.876C385.863 317.976 385.971 318.072 386.067 318.165L385.656 319.001C385.604 318.934 385.532 318.852 385.44 318.755C385.349 318.658 385.242 318.556 385.118 318.449C384.995 318.341 384.855 318.234 384.701 318.127C384.547 318.019 384.383 317.922 384.208 317.836C384.067 317.767 383.945 317.713 383.841 317.672C383.739 317.633 383.649 317.604 383.574 317.585C383.5 317.566 383.438 317.556 383.389 317.556C383.342 317.554 383.303 317.558 383.273 317.567C383.242 317.576 383.219 317.588 383.202 317.604C383.188 317.621 383.176 317.637 383.168 317.653C383.143 317.705 383.146 317.765 383.179 317.83C383.212 317.895 383.267 317.965 383.343 318.042C383.42 318.116 383.511 318.198 383.619 318.285C383.727 318.371 383.841 318.462 383.961 318.558C384.084 318.653 384.209 318.753 384.335 318.859C384.465 318.963 384.586 319.071 384.699 319.183C384.813 319.296 384.916 319.413 385.007 319.534C385.098 319.653 385.17 319.775 385.221 319.901C385.273 320.026 385.299 320.154 385.3 320.285C385.301 320.416 385.268 320.549 385.202 320.684C385.117 320.857 385.013 320.992 384.891 321.086C384.768 321.181 384.634 321.245 384.489 321.28C384.345 321.316 384.192 321.328 384.032 321.314C383.872 321.299 383.71 321.267 383.548 321.222C383.387 321.178 383.227 321.123 383.07 321.057C382.916 320.992 382.77 320.926 382.633 320.859C382.276 320.684 381.959 320.491 381.683 320.282C381.408 320.075 381.175 319.87 380.985 319.668L381.408 318.805C381.583 319.056 381.805 319.296 382.075 319.522C382.346 319.748 382.658 319.948 383.009 320.12C383.216 320.222 383.389 320.294 383.529 320.336C383.672 320.378 383.788 320.4 383.878 320.403C383.969 320.404 384.037 320.391 384.083 320.363C384.129 320.336 384.161 320.304 384.179 320.267C384.208 320.21 384.206 320.147 384.175 320.079C384.143 320.009 384.09 319.936 384.014 319.859C383.94 319.781 383.848 319.7 383.74 319.614C383.633 319.527 383.517 319.436 383.393 319.343C383.272 319.248 383.147 319.15 383.019 319.048C382.891 318.946 382.769 318.84 382.653 318.731C382.539 318.621 382.435 318.508 382.342 318.393C382.249 318.275 382.176 318.156 382.123 318.034C382.07 317.91 382.043 317.785 382.04 317.657C382.038 317.528 382.071 317.396 382.137 317.261C382.215 317.101 382.311 316.977 382.424 316.889ZM364.742 281.762C366.444 275.953 369.659 270.728 374.025 266.605L385.582 278.688C382.162 281.882 380.024 286.431 380.024 291.48C380.024 297.685 383.254 303.137 388.125 306.244L381.787 316.475C381.787 316.284 381.746 316.092 381.657 315.898C381.559 315.683 381.41 315.47 381.211 315.259C381.013 315.046 380.777 314.841 380.503 314.644C380.364 314.543 380.213 314.444 380.052 314.347C379.892 314.249 379.73 314.157 379.566 314.07C379.403 313.981 379.243 313.901 379.086 313.829C378.929 313.756 378.784 313.694 378.653 313.643L378.087 314.427C378.223 314.462 378.37 314.507 378.527 314.563C378.685 314.618 378.845 314.684 379.01 314.76C379.176 314.836 379.343 314.923 379.51 315.019C379.679 315.115 379.844 315.22 380.004 315.336C380.207 315.482 380.364 315.614 380.475 315.733C380.589 315.853 380.667 315.961 380.712 316.056C380.76 316.15 380.778 316.235 380.768 316.309C380.759 316.382 380.735 316.445 380.696 316.498L380.647 316.567C380.11 316.224 379.633 315.941 379.218 315.719C378.804 315.498 378.441 315.344 378.126 315.26C377.812 315.175 377.541 315.163 377.314 315.224C377.089 315.283 376.897 315.422 376.738 315.642C376.613 315.816 376.544 315.991 376.533 316.166C376.524 316.342 376.556 316.514 376.629 316.679C376.702 316.845 376.808 317.004 376.947 317.155C377.088 317.307 377.247 317.447 377.422 317.574C377.573 317.682 377.728 317.78 377.888 317.869C378.048 317.961 378.21 318.04 378.373 318.107C378.537 318.175 378.7 318.231 378.862 318.276C379.026 318.322 379.187 318.355 379.344 318.374L379.113 318.695L379.995 319.331L380.162 319.098L379.463 320.227C373.139 316.309 368.274 310.426 365.615 303.478C362.956 296.53 362.649 288.902 364.742 281.762ZM381.789 316.543C381.779 316.757 381.7 316.964 381.555 317.165L380.162 319.098L381.787 316.475C381.787 316.497 381.79 316.52 381.789 316.543ZM377.744 316.15C377.782 316.12 377.838 316.103 377.909 316.096C377.981 316.09 378.074 316.101 378.189 316.129C378.306 316.158 378.455 316.213 378.634 316.294C378.814 316.375 379.03 316.49 379.283 316.636C379.538 316.783 379.839 316.973 380.187 317.205L379.877 317.635C379.748 317.634 379.61 317.62 379.462 317.595C379.316 317.57 379.168 317.533 379.016 317.483C378.865 317.432 378.712 317.368 378.558 317.29C378.404 317.213 378.255 317.123 378.111 317.019C377.981 316.925 377.879 316.839 377.805 316.761C377.731 316.684 377.678 316.613 377.645 316.549C377.614 316.485 377.6 316.429 377.605 316.379C377.61 316.328 377.627 316.283 377.655 316.245C377.677 316.213 377.707 316.181 377.744 316.15ZM385.582 278.688C385.825 278.461 386.075 278.24 386.332 278.027L393.895 285.934C393.783 286.006 393.672 286.082 393.564 286.162C393.401 286.282 393.245 286.41 393.095 286.544L385.582 278.688ZM394.89 264.48C394.505 263.813 393.542 263.813 393.157 264.48L390.56 268.98C390.175 269.647 390.656 270.48 391.426 270.48H396.621C397.391 270.48 397.872 269.647 397.487 268.98L397.198 268.479H398.848L398.56 268.979C398.175 269.646 398.656 270.479 399.426 270.479L404.622 270.48C405.392 270.48 405.872 269.647 405.488 268.98L402.889 264.48C402.504 263.813 401.542 263.813 401.158 264.48L400.6 265.444L398.89 262.48C398.505 261.813 397.543 261.813 397.158 262.48L395.445 265.444L394.89 264.48ZM401.488 266.98C401.872 267.646 401.391 268.479 400.622 268.479H398.848L400.6 265.444L401.488 266.98ZM397.198 268.479L395.425 268.48C394.656 268.48 394.175 267.647 394.559 266.98L395.445 265.444L397.198 268.479ZM9.19526 232.103L158.517 117.779C183.012 99.0255 217.695 101.705 239.018 124L374.763 265.93C374.513 266.152 374.267 266.377 374.025 266.605L238.295 124.691C217.325 102.765 183.215 100.129 159.125 118.573L9.80431 232.898C9.58517 233.065 9.27057 233.024 9.10272 232.805C8.93526 232.586 8.97667 232.271 9.19526 232.103Z" fill="#D0EBE3"/>
<g opacity="0.5">
<circle cx="1.5" cy="1.5" r="1" transform="matrix(4.37114e-08 -1 -1 -4.37114e-08 460 105)" fill="#D0EBE3" stroke="#D0EBE3"/>
<path d="M453.5 103.5L441.5 103.5" stroke="#D0EBE3" stroke-width="2" stroke-linecap="round"/>
<path d="M441.5 103.5L441.5 96" stroke="#D0EBE3" stroke-width="2" stroke-linecap="round"/>
<circle cx="1.5" cy="1.5" r="1" transform="matrix(4.37114e-08 1 1 -4.37114e-08 423 82)" fill="#D0EBE3" stroke="#D0EBE3"/>
<path d="M429.5 83.5L441.5 83.5" stroke="#D0EBE3" stroke-width="2" stroke-linecap="round"/>
<path d="M441.5 83.5L441.5 91" stroke="#D0EBE3" stroke-width="2" stroke-linecap="round"/>
<circle cx="1.5" cy="1.5" r="1" transform="matrix(1 8.74228e-08 8.74228e-08 -1 410 102)" fill="#D0EBE3" stroke="#D0EBE3"/>
<path d="M411.5 95.5L411.5 83.5" stroke="#D0EBE3" stroke-width="2" stroke-linecap="round"/>
<path d="M411.5 83.5L419 83.5" stroke="#D0EBE3" stroke-width="2" stroke-linecap="round"/>
<circle cx="1.5" cy="1.5" r="1" transform="matrix(4.37114e-08 -1 -1 -4.37114e-08 430 115)" fill="#D0EBE3" stroke="#D0EBE3"/>
<path d="M423.5 113.5L411.5 113.5" stroke="#D0EBE3" stroke-width="2" stroke-linecap="round"/>
<path d="M411.5 113.5L411.5 106" stroke="#D0EBE3" stroke-width="2" stroke-linecap="round"/>
<circle cx="1.5" cy="1.5" r="1" transform="matrix(4.37114e-08 1 1 -4.37114e-08 410 137)" fill="#D0EBE3" stroke="#D0EBE3"/>
<path d="M416.5 138.5L428.5 138.5" stroke="#D0EBE3" stroke-width="2" stroke-linecap="round"/>
<path d="M428.5 138.5L428.5 146" stroke="#D0EBE3" stroke-width="2" stroke-linecap="round"/>
<circle cx="1.5" cy="1.5" r="1" transform="matrix(-1.31134e-07 -1 -1 1.31134e-07 447 160)" fill="#D0EBE3" stroke="#D0EBE3"/>
<path d="M440.5 158.5L428.5 158.5" stroke="#D0EBE3" stroke-width="2" stroke-linecap="round"/>
<path d="M428.5 158.5L428.5 151" stroke="#D0EBE3" stroke-width="2" stroke-linecap="round"/>
<circle cx="1.5" cy="1.5" r="1" transform="matrix(-1 0 0 1 460 140)" fill="#D0EBE3" stroke="#D0EBE3"/>
<path d="M458.5 146.5L458.5 158.5" stroke="#D0EBE3" stroke-width="2" stroke-linecap="round"/>
<path d="M458.5 158.5L451 158.5" stroke="#D0EBE3" stroke-width="2" stroke-linecap="round"/>
<circle cx="1.5" cy="1.5" r="1" transform="matrix(4.37114e-08 1 1 -4.37114e-08 440 127)" fill="#D0EBE3" stroke="#D0EBE3"/>
<path d="M446.5 128.5L458.5 128.5" stroke="#D0EBE3" stroke-width="2" stroke-linecap="round"/>
<path d="M458.5 128.5L458.5 136" stroke="#D0EBE3" stroke-width="2" stroke-linecap="round"/>
<circle cx="1.5" cy="1.5" r="1" transform="matrix(1 8.74228e-08 8.74228e-08 -1 628 272)" fill="#D0EBE3" stroke="#D0EBE3"/>
<path d="M629.5 265.5L629.5 253.5" stroke="#D0EBE3" stroke-width="2" stroke-linecap="round"/>
<path d="M629.5 253.5L637 253.5" stroke="#D0EBE3" stroke-width="2" stroke-linecap="round"/>
<path d="M641.5 283.5L629.5 283.5" stroke="#D0EBE3" stroke-width="2" stroke-linecap="round"/>
<path d="M629.5 283.5L629.5 276" stroke="#D0EBE3" stroke-width="2" stroke-linecap="round"/>
<circle cx="1.5" cy="1.5" r="1" transform="matrix(4.37114e-08 1 1 -4.37114e-08 628 307)" fill="#D0EBE3" stroke="#D0EBE3"/>
<path d="M634.5 308.5L646.5 308.5" stroke="#D0EBE3" stroke-width="2" stroke-linecap="round"/>
<circle cx="1.5" cy="1.5" r="1" transform="matrix(4.37114e-08 -1 -1 -4.37114e-08 356 105)" fill="#D0EBE3" stroke="#D0EBE3"/>
<path d="M349.5 103.5L337.5 103.5" stroke="#D0EBE3" stroke-width="2" stroke-linecap="round"/>
<path d="M337.5 103.5L337.5 96" stroke="#D0EBE3" stroke-width="2" stroke-linecap="round"/>
<circle cx="1.5" cy="1.5" r="1" transform="matrix(4.37114e-08 1 1 -4.37114e-08 319 82)" fill="#D0EBE3" stroke="#D0EBE3"/>
<path d="M325.5 83.5L337.5 83.5" stroke="#D0EBE3" stroke-width="2" stroke-linecap="round"/>
<path d="M337.5 83.5L337.5 91" stroke="#D0EBE3" stroke-width="2" stroke-linecap="round"/>
<circle cx="1.5" cy="1.5" r="1" transform="matrix(1 8.74228e-08 8.74228e-08 -1 306 102)" fill="#D0EBE3" stroke="#D0EBE3"/>
<path d="M307.5 95.5L307.5 83.5" stroke="#D0EBE3" stroke-width="2" stroke-linecap="round"/>
<path d="M307.5 83.5L315 83.5" stroke="#D0EBE3" stroke-width="2" stroke-linecap="round"/>
<circle cx="1.5" cy="1.5" r="1" transform="matrix(4.37114e-08 -1 -1 -4.37114e-08 326 115)" fill="#D0EBE3" stroke="#D0EBE3"/>
<path d="M319.5 113.5L307.5 113.5" stroke="#D0EBE3" stroke-width="2" stroke-linecap="round"/>
<path d="M307.5 113.5L307.5 106" stroke="#D0EBE3" stroke-width="2" stroke-linecap="round"/>
<circle cx="1.5" cy="1.5" r="1" transform="matrix(4.37114e-08 1 1 -4.37114e-08 306 137)" fill="#D0EBE3" stroke="#D0EBE3"/>
<path d="M312.5 138.5L324.5 138.5" stroke="#D0EBE3" stroke-width="2" stroke-linecap="round"/>
<path d="M324.5 138.5L324.5 146" stroke="#D0EBE3" stroke-width="2" stroke-linecap="round"/>
<circle cx="1.5" cy="1.5" r="1" transform="matrix(-1.31134e-07 -1 -1 1.31134e-07 343 160)" fill="#D0EBE3" stroke="#D0EBE3"/>
<path d="M336.5 158.5L324.5 158.5" stroke="#D0EBE3" stroke-width="2" stroke-linecap="round"/>
<path d="M324.5 158.5L324.5 151" stroke="#D0EBE3" stroke-width="2" stroke-linecap="round"/>
<circle cx="1.5" cy="1.5" r="1" transform="matrix(-1 0 0 1 356 140)" fill="#D0EBE3" stroke="#D0EBE3"/>
<path d="M354.5 146.5L354.5 158.5" stroke="#D0EBE3" stroke-width="2" stroke-linecap="round"/>
<path d="M354.5 158.5L347 158.5" stroke="#D0EBE3" stroke-width="2" stroke-linecap="round"/>
<circle cx="1.5" cy="1.5" r="1" transform="matrix(4.37114e-08 1 1 -4.37114e-08 336 127)" fill="#D0EBE3" stroke="#D0EBE3"/>
<path d="M342.5 128.5L354.5 128.5" stroke="#D0EBE3" stroke-width="2" stroke-linecap="round"/>
<path d="M354.5 128.5L354.5 136" stroke="#D0EBE3" stroke-width="2" stroke-linecap="round"/>
<circle cx="1.5" cy="1.5" r="1" transform="matrix(4.37114e-08 -1 -1 -4.37114e-08 574 275)" fill="#D0EBE3" stroke="#D0EBE3"/>
<path d="M567.5 273.5L555.5 273.5" stroke="#D0EBE3" stroke-width="2" stroke-linecap="round"/>
<path d="M555.5 273.5L555.5 266" stroke="#D0EBE3" stroke-width="2" stroke-linecap="round"/>
<circle cx="1.5" cy="1.5" r="1" transform="matrix(4.37114e-08 1 1 -4.37114e-08 537 252)" fill="#D0EBE3" stroke="#D0EBE3"/>
<path d="M543.5 253.5L555.5 253.5" stroke="#D0EBE3" stroke-width="2" stroke-linecap="round"/>
<path d="M555.5 253.5L555.5 261" stroke="#D0EBE3" stroke-width="2" stroke-linecap="round"/>
<circle cx="1.5" cy="1.5" r="1" transform="matrix(1 8.74228e-08 8.74228e-08 -1 524 272)" fill="#D0EBE3" stroke="#D0EBE3"/>
<path d="M525.5 265.5L525.5 253.5" stroke="#D0EBE3" stroke-width="2" stroke-linecap="round"/>
<path d="M525.5 253.5L533 253.5" stroke="#D0EBE3" stroke-width="2" stroke-linecap="round"/>
<circle cx="1.5" cy="1.5" r="1" transform="matrix(4.37114e-08 -1 -1 -4.37114e-08 544 285)" fill="#D0EBE3" stroke="#D0EBE3"/>
<path d="M537.5 283.5L525.5 283.5" stroke="#D0EBE3" stroke-width="2" stroke-linecap="round"/>
<path d="M525.5 283.5L525.5 276" stroke="#D0EBE3" stroke-width="2" stroke-linecap="round"/>
<circle cx="1.5" cy="1.5" r="1" transform="matrix(4.37114e-08 1 1 -4.37114e-08 524 307)" fill="#D0EBE3" stroke="#D0EBE3"/>
<path d="M530.5 308.5L542.5 308.5" stroke="#D0EBE3" stroke-width="2" stroke-linecap="round"/>
<path d="M542.5 308.5L542.5 316" stroke="#D0EBE3" stroke-width="2" stroke-linecap="round"/>
<circle cx="1.5" cy="1.5" r="1" transform="matrix(-1.31134e-07 -1 -1 1.31134e-07 561 330)" fill="#D0EBE3" stroke="#D0EBE3"/>
<path d="M554.5 328.5L542.5 328.5" stroke="#D0EBE3" stroke-width="2" stroke-linecap="round"/>
<path d="M542.5 328.5L542.5 321" stroke="#D0EBE3" stroke-width="2" stroke-linecap="round"/>
<circle cx="1.5" cy="1.5" r="1" transform="matrix(-1 0 0 1 574 310)" fill="#D0EBE3" stroke="#D0EBE3"/>
<path d="M572.5 316.5V328.5" stroke="#D0EBE3" stroke-width="2" stroke-linecap="round"/>
<path d="M572.5 328.5H565" stroke="#D0EBE3" stroke-width="2" stroke-linecap="round"/>
<circle cx="1.5" cy="1.5" r="1" transform="matrix(4.37114e-08 1 1 -4.37114e-08 554 297)" fill="#D0EBE3" stroke="#D0EBE3"/>
<path d="M560.5 298.5L572.5 298.5" stroke="#D0EBE3" stroke-width="2" stroke-linecap="round"/>
<path d="M572.5 298.5L572.5 306" stroke="#D0EBE3" stroke-width="2" stroke-linecap="round"/>
<circle cx="1.5" cy="1.5" r="1" transform="matrix(4.37114e-08 -1 -1 -4.37114e-08 406 23)" fill="#D0EBE3" stroke="#D0EBE3"/>
<path d="M399.5 21.5L387.5 21.5" stroke="#D0EBE3" stroke-width="2" stroke-linecap="round"/>
<path d="M387.5 21.5L387.5 14" stroke="#D0EBE3" stroke-width="2" stroke-linecap="round"/>
<circle cx="1.5" cy="1.5" r="1" transform="matrix(4.37114e-08 1 1 -4.37114e-08 369 0)" fill="#D0EBE3" stroke="#D0EBE3"/>
<path d="M375.5 1.5L387.5 1.5" stroke="#D0EBE3" stroke-width="2" stroke-linecap="round"/>
<path d="M387.5 1.5L387.5 9" stroke="#D0EBE3" stroke-width="2" stroke-linecap="round"/>
<circle cx="1.5" cy="1.5" r="1" transform="matrix(1 8.74228e-08 8.74228e-08 -1 356 20)" fill="#D0EBE3" stroke="#D0EBE3"/>
<path d="M357.5 13.5L357.5 1.5" stroke="#D0EBE3" stroke-width="2" stroke-linecap="round"/>
<path d="M357.5 1.5L365 1.5" stroke="#D0EBE3" stroke-width="2" stroke-linecap="round"/>
<circle cx="1.5" cy="1.5" r="1" transform="matrix(4.37114e-08 -1 -1 -4.37114e-08 376 33)" fill="#D0EBE3" stroke="#D0EBE3"/>
<path d="M369.5 31.5L357.5 31.5" stroke="#D0EBE3" stroke-width="2" stroke-linecap="round"/>
<path d="M357.5 31.5L357.5 24" stroke="#D0EBE3" stroke-width="2" stroke-linecap="round"/>
<circle cx="1.5" cy="1.5" r="1" transform="matrix(4.37114e-08 1 1 -4.37114e-08 356 55)" fill="#D0EBE3" stroke="#D0EBE3"/>
<path d="M362.5 56.5L374.5 56.5" stroke="#D0EBE3" stroke-width="2" stroke-linecap="round"/>
<path d="M374.5 56.5L374.5 64" stroke="#D0EBE3" stroke-width="2" stroke-linecap="round"/>
<circle cx="1.5" cy="1.5" r="1" transform="matrix(-1.31134e-07 -1 -1 1.31134e-07 393 78)" fill="#D0EBE3" stroke="#D0EBE3"/>
<path d="M386.5 76.5L374.5 76.5" stroke="#D0EBE3" stroke-width="2" stroke-linecap="round"/>
<path d="M374.5 76.5L374.5 69" stroke="#D0EBE3" stroke-width="2" stroke-linecap="round"/>
<circle cx="1.5" cy="1.5" r="1" transform="matrix(-1 0 0 1 406 58)" fill="#D0EBE3" stroke="#D0EBE3"/>
<path d="M404.5 64.5L404.5 76.5" stroke="#D0EBE3" stroke-width="2" stroke-linecap="round"/>
<path d="M404.5 76.5L397 76.5" stroke="#D0EBE3" stroke-width="2" stroke-linecap="round"/>
<circle cx="1.5" cy="1.5" r="1" transform="matrix(4.37114e-08 1 1 -4.37114e-08 386 45)" fill="#D0EBE3" stroke="#D0EBE3"/>
<path d="M392.5 46.5L404.5 46.5" stroke="#D0EBE3" stroke-width="2" stroke-linecap="round"/>
<path d="M404.5 46.5L404.5 54" stroke="#D0EBE3" stroke-width="2" stroke-linecap="round"/>
<circle cx="1.5" cy="1.5" r="1" transform="matrix(4.37114e-08 -1 -1 -4.37114e-08 624 193)" fill="#D0EBE3" stroke="#D0EBE3"/>
<path d="M617.5 191.5L605.5 191.5" stroke="#D0EBE3" stroke-width="2" stroke-linecap="round"/>
<path d="M605.5 191.5L605.5 184" stroke="#D0EBE3" stroke-width="2" stroke-linecap="round"/>
<circle cx="1.5" cy="1.5" r="1" transform="matrix(4.37114e-08 1 1 -4.37114e-08 587 170)" fill="#D0EBE3" stroke="#D0EBE3"/>
<path d="M593.5 171.5L605.5 171.5" stroke="#D0EBE3" stroke-width="2" stroke-linecap="round"/>
<path d="M605.5 171.5L605.5 179" stroke="#D0EBE3" stroke-width="2" stroke-linecap="round"/>
<circle cx="1.5" cy="1.5" r="1" transform="matrix(1 8.74228e-08 8.74228e-08 -1 574 190)" fill="#D0EBE3" stroke="#D0EBE3"/>
<path d="M575.5 183.5L575.5 171.5" stroke="#D0EBE3" stroke-width="2" stroke-linecap="round"/>
<path d="M575.5 171.5L583 171.5" stroke="#D0EBE3" stroke-width="2" stroke-linecap="round"/>
<circle cx="1.5" cy="1.5" r="1" transform="matrix(4.37114e-08 -1 -1 -4.37114e-08 594 203)" fill="#D0EBE3" stroke="#D0EBE3"/>
<path d="M587.5 201.5L575.5 201.5" stroke="#D0EBE3" stroke-width="2" stroke-linecap="round"/>
<path d="M575.5 201.5L575.5 194" stroke="#D0EBE3" stroke-width="2" stroke-linecap="round"/>
<circle cx="1.5" cy="1.5" r="1" transform="matrix(4.37114e-08 1 1 -4.37114e-08 574 225)" fill="#D0EBE3" stroke="#D0EBE3"/>
<path d="M580.5 226.5L592.5 226.5" stroke="#D0EBE3" stroke-width="2" stroke-linecap="round"/>
<path d="M592.5 226.5L592.5 234" stroke="#D0EBE3" stroke-width="2" stroke-linecap="round"/>
<circle cx="1.5" cy="1.5" r="1" transform="matrix(-1.31134e-07 -1 -1 1.31134e-07 611 248)" fill="#D0EBE3" stroke="#D0EBE3"/>
<path d="M604.5 246.5L592.5 246.5" stroke="#D0EBE3" stroke-width="2" stroke-linecap="round"/>
<path d="M592.5 246.5L592.5 239" stroke="#D0EBE3" stroke-width="2" stroke-linecap="round"/>
<circle cx="1.5" cy="1.5" r="1" transform="matrix(-1 0 0 1 624 228)" fill="#D0EBE3" stroke="#D0EBE3"/>
<path d="M622.5 234.5V246.5" stroke="#D0EBE3" stroke-width="2" stroke-linecap="round"/>
<path d="M622.5 246.5L615 246.5" stroke="#D0EBE3" stroke-width="2" stroke-linecap="round"/>
<circle cx="1.5" cy="1.5" r="1" transform="matrix(4.37114e-08 1 1 -4.37114e-08 604 215)" fill="#D0EBE3" stroke="#D0EBE3"/>
<path d="M610.5 216.5L622.5 216.5" stroke="#D0EBE3" stroke-width="2" stroke-linecap="round"/>
<path d="M622.5 216.5L622.5 224" stroke="#D0EBE3" stroke-width="2" stroke-linecap="round"/>
<circle cx="1.5" cy="1.5" r="1" transform="matrix(4.37114e-08 -1 -1 -4.37114e-08 302 23)" fill="#D0EBE3" stroke="#D0EBE3"/>
<path d="M295.5 21.5L283.5 21.5" stroke="#D0EBE3" stroke-width="2" stroke-linecap="round"/>
<path d="M283.5 21.5L283.5 14" stroke="#D0EBE3" stroke-width="2" stroke-linecap="round"/>
<circle cx="1.5" cy="1.5" r="1" transform="matrix(4.37114e-08 1 1 -4.37114e-08 265 0)" fill="#D0EBE3" stroke="#D0EBE3"/>
<path d="M271.5 1.5L283.5 1.5" stroke="#D0EBE3" stroke-width="2" stroke-linecap="round"/>
<path d="M283.5 1.5L283.5 9" stroke="#D0EBE3" stroke-width="2" stroke-linecap="round"/>
<circle cx="1.5" cy="1.5" r="1" transform="matrix(1 8.74228e-08 8.74228e-08 -1 252 20)" fill="#D0EBE3" stroke="#D0EBE3"/>
<path d="M253.5 13.5L253.5 1.5" stroke="#D0EBE3" stroke-width="2" stroke-linecap="round"/>
<path d="M253.5 1.5L261 1.5" stroke="#D0EBE3" stroke-width="2" stroke-linecap="round"/>
<circle cx="1.5" cy="1.5" r="1" transform="matrix(4.37114e-08 -1 -1 -4.37114e-08 272 33)" fill="#D0EBE3" stroke="#D0EBE3"/>
<path d="M265.5 31.5L253.5 31.5" stroke="#D0EBE3" stroke-width="2" stroke-linecap="round"/>
<path d="M253.5 31.5L253.5 24" stroke="#D0EBE3" stroke-width="2" stroke-linecap="round"/>
<circle cx="1.5" cy="1.5" r="1" transform="matrix(4.37114e-08 1 1 -4.37114e-08 252 55)" fill="#D0EBE3" stroke="#D0EBE3"/>
<path d="M258.5 56.5L270.5 56.5" stroke="#D0EBE3" stroke-width="2" stroke-linecap="round"/>
<path d="M270.5 56.5L270.5 64" stroke="#D0EBE3" stroke-width="2" stroke-linecap="round"/>
<circle cx="1.5" cy="1.5" r="1" transform="matrix(-1.31134e-07 -1 -1 1.31134e-07 289 78)" fill="#D0EBE3" stroke="#D0EBE3"/>
<path d="M282.5 76.5L270.5 76.5" stroke="#D0EBE3" stroke-width="2" stroke-linecap="round"/>
<path d="M270.5 76.5L270.5 69" stroke="#D0EBE3" stroke-width="2" stroke-linecap="round"/>
<circle cx="1.5" cy="1.5" r="1" transform="matrix(-1 0 0 1 302 58)" fill="#D0EBE3" stroke="#D0EBE3"/>
<path d="M300.5 64.5L300.5 76.5" stroke="#D0EBE3" stroke-width="2" stroke-linecap="round"/>
<path d="M300.5 76.5L293 76.5" stroke="#D0EBE3" stroke-width="2" stroke-linecap="round"/>
<circle cx="1.5" cy="1.5" r="1" transform="matrix(4.37114e-08 1 1 -4.37114e-08 282 45)" fill="#D0EBE3" stroke="#D0EBE3"/>
<path d="M288.5 46.5L300.5 46.5" stroke="#D0EBE3" stroke-width="2" stroke-linecap="round"/>
<path d="M300.5 46.5L300.5 54" stroke="#D0EBE3" stroke-width="2" stroke-linecap="round"/>
<circle cx="1.5" cy="1.5" r="1" transform="matrix(4.37114e-08 -1 -1 -4.37114e-08 520 193)" fill="#D0EBE3" stroke="#D0EBE3"/>
<path d="M513.5 191.5L501.5 191.5" stroke="#D0EBE3" stroke-width="2" stroke-linecap="round"/>
<path d="M501.5 191.5L501.5 184" stroke="#D0EBE3" stroke-width="2" stroke-linecap="round"/>
<circle cx="1.5" cy="1.5" r="1" transform="matrix(4.37114e-08 1 1 -4.37114e-08 483 170)" fill="#D0EBE3" stroke="#D0EBE3"/>
<path d="M489.5 171.5L501.5 171.5" stroke="#D0EBE3" stroke-width="2" stroke-linecap="round"/>
<path d="M501.5 171.5L501.5 179" stroke="#D0EBE3" stroke-width="2" stroke-linecap="round"/>
<circle cx="1.5" cy="1.5" r="1" transform="matrix(1 8.74228e-08 8.74228e-08 -1 470 190)" fill="#D0EBE3" stroke="#D0EBE3"/>
<path d="M471.5 183.5L471.5 171.5" stroke="#D0EBE3" stroke-width="2" stroke-linecap="round"/>
<path d="M471.5 171.5L479 171.5" stroke="#D0EBE3" stroke-width="2" stroke-linecap="round"/>
<circle cx="1.5" cy="1.5" r="1" transform="matrix(4.37114e-08 -1 -1 -4.37114e-08 490 203)" fill="#D0EBE3" stroke="#D0EBE3"/>
<path d="M483.5 201.5L471.5 201.5" stroke="#D0EBE3" stroke-width="2" stroke-linecap="round"/>
<path d="M471.5 201.5L471.5 194" stroke="#D0EBE3" stroke-width="2" stroke-linecap="round"/>
<circle cx="1.5" cy="1.5" r="1" transform="matrix(4.37114e-08 1 1 -4.37114e-08 470 225)" fill="#D0EBE3" stroke="#D0EBE3"/>
<path d="M476.5 226.5L488.5 226.5" stroke="#D0EBE3" stroke-width="2" stroke-linecap="round"/>
<path d="M488.5 226.5L488.5 234" stroke="#D0EBE3" stroke-width="2" stroke-linecap="round"/>
<circle cx="1.5" cy="1.5" r="1" transform="matrix(-1.31134e-07 -1 -1 1.31134e-07 507 248)" fill="#D0EBE3" stroke="#D0EBE3"/>
<path d="M500.5 246.5L488.5 246.5" stroke="#D0EBE3" stroke-width="2" stroke-linecap="round"/>
<path d="M488.5 246.5L488.5 239" stroke="#D0EBE3" stroke-width="2" stroke-linecap="round"/>
<circle cx="1.5" cy="1.5" r="1" transform="matrix(-1 0 0 1 520 228)" fill="#D0EBE3" stroke="#D0EBE3"/>
<path d="M518.5 234.5V246.5" stroke="#D0EBE3" stroke-width="2" stroke-linecap="round"/>
<path d="M518.5 246.5L511 246.5" stroke="#D0EBE3" stroke-width="2" stroke-linecap="round"/>
<circle cx="1.5" cy="1.5" r="1" transform="matrix(4.37114e-08 1 1 -4.37114e-08 500 215)" fill="#D0EBE3" stroke="#D0EBE3"/>
<path d="M506.5 216.5L518.5 216.5" stroke="#D0EBE3" stroke-width="2" stroke-linecap="round"/>
<path d="M518.5 216.5L518.5 224" stroke="#D0EBE3" stroke-width="2" stroke-linecap="round"/>
</g>
<g opacity="0.5">
<circle cx="1.5" cy="1.5" r="1" transform="matrix(1 0 0 -1 143 373)" fill="#D0EBE3" stroke="#D0EBE3"/>
<path d="M144.5 366.5V354.5" stroke="#D0EBE3" stroke-width="2" stroke-linecap="round"/>
<path d="M144.5 354.5H152" stroke="#D0EBE3" stroke-width="2" stroke-linecap="round"/>
<circle cx="1.5" cy="1.5" r="1" transform="matrix(-1 8.74228e-08 8.74228e-08 1 166 336)" fill="#D0EBE3" stroke="#D0EBE3"/>
<path d="M164.5 342.5L164.5 354.5" stroke="#D0EBE3" stroke-width="2" stroke-linecap="round"/>
<path d="M164.5 354.5L157 354.5" stroke="#D0EBE3" stroke-width="2" stroke-linecap="round"/>
<circle cx="1.5" cy="1.5" r="1" transform="matrix(-4.37114e-08 1 1 4.37114e-08 146 323)" fill="#D0EBE3" stroke="#D0EBE3"/>
<path d="M152.5 324.5L164.5 324.5" stroke="#D0EBE3" stroke-width="2" stroke-linecap="round"/>
<path d="M164.5 324.5L164.5 332" stroke="#D0EBE3" stroke-width="2" stroke-linecap="round"/>
<circle cx="1.5" cy="1.5" r="1" transform="matrix(1 0 0 -1 133 343)" fill="#D0EBE3" stroke="#D0EBE3"/>
<path d="M134.5 336.5V324.5" stroke="#D0EBE3" stroke-width="2" stroke-linecap="round"/>
<path d="M134.5 324.5H142" stroke="#D0EBE3" stroke-width="2" stroke-linecap="round"/>
<circle cx="1.5" cy="1.5" r="1" transform="matrix(-1 8.74228e-08 8.74228e-08 1 111 323)" fill="#D0EBE3" stroke="#D0EBE3"/>
<path d="M109.5 329.5L109.5 341.5" stroke="#D0EBE3" stroke-width="2" stroke-linecap="round"/>
<path d="M109.5 341.5L102 341.5" stroke="#D0EBE3" stroke-width="2" stroke-linecap="round"/>
<circle cx="1.5" cy="1.5" r="1" transform="matrix(1 -1.74846e-07 -1.74846e-07 -1 88 360)" fill="#D0EBE3" stroke="#D0EBE3"/>
<path d="M89.5 353.5L89.5 341.5" stroke="#D0EBE3" stroke-width="2" stroke-linecap="round"/>
<path d="M89.5 341.5L97 341.5" stroke="#D0EBE3" stroke-width="2" stroke-linecap="round"/>
<circle cx="1.5" cy="1.5" r="1" transform="matrix(-4.37114e-08 -1 -1 4.37114e-08 108 373)" fill="#D0EBE3" stroke="#D0EBE3"/>
<path d="M101.5 371.5L89.5 371.5" stroke="#D0EBE3" stroke-width="2" stroke-linecap="round"/>
<path d="M89.5 371.5L89.5 364" stroke="#D0EBE3" stroke-width="2" stroke-linecap="round"/>
<circle cx="1.5" cy="1.5" r="1" transform="matrix(-1 8.74228e-08 8.74228e-08 1 121 353)" fill="#D0EBE3" stroke="#D0EBE3"/>
<path d="M119.5 359.5L119.5 371.5" stroke="#D0EBE3" stroke-width="2" stroke-linecap="round"/>
<path d="M119.5 371.5L112 371.5" stroke="#D0EBE3" stroke-width="2" stroke-linecap="round"/>
<circle cx="1.5" cy="1.5" r="1" transform="matrix(1 0 0 -1 143 269)" fill="#D0EBE3" stroke="#D0EBE3"/>
<path d="M144.5 262.5V250.5" stroke="#D0EBE3" stroke-width="2" stroke-linecap="round"/>
<path d="M144.5 250.5H152" stroke="#D0EBE3" stroke-width="2" stroke-linecap="round"/>
<circle cx="1.5" cy="1.5" r="1" transform="matrix(-1 8.74228e-08 8.74228e-08 1 166 232)" fill="#D0EBE3" stroke="#D0EBE3"/>
<path d="M164.5 238.5L164.5 250.5" stroke="#D0EBE3" stroke-width="2" stroke-linecap="round"/>
<path d="M164.5 250.5L157 250.5" stroke="#D0EBE3" stroke-width="2" stroke-linecap="round"/>
<circle cx="1.5" cy="1.5" r="1" transform="matrix(-4.37114e-08 1 1 4.37114e-08 146 219)" fill="#D0EBE3" stroke="#D0EBE3"/>
<path d="M152.5 220.5L164.5 220.5" stroke="#D0EBE3" stroke-width="2" stroke-linecap="round"/>
<path d="M164.5 220.5L164.5 228" stroke="#D0EBE3" stroke-width="2" stroke-linecap="round"/>
<circle cx="1.5" cy="1.5" r="1" transform="matrix(1 0 0 -1 133 239)" fill="#D0EBE3" stroke="#D0EBE3"/>
<path d="M134.5 232.5V220.5" stroke="#D0EBE3" stroke-width="2" stroke-linecap="round"/>
<path d="M134.5 220.5H142" stroke="#D0EBE3" stroke-width="2" stroke-linecap="round"/>
<circle cx="1.5" cy="1.5" r="1" transform="matrix(-1 8.74228e-08 8.74228e-08 1 111 219)" fill="#D0EBE3" stroke="#D0EBE3"/>
<path d="M109.5 225.5L109.5 237.5" stroke="#D0EBE3" stroke-width="2" stroke-linecap="round"/>
<path d="M109.5 237.5L102 237.5" stroke="#D0EBE3" stroke-width="2" stroke-linecap="round"/>
<circle cx="1.5" cy="1.5" r="1" transform="matrix(1 -1.74846e-07 -1.74846e-07 -1 88 256)" fill="#D0EBE3" stroke="#D0EBE3"/>
<path d="M89.5 249.5L89.5 237.5" stroke="#D0EBE3" stroke-width="2" stroke-linecap="round"/>
<path d="M89.5 237.5L97 237.5" stroke="#D0EBE3" stroke-width="2" stroke-linecap="round"/>
<circle cx="1.5" cy="1.5" r="1" transform="matrix(-4.37114e-08 -1 -1 4.37114e-08 108 269)" fill="#D0EBE3" stroke="#D0EBE3"/>
<path d="M101.5 267.5L89.5 267.5" stroke="#D0EBE3" stroke-width="2" stroke-linecap="round"/>
<path d="M89.5 267.5L89.5 260" stroke="#D0EBE3" stroke-width="2" stroke-linecap="round"/>
<circle cx="1.5" cy="1.5" r="1" transform="matrix(-1 8.74228e-08 8.74228e-08 1 121 249)" fill="#D0EBE3" stroke="#D0EBE3"/>
<path d="M119.5 255.5L119.5 267.5" stroke="#D0EBE3" stroke-width="2" stroke-linecap="round"/>
<path d="M119.5 267.5L112 267.5" stroke="#D0EBE3" stroke-width="2" stroke-linecap="round"/>
<circle cx="1.5" cy="1.5" r="1" transform="matrix(1 0 0 -1 225 319)" fill="#D0EBE3" stroke="#D0EBE3"/>
<path d="M226.5 312.5V300.5" stroke="#D0EBE3" stroke-width="2" stroke-linecap="round"/>
<path d="M226.5 300.5H234" stroke="#D0EBE3" stroke-width="2" stroke-linecap="round"/>
<circle cx="1.5" cy="1.5" r="1" transform="matrix(-1 8.74228e-08 8.74228e-08 1 248 282)" fill="#D0EBE3" stroke="#D0EBE3"/>
<path d="M246.5 288.5L246.5 300.5" stroke="#D0EBE3" stroke-width="2" stroke-linecap="round"/>
<path d="M246.5 300.5L239 300.5" stroke="#D0EBE3" stroke-width="2" stroke-linecap="round"/>
<circle cx="1.5" cy="1.5" r="1" transform="matrix(-4.37114e-08 1 1 4.37114e-08 228 269)" fill="#D0EBE3" stroke="#D0EBE3"/>
<path d="M234.5 270.5L246.5 270.5" stroke="#D0EBE3" stroke-width="2" stroke-linecap="round"/>
<path d="M246.5 270.5L246.5 278" stroke="#D0EBE3" stroke-width="2" stroke-linecap="round"/>
<circle cx="1.5" cy="1.5" r="1" transform="matrix(1 0 0 -1 215 289)" fill="#D0EBE3" stroke="#D0EBE3"/>
<path d="M216.5 282.5V270.5" stroke="#D0EBE3" stroke-width="2" stroke-linecap="round"/>
<path d="M216.5 270.5H224" stroke="#D0EBE3" stroke-width="2" stroke-linecap="round"/>
<circle cx="1.5" cy="1.5" r="1" transform="matrix(-1 8.74228e-08 8.74228e-08 1 193 269)" fill="#D0EBE3" stroke="#D0EBE3"/>
<path d="M191.5 275.5L191.5 287.5" stroke="#D0EBE3" stroke-width="2" stroke-linecap="round"/>
<path d="M191.5 287.5L184 287.5" stroke="#D0EBE3" stroke-width="2" stroke-linecap="round"/>
<circle cx="1.5" cy="1.5" r="1" transform="matrix(1 -1.74846e-07 -1.74846e-07 -1 170 306)" fill="#D0EBE3" stroke="#D0EBE3"/>
<path d="M171.5 299.5L171.5 287.5" stroke="#D0EBE3" stroke-width="2" stroke-linecap="round"/>
<path d="M171.5 287.5L179 287.5" stroke="#D0EBE3" stroke-width="2" stroke-linecap="round"/>
<circle cx="1.5" cy="1.5" r="1" transform="matrix(-4.37114e-08 -1 -1 4.37114e-08 190 319)" fill="#D0EBE3" stroke="#D0EBE3"/>
<path d="M183.5 317.5L171.5 317.5" stroke="#D0EBE3" stroke-width="2" stroke-linecap="round"/>
<path d="M171.5 317.5L171.5 310" stroke="#D0EBE3" stroke-width="2" stroke-linecap="round"/>
<circle cx="1.5" cy="1.5" r="1" transform="matrix(-1 8.74228e-08 8.74228e-08 1 203 299)" fill="#D0EBE3" stroke="#D0EBE3"/>
<path d="M201.5 305.5L201.5 317.5" stroke="#D0EBE3" stroke-width="2" stroke-linecap="round"/>
<path d="M201.5 317.5L194 317.5" stroke="#D0EBE3" stroke-width="2" stroke-linecap="round"/>
<circle cx="1.5" cy="1.5" r="1" transform="matrix(1 0 0 -1 225 215)" fill="#D0EBE3" stroke="#D0EBE3"/>
<path d="M226.5 208.5V196.5" stroke="#D0EBE3" stroke-width="2" stroke-linecap="round"/>
<path d="M226.5 196.5H234" stroke="#D0EBE3" stroke-width="2" stroke-linecap="round"/>
<circle cx="1.5" cy="1.5" r="1" transform="matrix(-1 8.74228e-08 8.74228e-08 1 248 178)" fill="#D0EBE3" stroke="#D0EBE3"/>
<path d="M246.5 184.5L246.5 196.5" stroke="#D0EBE3" stroke-width="2" stroke-linecap="round"/>
<path d="M246.5 196.5L239 196.5" stroke="#D0EBE3" stroke-width="2" stroke-linecap="round"/>
<circle cx="1.5" cy="1.5" r="1" transform="matrix(-4.37114e-08 1 1 4.37114e-08 228 165)" fill="#D0EBE3" stroke="#D0EBE3"/>
<path d="M234.5 166.5L246.5 166.5" stroke="#D0EBE3" stroke-width="2" stroke-linecap="round"/>
<path d="M246.5 166.5L246.5 174" stroke="#D0EBE3" stroke-width="2" stroke-linecap="round"/>
<circle cx="1.5" cy="1.5" r="1" transform="matrix(1 0 0 -1 215 185)" fill="#D0EBE3" stroke="#D0EBE3"/>
<path d="M216.5 178.5V166.5" stroke="#D0EBE3" stroke-width="2" stroke-linecap="round"/>
<path d="M216.5 166.5H224" stroke="#D0EBE3" stroke-width="2" stroke-linecap="round"/>
<circle cx="1.5" cy="1.5" r="1" transform="matrix(-1 8.74228e-08 8.74228e-08 1 193 165)" fill="#D0EBE3" stroke="#D0EBE3"/>
<path d="M191.5 171.5L191.5 183.5" stroke="#D0EBE3" stroke-width="2" stroke-linecap="round"/>
<path d="M191.5 183.5L184 183.5" stroke="#D0EBE3" stroke-width="2" stroke-linecap="round"/>
<circle cx="1.5" cy="1.5" r="1" transform="matrix(1 -1.74846e-07 -1.74846e-07 -1 170 202)" fill="#D0EBE3" stroke="#D0EBE3"/>
<path d="M171.5 195.5L171.5 183.5" stroke="#D0EBE3" stroke-width="2" stroke-linecap="round"/>
<path d="M171.5 183.5L179 183.5" stroke="#D0EBE3" stroke-width="2" stroke-linecap="round"/>
<circle cx="1.5" cy="1.5" r="1" transform="matrix(-4.37114e-08 -1 -1 4.37114e-08 190 215)" fill="#D0EBE3" stroke="#D0EBE3"/>
<path d="M183.5 213.5L171.5 213.5" stroke="#D0EBE3" stroke-width="2" stroke-linecap="round"/>
<path d="M171.5 213.5L171.5 206" stroke="#D0EBE3" stroke-width="2" stroke-linecap="round"/>
<circle cx="1.5" cy="1.5" r="1" transform="matrix(-1 8.74228e-08 8.74228e-08 1 203 195)" fill="#D0EBE3" stroke="#D0EBE3"/>
<path d="M201.5 201.5L201.5 213.5" stroke="#D0EBE3" stroke-width="2" stroke-linecap="round"/>
<path d="M201.5 213.5L194 213.5" stroke="#D0EBE3" stroke-width="2" stroke-linecap="round"/>
<circle cx="1.5" cy="1.5" r="1" transform="matrix(1 0 0 -1 55 433)" fill="#D0EBE3" stroke="#D0EBE3"/>
<path d="M56.5 426.5V414.5" stroke="#D0EBE3" stroke-width="2" stroke-linecap="round"/>
<path d="M56.5 414.5H64" stroke="#D0EBE3" stroke-width="2" stroke-linecap="round"/>
<circle cx="1.5" cy="1.5" r="1" transform="matrix(-1 8.74228e-08 8.74228e-08 1 78 396)" fill="#D0EBE3" stroke="#D0EBE3"/>
<path d="M76.5 402.5L76.5 414.5" stroke="#D0EBE3" stroke-width="2" stroke-linecap="round"/>
<path d="M76.5 414.5L69 414.5" stroke="#D0EBE3" stroke-width="2" stroke-linecap="round"/>
<circle cx="1.5" cy="1.5" r="1" transform="matrix(-4.37114e-08 1 1 4.37114e-08 58 383)" fill="#D0EBE3" stroke="#D0EBE3"/>
<path d="M64.5 384.5L76.5 384.5" stroke="#D0EBE3" stroke-width="2" stroke-linecap="round"/>
<path d="M76.5 384.5L76.5 392" stroke="#D0EBE3" stroke-width="2" stroke-linecap="round"/>
<circle cx="1.5" cy="1.5" r="1" transform="matrix(1 0 0 -1 45 403)" fill="#D0EBE3" stroke="#D0EBE3"/>
<path d="M46.5 396.5V384.5" stroke="#D0EBE3" stroke-width="2" stroke-linecap="round"/>
<path d="M46.5 384.5H54" stroke="#D0EBE3" stroke-width="2" stroke-linecap="round"/>
<circle cx="1.5" cy="1.5" r="1" transform="matrix(-1 8.74228e-08 8.74228e-08 1 23 383)" fill="#D0EBE3" stroke="#D0EBE3"/>
<path d="M21.5 389.5L21.5 401.5" stroke="#D0EBE3" stroke-width="2" stroke-linecap="round"/>
<path d="M21.5 401.5L14 401.5" stroke="#D0EBE3" stroke-width="2" stroke-linecap="round"/>
<circle cx="1.5" cy="1.5" r="1" transform="matrix(1 -1.74846e-07 -1.74846e-07 -1 0 420)" fill="#D0EBE3" stroke="#D0EBE3"/>
<path d="M1.5 413.5L1.5 401.5" stroke="#D0EBE3" stroke-width="2" stroke-linecap="round"/>
<path d="M1.5 401.5L9 401.5" stroke="#D0EBE3" stroke-width="2" stroke-linecap="round"/>
<circle cx="1.5" cy="1.5" r="1" transform="matrix(-4.37114e-08 -1 -1 4.37114e-08 20 433)" fill="#D0EBE3" stroke="#D0EBE3"/>
<path d="M13.5 431.5L1.5 431.5" stroke="#D0EBE3" stroke-width="2" stroke-linecap="round"/>
<path d="M1.5 431.5L1.5 424" stroke="#D0EBE3" stroke-width="2" stroke-linecap="round"/>
<circle cx="1.5" cy="1.5" r="1" transform="matrix(-1 8.74228e-08 8.74228e-08 1 33 413)" fill="#D0EBE3" stroke="#D0EBE3"/>
<path d="M31.5 419.5L31.5 431.5" stroke="#D0EBE3" stroke-width="2" stroke-linecap="round"/>
<path d="M31.5 431.5L24 431.5" stroke="#D0EBE3" stroke-width="2" stroke-linecap="round"/>
</g>
</g>
<defs>
<clipPath id="clip0_120_48">
<rect width="638" height="431" fill="white"/>
</clipPath>
</defs>
</svg>
