<svg width="180" height="161" viewBox="0 0 180 161" fill="none" xmlns="http://www.w3.org/2000/svg">
<path d="M176.265 45.8359C181.658 63.9699 181.201 83.3424 174.956 101.201C168.711 119.06 156.996 134.496 141.477 145.317C130.66 152.86 118.378 157.892 105.522 160.143C103.911 160.425 102.311 159.641 101.493 158.225L93.7112 144.748C92.1715 142.081 88.3226 142.081 86.7831 144.748L78.958 158.302C78.1438 159.712 76.5545 160.496 74.9491 160.224C60.9258 157.846 47.5979 152.166 36.1034 143.571C20.9518 132.242 9.75591 116.425 4.10631 98.3691C-1.54326 80.3133 -1.35887 60.9364 4.63267 42.9912C10.2012 26.3129 20.5228 11.6595 34.2867 0.810831C36.0217 -0.556652 38.5273 -0.140517 39.8164 1.65342L57.2971 25.9793C58.9142 28.2298 57.8085 31.403 55.1429 32.161L39.243 36.6826L38.8524 36.8017C30.759 39.4349 29.443 50.4832 36.867 54.8974L65.3386 71.8265C66.4757 72.5026 67.1808 73.7014 67.3837 75.0086C67.5575 76.1278 67.8149 77.2374 68.1561 78.3281C68.4063 79.1276 68.6993 79.9098 69.033 80.6716C69.9685 82.8077 69.4049 85.4426 67.3853 86.6086L28.952 108.798C26.0823 110.455 25.0989 114.124 26.7557 116.994C28.4126 119.864 32.0823 120.847 34.952 119.19L79.3422 93.5619C80.4292 92.9344 81.7409 92.8749 82.9346 93.2626C85.0827 93.9602 87.3352 94.341 89.621 94.3789C92.3937 94.4248 95.1339 93.9657 97.7138 93.0419C98.9593 92.5959 100.349 92.6428 101.486 93.3189L144.933 119.151C147.782 120.845 151.464 119.909 153.157 117.061C154.85 114.212 153.914 110.53 151.066 108.837L112.778 86.0716C110.827 84.9114 110.267 82.3678 111.138 80.2714C111.305 79.8692 111.461 79.4615 111.605 79.0488C111.926 78.1324 112.186 77.2002 112.386 76.2582C112.647 75.0304 113.355 73.9239 114.442 73.2963L143.161 56.7158C150.682 52.3732 149.473 41.1665 141.198 38.5283L125.908 33.6526C123.265 32.8099 122.262 29.5989 123.954 27.4012L142.471 3.35483C143.818 1.60447 146.337 1.27153 148.025 2.69582C161.422 13.9947 171.252 28.9823 176.265 45.8359ZM74.3105 49.6579C75.5995 51.4519 75.1585 53.9301 73.6161 55.5115C73.1162 56.024 72.6412 56.5592 72.1924 57.115C70.7664 58.8812 68.2644 59.6043 66.3132 58.4443L54.972 51.7015C51.9552 49.9079 52.5461 45.3759 55.9219 44.4158L65.3604 41.7316C66.9822 41.2703 68.7192 41.8757 69.703 43.245L74.3105 49.6579ZM114.398 59.4656C112.379 60.6315 109.815 59.8023 108.432 57.9244C107.957 57.2785 107.447 56.6573 106.905 56.0635C105.416 54.432 105.057 51.9405 106.405 50.1902L110.975 44.2559C112.002 42.9218 113.755 42.3739 115.359 42.8854L124.618 45.8374C127.927 46.8927 128.411 51.3755 125.403 53.1124L114.398 59.4656Z" fill="#D0EBE3"/>
<path d="M64.5089 12.7476V12.1538C64.3214 12.2554 64.1079 12.3491 63.8683 12.4351C63.6313 12.521 63.38 12.5952 63.1144 12.6577C62.8514 12.7202 62.5805 12.7684 62.3019 12.8022C62.0232 12.8361 61.7498 12.853 61.4816 12.853C61.1326 12.853 60.8188 12.8218 60.5402 12.7593C60.2641 12.6968 60.0298 12.6043 59.8371 12.4819C59.6443 12.3569 59.4959 12.2033 59.3917 12.021C59.2876 11.8361 59.2355 11.6226 59.2355 11.3804C59.2355 11.1408 59.2954 10.9299 59.4152 10.7476C59.5376 10.5627 59.7107 10.4025 59.9347 10.2671C60.1587 10.1291 60.4282 10.0132 60.7433 9.91943C61.061 9.82308 61.4152 9.74235 61.8058 9.67725C62.1964 9.60954 62.6183 9.55485 63.0714 9.51318C63.5272 9.46891 64.0063 9.43245 64.5089 9.40381V8.99365C64.5089 8.82699 64.4777 8.67985 64.4152 8.55225C64.3527 8.42464 64.2654 8.31396 64.1535 8.22021C64.0415 8.12386 63.91 8.04443 63.7589 7.98193C63.6079 7.91683 63.4438 7.86475 63.2667 7.82568C63.0923 7.78662 62.9074 7.75928 62.7121 7.74365C62.5193 7.72542 62.3253 7.71631 62.13 7.71631C61.867 7.71631 61.6274 7.72933 61.4113 7.75537C61.1951 7.78141 60.9933 7.81787 60.8058 7.86475C60.6183 7.90902 60.4386 7.9611 60.2667 8.021C60.0949 8.08089 59.9217 8.14469 59.7472 8.2124V7.64209C60.1092 7.54574 60.4946 7.4624 60.9035 7.39209C61.3149 7.31917 61.7511 7.28271 62.2121 7.28271C62.6027 7.28271 62.9673 7.31657 63.3058 7.38428C63.6443 7.44938 63.9386 7.55485 64.1886 7.70068C64.4386 7.84652 64.6352 8.03532 64.7785 8.26709C64.9217 8.49626 64.9933 8.7762 64.9933 9.10693V12.7476H64.5089ZM64.5089 9.8374C63.6574 9.88428 62.9295 9.95068 62.3253 10.0366C61.7238 10.1226 61.2316 10.228 60.8488 10.353C60.466 10.478 60.1847 10.6239 60.005 10.7905C59.8279 10.9572 59.7394 11.146 59.7394 11.3569C59.7394 11.5288 59.7824 11.6812 59.8683 11.814C59.9568 11.9468 60.0831 12.0588 60.2472 12.1499C60.4113 12.2384 60.6105 12.3062 60.8449 12.353C61.0792 12.3973 61.3423 12.4194 61.6339 12.4194C61.8058 12.4194 61.9829 12.4103 62.1652 12.3921C62.3501 12.3713 62.5337 12.3439 62.716 12.3101C62.8982 12.2736 63.0779 12.2319 63.255 12.1851C63.4321 12.1356 63.5988 12.0822 63.755 12.0249C63.9113 11.9676 64.0532 11.9064 64.1808 11.8413C64.311 11.7762 64.4204 11.7098 64.5089 11.6421V9.8374ZM71.0949 8.17334C70.9933 8.12386 70.8761 8.07178 70.7433 8.01709C70.6105 7.9598 70.4581 7.90902 70.2863 7.86475C70.117 7.82048 69.9256 7.78402 69.7121 7.75537C69.4985 7.72412 69.2615 7.7085 69.0011 7.7085C68.686 7.7085 68.4048 7.72673 68.1574 7.76318C67.9126 7.79964 67.7042 7.85693 67.5324 7.93506C67.3631 8.01058 67.2329 8.10693 67.1417 8.22412C67.0532 8.34131 67.0089 8.48063 67.0089 8.64209C67.0089 8.77751 67.0506 8.896 67.1339 8.99756C67.2199 9.09912 67.3344 9.18896 67.4777 9.26709C67.6235 9.34521 67.7928 9.41683 67.9855 9.48193C68.1808 9.54443 68.3865 9.60433 68.6027 9.66162C68.8214 9.71631 69.0454 9.7723 69.2746 9.82959C69.5063 9.88688 69.7303 9.94938 69.9464 10.0171C70.1652 10.0822 70.3709 10.1564 70.5636 10.2397C70.7589 10.3205 70.9282 10.4155 71.0714 10.5249C71.2173 10.6343 71.3318 10.7593 71.4152 10.8999C71.5011 11.0405 71.5441 11.2033 71.5441 11.3882C71.5441 11.5887 71.5063 11.7645 71.4308 11.9155C71.3553 12.064 71.2524 12.1929 71.1222 12.3022C70.9946 12.409 70.8436 12.4989 70.6691 12.5718C70.4972 12.6421 70.3123 12.6981 70.1144 12.7397C69.9191 12.7814 69.716 12.8101 69.505 12.8257C69.2967 12.8439 69.091 12.853 68.8878 12.853C68.4217 12.853 67.9985 12.8192 67.6183 12.7515C67.2407 12.6838 66.88 12.5913 66.5363 12.4741V11.8765C66.8904 12.0874 67.2641 12.2319 67.6574 12.3101C68.0532 12.3882 68.4686 12.4272 68.9035 12.4272C69.2107 12.4272 69.4946 12.409 69.755 12.3726C70.0154 12.3361 70.2407 12.2788 70.4308 12.2007C70.6209 12.12 70.768 12.0158 70.8722 11.8882C70.979 11.7606 71.0324 11.6043 71.0324 11.4194C71.0324 11.271 70.9894 11.1408 70.9035 11.0288C70.8201 10.9168 70.7055 10.8192 70.5597 10.7358C70.4165 10.6499 70.2472 10.5744 70.0519 10.5093C69.8592 10.4442 69.6548 10.3843 69.4386 10.3296C69.2225 10.2723 68.9985 10.2176 68.7667 10.1655C68.5376 10.1108 68.3149 10.0522 68.0988 9.98975C67.8826 9.92725 67.6769 9.85693 67.4816 9.77881C67.2889 9.70068 67.1196 9.60954 66.9738 9.50537C66.8305 9.3986 66.716 9.2762 66.63 9.13818C66.5467 9.00016 66.505 8.84001 66.505 8.65771C66.505 8.47803 66.5389 8.31917 66.6066 8.18115C66.6743 8.04053 66.7667 7.91943 66.8839 7.81787C67.0037 7.71631 67.143 7.63167 67.3019 7.56396C67.4607 7.49365 67.63 7.43896 67.8097 7.3999C67.992 7.35824 68.1808 7.32829 68.3761 7.31006C68.5714 7.29183 68.7641 7.28271 68.9542 7.28271C69.1626 7.28271 69.3592 7.29183 69.5441 7.31006C69.7316 7.32829 69.9113 7.35303 70.0831 7.38428C70.2576 7.41292 70.4269 7.44678 70.591 7.48584C70.7576 7.5249 70.9256 7.56657 71.0949 7.61084V8.17334ZM77.3917 8.17334C77.2902 8.12386 77.173 8.07178 77.0402 8.01709C76.9074 7.9598 76.755 7.90902 76.5831 7.86475C76.4139 7.82048 76.2225 7.78402 76.0089 7.75537C75.7954 7.72412 75.5584 7.7085 75.298 7.7085C74.9829 7.7085 74.7016 7.72673 74.4542 7.76318C74.2094 7.79964 74.0011 7.85693 73.8292 7.93506C73.66 8.01058 73.5298 8.10693 73.4386 8.22412C73.3501 8.34131 73.3058 8.48063 73.3058 8.64209C73.3058 8.77751 73.3475 8.896 73.4308 8.99756C73.5167 9.09912 73.6313 9.18896 73.7746 9.26709C73.9204 9.34521 74.0897 9.41683 74.2824 9.48193C74.4777 9.54443 74.6834 9.60433 74.8996 9.66162C75.1183 9.71631 75.3423 9.7723 75.5714 9.82959C75.8032 9.88688 76.0272 9.94938 76.2433 10.0171C76.4621 10.0822 76.6678 10.1564 76.8605 10.2397C77.0558 10.3205 77.2251 10.4155 77.3683 10.5249C77.5141 10.6343 77.6287 10.7593 77.7121 10.8999C77.798 11.0405 77.841 11.2033 77.841 11.3882C77.841 11.5887 77.8032 11.7645 77.7277 11.9155C77.6522 12.064 77.5493 12.1929 77.4191 12.3022C77.2915 12.409 77.1404 12.4989 76.966 12.5718C76.7941 12.6421 76.6092 12.6981 76.4113 12.7397C76.216 12.7814 76.0128 12.8101 75.8019 12.8257C75.5936 12.8439 75.3878 12.853 75.1847 12.853C74.7186 12.853 74.2954 12.8192 73.9152 12.7515C73.5376 12.6838 73.1769 12.5913 72.8331 12.4741V11.8765C73.1873 12.0874 73.561 12.2319 73.9542 12.3101C74.3501 12.3882 74.7654 12.4272 75.2003 12.4272C75.5076 12.4272 75.7915 12.409 76.0519 12.3726C76.3123 12.3361 76.5376 12.2788 76.7277 12.2007C76.9178 12.12 77.0649 12.0158 77.1691 11.8882C77.2759 11.7606 77.3292 11.6043 77.3292 11.4194C77.3292 11.271 77.2863 11.1408 77.2003 11.0288C77.117 10.9168 77.0024 10.8192 76.8566 10.7358C76.7134 10.6499 76.5441 10.5744 76.3488 10.5093C76.1561 10.4442 75.9516 10.3843 75.7355 10.3296C75.5193 10.2723 75.2954 10.2176 75.0636 10.1655C74.8344 10.1108 74.6118 10.0522 74.3956 9.98975C74.1795 9.92725 73.9738 9.85693 73.7785 9.77881C73.5857 9.70068 73.4165 9.60954 73.2706 9.50537C73.1274 9.3986 73.0128 9.2762 72.9269 9.13818C72.8436 9.00016 72.8019 8.84001 72.8019 8.65771C72.8019 8.47803 72.8357 8.31917 72.9035 8.18115C72.9712 8.04053 73.0636 7.91943 73.1808 7.81787C73.3006 7.71631 73.4399 7.63167 73.5988 7.56396C73.7576 7.49365 73.9269 7.43896 74.1066 7.3999C74.2889 7.35824 74.4777 7.32829 74.673 7.31006C74.8683 7.29183 75.061 7.28271 75.2511 7.28271C75.4594 7.28271 75.6561 7.29183 75.841 7.31006C76.0285 7.32829 76.2081 7.35303 76.38 7.38428C76.5545 7.41292 76.7238 7.44678 76.8878 7.48584C77.0545 7.5249 77.2225 7.56657 77.3917 7.61084V8.17334ZM84.7628 12.4663C84.5441 12.534 84.341 12.5926 84.1535 12.6421C83.966 12.689 83.7811 12.7267 83.5988 12.7554C83.4165 12.7866 83.2303 12.8088 83.0402 12.8218C82.8527 12.8374 82.6456 12.8452 82.4191 12.8452C81.893 12.8452 81.4178 12.7814 80.9933 12.6538C80.5688 12.5262 80.2068 12.3439 79.9074 12.1069C79.6105 11.8674 79.3813 11.5783 79.2199 11.2397C79.0584 10.9012 78.9777 10.521 78.9777 10.0991C78.9777 9.69027 79.0545 9.31527 79.2081 8.97412C79.3644 8.63298 79.5818 8.34001 79.8605 8.09521C80.1391 7.85042 80.4725 7.66032 80.8605 7.5249C81.2485 7.38949 81.6769 7.32178 82.1456 7.32178C82.6326 7.32178 83.0662 7.38688 83.4464 7.51709C83.8266 7.6473 84.1469 7.8335 84.4074 8.07568C84.6678 8.31787 84.8657 8.61214 85.0011 8.9585C85.1365 9.30225 85.2042 9.69027 85.2042 10.1226V10.2437H79.4816C79.5102 10.577 79.5936 10.8778 79.7316 11.146C79.8696 11.4142 80.0649 11.6421 80.3175 11.8296C80.5727 12.0171 80.8852 12.1616 81.255 12.2632C81.6274 12.3621 82.061 12.4116 82.5558 12.4116C82.7667 12.4116 82.9803 12.3973 83.1964 12.3687C83.4126 12.34 83.6196 12.3022 83.8175 12.2554C84.0154 12.2059 84.1964 12.1512 84.3605 12.0913C84.5246 12.0288 84.6587 11.965 84.7628 11.8999V12.4663ZM84.7238 9.81787C84.7055 9.54443 84.6443 9.28402 84.5402 9.03662C84.436 8.78662 84.2798 8.56657 84.0714 8.37646C83.8657 8.18636 83.6027 8.03532 83.2824 7.92334C82.9647 7.81136 82.5831 7.75537 82.1378 7.75537C81.7186 7.75537 81.3514 7.81136 81.0363 7.92334C80.7212 8.03532 80.4542 8.18636 80.2355 8.37646C80.0167 8.56396 79.8449 8.78271 79.7199 9.03271C79.5949 9.28011 79.5154 9.54183 79.4816 9.81787H84.7238ZM88.6456 7.82568V12.7476H88.1613V7.82568H85.7199V7.38037L91.0871 7.38037V7.82568H88.6456ZM91.2394 13.7241V13.2749L95.2394 13.2749V13.7241L91.2394 13.7241ZM97.8566 12.4272C98.1977 12.4272 98.4972 12.3973 98.755 12.3374C99.0154 12.2775 99.2407 12.1929 99.4308 12.0835C99.6209 11.9741 99.7798 11.8426 99.9074 11.689C100.035 11.5353 100.137 11.366 100.212 11.1812C100.29 10.9963 100.345 10.7983 100.376 10.5874C100.41 10.3739 100.428 10.1525 100.431 9.92334C100.316 10.0223 100.186 10.1239 100.04 10.228C99.8943 10.3322 99.7251 10.4272 99.5324 10.5132C99.3397 10.5991 99.1209 10.6707 98.8761 10.728C98.6313 10.7827 98.3527 10.8101 98.0402 10.8101C97.6938 10.8101 97.3709 10.7749 97.0714 10.7046C96.7746 10.6317 96.5167 10.5223 96.298 10.3765C96.0792 10.2306 95.9074 10.0483 95.7824 9.82959C95.66 9.60824 95.5988 9.34912 95.5988 9.05225C95.5988 8.80745 95.6548 8.57829 95.7667 8.36475C95.8787 8.1486 96.0415 7.9611 96.255 7.80225C96.4712 7.64079 96.7355 7.51449 97.048 7.42334C97.3631 7.32959 97.7225 7.28271 98.1261 7.28271C98.5298 7.28271 98.9035 7.3374 99.2472 7.44678C99.591 7.55355 99.8878 7.71631 100.138 7.93506C100.388 8.1512 100.583 8.42334 100.724 8.75146C100.864 9.07959 100.935 9.46501 100.935 9.90771C100.935 10.3426 100.872 10.741 100.747 11.103C100.625 11.4624 100.436 11.7723 100.181 12.0327C99.9256 12.2905 99.6027 12.4924 99.2121 12.6382C98.824 12.7814 98.3644 12.853 97.8331 12.853C97.6717 12.853 97.5115 12.8439 97.3527 12.8257C97.1964 12.8101 97.0428 12.7879 96.8917 12.7593C96.7407 12.7332 96.5962 12.7033 96.4581 12.6694C96.3201 12.633 96.1912 12.5952 96.0714 12.5562V12.0366C96.1574 12.0757 96.2576 12.1187 96.3722 12.1655C96.4894 12.2098 96.6222 12.2515 96.7706 12.2905C96.9191 12.3296 97.0831 12.3621 97.2628 12.3882C97.4451 12.4142 97.643 12.4272 97.8566 12.4272ZM98.1925 10.3882C98.4634 10.3882 98.7107 10.3569 98.9347 10.2944C99.1613 10.2319 99.3644 10.1538 99.5441 10.0601C99.7264 9.9637 99.8878 9.85954 100.028 9.74756C100.169 9.63298 100.29 9.5262 100.392 9.42725C100.374 9.29183 100.342 9.15511 100.298 9.01709C100.256 8.87907 100.196 8.74626 100.118 8.61865C100.043 8.49105 99.9477 8.37256 99.8331 8.26318C99.7212 8.1512 99.5844 8.05485 99.423 7.97412C99.2641 7.89079 99.0792 7.82568 98.8683 7.77881C98.6574 7.73193 98.4178 7.7085 98.1496 7.7085C97.8136 7.7085 97.5167 7.74105 97.2589 7.80615C97.0037 7.86865 96.7889 7.9585 96.6144 8.07568C96.4399 8.19287 96.3084 8.3348 96.2199 8.50146C96.1313 8.66553 96.0871 8.84912 96.0871 9.05225C96.0871 9.25798 96.1274 9.44417 96.2081 9.61084C96.2915 9.7749 96.4191 9.91423 96.591 10.0288C96.7628 10.1434 96.9803 10.2319 97.2433 10.2944C97.5089 10.3569 97.8253 10.3882 98.1925 10.3882ZM101.458 13.7241V13.2749H105.458V13.7241H101.458ZM109.45 8.79443C109.45 8.97933 109.413 9.1473 109.337 9.29834C109.262 9.44678 109.161 9.58089 109.036 9.70068C108.911 9.82048 108.768 9.92725 108.607 10.021C108.448 10.1147 108.284 10.1968 108.114 10.2671C107.948 10.3374 107.784 10.3986 107.622 10.4507C107.461 10.5002 107.315 10.5431 107.185 10.5796V11.228H106.696V10.2515C106.85 10.2176 107.013 10.1785 107.185 10.1343C107.357 10.09 107.526 10.0379 107.693 9.97803C107.859 9.91813 108.018 9.85042 108.169 9.7749C108.32 9.69678 108.453 9.60824 108.568 9.50928C108.685 9.41032 108.777 9.30094 108.845 9.18115C108.913 9.05876 108.946 8.92204 108.946 8.771C108.946 8.5887 108.906 8.43115 108.825 8.29834C108.747 8.16553 108.639 8.05615 108.501 7.97021C108.363 7.88167 108.2 7.81657 108.013 7.7749C107.828 7.73063 107.63 7.7085 107.419 7.7085C107.289 7.7085 107.156 7.72152 107.021 7.74756C106.885 7.771 106.752 7.80615 106.622 7.85303C106.492 7.8973 106.368 7.95068 106.251 8.01318C106.134 8.07568 106.03 8.14469 105.939 8.22021V7.61084C106.126 7.5223 106.345 7.44548 106.595 7.38037C106.845 7.31527 107.133 7.28271 107.458 7.28271C107.708 7.28271 107.952 7.31006 108.189 7.36475C108.428 7.41683 108.642 7.50277 108.829 7.62256C109.017 7.74235 109.166 7.8986 109.278 8.09131C109.393 8.28402 109.45 8.51839 109.45 8.79443ZM106.696 12.7476V11.978H107.298V12.7476H106.696ZM114.189 9.26709L113.845 10.853H114.775V11.2124H113.767L113.419 12.7476H113.028L113.372 11.2124H111.755L111.411 12.7476L111.021 12.7476L111.364 11.2124L110.411 11.2124V10.853L111.439 10.853L111.79 9.26709H110.86V8.90771H111.868L112.204 7.38037H112.599L112.259 8.90771H113.876L114.212 7.38037H114.607L114.271 8.90771H115.22V9.26709H114.189ZM112.181 9.26709L111.829 10.853H113.454L113.798 9.26709H112.181ZM115.943 12.7476V12.4194C116.617 12.0418 117.228 11.6955 117.775 11.3804C118.324 11.0627 118.791 10.7658 119.177 10.4897C119.562 10.2111 119.858 9.94678 120.064 9.69678C120.269 9.44417 120.367 9.19417 120.357 8.94678C120.349 8.76188 120.297 8.59391 120.2 8.44287C120.107 8.28923 119.97 8.15902 119.79 8.05225C119.61 7.94287 119.389 7.85824 119.126 7.79834C118.863 7.73844 118.56 7.7085 118.216 7.7085C118.002 7.7085 117.798 7.72021 117.603 7.74365C117.41 7.76709 117.222 7.80355 117.04 7.85303C116.86 7.8999 116.685 7.9598 116.513 8.03271C116.341 8.10563 116.172 8.19157 116.005 8.29053V7.75537C116.185 7.68245 116.359 7.61735 116.528 7.56006C116.698 7.50016 116.87 7.44938 117.044 7.40771C117.219 7.36605 117.4 7.3348 117.587 7.31396C117.775 7.29313 117.975 7.28271 118.189 7.28271C118.571 7.28271 118.926 7.32048 119.251 7.396C119.577 7.47152 119.858 7.58219 120.095 7.72803C120.332 7.87126 120.517 8.04834 120.65 8.25928C120.785 8.47021 120.853 8.7124 120.853 8.98584C120.853 9.23324 120.768 9.48063 120.599 9.72803C120.429 9.97542 120.182 10.2319 119.857 10.4976C119.534 10.7632 119.135 11.0431 118.661 11.3374C118.187 11.6317 117.646 11.952 117.036 12.2983H120.966V12.7476L115.943 12.7476Z" fill="#2D2749"/>
</svg>
