<svg width="637" height="431" viewBox="0 0 637 431" fill="none" xmlns="http://www.w3.org/2000/svg">
<g clip-path="url(#clip0_120_46)">
<path d="M250.984 246.213C253.858 239.351 258.903 233.62 265.346 229.9L279.139 253.79C277.924 254.492 276.971 255.573 276.429 256.867C275.887 258.162 275.784 259.599 276.137 260.957C276.49 262.316 277.279 263.522 278.382 264.389C279.485 265.256 280.843 265.737 282.246 265.759C283.649 265.781 285.021 265.341 286.151 264.509C287.28 263.676 288.106 262.496 288.5 261.149C288.895 259.803 288.838 258.364 288.336 257.053C287.835 255.743 286.917 254.632 285.724 253.893L297.602 234.719L300.922 237.142C300.935 237.163 300.95 237.185 300.966 237.207C301.001 237.258 301.041 237.31 301.085 237.366C301.127 237.421 301.173 237.476 301.223 237.532C301.269 237.587 301.318 237.64 301.369 237.689C301.502 237.817 301.644 237.923 301.793 238.007C301.941 238.092 302.094 238.163 302.251 238.216C302.407 238.268 302.566 238.31 302.73 238.34C302.89 238.37 303.052 238.395 303.214 238.416L302.761 238.886L303.544 239.639L306.336 236.739L305.553 235.985L303.872 237.731C303.723 237.734 303.569 237.728 303.41 237.713C303.248 237.699 303.087 237.668 302.927 237.623C302.766 237.579 302.609 237.516 302.455 237.433C302.299 237.35 302.151 237.242 302.01 237.106C301.943 237.042 301.882 236.974 301.826 236.905C301.77 236.834 301.721 236.767 301.679 236.702C301.672 236.692 301.665 236.681 301.659 236.671L301.695 236.622L301.574 236.534V236.533C301.544 236.482 301.522 236.443 301.508 236.415L301.468 236.457L300.316 235.614L302.172 233.07L301.295 232.43L299.438 234.973L298.065 233.972L300.252 230.443C306.576 234.361 311.441 240.245 314.1 247.192C314.507 248.255 314.857 249.333 315.153 250.423L314.563 250.556L315.217 253.483L315.811 253.351C316.734 258.503 316.462 263.829 314.973 268.908C312.881 276.047 308.505 282.303 302.516 286.716C297.796 290.195 292.279 292.376 286.512 293.088L286.464 292.478L283.473 292.712L283.52 293.323C282.954 293.342 282.387 293.35 281.818 293.341C274.38 293.226 267.184 290.674 261.335 286.076C255.486 281.479 251.307 275.091 249.437 267.89C248.562 264.521 248.215 261.059 248.389 257.628L249.001 257.686L249.284 254.699L248.673 254.642C249.075 251.762 249.847 248.928 250.984 246.213ZM301.311 286.308L302.168 285.641L300.678 283.731C300.696 283.583 300.724 283.43 300.761 283.275C300.799 283.117 300.852 282.962 300.919 282.81C300.985 282.657 301.07 282.51 301.174 282.37C301.278 282.227 301.407 282.095 301.561 281.975C301.634 281.918 301.71 281.866 301.786 281.821C301.864 281.775 301.938 281.737 302.007 281.705C302.019 281.7 302.031 281.695 302.042 281.69L302.085 281.732L302.189 281.624H302.19C302.245 281.602 302.286 281.586 302.315 281.575L302.28 281.532L303.277 280.509L305.533 282.707L306.291 281.929L304.036 279.73L305.23 278.505L304.603 277.894L301.679 280.893C301.657 280.903 301.634 280.914 301.609 280.927C301.554 280.955 301.495 280.987 301.433 281.022C301.374 281.057 301.313 281.095 301.251 281.136C301.189 281.174 301.131 281.215 301.075 281.258C300.929 281.372 300.803 281.497 300.699 281.633C300.593 281.767 300.503 281.908 300.427 282.056C300.354 282.203 300.29 282.355 300.237 282.513C300.185 282.667 300.137 282.825 300.094 282.982L299.692 282.467L298.836 283.135L301.311 286.308ZM307.608 273.315C307.414 273.532 307.231 273.786 307.059 274.078C306.972 274.226 306.888 274.385 306.807 274.554C306.723 274.723 306.646 274.893 306.575 275.064C306.502 275.234 306.436 275.4 306.378 275.564C306.321 275.727 306.272 275.876 306.233 276.012L307.066 276.503C307.089 276.364 307.121 276.214 307.162 276.052C307.203 275.89 307.254 275.724 307.313 275.553C307.374 275.38 307.445 275.207 307.525 275.032C307.604 274.854 307.695 274.681 307.795 274.511C307.922 274.295 308.039 274.126 308.147 274.004C308.256 273.88 308.356 273.792 308.447 273.739C308.536 273.683 308.618 273.656 308.693 273.659C308.766 273.662 308.832 273.679 308.889 273.713L308.962 273.757C308.67 274.323 308.431 274.823 308.248 275.257C308.066 275.689 307.948 276.066 307.893 276.387C307.837 276.708 307.85 276.979 307.931 277.199C308.01 277.418 308.167 277.596 308.401 277.734C308.586 277.843 308.767 277.896 308.942 277.89C309.119 277.883 309.286 277.835 309.444 277.747C309.603 277.659 309.751 277.539 309.888 277.386C310.027 277.232 310.151 277.061 310.261 276.874C310.355 276.714 310.439 276.551 310.513 276.383C310.589 276.215 310.653 276.047 310.705 275.878C310.756 275.709 310.798 275.541 310.828 275.375C310.858 275.208 310.876 275.045 310.881 274.887L311.222 275.087L311.773 274.151L309.473 272.796C309.26 272.67 309.045 272.612 308.831 272.622C308.618 272.63 308.409 272.694 308.203 272.813C307.998 272.93 307.799 273.097 307.608 273.315ZM295.036 286.627C295.126 286.519 295.23 286.406 295.347 286.287C295.464 286.168 295.593 286.05 295.731 285.933C295.871 285.816 296.021 285.702 296.179 285.592C296.337 285.48 296.503 285.375 296.675 285.279C296.894 285.158 297.081 285.073 297.236 285.023C297.393 284.971 297.524 284.946 297.629 284.946C297.734 284.943 297.819 284.962 297.881 285.003C297.943 285.042 297.99 285.091 298.022 285.149L298.064 285.224C297.524 285.563 297.065 285.873 296.687 286.154C296.311 286.434 296.018 286.699 295.807 286.947C295.596 287.196 295.47 287.435 295.428 287.666C295.385 287.895 295.43 288.129 295.562 288.366C295.666 288.554 295.795 288.69 295.949 288.774C296.105 288.858 296.273 288.902 296.454 288.906C296.635 288.911 296.824 288.882 297.02 288.821C297.218 288.758 297.411 288.674 297.6 288.569C297.763 288.479 297.919 288.381 298.067 288.274C298.218 288.168 298.359 288.055 298.489 287.936C298.619 287.817 298.74 287.692 298.85 287.564C298.961 287.436 299.059 287.305 299.144 287.171L299.335 287.517L300.286 286.99L298.992 284.656C298.871 284.439 298.716 284.28 298.526 284.179C298.339 284.078 298.126 284.027 297.888 284.025C297.652 284.022 297.396 284.065 297.12 284.155C296.843 284.244 296.557 284.371 296.261 284.534C296.111 284.618 295.958 284.712 295.802 284.816C295.644 284.919 295.491 285.027 295.343 285.138C295.194 285.247 295.053 285.358 294.92 285.469C294.788 285.581 294.671 285.685 294.568 285.782L295.036 286.627ZM307.096 278.346C306.682 278.346 306.346 278.682 306.346 279.096C306.346 279.51 306.682 279.846 307.096 279.846C307.51 279.846 307.846 279.51 307.846 279.096C307.846 278.682 307.51 278.346 307.096 278.346ZM310.096 274.424C310.107 274.553 310.106 274.692 310.095 274.841C310.083 274.988 310.059 275.14 310.024 275.296C309.987 275.451 309.937 275.61 309.875 275.77C309.812 275.93 309.735 276.087 309.645 276.24C309.564 276.378 309.488 276.487 309.417 276.568C309.347 276.649 309.281 276.709 309.22 276.748C309.16 276.785 309.105 276.804 309.055 276.804C309.003 276.803 308.957 276.79 308.917 276.767C308.883 276.747 308.85 276.72 308.815 276.686C308.782 276.65 308.758 276.597 308.746 276.526C308.733 276.455 308.735 276.361 308.752 276.244C308.77 276.125 308.811 275.972 308.875 275.786C308.94 275.6 309.033 275.373 309.156 275.108C309.279 274.841 309.441 274.523 309.639 274.155L310.096 274.424ZM296.959 286.928C297.109 286.8 297.304 286.653 297.544 286.486C297.786 286.318 298.087 286.126 298.445 285.91L298.702 286.374C298.646 286.49 298.575 286.61 298.489 286.733C298.404 286.854 298.306 286.972 298.197 287.089C298.087 287.203 297.964 287.315 297.829 287.421C297.694 287.527 297.548 287.623 297.392 287.709C297.253 287.787 297.132 287.843 297.03 287.877C296.928 287.911 296.841 287.93 296.768 287.932C296.698 287.933 296.641 287.92 296.598 287.895C296.554 287.868 296.52 287.835 296.498 287.794C296.479 287.76 296.463 287.719 296.451 287.672C296.44 287.625 296.446 287.567 296.471 287.5C296.496 287.432 296.546 287.352 296.62 287.26C296.695 287.167 296.809 287.056 296.959 286.928ZM310.091 268.2C310.006 268.303 309.92 268.419 309.83 268.546C309.742 268.67 309.656 268.802 309.573 268.941C309.487 269.08 309.407 269.224 309.332 269.373C309.258 269.52 309.192 269.667 309.136 269.812C309.084 269.945 309.035 270.088 308.989 270.24C308.942 270.391 308.906 270.545 308.88 270.7C308.853 270.855 308.84 271.009 308.842 271.16C308.844 271.31 308.868 271.451 308.915 271.584C308.96 271.715 309.032 271.833 309.129 271.938C309.227 272.043 309.359 272.128 309.524 272.192C309.665 272.247 309.799 272.267 309.928 272.255C310.054 272.241 310.177 272.203 310.296 272.141C310.413 272.077 310.525 271.994 310.634 271.892C310.741 271.789 310.845 271.676 310.945 271.554C311.044 271.429 311.139 271.298 311.229 271.162C311.32 271.025 311.408 270.893 311.492 270.764C311.574 270.632 311.654 270.509 311.732 270.395C311.808 270.28 311.882 270.181 311.954 270.1C312.023 270.018 312.092 269.96 312.159 269.923C312.224 269.885 312.286 269.878 312.346 269.901C312.384 269.916 312.419 269.945 312.45 269.989C312.481 270.033 312.5 270.1 312.507 270.191C312.512 270.28 312.5 270.398 312.47 270.543C312.44 270.687 312.383 270.866 312.299 271.081C312.157 271.445 311.985 271.772 311.782 272.062C311.58 272.35 311.361 272.592 311.126 272.787L312.021 273.136C312.207 272.929 312.391 272.679 312.573 272.388C312.758 272.095 312.923 271.763 313.068 271.392C313.123 271.25 313.176 271.099 313.228 270.939C313.28 270.777 313.322 270.614 313.352 270.45C313.383 270.284 313.399 270.12 313.401 269.959C313.401 269.798 313.377 269.647 313.329 269.507C313.281 269.365 313.205 269.237 313.101 269.123C312.996 269.009 312.854 268.917 312.674 268.847C312.534 268.792 312.398 268.771 312.268 268.783C312.138 268.795 312.012 268.832 311.892 268.894C311.771 268.957 311.656 269.039 311.545 269.14C311.432 269.241 311.325 269.353 311.223 269.477C311.121 269.598 311.022 269.728 310.929 269.865C310.835 270 310.745 270.134 310.661 270.265C310.576 270.392 310.495 270.514 310.419 270.628C310.341 270.743 310.268 270.842 310.2 270.925C310.13 271.006 310.065 271.067 310.004 271.106C309.941 271.144 309.882 271.152 309.828 271.131C309.811 271.125 309.794 271.115 309.776 271.101C309.759 271.086 309.744 271.064 309.732 271.034C309.721 271.005 309.714 270.967 309.712 270.92C309.708 270.87 309.712 270.808 309.725 270.733C309.738 270.656 309.759 270.565 309.79 270.459C309.821 270.352 309.865 270.226 309.922 270.08C309.992 269.898 310.076 269.726 310.17 269.564C310.263 269.401 310.357 269.253 310.455 269.122C310.55 268.989 310.643 268.873 310.732 268.774C310.821 268.674 310.897 268.595 310.959 268.537L310.091 268.2ZM290.408 288.087L292.013 287.503L293.09 290.463L294.11 290.091L293.035 287.131L294.641 286.547L294.343 285.723L290.108 287.264L290.408 288.087ZM311.116 263.849C311.049 263.964 310.98 264.091 310.912 264.23C310.844 264.367 310.779 264.511 310.718 264.662C310.655 264.812 310.598 264.966 310.547 265.125C310.497 265.281 310.454 265.436 310.421 265.588C310.39 265.727 310.364 265.877 310.341 266.034C310.319 266.191 310.306 266.348 310.303 266.505C310.301 266.663 310.312 266.816 310.337 266.966C310.363 267.113 310.409 267.249 310.475 267.373C310.54 267.495 310.629 267.602 310.741 267.69C310.854 267.779 310.997 267.843 311.171 267.881C311.318 267.913 311.454 267.913 311.579 267.88C311.702 267.847 311.818 267.791 311.925 267.71C312.031 267.63 312.13 267.53 312.222 267.413C312.312 267.294 312.397 267.167 312.477 267.031C312.555 266.892 312.629 266.749 312.697 266.6C312.766 266.451 312.832 266.306 312.895 266.166C312.956 266.024 313.016 265.889 313.076 265.764C313.133 265.639 313.191 265.531 313.249 265.44C313.305 265.349 313.364 265.279 313.424 265.233C313.482 265.186 313.543 265.169 313.606 265.182C313.646 265.191 313.685 265.215 313.722 265.253C313.76 265.292 313.789 265.355 313.81 265.443C313.829 265.531 313.835 265.65 313.828 265.798C313.82 265.944 313.79 266.13 313.741 266.355C313.657 266.736 313.537 267.086 313.381 267.404C313.226 267.719 313.047 267.992 312.845 268.222L313.783 268.428C313.934 268.196 314.078 267.921 314.213 267.605C314.351 267.287 314.463 266.934 314.548 266.545C314.581 266.396 314.611 266.238 314.637 266.072C314.664 265.904 314.68 265.736 314.685 265.57C314.69 265.401 314.681 265.236 314.658 265.077C314.633 264.918 314.586 264.773 314.517 264.642C314.448 264.509 314.353 264.393 314.233 264.297C314.112 264.2 313.957 264.132 313.768 264.09C313.621 264.058 313.484 264.058 313.357 264.09C313.23 264.122 313.112 264.178 313.003 264.258C312.893 264.337 312.791 264.436 312.697 264.553C312.602 264.67 312.513 264.798 312.43 264.936C312.348 265.072 312.272 265.216 312.201 265.366C312.129 265.514 312.06 265.658 311.997 265.8C311.933 265.94 311.871 266.073 311.814 266.198C311.754 266.323 311.697 266.431 311.643 266.523C311.587 266.615 311.532 266.685 311.477 266.733C311.421 266.781 311.363 266.798 311.306 266.786C311.289 266.782 311.271 266.774 311.252 266.764C311.232 266.752 311.214 266.732 311.198 266.704C311.183 266.677 311.169 266.64 311.16 266.594C311.148 266.545 311.143 266.483 311.144 266.408C311.145 266.33 311.152 266.236 311.166 266.128C311.18 266.017 311.204 265.885 311.238 265.733C311.28 265.542 311.335 265.359 311.403 265.184C311.47 265.009 311.542 264.849 311.617 264.704C311.692 264.558 311.765 264.428 311.838 264.316C311.91 264.205 311.972 264.115 312.025 264.049L311.116 263.849ZM286.442 288.316C286.356 288.425 286.296 288.549 286.26 288.688C286.225 288.827 286.224 288.983 286.26 289.157C286.29 289.304 286.344 289.429 286.425 289.53C286.505 289.63 286.603 289.712 286.72 289.778C286.837 289.842 286.968 289.892 287.113 289.929C287.257 289.963 287.408 289.99 287.565 290.008C287.723 290.023 287.885 290.032 288.049 290.034C288.213 290.037 288.372 290.039 288.525 290.04C288.68 290.038 288.827 290.04 288.965 290.043C289.103 290.045 289.226 290.055 289.333 290.071C289.439 290.085 289.526 290.11 289.593 290.146C289.66 290.181 289.699 290.229 289.712 290.292C289.721 290.332 289.714 290.378 289.694 290.427C289.675 290.477 289.629 290.53 289.556 290.585C289.483 290.637 289.378 290.69 289.239 290.744C289.102 290.796 288.92 290.844 288.695 290.89C288.312 290.968 287.944 291 287.59 290.986C287.239 290.972 286.917 290.918 286.625 290.826L286.816 291.768C287.09 291.812 287.399 291.832 287.743 291.828C288.089 291.825 288.457 291.784 288.848 291.705C288.997 291.675 289.153 291.639 289.316 291.596C289.481 291.552 289.641 291.499 289.795 291.436C289.952 291.372 290.098 291.298 290.234 291.213C290.369 291.125 290.484 291.023 290.576 290.907C290.669 290.79 290.736 290.657 290.776 290.508C290.815 290.358 290.816 290.189 290.777 289.999C290.747 289.852 290.691 289.726 290.611 289.623C290.53 289.52 290.431 289.434 290.314 289.366C290.197 289.298 290.065 289.246 289.92 289.207C289.775 289.167 289.621 289.137 289.462 289.117C289.304 289.098 289.143 289.086 288.977 289.082C288.812 289.075 288.652 289.072 288.496 289.072C288.342 289.069 288.196 289.067 288.059 289.065C287.92 289.061 287.797 289.052 287.691 289.04C287.585 289.026 287.499 289.003 287.433 288.972C287.367 288.94 287.328 288.895 287.316 288.838C287.313 288.821 287.311 288.801 287.313 288.779C287.316 288.757 287.328 288.732 287.347 288.707C287.365 288.681 287.394 288.654 287.432 288.627C287.472 288.597 287.526 288.566 287.596 288.536C287.667 288.506 287.756 288.475 287.861 288.444C287.968 288.412 288.099 288.381 288.252 288.35C288.443 288.311 288.632 288.287 288.82 288.279C289.007 288.269 289.183 288.269 289.346 288.28C289.51 288.289 289.657 288.304 289.789 288.325C289.921 288.346 290.027 288.367 290.109 288.388L289.924 287.475C289.792 287.46 289.648 287.45 289.493 287.444C289.341 287.437 289.183 287.435 289.02 287.44C288.858 287.443 288.693 287.454 288.527 287.472C288.364 287.489 288.205 287.513 288.052 287.544C287.913 287.572 287.766 287.608 287.614 287.651C287.461 287.694 287.312 287.746 287.167 287.808C287.022 287.869 286.886 287.941 286.76 288.024C286.635 288.107 286.529 288.205 286.442 288.316ZM283.52 293.323C284.523 293.288 285.521 293.21 286.512 293.088L286.523 293.232L283.532 293.466L283.52 293.323ZM311.727 259.013C311.523 259.219 311.363 259.471 311.249 259.77C311.134 260.067 311.066 260.397 311.046 260.762C311.024 261.158 311.059 261.52 311.151 261.848C311.24 262.175 311.376 262.458 311.557 262.697C311.736 262.934 311.952 263.122 312.207 263.261C312.459 263.398 312.738 263.474 313.042 263.49C313.37 263.508 313.666 263.463 313.932 263.354C314.198 263.246 314.428 263.079 314.62 262.854C314.812 262.63 314.965 262.35 315.079 262.014C315.191 261.676 315.26 261.287 315.284 260.848C315.302 260.505 315.296 260.168 315.265 259.838C315.236 259.506 315.176 259.173 315.085 258.838L314.146 258.786C314.19 258.871 314.233 258.982 314.275 259.119C314.316 259.254 314.353 259.406 314.384 259.574C314.414 259.741 314.437 259.921 314.452 260.114C314.465 260.306 314.466 260.502 314.456 260.701C314.44 260.982 314.407 261.223 314.355 261.424C314.303 261.622 314.235 261.788 314.154 261.923C314.072 262.057 313.977 262.162 313.867 262.238C313.758 262.313 313.638 262.365 313.51 262.393L313.724 258.432L313.456 258.417C313.087 258.397 312.758 258.439 312.469 258.545C312.18 258.648 311.932 258.805 311.727 259.013ZM312.256 259.76C312.348 259.658 312.449 259.585 312.559 259.542C312.667 259.497 312.77 259.472 312.87 259.468L312.714 262.349C312.627 262.325 312.534 262.277 312.434 262.205C312.335 262.133 312.243 262.036 312.16 261.912C312.076 261.786 312.009 261.632 311.959 261.451C311.908 261.271 311.889 261.059 311.903 260.815C311.917 260.556 311.957 260.341 312.023 260.17C312.087 260 312.165 259.863 312.256 259.76ZM278.968 289.003L280.675 289.066L280.561 292.212L281.646 292.252L281.761 289.105L283.471 289.167L283.502 288.292L279 288.127L278.968 289.003ZM311.305 258.554L312.176 258.463L311.998 256.765L315.131 256.438L315.018 255.357L311.885 255.684L311.708 253.982L310.836 254.073L311.305 258.554ZM274.215 288.361C274.044 288.592 273.928 288.857 273.869 289.156C273.806 289.478 273.809 289.778 273.879 290.057C273.949 290.335 274.083 290.586 274.278 290.807C274.473 291.029 274.729 291.22 275.045 291.38C275.364 291.539 275.74 291.66 276.171 291.745C276.508 291.812 276.842 291.854 277.174 291.869C277.507 291.887 277.846 291.875 278.191 291.831L278.373 290.909C278.283 290.941 278.167 290.968 278.026 290.99C277.886 291.012 277.73 291.026 277.56 291.034C277.389 291.041 277.207 291.038 277.015 291.025C276.823 291.011 276.629 290.985 276.433 290.947C276.158 290.892 275.924 290.825 275.733 290.746C275.543 290.667 275.387 290.576 275.266 290.476C275.144 290.377 275.053 290.268 274.993 290.148C274.935 290.029 274.901 289.904 274.891 289.773L278.783 290.541L278.835 290.277C278.907 289.915 278.911 289.583 278.847 289.282C278.785 288.981 278.665 288.714 278.488 288.482C278.313 288.251 278.085 288.058 277.805 287.903C277.527 287.746 277.209 287.633 276.851 287.562C276.462 287.486 276.099 287.469 275.762 287.514C275.425 287.557 275.125 287.651 274.863 287.796C274.604 287.94 274.388 288.128 274.215 288.361ZM315.301 250.39L315.955 253.318L315.811 253.351C315.635 252.368 315.416 251.391 315.153 250.423L315.301 250.39ZM275.228 288.734C275.313 288.646 275.423 288.569 275.557 288.504C275.693 288.44 275.854 288.394 276.04 288.369C276.227 288.344 276.44 288.355 276.679 288.403C276.934 288.453 277.141 288.523 277.301 288.613C277.461 288.7 277.585 288.796 277.674 288.901C277.762 289.006 277.82 289.116 277.847 289.231C277.876 289.344 277.886 289.451 277.877 289.55L275.045 288.991C275.082 288.909 275.143 288.823 275.228 288.734ZM309.115 247.848C309.119 247.981 309.129 248.125 309.145 248.279C309.16 248.432 309.182 248.588 309.21 248.748C309.237 248.909 309.271 249.069 309.312 249.231C309.352 249.391 309.399 249.544 309.452 249.691C309.5 249.826 309.556 249.965 309.62 250.11C309.685 250.255 309.758 250.394 309.839 250.529C309.921 250.664 310.011 250.788 310.112 250.901C310.212 251.013 310.324 251.104 310.447 251.174C310.567 251.243 310.698 251.285 310.84 251.3C310.982 251.316 311.137 251.293 311.305 251.233C311.446 251.183 311.561 251.11 311.65 251.017C311.737 250.923 311.805 250.814 311.854 250.689C311.9 250.564 311.931 250.427 311.946 250.278C311.96 250.131 311.964 249.977 311.959 249.819C311.952 249.66 311.938 249.499 311.917 249.337C311.896 249.174 311.876 249.017 311.854 248.865C311.831 248.712 311.81 248.566 311.794 248.429C311.776 248.293 311.767 248.17 311.768 248.062C311.767 247.954 311.78 247.865 311.806 247.793C311.83 247.722 311.873 247.675 311.933 247.654C311.972 247.64 312.017 247.639 312.069 247.652C312.121 247.664 312.18 247.702 312.244 247.766C312.307 247.831 312.376 247.928 312.449 248.058C312.52 248.186 312.594 248.359 312.671 248.576C312.803 248.943 312.887 249.302 312.924 249.654C312.96 250.004 312.953 250.331 312.904 250.633L313.809 250.309C313.814 250.031 313.789 249.723 313.735 249.383C313.683 249.04 313.59 248.681 313.456 248.306C313.404 248.163 313.345 248.014 313.28 247.859C313.213 247.703 313.138 247.552 313.053 247.408C312.968 247.262 312.873 247.128 312.769 247.006C312.663 246.884 312.546 246.786 312.418 246.712C312.289 246.636 312.147 246.589 311.994 246.571C311.84 246.553 311.672 246.577 311.49 246.642C311.349 246.693 311.233 246.766 311.142 246.86C311.052 246.955 310.981 247.066 310.931 247.192C310.881 247.318 310.847 247.455 310.83 247.604C310.811 247.754 310.803 247.91 310.807 248.07C310.81 248.229 310.821 248.39 310.841 248.556C310.858 248.719 310.877 248.879 310.899 249.033C310.919 249.185 310.937 249.33 310.955 249.467C310.971 249.604 310.981 249.726 310.984 249.833C310.985 249.94 310.975 250.029 310.955 250.099C310.932 250.169 310.893 250.214 310.838 250.234C310.821 250.239 310.802 250.244 310.78 250.246C310.757 250.246 310.731 250.238 310.703 250.223C310.675 250.208 310.645 250.184 310.612 250.15C310.577 250.115 310.539 250.065 310.5 250C310.459 249.934 310.416 249.851 310.37 249.752C310.323 249.65 310.273 249.526 310.221 249.379C310.155 249.195 310.104 249.01 310.069 248.826C310.033 248.642 310.008 248.468 309.995 248.305C309.98 248.142 309.973 247.994 309.975 247.86C309.977 247.727 309.983 247.618 309.992 247.534L309.115 247.848ZM270.076 286.262C269.972 286.36 269.889 286.493 269.825 286.658C269.771 286.799 269.751 286.933 269.764 287.062C269.778 287.188 269.817 287.311 269.88 287.429C269.944 287.546 270.028 287.658 270.131 287.767C270.234 287.873 270.348 287.977 270.471 288.076C270.596 288.174 270.727 288.269 270.864 288.359C271.001 288.449 271.134 288.536 271.263 288.619C271.395 288.701 271.518 288.78 271.633 288.857C271.748 288.933 271.847 289.006 271.928 289.077C272.011 289.146 272.071 289.215 272.108 289.281C272.146 289.346 272.152 289.408 272.129 289.468C272.115 289.506 272.086 289.541 272.043 289.573C272 289.604 271.932 289.623 271.841 289.631C271.752 289.636 271.634 289.624 271.488 289.595C271.345 289.565 271.165 289.509 270.95 289.427C270.585 289.287 270.257 289.117 269.967 288.916C269.677 288.715 269.434 288.497 269.237 288.263L268.894 289.16C269.102 289.344 269.352 289.527 269.644 289.708C269.938 289.891 270.271 290.054 270.643 290.197C270.785 290.251 270.937 290.305 271.097 290.356C271.259 290.407 271.422 290.448 271.586 290.477C271.752 290.507 271.916 290.522 272.077 290.523C272.238 290.522 272.389 290.498 272.529 290.45C272.671 290.401 272.799 290.325 272.912 290.22C273.026 290.115 273.117 289.972 273.186 289.791C273.24 289.651 273.26 289.515 273.247 289.385C273.234 289.254 273.197 289.129 273.134 289.009C273.071 288.889 272.989 288.774 272.887 288.664C272.785 288.552 272.673 288.444 272.548 288.342C272.426 288.241 272.296 288.144 272.158 288.051C272.023 287.958 271.889 287.869 271.758 287.785C271.63 287.701 271.508 287.621 271.393 287.545C271.278 287.468 271.179 287.395 271.096 287.328C271.014 287.258 270.953 287.193 270.913 287.132C270.875 287.069 270.866 287.01 270.887 286.955C270.893 286.939 270.903 286.922 270.916 286.904C270.931 286.887 270.953 286.872 270.983 286.861C271.013 286.849 271.051 286.842 271.098 286.839C271.148 286.835 271.21 286.839 271.285 286.85C271.361 286.863 271.453 286.885 271.558 286.915C271.666 286.946 271.793 286.989 271.939 287.044C272.121 287.114 272.294 287.197 272.457 287.29C272.62 287.382 272.768 287.477 272.9 287.573C273.033 287.668 273.149 287.76 273.249 287.848C273.349 287.937 273.428 288.012 273.486 288.074L273.819 287.204C273.715 287.12 273.599 287.034 273.472 286.946C273.347 286.858 273.215 286.772 273.075 286.69C272.936 286.605 272.792 286.526 272.643 286.452C272.495 286.379 272.348 286.314 272.202 286.258C272.069 286.207 271.927 286.159 271.775 286.113C271.623 286.067 271.469 286.031 271.314 286.005C271.159 285.979 271.005 285.968 270.854 285.971C270.704 285.974 270.562 285.999 270.429 286.046C270.299 286.092 270.181 286.164 270.076 286.262ZM308.877 247.694L309.65 247.281L308.842 245.775L311.618 244.287L311.104 243.33L308.329 244.818L307.52 243.31L306.749 243.723L308.877 247.694ZM266.065 284.059C265.948 284.14 265.846 284.259 265.759 284.414C265.686 284.545 265.646 284.676 265.64 284.805C265.636 284.933 265.658 285.059 265.703 285.186C265.75 285.31 265.816 285.434 265.902 285.556C265.989 285.676 266.086 285.795 266.193 285.911C266.303 286.026 266.42 286.138 266.542 286.247C266.665 286.356 266.784 286.461 266.9 286.562C267.018 286.662 267.128 286.758 267.231 286.851C267.334 286.943 267.422 287.029 267.492 287.111C267.564 287.192 267.612 287.268 267.639 287.339C267.668 287.408 267.666 287.471 267.635 287.527C267.615 287.563 267.581 287.593 267.534 287.618C267.486 287.643 267.417 287.653 267.326 287.647C267.236 287.639 267.121 287.61 266.981 287.56C266.844 287.51 266.675 287.429 266.474 287.317C266.133 287.126 265.833 286.909 265.574 286.668C265.317 286.428 265.107 286.178 264.946 285.918L264.477 286.756C264.656 286.968 264.878 287.185 265.141 287.406C265.405 287.63 265.711 287.84 266.058 288.035C266.191 288.109 266.333 288.183 266.484 288.256C266.637 288.331 266.793 288.395 266.952 288.448C267.112 288.502 267.271 288.54 267.43 288.564C267.59 288.587 267.743 288.583 267.888 288.555C268.035 288.528 268.173 288.471 268.3 288.383C268.428 288.296 268.539 288.168 268.633 287.999C268.707 287.868 268.747 287.737 268.753 287.606C268.759 287.475 268.74 287.346 268.695 287.218C268.651 287.09 268.585 286.964 268.5 286.84C268.416 286.715 268.32 286.592 268.212 286.473C268.106 286.356 267.991 286.24 267.867 286.129C267.747 286.017 267.627 285.91 267.51 285.808C267.395 285.706 267.286 285.608 267.182 285.517C267.08 285.424 266.993 285.338 266.921 285.259C266.849 285.179 266.798 285.107 266.768 285.041C266.739 284.973 266.739 284.913 266.767 284.862C266.776 284.846 266.788 284.831 266.804 284.815C266.821 284.801 266.845 284.789 266.876 284.782C266.907 284.774 266.946 284.773 266.993 284.777C267.043 284.78 267.104 284.794 267.176 284.816C267.25 284.84 267.337 284.874 267.437 284.918C267.539 284.964 267.659 285.026 267.795 285.102C267.965 285.197 268.124 285.303 268.272 285.419C268.421 285.534 268.553 285.649 268.67 285.764C268.788 285.877 268.89 285.984 268.976 286.086C269.062 286.188 269.13 286.273 269.178 286.343L269.633 285.53C269.542 285.432 269.441 285.331 269.328 285.225C269.217 285.12 269.098 285.016 268.971 284.914C268.846 284.81 268.714 284.711 268.577 284.617C268.442 284.523 268.306 284.437 268.17 284.361C268.045 284.291 267.911 284.223 267.767 284.156C267.623 284.089 267.477 284.031 267.327 283.983C267.177 283.935 267.027 283.902 266.876 283.883C266.728 283.864 266.584 283.869 266.446 283.896C266.31 283.923 266.183 283.977 266.065 284.059ZM305.028 239.271C304.831 239.421 304.696 239.597 304.624 239.799C304.55 239.999 304.529 240.217 304.561 240.453C304.591 240.687 304.671 240.934 304.8 241.194C304.927 241.456 305.093 241.722 305.297 241.991C305.401 242.128 305.516 242.266 305.642 242.406C305.766 242.547 305.894 242.684 306.025 242.814C306.154 242.946 306.283 243.07 306.412 243.185C306.541 243.3 306.661 243.402 306.772 243.49L307.543 242.906C307.423 242.832 307.296 242.746 307.162 242.647C307.028 242.547 306.893 242.437 306.758 242.317C306.621 242.195 306.487 242.064 306.356 241.923C306.222 241.782 306.095 241.633 305.976 241.475C305.825 241.276 305.714 241.103 305.642 240.957C305.569 240.809 305.525 240.682 305.51 240.578C305.492 240.475 305.499 240.388 305.53 240.32C305.56 240.253 305.602 240.2 305.655 240.16L305.722 240.109C306.135 240.595 306.508 241.005 306.84 241.339C307.17 241.672 307.474 241.925 307.75 242.098C308.026 242.271 308.281 242.361 308.515 242.37C308.748 242.379 308.973 242.302 309.19 242.138C309.361 242.009 309.477 241.861 309.538 241.697C309.599 241.531 309.618 241.358 309.597 241.179C309.576 240.999 309.521 240.816 309.432 240.631C309.342 240.444 309.231 240.264 309.1 240.092C308.988 239.944 308.868 239.804 308.741 239.672C308.615 239.538 308.483 239.415 308.346 239.302C308.21 239.19 308.071 239.088 307.929 238.998C307.785 238.906 307.641 238.827 307.496 238.763L307.812 238.523L307.155 237.658L305.028 239.271ZM260.44 282.519C260.306 282.686 260.229 282.858 260.209 283.032C260.191 283.208 260.214 283.38 260.279 283.55C260.344 283.719 260.441 283.883 260.573 284.041C260.705 284.2 260.857 284.346 261.026 284.482C261.171 284.598 261.321 284.705 261.476 284.802C261.631 284.901 261.789 284.988 261.949 285.063C262.108 285.139 262.269 285.203 262.429 285.256C262.59 285.31 262.749 285.352 262.905 285.379L262.658 285.687L263.507 286.367L265.174 284.284C265.329 284.09 265.418 283.886 265.439 283.673C265.461 283.461 265.427 283.244 265.339 283.024C265.252 282.804 265.115 282.583 264.926 282.362C264.739 282.14 264.513 281.923 264.25 281.711C264.116 281.604 263.971 281.497 263.815 281.392C263.66 281.286 263.502 281.186 263.343 281.091C263.185 280.994 263.029 280.906 262.876 280.826C262.723 280.745 262.582 280.676 262.454 280.618L261.849 281.373C261.983 281.415 262.127 281.468 262.281 281.531C262.435 281.595 262.593 281.669 262.753 281.752C262.915 281.837 263.078 281.932 263.24 282.036C263.404 282.14 263.563 282.254 263.717 282.377C263.912 282.533 264.063 282.674 264.168 282.798C264.275 282.924 264.348 283.035 264.388 283.132C264.431 283.229 264.446 283.314 264.432 283.388C264.419 283.46 264.391 283.522 264.35 283.574L264.297 283.641C263.778 283.27 263.317 282.963 262.913 282.72C262.512 282.479 262.155 282.308 261.845 282.207C261.535 282.107 261.265 282.081 261.036 282.13C260.808 282.178 260.609 282.307 260.44 282.519ZM306.771 239.313C306.893 239.353 307.022 239.406 307.157 239.473C307.288 239.54 307.42 239.619 307.551 239.711C307.68 239.804 307.807 239.911 307.931 240.029C308.056 240.148 308.172 240.279 308.279 240.42C308.376 240.548 308.449 240.659 308.497 240.755C308.545 240.851 308.575 240.935 308.587 241.006C308.599 241.076 308.595 241.134 308.576 241.18C308.556 241.227 308.527 241.266 308.49 241.294C308.459 241.317 308.421 241.339 308.376 241.358C308.331 241.375 308.272 241.376 308.202 241.361C308.132 241.346 308.046 241.308 307.944 241.248C307.841 241.186 307.715 241.09 307.568 240.96C307.42 240.829 307.246 240.657 307.047 240.443C306.847 240.227 306.614 239.958 306.349 239.634L306.771 239.313ZM261.418 283.077C261.458 283.049 261.515 283.034 261.587 283.032C261.659 283.029 261.751 283.046 261.865 283.079C261.98 283.113 262.125 283.176 262.3 283.266C262.476 283.356 262.686 283.481 262.931 283.64C263.178 283.8 263.47 284.004 263.806 284.253L263.474 284.668C263.346 284.66 263.208 284.639 263.061 284.607C262.917 284.574 262.771 284.529 262.621 284.472C262.473 284.414 262.324 284.342 262.175 284.257C262.025 284.173 261.88 284.074 261.742 283.963C261.617 283.863 261.52 283.772 261.45 283.691C261.379 283.61 261.329 283.536 261.299 283.47C261.271 283.405 261.261 283.348 261.268 283.298C261.276 283.247 261.295 283.204 261.325 283.167C261.349 283.137 261.38 283.107 261.418 283.077ZM259.595 279.846C259.181 279.846 258.846 280.181 258.846 280.596C258.846 281.01 259.181 281.345 259.595 281.346C260.01 281.346 260.345 281.01 260.345 280.596C260.345 280.181 260.01 279.846 259.595 279.846ZM253.026 274.335L255.167 273.201C255.31 273.245 255.454 273.298 255.601 273.362C255.75 273.427 255.893 273.506 256.03 273.598C256.169 273.69 256.3 273.799 256.42 273.926C256.542 274.053 256.65 274.203 256.741 274.376C256.785 274.459 256.822 274.542 256.853 274.625C256.884 274.71 256.91 274.79 256.929 274.863C256.932 274.872 256.933 274.882 256.935 274.89L256.884 274.928L256.973 275.053C256.974 275.054 256.975 275.056 256.976 275.058C256.988 275.115 256.997 275.159 257.002 275.189L257.053 275.162L257.884 276.312L255.33 278.156L255.967 279.037L258.52 277.194L259.522 278.581L260.231 278.069L257.784 274.68C257.778 274.657 257.773 274.632 257.765 274.607C257.747 274.548 257.726 274.484 257.701 274.417C257.678 274.353 257.651 274.286 257.622 274.218C257.595 274.15 257.565 274.085 257.532 274.023C257.445 273.859 257.345 273.714 257.229 273.587C257.115 273.46 256.991 273.346 256.859 273.246C256.727 273.148 256.588 273.059 256.442 272.979C256.299 272.9 256.153 272.827 256.006 272.757L256.583 272.45L256.074 271.49L252.517 273.374L253.026 274.335ZM298.065 233.972L297.602 234.719L297.539 234.672L298.056 233.965L298.065 233.972ZM251.007 267.668C250.898 267.807 250.827 267.966 250.791 268.144C250.756 268.322 250.751 268.512 250.779 268.716C250.807 268.921 250.856 269.126 250.927 269.331C250.988 269.506 251.059 269.676 251.138 269.841C251.217 270.008 251.304 270.165 251.399 270.314C251.495 270.463 251.595 270.603 251.703 270.733C251.81 270.865 251.924 270.984 252.041 271.09L251.667 271.22L252.024 272.246L254.546 271.371C254.78 271.289 254.963 271.163 255.094 270.994C255.226 270.826 255.313 270.625 255.356 270.391C255.399 270.159 255.4 269.899 255.358 269.612C255.318 269.324 255.242 269.02 255.131 268.701C255.075 268.539 255.009 268.372 254.932 268.2C254.858 268.027 254.778 267.859 254.694 267.694C254.612 267.528 254.527 267.37 254.44 267.22C254.353 267.07 254.27 266.936 254.192 266.819L253.279 267.136C253.37 267.243 253.464 267.365 253.561 267.501C253.658 267.637 253.752 267.783 253.843 267.939C253.935 268.098 254.022 268.264 254.103 268.438C254.187 268.614 254.261 268.795 254.326 268.982C254.408 269.217 254.46 269.417 254.483 269.578C254.507 269.741 254.51 269.875 254.492 269.978C254.477 270.082 254.444 270.162 254.393 270.217C254.344 270.271 254.287 270.31 254.224 270.331L254.144 270.359C253.902 269.769 253.675 269.264 253.463 268.843C253.251 268.425 253.04 268.091 252.832 267.841C252.623 267.591 252.408 267.426 252.188 267.345C251.97 267.264 251.732 267.268 251.476 267.357C251.273 267.427 251.117 267.531 251.007 267.668ZM251.762 268.457C251.796 268.419 251.836 268.392 251.88 268.377C251.917 268.364 251.959 268.355 252.007 268.35C252.056 268.348 252.112 268.365 252.174 268.401C252.236 268.438 252.307 268.5 252.385 268.589C252.464 268.679 252.553 268.809 252.653 268.979C252.754 269.149 252.866 269.367 252.989 269.632C253.113 269.899 253.251 270.228 253.403 270.617L252.901 270.791C252.797 270.716 252.691 270.625 252.584 270.52C252.48 270.416 252.379 270.3 252.283 270.172C252.189 270.043 252.1 269.903 252.019 269.751C251.937 269.6 251.868 269.441 251.81 269.273C251.757 269.122 251.722 268.992 251.706 268.886C251.69 268.78 251.688 268.691 251.698 268.62C251.709 268.55 251.73 268.495 251.762 268.457ZM250.027 265.63L253.129 265.082L253.426 266.767L254.289 266.614L253.505 262.178L252.642 262.33L252.94 264.012L249.838 264.56L250.027 265.63ZM249.641 258.155C249.55 258.417 249.476 258.718 249.42 259.057C249.363 259.399 249.339 259.769 249.349 260.167C249.353 260.319 249.362 260.479 249.376 260.647C249.39 260.816 249.415 260.982 249.451 261.145C249.486 261.31 249.534 261.468 249.594 261.616C249.657 261.765 249.738 261.895 249.836 262.006C249.935 262.118 250.054 262.208 250.194 262.273C250.335 262.338 250.502 262.367 250.695 262.362C250.845 262.358 250.979 262.326 251.094 262.264C251.21 262.202 251.312 262.12 251.399 262.016C251.486 261.912 251.561 261.792 251.624 261.656C251.689 261.519 251.744 261.374 251.791 261.221C251.838 261.069 251.878 260.911 251.911 260.748C251.946 260.587 251.977 260.43 252.004 260.277C252.034 260.126 252.061 259.982 252.087 259.847C252.115 259.712 252.144 259.592 252.175 259.49C252.207 259.388 252.244 259.307 252.285 259.247C252.329 259.187 252.38 259.157 252.439 259.156C252.456 259.155 252.476 259.157 252.497 259.162C252.519 259.169 252.541 259.185 252.563 259.208C252.585 259.231 252.607 259.263 252.627 259.306C252.65 259.35 252.67 259.409 252.687 259.483C252.705 259.559 252.72 259.651 252.732 259.76C252.745 259.871 252.754 260.005 252.758 260.161C252.763 260.357 252.753 260.548 252.728 260.734C252.705 260.92 252.674 261.093 252.636 261.252C252.599 261.411 252.559 261.554 252.515 261.68C252.472 261.806 252.432 261.907 252.397 261.984L253.328 261.961C253.366 261.833 253.402 261.693 253.435 261.542C253.468 261.392 253.496 261.237 253.519 261.076C253.545 260.915 253.563 260.752 253.574 260.585C253.585 260.421 253.589 260.261 253.585 260.105C253.581 259.962 253.572 259.812 253.556 259.654C253.54 259.497 253.515 259.341 253.48 259.188C253.445 259.034 253.397 258.888 253.336 258.748C253.276 258.611 253.199 258.49 253.104 258.385C253.012 258.282 252.901 258.201 252.77 258.142C252.64 258.083 252.486 258.055 252.308 258.06C252.158 258.064 252.026 258.097 251.912 258.158C251.8 258.219 251.701 258.302 251.616 258.405C251.533 258.509 251.46 258.629 251.399 258.766C251.341 258.902 251.289 259.046 251.244 259.197C251.201 259.351 251.164 259.508 251.133 259.669C251.102 259.83 251.073 259.987 251.045 260.138C251.02 260.291 250.994 260.435 250.966 260.571C250.94 260.706 250.91 260.825 250.875 260.928C250.843 261.03 250.802 261.111 250.755 261.171C250.71 261.231 250.655 261.262 250.591 261.263C250.55 261.264 250.506 261.251 250.46 261.223C250.415 261.195 250.372 261.139 250.331 261.058C250.291 260.977 250.257 260.864 250.228 260.719C250.201 260.575 250.184 260.387 250.178 260.157C250.168 259.767 250.201 259.398 250.276 259.052C250.351 258.709 250.46 258.402 250.601 258.13L249.641 258.155ZM250.053 252.979L253.133 253.636L252.776 255.31L253.633 255.493L254.572 251.086L253.716 250.903L253.36 252.574L250.279 251.916L250.053 252.979ZM248.673 254.642C248.535 255.633 248.439 256.629 248.389 257.628L248.249 257.615L248.531 254.628L248.673 254.642ZM252.753 245.974C252.501 246.128 252.268 246.346 252.055 246.63C251.844 246.917 251.658 247.265 251.5 247.675C251.375 247.996 251.277 248.318 251.204 248.642C251.129 248.966 251.082 249.302 251.065 249.649L251.942 249.989C251.926 249.895 251.92 249.776 251.923 249.633C251.925 249.491 251.938 249.336 251.96 249.167C251.983 248.998 252.017 248.819 252.062 248.631C252.11 248.445 252.169 248.258 252.241 248.073C252.343 247.811 252.449 247.592 252.561 247.418C252.672 247.245 252.787 247.107 252.906 247.005C253.026 246.902 253.15 246.832 253.278 246.793C253.405 246.757 253.534 246.745 253.665 246.758L252.232 250.457L252.484 250.554C252.828 250.687 253.154 250.749 253.462 250.738C253.769 250.729 254.052 250.658 254.311 250.524C254.57 250.392 254.8 250.201 255.001 249.952C255.203 249.705 255.37 249.412 255.502 249.071C255.645 248.702 255.724 248.347 255.739 248.007C255.755 247.668 255.714 247.357 255.616 247.074C255.519 246.793 255.371 246.547 255.173 246.336C254.975 246.128 254.734 245.968 254.45 245.858C254.144 245.74 253.848 245.691 253.561 245.712C253.274 245.733 253.005 245.821 252.753 245.974ZM254.408 247.045C254.483 247.095 254.557 247.17 254.629 247.269C254.702 247.368 254.758 247.49 254.799 247.634C254.839 247.779 254.856 247.945 254.848 248.133C254.84 248.321 254.792 248.529 254.704 248.756C254.61 248.998 254.505 249.19 254.389 249.332C254.276 249.474 254.16 249.579 254.041 249.649C253.922 249.718 253.804 249.756 253.686 249.763C253.569 249.773 253.462 249.763 253.366 249.736L254.408 247.045ZM255.285 240.94C255.069 241.114 254.846 241.33 254.619 241.588C254.389 241.847 254.173 242.148 253.97 242.491C253.893 242.622 253.815 242.762 253.738 242.912C253.66 243.063 253.593 243.217 253.536 243.374C253.478 243.532 253.436 243.691 253.408 243.85C253.382 244.009 253.381 244.163 253.406 244.309C253.43 244.456 253.484 244.595 253.568 244.724C253.653 244.853 253.779 244.967 253.945 245.066C254.074 245.142 254.205 245.185 254.336 245.194C254.466 245.203 254.596 245.187 254.725 245.146C254.854 245.104 254.981 245.042 255.107 244.96C255.234 244.879 255.359 244.786 255.481 244.68C255.601 244.577 255.718 244.464 255.832 244.344C255.947 244.226 256.057 244.109 256.161 243.994C256.266 243.881 256.366 243.774 256.46 243.673C256.555 243.573 256.643 243.488 256.723 243.418C256.805 243.348 256.88 243.299 256.947 243.27C257.015 243.243 257.074 243.244 257.125 243.274C257.14 243.282 257.156 243.294 257.171 243.31C257.185 243.328 257.196 243.353 257.203 243.383C257.209 243.415 257.21 243.455 257.205 243.501C257.2 243.551 257.186 243.612 257.162 243.684C257.137 243.757 257.1 243.843 257.053 243.942C257.005 244.043 256.941 244.161 256.862 244.295C256.762 244.463 256.653 244.62 256.533 244.764C256.415 244.91 256.297 245.04 256.18 245.155C256.064 245.27 255.954 245.369 255.85 245.453C255.746 245.537 255.658 245.602 255.588 245.649L256.39 246.123C256.49 246.034 256.594 245.935 256.702 245.824C256.81 245.716 256.916 245.599 257.021 245.475C257.128 245.352 257.231 245.224 257.328 245.089C257.425 244.956 257.513 244.821 257.593 244.686C257.665 244.564 257.737 244.431 257.808 244.289C257.878 244.147 257.939 244.002 257.991 243.854C258.042 243.705 258.079 243.555 258.102 243.406C258.124 243.257 258.123 243.113 258.098 242.974C258.075 242.838 258.023 242.71 257.944 242.591C257.865 242.471 257.749 242.366 257.596 242.275C257.466 242.199 257.337 242.157 257.208 242.149C257.081 242.142 256.954 242.159 256.826 242.202C256.701 242.246 256.575 242.309 256.451 242.392C256.329 242.476 256.209 242.571 256.09 242.676C255.972 242.783 255.857 242.896 255.746 243.016C255.634 243.136 255.527 243.253 255.423 243.366C255.32 243.482 255.221 243.591 255.126 243.691C255.032 243.792 254.943 243.877 254.859 243.946C254.777 244.015 254.7 244.062 254.628 244.088C254.558 244.114 254.495 244.112 254.44 244.079C254.405 244.058 254.375 244.023 254.352 243.975C254.328 243.927 254.32 243.858 254.328 243.768C254.338 243.679 254.369 243.563 254.422 243.424C254.475 243.288 254.56 243.121 254.677 242.923C254.876 242.587 255.099 242.291 255.347 242.038C255.593 241.787 255.848 241.584 256.112 241.429L255.285 240.94ZM257.664 237.547C257.397 237.768 257.137 238.033 256.885 238.341C256.789 238.459 256.691 238.586 256.592 238.722C256.492 238.86 256.403 239.002 256.323 239.149C256.242 239.297 256.176 239.448 256.125 239.6C256.075 239.753 256.051 239.905 256.053 240.053C256.054 240.203 256.087 240.347 256.151 240.488C256.215 240.629 256.322 240.761 256.471 240.883C256.588 240.978 256.71 241.041 256.837 241.069C256.965 241.098 257.097 241.102 257.23 241.08C257.364 241.058 257.5 241.016 257.636 240.954C257.775 240.893 257.912 240.82 258.047 240.734C258.182 240.65 258.314 240.556 258.446 240.454C258.577 240.355 258.704 240.256 258.825 240.158C258.946 240.063 259.06 239.972 259.168 239.887C259.277 239.802 259.377 239.731 259.467 239.673C259.558 239.617 259.64 239.579 259.71 239.561C259.782 239.544 259.84 239.555 259.885 239.592C259.899 239.603 259.913 239.618 259.926 239.636C259.937 239.655 259.944 239.681 259.946 239.713C259.947 239.744 259.942 239.783 259.93 239.829C259.919 239.877 259.895 239.935 259.86 240.003C259.824 240.071 259.775 240.151 259.714 240.241C259.651 240.334 259.569 240.441 259.47 240.562C259.347 240.713 259.215 240.851 259.075 240.976C258.937 241.102 258.801 241.213 258.667 241.308C258.535 241.405 258.411 241.487 258.296 241.554C258.181 241.621 258.084 241.672 258.007 241.707L258.729 242.298C258.841 242.226 258.959 242.143 259.083 242.05C259.206 241.959 259.328 241.86 259.45 241.753C259.574 241.648 259.696 241.535 259.813 241.417C259.929 241.3 260.036 241.18 260.135 241.059C260.225 240.949 260.316 240.828 260.407 240.699C260.498 240.569 260.581 240.434 260.654 240.295C260.727 240.156 260.786 240.014 260.831 239.869C260.875 239.726 260.896 239.584 260.893 239.443C260.89 239.305 260.859 239.17 260.799 239.04C260.739 238.91 260.64 238.789 260.502 238.677C260.386 238.582 260.264 238.52 260.138 238.492C260.013 238.466 259.885 238.465 259.752 238.488C259.621 238.512 259.488 238.555 259.353 238.619C259.219 238.683 259.086 238.759 258.953 238.845C258.821 238.933 258.69 239.027 258.561 239.129C258.432 239.231 258.308 239.33 258.189 239.427C258.07 239.526 257.956 239.618 257.846 239.703C257.738 239.789 257.638 239.858 257.545 239.913C257.453 239.97 257.369 240.005 257.295 240.02C257.221 240.035 257.16 240.023 257.11 239.982C257.079 239.956 257.054 239.918 257.038 239.867C257.022 239.815 257.024 239.746 257.046 239.658C257.069 239.571 257.117 239.462 257.19 239.333C257.264 239.206 257.374 239.053 257.52 238.875C257.767 238.573 258.032 238.315 258.314 238.102C258.596 237.891 258.879 237.729 259.163 237.615L258.419 237.007C258.18 237.146 257.928 237.326 257.664 237.547ZM260.732 238.125C260.896 238.311 261.081 238.433 261.287 238.491C261.492 238.55 261.712 238.555 261.945 238.506C262.176 238.459 262.417 238.362 262.667 238.215C262.919 238.069 263.171 237.885 263.425 237.662C263.554 237.549 263.685 237.424 263.815 237.289C263.947 237.155 264.073 237.018 264.194 236.878C264.317 236.739 264.432 236.601 264.538 236.464C264.643 236.327 264.736 236.2 264.816 236.084L264.178 235.357C264.113 235.482 264.035 235.614 263.946 235.755C263.856 235.896 263.756 236.038 263.646 236.182C263.534 236.327 263.413 236.47 263.282 236.611C263.151 236.754 263.011 236.891 262.863 237.022C262.675 237.186 262.51 237.31 262.369 237.392C262.227 237.476 262.104 237.529 262.002 237.551C261.899 237.576 261.813 237.576 261.743 237.549C261.674 237.524 261.618 237.486 261.574 237.437L261.518 237.372C261.973 236.926 262.355 236.525 262.665 236.17C262.973 235.817 263.204 235.496 263.357 235.209C263.51 234.921 263.583 234.66 263.574 234.425C263.567 234.192 263.474 233.974 263.295 233.77C263.153 233.608 262.998 233.503 262.83 233.453C262.66 233.404 262.485 233.397 262.307 233.431C262.129 233.466 261.951 233.533 261.773 233.635C261.594 233.738 261.423 233.862 261.26 234.005C261.12 234.128 260.989 234.257 260.867 234.393C260.742 234.528 260.628 234.668 260.526 234.812C260.424 234.957 260.332 235.103 260.252 235.252C260.171 235.401 260.103 235.551 260.049 235.699L259.788 235.402L258.971 236.118L260.732 238.125ZM261.646 234.8C261.766 234.694 261.873 234.615 261.965 234.56C262.057 234.505 262.137 234.468 262.208 234.451C262.277 234.434 262.336 234.434 262.383 234.449C262.432 234.466 262.471 234.493 262.502 234.528C262.528 234.557 262.552 234.593 262.574 234.636C262.595 234.681 262.6 234.738 262.59 234.809C262.579 234.88 262.548 234.97 262.496 235.076C262.442 235.183 262.355 235.315 262.235 235.471C262.116 235.628 261.956 235.815 261.757 236.029C261.556 236.244 261.304 236.495 261 236.783L260.65 236.384C260.68 236.259 260.724 236.126 260.782 235.987C260.839 235.851 260.909 235.715 260.991 235.578C261.074 235.442 261.171 235.308 261.28 235.175C261.39 235.042 261.512 234.917 261.646 234.8Z" fill="#D0EBE3"/>
<path d="M282.5 258.5L287.538 230.791C290.095 216.728 297.589 204.039 308.67 195.01L389.672 129.009C411.251 111.425 442.091 110.993 464.155 127.966L569.5 209" stroke="#D0EBE3" stroke-linecap="round"/>
<g opacity="0.5">
<circle cx="492.5" cy="371.5" r="1" transform="rotate(180 492.5 371.5)" fill="#D0EBE3" stroke="#D0EBE3"/>
<path d="M492.5 366.5L492.5 354.5" stroke="#D0EBE3" stroke-width="2" stroke-linecap="round"/>
<path d="M492.5 354.5L485 354.5" stroke="#D0EBE3" stroke-width="2" stroke-linecap="round"/>
<circle cx="472.5" cy="337.5" r="1" fill="#D0EBE3" stroke="#D0EBE3"/>
<path d="M472.5 342.5V354.5" stroke="#D0EBE3" stroke-width="2" stroke-linecap="round"/>
<path d="M472.5 354.5H480" stroke="#D0EBE3" stroke-width="2" stroke-linecap="round"/>
<circle cx="489.5" cy="324.5" r="1" transform="rotate(90 489.5 324.5)" fill="#D0EBE3" stroke="#D0EBE3"/>
<path d="M484.5 324.5L472.5 324.5" stroke="#D0EBE3" stroke-width="2" stroke-linecap="round"/>
<path d="M472.5 324.5L472.5 332" stroke="#D0EBE3" stroke-width="2" stroke-linecap="round"/>
<circle cx="502.5" cy="341.5" r="1" transform="rotate(180 502.5 341.5)" fill="#D0EBE3" stroke="#D0EBE3"/>
<path d="M502.5 336.5L502.5 324.5" stroke="#D0EBE3" stroke-width="2" stroke-linecap="round"/>
<path d="M502.5 324.5L495 324.5" stroke="#D0EBE3" stroke-width="2" stroke-linecap="round"/>
<circle cx="527.5" cy="324.5" r="1" fill="#D0EBE3" stroke="#D0EBE3"/>
<path d="M527.5 329.5V341.5" stroke="#D0EBE3" stroke-width="2" stroke-linecap="round"/>
<path d="M527.5 341.5H535" stroke="#D0EBE3" stroke-width="2" stroke-linecap="round"/>
<circle cx="547.5" cy="358.5" r="1" transform="rotate(-180 547.5 358.5)" fill="#D0EBE3" stroke="#D0EBE3"/>
<path d="M547.5 353.5L547.5 341.5" stroke="#D0EBE3" stroke-width="2" stroke-linecap="round"/>
<path d="M547.5 341.5L540 341.5" stroke="#D0EBE3" stroke-width="2" stroke-linecap="round"/>
<circle cx="530.5" cy="371.5" r="1" transform="rotate(-90 530.5 371.5)" fill="#D0EBE3" stroke="#D0EBE3"/>
<path d="M535.5 371.5L547.5 371.5" stroke="#D0EBE3" stroke-width="2" stroke-linecap="round"/>
<path d="M547.5 371.5L547.5 364" stroke="#D0EBE3" stroke-width="2" stroke-linecap="round"/>
<circle cx="517.5" cy="354.5" r="1" fill="#D0EBE3" stroke="#D0EBE3"/>
<path d="M517.5 359.5V371.5" stroke="#D0EBE3" stroke-width="2" stroke-linecap="round"/>
<path d="M517.5 371.5H525" stroke="#D0EBE3" stroke-width="2" stroke-linecap="round"/>
<circle cx="492.5" cy="267.5" r="1" transform="rotate(180 492.5 267.5)" fill="#D0EBE3" stroke="#D0EBE3"/>
<path d="M492.5 262.5L492.5 250.5" stroke="#D0EBE3" stroke-width="2" stroke-linecap="round"/>
<path d="M492.5 250.5L485 250.5" stroke="#D0EBE3" stroke-width="2" stroke-linecap="round"/>
<circle cx="472.5" cy="233.5" r="1" fill="#D0EBE3" stroke="#D0EBE3"/>
<path d="M472.5 238.5V250.5" stroke="#D0EBE3" stroke-width="2" stroke-linecap="round"/>
<path d="M472.5 250.5H480" stroke="#D0EBE3" stroke-width="2" stroke-linecap="round"/>
<circle cx="489.5" cy="220.5" r="1" transform="rotate(90 489.5 220.5)" fill="#D0EBE3" stroke="#D0EBE3"/>
<path d="M484.5 220.5L472.5 220.5" stroke="#D0EBE3" stroke-width="2" stroke-linecap="round"/>
<path d="M472.5 220.5L472.5 228" stroke="#D0EBE3" stroke-width="2" stroke-linecap="round"/>
<circle cx="502.5" cy="237.5" r="1" transform="rotate(180 502.5 237.5)" fill="#D0EBE3" stroke="#D0EBE3"/>
<path d="M502.5 232.5L502.5 220.5" stroke="#D0EBE3" stroke-width="2" stroke-linecap="round"/>
<path d="M502.5 220.5L495 220.5" stroke="#D0EBE3" stroke-width="2" stroke-linecap="round"/>
<circle cx="527.5" cy="220.5" r="1" fill="#D0EBE3" stroke="#D0EBE3"/>
<path d="M527.5 225.5V237.5" stroke="#D0EBE3" stroke-width="2" stroke-linecap="round"/>
<path d="M527.5 237.5H535" stroke="#D0EBE3" stroke-width="2" stroke-linecap="round"/>
<circle cx="547.5" cy="254.5" r="1" transform="rotate(-180 547.5 254.5)" fill="#D0EBE3" stroke="#D0EBE3"/>
<path d="M547.5 249.5L547.5 237.5" stroke="#D0EBE3" stroke-width="2" stroke-linecap="round"/>
<path d="M547.5 237.5L540 237.5" stroke="#D0EBE3" stroke-width="2" stroke-linecap="round"/>
<circle cx="530.5" cy="267.5" r="1" transform="rotate(-90 530.5 267.5)" fill="#D0EBE3" stroke="#D0EBE3"/>
<path d="M535.5 267.5L547.5 267.5" stroke="#D0EBE3" stroke-width="2" stroke-linecap="round"/>
<path d="M547.5 267.5L547.5 260" stroke="#D0EBE3" stroke-width="2" stroke-linecap="round"/>
<circle cx="517.5" cy="250.5" r="1" fill="#D0EBE3" stroke="#D0EBE3"/>
<path d="M517.5 255.5V267.5" stroke="#D0EBE3" stroke-width="2" stroke-linecap="round"/>
<path d="M517.5 267.5H525" stroke="#D0EBE3" stroke-width="2" stroke-linecap="round"/>
<circle cx="410.5" cy="317.5" r="1" transform="rotate(180 410.5 317.5)" fill="#D0EBE3" stroke="#D0EBE3"/>
<path d="M410.5 312.5L410.5 300.5" stroke="#D0EBE3" stroke-width="2" stroke-linecap="round"/>
<path d="M410.5 300.5L403 300.5" stroke="#D0EBE3" stroke-width="2" stroke-linecap="round"/>
<circle cx="390.5" cy="283.5" r="1" fill="#D0EBE3" stroke="#D0EBE3"/>
<path d="M390.5 288.5V300.5" stroke="#D0EBE3" stroke-width="2" stroke-linecap="round"/>
<path d="M390.5 300.5H398" stroke="#D0EBE3" stroke-width="2" stroke-linecap="round"/>
<circle cx="407.5" cy="270.5" r="1" transform="rotate(90 407.5 270.5)" fill="#D0EBE3" stroke="#D0EBE3"/>
<path d="M402.5 270.5L390.5 270.5" stroke="#D0EBE3" stroke-width="2" stroke-linecap="round"/>
<path d="M390.5 270.5L390.5 278" stroke="#D0EBE3" stroke-width="2" stroke-linecap="round"/>
<circle cx="420.5" cy="287.5" r="1" transform="rotate(180 420.5 287.5)" fill="#D0EBE3" stroke="#D0EBE3"/>
<path d="M420.5 282.5L420.5 270.5" stroke="#D0EBE3" stroke-width="2" stroke-linecap="round"/>
<path d="M420.5 270.5L413 270.5" stroke="#D0EBE3" stroke-width="2" stroke-linecap="round"/>
<circle cx="445.5" cy="270.5" r="1" fill="#D0EBE3" stroke="#D0EBE3"/>
<path d="M445.5 275.5V287.5" stroke="#D0EBE3" stroke-width="2" stroke-linecap="round"/>
<path d="M445.5 287.5H453" stroke="#D0EBE3" stroke-width="2" stroke-linecap="round"/>
<circle cx="465.5" cy="304.5" r="1" transform="rotate(-180 465.5 304.5)" fill="#D0EBE3" stroke="#D0EBE3"/>
<path d="M465.5 299.5L465.5 287.5" stroke="#D0EBE3" stroke-width="2" stroke-linecap="round"/>
<path d="M465.5 287.5L458 287.5" stroke="#D0EBE3" stroke-width="2" stroke-linecap="round"/>
<circle cx="448.5" cy="317.5" r="1" transform="rotate(-90 448.5 317.5)" fill="#D0EBE3" stroke="#D0EBE3"/>
<path d="M453.5 317.5L465.5 317.5" stroke="#D0EBE3" stroke-width="2" stroke-linecap="round"/>
<path d="M465.5 317.5L465.5 310" stroke="#D0EBE3" stroke-width="2" stroke-linecap="round"/>
<circle cx="435.5" cy="300.5" r="1" fill="#D0EBE3" stroke="#D0EBE3"/>
<path d="M435.5 305.5V317.5" stroke="#D0EBE3" stroke-width="2" stroke-linecap="round"/>
<path d="M435.5 317.5H443" stroke="#D0EBE3" stroke-width="2" stroke-linecap="round"/>
<circle cx="410.5" cy="213.5" r="1" transform="rotate(180 410.5 213.5)" fill="#D0EBE3" stroke="#D0EBE3"/>
<path d="M410.5 208.5L410.5 196.5" stroke="#D0EBE3" stroke-width="2" stroke-linecap="round"/>
<path d="M410.5 196.5L403 196.5" stroke="#D0EBE3" stroke-width="2" stroke-linecap="round"/>
<circle cx="390.5" cy="179.5" r="1" fill="#D0EBE3" stroke="#D0EBE3"/>
<path d="M390.5 184.5V196.5" stroke="#D0EBE3" stroke-width="2" stroke-linecap="round"/>
<path d="M390.5 196.5H398" stroke="#D0EBE3" stroke-width="2" stroke-linecap="round"/>
<circle cx="407.5" cy="166.5" r="1" transform="rotate(90 407.5 166.5)" fill="#D0EBE3" stroke="#D0EBE3"/>
<path d="M402.5 166.5L390.5 166.5" stroke="#D0EBE3" stroke-width="2" stroke-linecap="round"/>
<path d="M390.5 166.5L390.5 174" stroke="#D0EBE3" stroke-width="2" stroke-linecap="round"/>
<circle cx="420.5" cy="183.5" r="1" transform="rotate(180 420.5 183.5)" fill="#D0EBE3" stroke="#D0EBE3"/>
<path d="M420.5 178.5L420.5 166.5" stroke="#D0EBE3" stroke-width="2" stroke-linecap="round"/>
<path d="M420.5 166.5L413 166.5" stroke="#D0EBE3" stroke-width="2" stroke-linecap="round"/>
<circle cx="445.5" cy="166.5" r="1" fill="#D0EBE3" stroke="#D0EBE3"/>
<path d="M445.5 171.5V183.5" stroke="#D0EBE3" stroke-width="2" stroke-linecap="round"/>
<path d="M445.5 183.5H453" stroke="#D0EBE3" stroke-width="2" stroke-linecap="round"/>
<circle cx="465.5" cy="200.5" r="1" transform="rotate(-180 465.5 200.5)" fill="#D0EBE3" stroke="#D0EBE3"/>
<path d="M465.5 195.5L465.5 183.5" stroke="#D0EBE3" stroke-width="2" stroke-linecap="round"/>
<path d="M465.5 183.5L458 183.5" stroke="#D0EBE3" stroke-width="2" stroke-linecap="round"/>
<circle cx="448.5" cy="213.5" r="1" transform="rotate(-90 448.5 213.5)" fill="#D0EBE3" stroke="#D0EBE3"/>
<path d="M453.5 213.5L465.5 213.5" stroke="#D0EBE3" stroke-width="2" stroke-linecap="round"/>
<path d="M465.5 213.5L465.5 206" stroke="#D0EBE3" stroke-width="2" stroke-linecap="round"/>
<circle cx="435.5" cy="196.5" r="1" fill="#D0EBE3" stroke="#D0EBE3"/>
<path d="M435.5 201.5V213.5" stroke="#D0EBE3" stroke-width="2" stroke-linecap="round"/>
<path d="M435.5 213.5H443" stroke="#D0EBE3" stroke-width="2" stroke-linecap="round"/>
<circle cx="580.5" cy="431.5" r="1" transform="rotate(180 580.5 431.5)" fill="#D0EBE3" stroke="#D0EBE3"/>
<path d="M580.5 426.5L580.5 414.5" stroke="#D0EBE3" stroke-width="2" stroke-linecap="round"/>
<path d="M580.5 414.5L573 414.5" stroke="#D0EBE3" stroke-width="2" stroke-linecap="round"/>
<circle cx="560.5" cy="397.5" r="1" fill="#D0EBE3" stroke="#D0EBE3"/>
<path d="M560.5 402.5V414.5" stroke="#D0EBE3" stroke-width="2" stroke-linecap="round"/>
<path d="M560.5 414.5H568" stroke="#D0EBE3" stroke-width="2" stroke-linecap="round"/>
<circle cx="577.5" cy="384.5" r="1" transform="rotate(90 577.5 384.5)" fill="#D0EBE3" stroke="#D0EBE3"/>
<path d="M572.5 384.5L560.5 384.5" stroke="#D0EBE3" stroke-width="2" stroke-linecap="round"/>
<path d="M560.5 384.5L560.5 392" stroke="#D0EBE3" stroke-width="2" stroke-linecap="round"/>
<circle cx="590.5" cy="401.5" r="1" transform="rotate(180 590.5 401.5)" fill="#D0EBE3" stroke="#D0EBE3"/>
<path d="M590.5 396.5L590.5 384.5" stroke="#D0EBE3" stroke-width="2" stroke-linecap="round"/>
<path d="M590.5 384.5L583 384.5" stroke="#D0EBE3" stroke-width="2" stroke-linecap="round"/>
<circle cx="615.5" cy="384.5" r="1" fill="#D0EBE3" stroke="#D0EBE3"/>
<path d="M615.5 389.5V401.5" stroke="#D0EBE3" stroke-width="2" stroke-linecap="round"/>
<path d="M615.5 401.5H623" stroke="#D0EBE3" stroke-width="2" stroke-linecap="round"/>
<circle cx="635.5" cy="418.5" r="1" transform="rotate(-180 635.5 418.5)" fill="#D0EBE3" stroke="#D0EBE3"/>
<path d="M635.5 413.5L635.5 401.5" stroke="#D0EBE3" stroke-width="2" stroke-linecap="round"/>
<path d="M635.5 401.5L628 401.5" stroke="#D0EBE3" stroke-width="2" stroke-linecap="round"/>
<circle cx="618.5" cy="431.5" r="1" transform="rotate(-90 618.5 431.5)" fill="#D0EBE3" stroke="#D0EBE3"/>
<path d="M623.5 431.5L635.5 431.5" stroke="#D0EBE3" stroke-width="2" stroke-linecap="round"/>
<path d="M635.5 431.5L635.5 424" stroke="#D0EBE3" stroke-width="2" stroke-linecap="round"/>
<circle cx="605.5" cy="414.5" r="1" fill="#D0EBE3" stroke="#D0EBE3"/>
<path d="M605.5 419.5V431.5" stroke="#D0EBE3" stroke-width="2" stroke-linecap="round"/>
<path d="M605.5 431.5H613" stroke="#D0EBE3" stroke-width="2" stroke-linecap="round"/>
</g>
<g opacity="0.5">
<circle cx="178.5" cy="103.5" r="1" transform="rotate(-90 178.5 103.5)" fill="#D0EBE3" stroke="#D0EBE3"/>
<path d="M183.5 103.5L195.5 103.5" stroke="#D0EBE3" stroke-width="2" stroke-linecap="round"/>
<path d="M195.5 103.5L195.5 96" stroke="#D0EBE3" stroke-width="2" stroke-linecap="round"/>
<circle cx="212.5" cy="83.5" r="1" transform="rotate(90 212.5 83.5)" fill="#D0EBE3" stroke="#D0EBE3"/>
<path d="M207.5 83.5L195.5 83.5" stroke="#D0EBE3" stroke-width="2" stroke-linecap="round"/>
<path d="M195.5 83.5L195.5 91" stroke="#D0EBE3" stroke-width="2" stroke-linecap="round"/>
<circle cx="225.5" cy="100.5" r="1" transform="rotate(180 225.5 100.5)" fill="#D0EBE3" stroke="#D0EBE3"/>
<path d="M225.5 95.5L225.5 83.5" stroke="#D0EBE3" stroke-width="2" stroke-linecap="round"/>
<path d="M225.5 83.5L218 83.5" stroke="#D0EBE3" stroke-width="2" stroke-linecap="round"/>
<circle cx="208.5" cy="113.5" r="1" transform="rotate(-90 208.5 113.5)" fill="#D0EBE3" stroke="#D0EBE3"/>
<path d="M213.5 113.5L225.5 113.5" stroke="#D0EBE3" stroke-width="2" stroke-linecap="round"/>
<path d="M225.5 113.5L225.5 106" stroke="#D0EBE3" stroke-width="2" stroke-linecap="round"/>
<circle cx="225.5" cy="138.5" r="1" transform="rotate(90 225.5 138.5)" fill="#D0EBE3" stroke="#D0EBE3"/>
<path d="M220.5 138.5L208.5 138.5" stroke="#D0EBE3" stroke-width="2" stroke-linecap="round"/>
<path d="M208.5 138.5L208.5 146" stroke="#D0EBE3" stroke-width="2" stroke-linecap="round"/>
<circle cx="191.5" cy="158.5" r="1" transform="rotate(-90 191.5 158.5)" fill="#D0EBE3" stroke="#D0EBE3"/>
<path d="M196.5 158.5L208.5 158.5" stroke="#D0EBE3" stroke-width="2" stroke-linecap="round"/>
<path d="M208.5 158.5L208.5 151" stroke="#D0EBE3" stroke-width="2" stroke-linecap="round"/>
<circle cx="178.5" cy="141.5" r="1" fill="#D0EBE3" stroke="#D0EBE3"/>
<path d="M178.5 146.5L178.5 158.5" stroke="#D0EBE3" stroke-width="2" stroke-linecap="round"/>
<path d="M178.5 158.5L186 158.5" stroke="#D0EBE3" stroke-width="2" stroke-linecap="round"/>
<circle cx="195.5" cy="128.5" r="1" transform="rotate(90 195.5 128.5)" fill="#D0EBE3" stroke="#D0EBE3"/>
<path d="M190.5 128.5L178.5 128.5" stroke="#D0EBE3" stroke-width="2" stroke-linecap="round"/>
<path d="M178.5 128.5L178.5 136" stroke="#D0EBE3" stroke-width="2" stroke-linecap="round"/>
<circle cx="7.50001" cy="270.5" r="1" transform="rotate(180 7.50001 270.5)" fill="#D0EBE3" stroke="#D0EBE3"/>
<path d="M7.50001 265.5L7.50001 253.5" stroke="#D0EBE3" stroke-width="2" stroke-linecap="round"/>
<path d="M7.50001 253.5L1.23978e-05 253.5" stroke="#D0EBE3" stroke-width="2" stroke-linecap="round"/>
<path d="M-4.49998 283.5L7.50002 283.5" stroke="#D0EBE3" stroke-width="2" stroke-linecap="round"/>
<path d="M7.50002 283.5L7.50001 276" stroke="#D0EBE3" stroke-width="2" stroke-linecap="round"/>
<circle cx="7.50002" cy="308.5" r="1" transform="rotate(90 7.50002 308.5)" fill="#D0EBE3" stroke="#D0EBE3"/>
<path d="M2.50002 308.5L-9.49998 308.5" stroke="#D0EBE3" stroke-width="2" stroke-linecap="round"/>
<circle cx="282.5" cy="103.5" r="1" transform="rotate(-90 282.5 103.5)" fill="#D0EBE3" stroke="#D0EBE3"/>
<path d="M287.5 103.5L299.5 103.5" stroke="#D0EBE3" stroke-width="2" stroke-linecap="round"/>
<path d="M299.5 103.5L299.5 96" stroke="#D0EBE3" stroke-width="2" stroke-linecap="round"/>
<circle cx="316.5" cy="83.5" r="1" transform="rotate(90 316.5 83.5)" fill="#D0EBE3" stroke="#D0EBE3"/>
<path d="M311.5 83.5L299.5 83.5" stroke="#D0EBE3" stroke-width="2" stroke-linecap="round"/>
<path d="M299.5 83.5L299.5 91" stroke="#D0EBE3" stroke-width="2" stroke-linecap="round"/>
<circle cx="329.5" cy="100.5" r="1" transform="rotate(180 329.5 100.5)" fill="#D0EBE3" stroke="#D0EBE3"/>
<path d="M329.5 95.5L329.5 83.5" stroke="#D0EBE3" stroke-width="2" stroke-linecap="round"/>
<path d="M329.5 83.5L322 83.5" stroke="#D0EBE3" stroke-width="2" stroke-linecap="round"/>
<circle cx="312.5" cy="113.5" r="1" transform="rotate(-90 312.5 113.5)" fill="#D0EBE3" stroke="#D0EBE3"/>
<path d="M317.5 113.5L329.5 113.5" stroke="#D0EBE3" stroke-width="2" stroke-linecap="round"/>
<path d="M329.5 113.5L329.5 106" stroke="#D0EBE3" stroke-width="2" stroke-linecap="round"/>
<circle cx="329.5" cy="138.5" r="1" transform="rotate(90 329.5 138.5)" fill="#D0EBE3" stroke="#D0EBE3"/>
<path d="M324.5 138.5L312.5 138.5" stroke="#D0EBE3" stroke-width="2" stroke-linecap="round"/>
<path d="M312.5 138.5L312.5 146" stroke="#D0EBE3" stroke-width="2" stroke-linecap="round"/>
<circle cx="295.5" cy="158.5" r="1" transform="rotate(-90 295.5 158.5)" fill="#D0EBE3" stroke="#D0EBE3"/>
<path d="M300.5 158.5L312.5 158.5" stroke="#D0EBE3" stroke-width="2" stroke-linecap="round"/>
<path d="M312.5 158.5L312.5 151" stroke="#D0EBE3" stroke-width="2" stroke-linecap="round"/>
<circle cx="282.5" cy="141.5" r="1" fill="#D0EBE3" stroke="#D0EBE3"/>
<path d="M282.5 146.5L282.5 158.5" stroke="#D0EBE3" stroke-width="2" stroke-linecap="round"/>
<path d="M282.5 158.5L290 158.5" stroke="#D0EBE3" stroke-width="2" stroke-linecap="round"/>
<circle cx="299.5" cy="128.5" r="1" transform="rotate(90 299.5 128.5)" fill="#D0EBE3" stroke="#D0EBE3"/>
<path d="M294.5 128.5L282.5 128.5" stroke="#D0EBE3" stroke-width="2" stroke-linecap="round"/>
<path d="M282.5 128.5L282.5 136" stroke="#D0EBE3" stroke-width="2" stroke-linecap="round"/>
<circle cx="64.5" cy="273.5" r="1" transform="rotate(-90 64.5 273.5)" fill="#D0EBE3" stroke="#D0EBE3"/>
<path d="M69.5 273.5L81.5 273.5" stroke="#D0EBE3" stroke-width="2" stroke-linecap="round"/>
<path d="M81.5 273.5L81.5 266" stroke="#D0EBE3" stroke-width="2" stroke-linecap="round"/>
<circle cx="98.5" cy="253.5" r="1" transform="rotate(90 98.5 253.5)" fill="#D0EBE3" stroke="#D0EBE3"/>
<path d="M93.5 253.5L81.5 253.5" stroke="#D0EBE3" stroke-width="2" stroke-linecap="round"/>
<path d="M81.5 253.5L81.5 261" stroke="#D0EBE3" stroke-width="2" stroke-linecap="round"/>
<circle cx="111.5" cy="270.5" r="1" transform="rotate(180 111.5 270.5)" fill="#D0EBE3" stroke="#D0EBE3"/>
<path d="M111.5 265.5L111.5 253.5" stroke="#D0EBE3" stroke-width="2" stroke-linecap="round"/>
<path d="M111.5 253.5L104 253.5" stroke="#D0EBE3" stroke-width="2" stroke-linecap="round"/>
<circle cx="94.5" cy="283.5" r="1" transform="rotate(-90 94.5 283.5)" fill="#D0EBE3" stroke="#D0EBE3"/>
<path d="M99.5 283.5L111.5 283.5" stroke="#D0EBE3" stroke-width="2" stroke-linecap="round"/>
<path d="M111.5 283.5L111.5 276" stroke="#D0EBE3" stroke-width="2" stroke-linecap="round"/>
<circle cx="111.5" cy="308.5" r="1" transform="rotate(90 111.5 308.5)" fill="#D0EBE3" stroke="#D0EBE3"/>
<path d="M106.5 308.5L94.5 308.5" stroke="#D0EBE3" stroke-width="2" stroke-linecap="round"/>
<path d="M94.5 308.5L94.5 316" stroke="#D0EBE3" stroke-width="2" stroke-linecap="round"/>
<circle cx="77.5" cy="328.5" r="1" transform="rotate(-90 77.5 328.5)" fill="#D0EBE3" stroke="#D0EBE3"/>
<path d="M82.5 328.5L94.5 328.5" stroke="#D0EBE3" stroke-width="2" stroke-linecap="round"/>
<path d="M94.5 328.5L94.5 321" stroke="#D0EBE3" stroke-width="2" stroke-linecap="round"/>
<circle cx="64.5" cy="311.5" r="1" fill="#D0EBE3" stroke="#D0EBE3"/>
<path d="M64.5 316.5L64.5 328.5" stroke="#D0EBE3" stroke-width="2" stroke-linecap="round"/>
<path d="M64.5 328.5H72" stroke="#D0EBE3" stroke-width="2" stroke-linecap="round"/>
<circle cx="81.5" cy="298.5" r="1" transform="rotate(90 81.5 298.5)" fill="#D0EBE3" stroke="#D0EBE3"/>
<path d="M76.5 298.5L64.5 298.5" stroke="#D0EBE3" stroke-width="2" stroke-linecap="round"/>
<path d="M64.5 298.5L64.5 306" stroke="#D0EBE3" stroke-width="2" stroke-linecap="round"/>
<circle cx="232.5" cy="21.5" r="1" transform="rotate(-90 232.5 21.5)" fill="#D0EBE3" stroke="#D0EBE3"/>
<path d="M237.5 21.5L249.5 21.5" stroke="#D0EBE3" stroke-width="2" stroke-linecap="round"/>
<path d="M249.5 21.5L249.5 14" stroke="#D0EBE3" stroke-width="2" stroke-linecap="round"/>
<circle cx="266.5" cy="1.5" r="1" transform="rotate(90 266.5 1.5)" fill="#D0EBE3" stroke="#D0EBE3"/>
<path d="M261.5 1.5L249.5 1.5" stroke="#D0EBE3" stroke-width="2" stroke-linecap="round"/>
<path d="M249.5 1.5L249.5 9" stroke="#D0EBE3" stroke-width="2" stroke-linecap="round"/>
<circle cx="279.5" cy="18.5" r="1" transform="rotate(180 279.5 18.5)" fill="#D0EBE3" stroke="#D0EBE3"/>
<path d="M279.5 13.5L279.5 1.5" stroke="#D0EBE3" stroke-width="2" stroke-linecap="round"/>
<path d="M279.5 1.5L272 1.5" stroke="#D0EBE3" stroke-width="2" stroke-linecap="round"/>
<circle cx="262.5" cy="31.5" r="1" transform="rotate(-90 262.5 31.5)" fill="#D0EBE3" stroke="#D0EBE3"/>
<path d="M267.5 31.5L279.5 31.5" stroke="#D0EBE3" stroke-width="2" stroke-linecap="round"/>
<path d="M279.5 31.5L279.5 24" stroke="#D0EBE3" stroke-width="2" stroke-linecap="round"/>
<circle cx="279.5" cy="56.5" r="1" transform="rotate(90 279.5 56.5)" fill="#D0EBE3" stroke="#D0EBE3"/>
<path d="M274.5 56.5L262.5 56.5" stroke="#D0EBE3" stroke-width="2" stroke-linecap="round"/>
<path d="M262.5 56.5L262.5 64" stroke="#D0EBE3" stroke-width="2" stroke-linecap="round"/>
<circle cx="245.5" cy="76.5" r="1" transform="rotate(-90 245.5 76.5)" fill="#D0EBE3" stroke="#D0EBE3"/>
<path d="M250.5 76.5L262.5 76.5" stroke="#D0EBE3" stroke-width="2" stroke-linecap="round"/>
<path d="M262.5 76.5L262.5 69" stroke="#D0EBE3" stroke-width="2" stroke-linecap="round"/>
<circle cx="232.5" cy="59.5" r="1" fill="#D0EBE3" stroke="#D0EBE3"/>
<path d="M232.5 64.5L232.5 76.5" stroke="#D0EBE3" stroke-width="2" stroke-linecap="round"/>
<path d="M232.5 76.5L240 76.5" stroke="#D0EBE3" stroke-width="2" stroke-linecap="round"/>
<circle cx="249.5" cy="46.5" r="1" transform="rotate(90 249.5 46.5)" fill="#D0EBE3" stroke="#D0EBE3"/>
<path d="M244.5 46.5L232.5 46.5" stroke="#D0EBE3" stroke-width="2" stroke-linecap="round"/>
<path d="M232.5 46.5L232.5 54" stroke="#D0EBE3" stroke-width="2" stroke-linecap="round"/>
<circle cx="14.5" cy="191.5" r="1" transform="rotate(-90 14.5 191.5)" fill="#D0EBE3" stroke="#D0EBE3"/>
<path d="M19.5 191.5L31.5 191.5" stroke="#D0EBE3" stroke-width="2" stroke-linecap="round"/>
<path d="M31.5 191.5L31.5 184" stroke="#D0EBE3" stroke-width="2" stroke-linecap="round"/>
<circle cx="48.5" cy="171.5" r="1" transform="rotate(90 48.5 171.5)" fill="#D0EBE3" stroke="#D0EBE3"/>
<path d="M43.5 171.5L31.5 171.5" stroke="#D0EBE3" stroke-width="2" stroke-linecap="round"/>
<path d="M31.5 171.5L31.5 179" stroke="#D0EBE3" stroke-width="2" stroke-linecap="round"/>
<circle cx="61.5" cy="188.5" r="1" transform="rotate(180 61.5 188.5)" fill="#D0EBE3" stroke="#D0EBE3"/>
<path d="M61.5 183.5L61.5 171.5" stroke="#D0EBE3" stroke-width="2" stroke-linecap="round"/>
<path d="M61.5 171.5L54 171.5" stroke="#D0EBE3" stroke-width="2" stroke-linecap="round"/>
<circle cx="44.5" cy="201.5" r="1" transform="rotate(-90 44.5 201.5)" fill="#D0EBE3" stroke="#D0EBE3"/>
<path d="M49.5 201.5L61.5 201.5" stroke="#D0EBE3" stroke-width="2" stroke-linecap="round"/>
<path d="M61.5 201.5L61.5 194" stroke="#D0EBE3" stroke-width="2" stroke-linecap="round"/>
<circle cx="61.5" cy="226.5" r="1" transform="rotate(90 61.5 226.5)" fill="#D0EBE3" stroke="#D0EBE3"/>
<path d="M56.5 226.5L44.5 226.5" stroke="#D0EBE3" stroke-width="2" stroke-linecap="round"/>
<path d="M44.5 226.5L44.5 234" stroke="#D0EBE3" stroke-width="2" stroke-linecap="round"/>
<circle cx="27.5" cy="246.5" r="1" transform="rotate(-90 27.5 246.5)" fill="#D0EBE3" stroke="#D0EBE3"/>
<path d="M32.5 246.5L44.5 246.5" stroke="#D0EBE3" stroke-width="2" stroke-linecap="round"/>
<path d="M44.5 246.5L44.5 239" stroke="#D0EBE3" stroke-width="2" stroke-linecap="round"/>
<circle cx="14.5" cy="229.5" r="1" fill="#D0EBE3" stroke="#D0EBE3"/>
<path d="M14.5 234.5L14.5 246.5" stroke="#D0EBE3" stroke-width="2" stroke-linecap="round"/>
<path d="M14.5 246.5L22 246.5" stroke="#D0EBE3" stroke-width="2" stroke-linecap="round"/>
<circle cx="31.5" cy="216.5" r="1" transform="rotate(90 31.5 216.5)" fill="#D0EBE3" stroke="#D0EBE3"/>
<path d="M26.5 216.5L14.5 216.5" stroke="#D0EBE3" stroke-width="2" stroke-linecap="round"/>
<path d="M14.5 216.5L14.5 224" stroke="#D0EBE3" stroke-width="2" stroke-linecap="round"/>
<circle cx="336.5" cy="21.5" r="1" transform="rotate(-90 336.5 21.5)" fill="#D0EBE3" stroke="#D0EBE3"/>
<path d="M341.5 21.5L353.5 21.5" stroke="#D0EBE3" stroke-width="2" stroke-linecap="round"/>
<path d="M353.5 21.5L353.5 14" stroke="#D0EBE3" stroke-width="2" stroke-linecap="round"/>
<circle cx="370.5" cy="1.5" r="1" transform="rotate(90 370.5 1.5)" fill="#D0EBE3" stroke="#D0EBE3"/>
<path d="M365.5 1.5L353.5 1.5" stroke="#D0EBE3" stroke-width="2" stroke-linecap="round"/>
<path d="M353.5 1.5L353.5 9" stroke="#D0EBE3" stroke-width="2" stroke-linecap="round"/>
<circle cx="383.5" cy="18.5" r="1" transform="rotate(180 383.5 18.5)" fill="#D0EBE3" stroke="#D0EBE3"/>
<path d="M383.5 13.5L383.5 1.5" stroke="#D0EBE3" stroke-width="2" stroke-linecap="round"/>
<path d="M383.5 1.5L376 1.5" stroke="#D0EBE3" stroke-width="2" stroke-linecap="round"/>
<circle cx="366.5" cy="31.5" r="1" transform="rotate(-90 366.5 31.5)" fill="#D0EBE3" stroke="#D0EBE3"/>
<path d="M371.5 31.5L383.5 31.5" stroke="#D0EBE3" stroke-width="2" stroke-linecap="round"/>
<path d="M383.5 31.5L383.5 24" stroke="#D0EBE3" stroke-width="2" stroke-linecap="round"/>
<circle cx="383.5" cy="56.5" r="1" transform="rotate(90 383.5 56.5)" fill="#D0EBE3" stroke="#D0EBE3"/>
<path d="M378.5 56.5L366.5 56.5" stroke="#D0EBE3" stroke-width="2" stroke-linecap="round"/>
<path d="M366.5 56.5L366.5 64" stroke="#D0EBE3" stroke-width="2" stroke-linecap="round"/>
<circle cx="349.5" cy="76.5" r="1" transform="rotate(-90 349.5 76.5)" fill="#D0EBE3" stroke="#D0EBE3"/>
<path d="M354.5 76.5L366.5 76.5" stroke="#D0EBE3" stroke-width="2" stroke-linecap="round"/>
<path d="M366.5 76.5L366.5 69" stroke="#D0EBE3" stroke-width="2" stroke-linecap="round"/>
<circle cx="336.5" cy="59.5" r="1" fill="#D0EBE3" stroke="#D0EBE3"/>
<path d="M336.5 64.5L336.5 76.5" stroke="#D0EBE3" stroke-width="2" stroke-linecap="round"/>
<path d="M336.5 76.5L344 76.5" stroke="#D0EBE3" stroke-width="2" stroke-linecap="round"/>
<circle cx="353.5" cy="46.5" r="1" transform="rotate(90 353.5 46.5)" fill="#D0EBE3" stroke="#D0EBE3"/>
<path d="M348.5 46.5L336.5 46.5" stroke="#D0EBE3" stroke-width="2" stroke-linecap="round"/>
<path d="M336.5 46.5L336.5 54" stroke="#D0EBE3" stroke-width="2" stroke-linecap="round"/>
<circle cx="118.5" cy="191.5" r="1" transform="rotate(-90 118.5 191.5)" fill="#D0EBE3" stroke="#D0EBE3"/>
<path d="M123.5 191.5L135.5 191.5" stroke="#D0EBE3" stroke-width="2" stroke-linecap="round"/>
<path d="M135.5 191.5L135.5 184" stroke="#D0EBE3" stroke-width="2" stroke-linecap="round"/>
<circle cx="152.5" cy="171.5" r="1" transform="rotate(90 152.5 171.5)" fill="#D0EBE3" stroke="#D0EBE3"/>
<path d="M147.5 171.5L135.5 171.5" stroke="#D0EBE3" stroke-width="2" stroke-linecap="round"/>
<path d="M135.5 171.5L135.5 179" stroke="#D0EBE3" stroke-width="2" stroke-linecap="round"/>
<circle cx="165.5" cy="188.5" r="1" transform="rotate(180 165.5 188.5)" fill="#D0EBE3" stroke="#D0EBE3"/>
<path d="M165.5 183.5L165.5 171.5" stroke="#D0EBE3" stroke-width="2" stroke-linecap="round"/>
<path d="M165.5 171.5L158 171.5" stroke="#D0EBE3" stroke-width="2" stroke-linecap="round"/>
<circle cx="148.5" cy="201.5" r="1" transform="rotate(-90 148.5 201.5)" fill="#D0EBE3" stroke="#D0EBE3"/>
<path d="M153.5 201.5L165.5 201.5" stroke="#D0EBE3" stroke-width="2" stroke-linecap="round"/>
<path d="M165.5 201.5L165.5 194" stroke="#D0EBE3" stroke-width="2" stroke-linecap="round"/>
<circle cx="165.5" cy="226.5" r="1" transform="rotate(90 165.5 226.5)" fill="#D0EBE3" stroke="#D0EBE3"/>
<path d="M160.5 226.5L148.5 226.5" stroke="#D0EBE3" stroke-width="2" stroke-linecap="round"/>
<path d="M148.5 226.5L148.5 234" stroke="#D0EBE3" stroke-width="2" stroke-linecap="round"/>
<circle cx="131.5" cy="246.5" r="1" transform="rotate(-90 131.5 246.5)" fill="#D0EBE3" stroke="#D0EBE3"/>
<path d="M136.5 246.5L148.5 246.5" stroke="#D0EBE3" stroke-width="2" stroke-linecap="round"/>
<path d="M148.5 246.5L148.5 239" stroke="#D0EBE3" stroke-width="2" stroke-linecap="round"/>
<circle cx="118.5" cy="229.5" r="1" fill="#D0EBE3" stroke="#D0EBE3"/>
<path d="M118.5 234.5L118.5 246.5" stroke="#D0EBE3" stroke-width="2" stroke-linecap="round"/>
<path d="M118.5 246.5L126 246.5" stroke="#D0EBE3" stroke-width="2" stroke-linecap="round"/>
<circle cx="135.5" cy="216.5" r="1" transform="rotate(90 135.5 216.5)" fill="#D0EBE3" stroke="#D0EBE3"/>
<path d="M130.5 216.5L118.5 216.5" stroke="#D0EBE3" stroke-width="2" stroke-linecap="round"/>
<path d="M118.5 216.5L118.5 224" stroke="#D0EBE3" stroke-width="2" stroke-linecap="round"/>
</g>
</g>
<defs>
<clipPath id="clip0_120_46">
<rect width="637" height="431" fill="white"/>
</clipPath>
</defs>
</svg>
