<svg width="129" height="153" viewBox="0 0 129 153" fill="none" xmlns="http://www.w3.org/2000/svg">
<g filter="url(#filter0_i_40_1402)">
<path d="M49.5061 29.6033C45.4504 25.5476 40.2831 22.7856 34.6576 21.6666C29.0322 20.5476 23.2012 21.1219 17.9022 23.3169C12.6031 25.5118 8.07395 29.2288 4.88738 33.9978C1.70083 38.7669 5.53979e-06 44.3737 5.28908e-06 50.1094C5.03836e-06 55.845 1.70083 61.4519 4.88739 66.2209C8.07395 70.9899 12.6031 74.7069 17.9022 76.9019C23.2012 79.0968 29.0322 79.6711 34.6576 78.5521C40.2831 77.4332 45.4504 74.6712 49.5061 70.6155L46.3449 67.4542C42.9144 70.8847 38.5437 73.2209 33.7854 74.1674C29.0272 75.1138 24.0952 74.6281 19.613 72.7715C15.1309 70.9149 11.2999 67.771 8.60462 63.7371C5.9093 59.7033 4.47068 54.9608 4.47068 50.1094C4.47068 45.2579 5.9093 40.5154 8.60462 36.4816C11.2999 32.4478 15.1309 29.3038 19.613 27.4472C24.0952 25.5907 29.0272 25.1049 33.7854 26.0514C38.5437 26.9978 42.9144 29.334 46.3449 32.7645L49.5061 29.6033Z" fill="#F3FFFC"/>
</g>
<g filter="url(#filter1_d_40_1402)">
<rect x="89.3256" y="111.249" width="9.02921" height="9.02921" rx="2" transform="rotate(90 89.3256 111.249)" fill="#F3FFFC"/>
<rect x="89.3256" y="121.783" width="9.02921" height="9.02921" rx="2" transform="rotate(90 89.3256 121.783)" fill="#F3FFFC"/>
<rect x="79.544" y="111.249" width="9.02921" height="9.02921" rx="2" transform="rotate(90 79.544 111.249)" fill="#F3FFFC"/>
<rect x="79.544" y="121.783" width="9.02921" height="9.02921" rx="2" transform="rotate(90 79.544 121.783)" fill="#F3FFFC"/>
<rect x="113.137" y="130.812" width="9.02921" height="9.02921" rx="2" transform="rotate(90 113.137 130.812)" fill="#F3FFFC"/>
<rect x="113.137" y="141.347" width="9.02921" height="9.02921" rx="2" transform="rotate(90 113.137 141.347)" fill="#F3FFFC"/>
<rect x="103.355" y="130.812" width="9.02921" height="9.02921" rx="2" transform="rotate(90 103.355 130.812)" fill="#F3FFFC"/>
<rect x="103.355" y="141.347" width="9.02921" height="9.02921" rx="2" transform="rotate(90 103.355 141.347)" fill="#F3FFFC"/>
<rect x="65.5145" y="130.812" width="9.02921" height="9.02921" rx="2" transform="rotate(90 65.5145 130.812)" fill="#F3FFFC"/>
<rect x="65.5145" y="141.346" width="9.02921" height="9.02921" rx="2" transform="rotate(90 65.5145 141.346)" fill="#F3FFFC"/>
<rect x="55.7329" y="130.812" width="9.02921" height="9.02921" rx="2" transform="rotate(90 55.7329 130.812)" fill="#F3FFFC"/>
<rect x="55.7329" y="141.346" width="9.02921" height="9.02921" rx="2" transform="rotate(90 55.7329 141.346)" fill="#F3FFFC"/>
</g>
<g filter="url(#filter2_d_40_1402)">
<rect x="33.061" y="73.1265" width="15.6553" height="15.6553" rx="2" transform="rotate(-45 33.061 73.1265)" fill="#F3FFFC"/>
<rect x="45.976" y="60.2114" width="15.6553" height="15.6553" rx="2" transform="rotate(-45 45.976 60.2114)" fill="#F3FFFC"/>
<rect x="45.0535" y="85.1187" width="15.6553" height="15.6553" rx="2" transform="rotate(-45 45.0535 85.1187)" fill="#F3FFFC"/>
<rect x="57.9685" y="72.2036" width="15.6553" height="15.6553" rx="2" transform="rotate(-45 57.9685 72.2036)" fill="#F3FFFC"/>
<rect x="33.9835" y="26.0791" width="15.6553" height="15.6553" rx="2" transform="rotate(-45 33.9835 26.0791)" fill="#F3FFFC"/>
<rect x="46.8984" y="13.1641" width="15.6553" height="15.6553" rx="2" transform="rotate(-45 46.8984 13.1641)" fill="#F3FFFC"/>
<rect x="45.976" y="38.0718" width="15.6553" height="15.6553" rx="2" transform="rotate(-45 45.976 38.0718)" fill="#F3FFFC"/>
<rect x="58.891" y="25.1567" width="15.6553" height="15.6553" rx="2" transform="rotate(-45 58.891 25.1567)" fill="#F3FFFC"/>
<rect x="80.1084" y="72.2041" width="15.6553" height="15.6553" rx="2" transform="rotate(-45 80.1084 72.2041)" fill="#F3FFFC"/>
<rect x="93.0233" y="59.2891" width="15.6553" height="15.6553" rx="2" transform="rotate(-45 93.0233 59.2891)" fill="#F3FFFC"/>
<rect x="92.1008" y="84.1968" width="15.6553" height="15.6553" rx="2" transform="rotate(-45 92.1008 84.1968)" fill="#F3FFFC"/>
<rect x="105.016" y="71.2817" width="15.6553" height="15.6553" rx="2" transform="rotate(-45 105.016 71.2817)" fill="#F3FFFC"/>
<rect x="81.0308" y="25.1567" width="15.6553" height="15.6553" rx="2" transform="rotate(-45 81.0308 25.1567)" fill="#F3FFFC"/>
<rect x="93.9457" y="12.2417" width="15.6553" height="15.6553" rx="2" transform="rotate(-45 93.9457 12.2417)" fill="#F3FFFC"/>
<rect x="93.0232" y="37.1489" width="15.6553" height="15.6553" rx="2" transform="rotate(-45 93.0232 37.1489)" fill="#F3FFFC"/>
<rect x="105.938" y="24.2344" width="15.6553" height="15.6553" rx="2" transform="rotate(-45 105.938 24.2344)" fill="#F3FFFC"/>
</g>
<path d="M13.7612 53.1094V52.5156C13.5737 52.6172 13.3602 52.7109 13.1206 52.7969C12.8836 52.8828 12.6323 52.957 12.3667 53.0195C12.1037 53.082 11.8329 53.1302 11.5542 53.1641C11.2756 53.1979 11.0021 53.2148 10.7339 53.2148C10.3849 53.2148 10.0711 53.1836 9.79249 53.1211C9.51645 53.0586 9.28207 52.9661 9.08936 52.8438C8.89665 52.7188 8.74822 52.5651 8.64405 52.3828C8.53988 52.1979 8.4878 51.9844 8.4878 51.7422C8.4878 51.5026 8.5477 51.2917 8.66749 51.1094C8.78988 50.9245 8.96306 50.7643 9.18702 50.6289C9.41098 50.4909 9.68051 50.375 9.99561 50.2812C10.3133 50.1849 10.6675 50.1042 11.0581 50.0391C11.4487 49.9714 11.8706 49.9167 12.3237 49.875C12.7795 49.8307 13.2586 49.7943 13.7612 49.7656V49.3555C13.7612 49.1888 13.73 49.0417 13.6675 48.9141C13.605 48.7865 13.5177 48.6758 13.4058 48.582C13.2938 48.4857 13.1623 48.4062 13.0112 48.3438C12.8602 48.2786 12.6961 48.2266 12.519 48.1875C12.3446 48.1484 12.1597 48.1211 11.9644 48.1055C11.7717 48.0872 11.5776 48.0781 11.3823 48.0781C11.1193 48.0781 10.8797 48.0911 10.6636 48.1172C10.4474 48.1432 10.2456 48.1797 10.0581 48.2266C9.87061 48.2708 9.69092 48.3229 9.51905 48.3828C9.34717 48.4427 9.174 48.5065 8.99952 48.5742V48.0039C9.3615 47.9076 9.74691 47.8242 10.1558 47.7539C10.5672 47.681 11.0034 47.6445 11.4644 47.6445C11.855 47.6445 12.2196 47.6784 12.5581 47.7461C12.8967 47.8112 13.1909 47.9167 13.4409 48.0625C13.6909 48.2083 13.8875 48.3971 14.0308 48.6289C14.174 48.8581 14.2456 49.138 14.2456 49.4688V53.1094H13.7612ZM13.7612 50.1992C12.9097 50.2461 12.1818 50.3125 11.5776 50.3984C10.9761 50.4844 10.4839 50.5898 10.1011 50.7148C9.71827 50.8398 9.43702 50.9857 9.25733 51.1523C9.08025 51.319 8.99171 51.5078 8.99171 51.7188C8.99171 51.8906 9.03467 52.043 9.12061 52.1758C9.20915 52.3086 9.33546 52.4206 9.49952 52.5117C9.66358 52.6003 9.8628 52.668 10.0972 52.7148C10.3315 52.7591 10.5946 52.7812 10.8862 52.7812C11.0581 52.7812 11.2352 52.7721 11.4175 52.7539C11.6024 52.7331 11.786 52.7057 11.9683 52.6719C12.1506 52.6354 12.3302 52.5938 12.5073 52.5469C12.6844 52.4974 12.8511 52.444 13.0073 52.3867C13.1636 52.3294 13.3055 52.2682 13.4331 52.2031C13.5633 52.138 13.6727 52.0716 13.7612 52.0039V50.1992ZM20.3472 48.5352C20.2456 48.4857 20.1284 48.4336 19.9956 48.3789C19.8628 48.3216 19.7105 48.2708 19.5386 48.2266C19.3693 48.1823 19.1779 48.1458 18.9644 48.1172C18.7508 48.0859 18.5138 48.0703 18.2534 48.0703C17.9383 48.0703 17.6571 48.0885 17.4097 48.125C17.1649 48.1615 16.9565 48.2188 16.7847 48.2969C16.6154 48.3724 16.4852 48.4688 16.394 48.5859C16.3055 48.7031 16.2612 48.8424 16.2612 49.0039C16.2612 49.1393 16.3029 49.2578 16.3862 49.3594C16.4722 49.4609 16.5868 49.5508 16.73 49.6289C16.8758 49.707 17.0451 49.7786 17.2378 49.8438C17.4331 49.9062 17.6388 49.9661 17.855 50.0234C18.0737 50.0781 18.2977 50.1341 18.5269 50.1914C18.7586 50.2487 18.9826 50.3112 19.1987 50.3789C19.4175 50.444 19.6232 50.5182 19.8159 50.6016C20.0112 50.6823 20.1805 50.7773 20.3237 50.8867C20.4696 50.9961 20.5842 51.1211 20.6675 51.2617C20.7534 51.4023 20.7964 51.5651 20.7964 51.75C20.7964 51.9505 20.7586 52.1263 20.6831 52.2773C20.6076 52.4258 20.5047 52.5547 20.3745 52.6641C20.2469 52.7708 20.0959 52.8607 19.9214 52.9336C19.7495 53.0039 19.5646 53.0599 19.3667 53.1016C19.1714 53.1432 18.9683 53.1719 18.7573 53.1875C18.549 53.2057 18.3433 53.2148 18.1401 53.2148C17.674 53.2148 17.2508 53.181 16.8706 53.1133C16.493 53.0456 16.1323 52.9531 15.7886 52.8359V52.2383C16.1427 52.4492 16.5164 52.5938 16.9097 52.6719C17.3055 52.75 17.7209 52.7891 18.1558 52.7891C18.4631 52.7891 18.7469 52.7708 19.0073 52.7344C19.2677 52.6979 19.493 52.6406 19.6831 52.5625C19.8732 52.4818 20.0204 52.3776 20.1245 52.25C20.2313 52.1224 20.2847 51.9661 20.2847 51.7812C20.2847 51.6328 20.2417 51.5026 20.1558 51.3906C20.0724 51.2786 19.9579 51.181 19.812 51.0977C19.6688 51.0117 19.4995 50.9362 19.3042 50.8711C19.1115 50.806 18.9071 50.7461 18.6909 50.6914C18.4748 50.6341 18.2508 50.5794 18.019 50.5273C17.7899 50.4727 17.5672 50.4141 17.3511 50.3516C17.1349 50.2891 16.9292 50.2188 16.7339 50.1406C16.5412 50.0625 16.3719 49.9714 16.2261 49.8672C16.0829 49.7604 15.9683 49.638 15.8823 49.5C15.799 49.362 15.7573 49.2018 15.7573 49.0195C15.7573 48.8398 15.7912 48.681 15.8589 48.543C15.9266 48.4023 16.019 48.2812 16.1362 48.1797C16.256 48.0781 16.3954 47.9935 16.5542 47.9258C16.7131 47.8555 16.8823 47.8008 17.062 47.7617C17.2443 47.7201 17.4331 47.6901 17.6284 47.6719C17.8237 47.6536 18.0164 47.6445 18.2065 47.6445C18.4149 47.6445 18.6115 47.6536 18.7964 47.6719C18.9839 47.6901 19.1636 47.7148 19.3355 47.7461C19.5099 47.7747 19.6792 47.8086 19.8433 47.8477C20.0099 47.8867 20.1779 47.9284 20.3472 47.9727V48.5352ZM26.644 48.5352C26.5425 48.4857 26.4253 48.4336 26.2925 48.3789C26.1597 48.3216 26.0073 48.2708 25.8355 48.2266C25.6662 48.1823 25.4748 48.1458 25.2612 48.1172C25.0477 48.0859 24.8107 48.0703 24.5503 48.0703C24.2352 48.0703 23.9539 48.0885 23.7065 48.125C23.4618 48.1615 23.2534 48.2188 23.0815 48.2969C22.9123 48.3724 22.7821 48.4688 22.6909 48.5859C22.6024 48.7031 22.5581 48.8424 22.5581 49.0039C22.5581 49.1393 22.5998 49.2578 22.6831 49.3594C22.769 49.4609 22.8836 49.5508 23.0269 49.6289C23.1727 49.707 23.342 49.7786 23.5347 49.8438C23.73 49.9062 23.9357 49.9661 24.1519 50.0234C24.3706 50.0781 24.5946 50.1341 24.8237 50.1914C25.0555 50.2487 25.2795 50.3112 25.4956 50.3789C25.7144 50.444 25.9201 50.5182 26.1128 50.6016C26.3081 50.6823 26.4774 50.7773 26.6206 50.8867C26.7664 50.9961 26.881 51.1211 26.9644 51.2617C27.0503 51.4023 27.0933 51.5651 27.0933 51.75C27.0933 51.9505 27.0555 52.1263 26.98 52.2773C26.9045 52.4258 26.8016 52.5547 26.6714 52.6641C26.5438 52.7708 26.3927 52.8607 26.2183 52.9336C26.0464 53.0039 25.8615 53.0599 25.6636 53.1016C25.4683 53.1432 25.2651 53.1719 25.0542 53.1875C24.8459 53.2057 24.6401 53.2148 24.437 53.2148C23.9709 53.2148 23.5477 53.181 23.1675 53.1133C22.7899 53.0456 22.4292 52.9531 22.0855 52.8359V52.2383C22.4396 52.4492 22.8133 52.5938 23.2065 52.6719C23.6024 52.75 24.0177 52.7891 24.4526 52.7891C24.7599 52.7891 25.0438 52.7708 25.3042 52.7344C25.5646 52.6979 25.7899 52.6406 25.98 52.5625C26.1701 52.4818 26.3172 52.3776 26.4214 52.25C26.5282 52.1224 26.5815 51.9661 26.5815 51.7812C26.5815 51.6328 26.5386 51.5026 26.4526 51.3906C26.3693 51.2786 26.2547 51.181 26.1089 51.0977C25.9657 51.0117 25.7964 50.9362 25.6011 50.8711C25.4084 50.806 25.2039 50.7461 24.9878 50.6914C24.7717 50.6341 24.5477 50.5794 24.3159 50.5273C24.0868 50.4727 23.8641 50.4141 23.648 50.3516C23.4318 50.2891 23.2261 50.2188 23.0308 50.1406C22.8381 50.0625 22.6688 49.9714 22.523 49.8672C22.3797 49.7604 22.2651 49.638 22.1792 49.5C22.0959 49.362 22.0542 49.2018 22.0542 49.0195C22.0542 48.8398 22.0881 48.681 22.1558 48.543C22.2235 48.4023 22.3159 48.2812 22.4331 48.1797C22.5529 48.0781 22.6922 47.9935 22.8511 47.9258C23.0099 47.8555 23.1792 47.8008 23.3589 47.7617C23.5412 47.7201 23.73 47.6901 23.9253 47.6719C24.1206 47.6536 24.3133 47.6445 24.5034 47.6445C24.7118 47.6445 24.9084 47.6536 25.0933 47.6719C25.2808 47.6901 25.4605 47.7148 25.6323 47.7461C25.8068 47.7747 25.9761 47.8086 26.1401 47.8477C26.3068 47.8867 26.4748 47.9284 26.644 47.9727V48.5352ZM34.0151 52.8281C33.7964 52.8958 33.5933 52.9544 33.4058 53.0039C33.2183 53.0508 33.0334 53.0885 32.8511 53.1172C32.6688 53.1484 32.4826 53.1706 32.2925 53.1836C32.105 53.1992 31.898 53.207 31.6714 53.207C31.1454 53.207 30.6701 53.1432 30.2456 53.0156C29.8211 52.888 29.4592 52.7057 29.1597 52.4688C28.8628 52.2292 28.6336 51.9401 28.4722 51.6016C28.3107 51.263 28.23 50.8828 28.23 50.4609C28.23 50.0521 28.3068 49.6771 28.4605 49.3359C28.6167 48.9948 28.8342 48.7018 29.1128 48.457C29.3914 48.2122 29.7248 48.0221 30.1128 47.8867C30.5008 47.7513 30.9292 47.6836 31.398 47.6836C31.8849 47.6836 32.3185 47.7487 32.6987 47.8789C33.0789 48.0091 33.3993 48.1953 33.6597 48.4375C33.9201 48.6797 34.118 48.974 34.2534 49.3203C34.3888 49.6641 34.4565 50.0521 34.4565 50.4844V50.6055H28.7339C28.7625 50.9388 28.8459 51.2396 28.9839 51.5078C29.1219 51.776 29.3172 52.0039 29.5698 52.1914C29.825 52.3789 30.1375 52.5234 30.5073 52.625C30.8797 52.724 31.3133 52.7734 31.8081 52.7734C32.019 52.7734 32.2326 52.7591 32.4487 52.7305C32.6649 52.7018 32.8719 52.6641 33.0698 52.6172C33.2677 52.5677 33.4487 52.513 33.6128 52.4531C33.7769 52.3906 33.911 52.3268 34.0151 52.2617V52.8281ZM33.9761 50.1797C33.9579 49.9062 33.8967 49.6458 33.7925 49.3984C33.6883 49.1484 33.5321 48.9284 33.3237 48.7383C33.118 48.5482 32.855 48.3971 32.5347 48.2852C32.217 48.1732 31.8355 48.1172 31.3901 48.1172C30.9709 48.1172 30.6037 48.1732 30.2886 48.2852C29.9735 48.3971 29.7065 48.5482 29.4878 48.7383C29.269 48.9258 29.0972 49.1445 28.9722 49.3945C28.8472 49.6419 28.7677 49.9036 28.7339 50.1797H33.9761ZM37.898 48.1875V53.1094H37.4136V48.1875H34.9722V47.7422H40.3394V48.1875H37.898ZM40.4917 54.0859V53.6367H44.4917V54.0859H40.4917ZM48.5815 50.1719C48.8862 50.263 49.1519 50.3594 49.3784 50.4609C49.6076 50.5625 49.799 50.6745 49.9526 50.7969C50.1063 50.9193 50.2209 51.0547 50.2964 51.2031C50.3745 51.349 50.4136 51.513 50.4136 51.6953C50.4136 51.9323 50.3459 52.1445 50.2105 52.332C50.075 52.5195 49.8862 52.6797 49.644 52.8125C49.4019 52.9427 49.1115 53.0417 48.773 53.1094C48.437 53.1797 48.0685 53.2148 47.6675 53.2148C47.2664 53.2148 46.898 53.1836 46.562 53.1211C46.2261 53.0586 45.937 52.9661 45.6948 52.8438C45.4526 52.7188 45.2638 52.5664 45.1284 52.3867C44.993 52.2044 44.9253 51.9948 44.9253 51.7578C44.9253 51.5755 44.9644 51.4076 45.0425 51.2539C45.1597 51.0247 45.3602 50.8255 45.644 50.6562C45.9305 50.487 46.3042 50.3346 46.7651 50.1992C46.5881 50.1393 46.4214 50.0768 46.2651 50.0117C46.1089 49.9466 45.9683 49.8724 45.8433 49.7891C45.7183 49.7083 45.6141 49.6146 45.5308 49.5078C45.4709 49.4323 45.424 49.349 45.3901 49.2578C45.3563 49.1641 45.3394 49.0612 45.3394 48.9492C45.3394 48.7461 45.3954 48.5651 45.5073 48.4062C45.6193 48.2448 45.7769 48.1081 45.98 47.9961C46.1831 47.8815 46.4279 47.7943 46.7144 47.7344C47.0008 47.6745 47.3185 47.6445 47.6675 47.6445C48.243 47.6445 48.7131 47.7148 49.0776 47.8555C49.4448 47.9961 49.7026 48.1849 49.8511 48.4219C49.9006 48.5026 49.9383 48.5872 49.9644 48.6758C49.9904 48.7617 50.0034 48.8529 50.0034 48.9492C50.0034 49.2096 49.8823 49.4362 49.6401 49.6289C49.4006 49.8216 49.0477 50.0026 48.5815 50.1719ZM49.523 48.957C49.523 48.8398 49.4904 48.7279 49.4253 48.6211C49.3628 48.5143 49.2586 48.4193 49.1128 48.3359C48.9696 48.2526 48.7808 48.1862 48.5464 48.1367C48.3146 48.0872 48.0295 48.0625 47.6909 48.0625C47.3524 48.0625 47.0633 48.0872 46.8237 48.1367C46.5868 48.1862 46.3927 48.2526 46.2417 48.3359C46.0907 48.4193 45.9813 48.5143 45.9136 48.6211C45.8459 48.7279 45.8146 48.8398 45.8198 48.957C45.825 49.194 45.9839 49.401 46.2964 49.5781C46.6089 49.7526 47.0763 49.8919 47.6987 49.9961C47.9878 49.9388 48.2456 49.875 48.4722 49.8047C48.6987 49.7318 48.8901 49.6523 49.0464 49.5664C49.2026 49.4805 49.3211 49.3867 49.4019 49.2852C49.4826 49.1836 49.523 49.0742 49.523 48.957ZM47.6597 50.3906C47.3342 50.4453 47.0334 50.5143 46.7573 50.5977C46.4839 50.681 46.2482 50.7786 46.0503 50.8906C45.8524 51.0026 45.6974 51.1276 45.5855 51.2656C45.4761 51.4036 45.4214 51.5521 45.4214 51.7109C45.4214 51.8568 45.4696 51.9961 45.5659 52.1289C45.6623 52.2591 45.8055 52.3737 45.9956 52.4727C46.1857 52.5716 46.4201 52.651 46.6987 52.7109C46.9774 52.7682 47.3003 52.7969 47.6675 52.7969C48.0347 52.7969 48.3576 52.7682 48.6362 52.7109C48.9175 52.6536 49.1519 52.5755 49.3394 52.4766C49.5295 52.3776 49.6727 52.263 49.769 52.1328C49.868 52 49.9175 51.8594 49.9175 51.7109C49.9175 51.5521 49.8602 51.4036 49.7456 51.2656C49.6336 51.1276 49.4774 51.0026 49.2769 50.8906C49.0763 50.7786 48.8381 50.681 48.562 50.5977C48.286 50.5143 47.9852 50.4453 47.6597 50.3906Z" fill="#2D2749"/>
<path d="M115.057 72.5753C115.337 72.4243 115.593 72.3046 115.825 72.2162C116.059 72.126 116.274 72.0698 116.469 72.0477C116.664 72.0257 116.841 72.0404 116.999 72.0919C117.158 72.1398 117.301 72.2282 117.43 72.3571C117.598 72.5247 117.7 72.7226 117.737 72.951C117.774 73.1793 117.753 73.4261 117.676 73.6912C117.597 73.9545 117.461 74.2298 117.27 74.5171C117.082 74.8044 116.846 75.0898 116.563 75.3734C116.279 75.6569 115.997 75.8954 115.715 76.0888C115.433 76.2821 115.163 76.4211 114.906 76.5058C114.646 76.5887 114.405 76.6145 114.182 76.5832C113.957 76.55 113.761 76.4497 113.594 76.2821C113.465 76.1532 113.373 76.0068 113.32 75.8429C113.241 75.598 113.242 75.3154 113.323 74.9949C113.406 74.6727 113.562 74.3007 113.792 73.879C113.625 73.9619 113.463 74.0356 113.306 74.1C113.15 74.1645 112.998 74.2114 112.851 74.2409C112.705 74.2722 112.565 74.2796 112.431 74.263C112.335 74.2519 112.243 74.2262 112.154 74.1856C112.064 74.1433 111.98 74.0825 111.9 74.0033C111.757 73.8597 111.668 73.6921 111.635 73.5006C111.6 73.3073 111.615 73.0992 111.679 72.8764C111.742 72.6517 111.853 72.417 112.014 72.172C112.174 71.9271 112.377 71.6813 112.624 71.4346C113.031 71.0276 113.413 70.7449 113.77 70.5866C114.129 70.4264 114.445 70.3776 114.718 70.4402C114.81 70.4623 114.896 70.4954 114.977 70.5396C115.057 70.582 115.13 70.6372 115.198 70.7053C115.382 70.8895 115.457 71.1353 115.422 71.4428C115.389 71.7485 115.267 72.126 115.057 72.5753ZM114.864 71.0506C114.781 70.9678 114.679 70.9116 114.558 70.8821C114.438 70.8508 114.297 70.8573 114.135 70.9015C113.975 70.9438 113.794 71.0304 113.594 71.1611C113.395 71.29 113.176 71.4741 112.936 71.7135C112.697 71.9529 112.51 72.1748 112.375 72.3792C112.243 72.5818 112.153 72.7659 112.105 72.9316C112.057 73.0974 112.047 73.2419 112.074 73.3653C112.102 73.4887 112.159 73.5899 112.246 73.6691C112.417 73.833 112.676 73.8671 113.022 73.7713C113.366 73.6737 113.795 73.4417 114.309 73.0753C114.473 72.8304 114.61 72.6029 114.72 72.393C114.829 72.1813 114.908 71.9897 114.958 71.8185C115.008 71.6472 115.025 71.4972 115.011 71.3683C114.996 71.2394 114.947 71.1335 114.864 71.0506ZM114.56 73.3819C114.369 73.6507 114.205 73.9122 114.069 74.1663C113.934 74.4186 113.837 74.6543 113.776 74.8734C113.715 75.0925 113.694 75.2905 113.712 75.4673C113.733 75.6422 113.799 75.7858 113.911 75.8982C114.014 76.0013 114.147 76.0657 114.309 76.0915C114.469 76.1155 114.651 76.0952 114.856 76.0307C115.06 75.9663 115.282 75.8567 115.522 75.7021C115.759 75.5455 116.008 75.3375 116.267 75.0778C116.527 74.8182 116.735 74.5696 116.892 74.332C117.05 74.0926 117.16 73.8717 117.223 73.6691C117.287 73.4647 117.308 73.2824 117.284 73.1222C117.26 72.9583 117.195 72.8239 117.09 72.7189C116.978 72.6066 116.833 72.5422 116.654 72.5256C116.477 72.5072 116.278 72.5293 116.057 72.5919C115.836 72.6545 115.599 72.7539 115.345 72.8902C115.091 73.0265 114.829 73.1904 114.56 73.3819ZM119.14 72.6471L118.858 72.3654L118.419 66.424L115.742 69.1005L115.419 68.7774L118.632 65.565L118.817 65.7501L119.27 71.871L122.162 68.979L122.485 69.3022L119.14 72.6471Z" fill="#2D2749"/>
<defs>
<filter id="filter0_i_40_1402" x="6.55671e-06" y="21.1094" width="49.5061" height="59" filterUnits="userSpaceOnUse" color-interpolation-filters="sRGB">
<feFlood flood-opacity="0" result="BackgroundImageFix"/>
<feBlend mode="normal" in="SourceGraphic" in2="BackgroundImageFix" result="shape"/>
<feColorMatrix in="SourceAlpha" type="matrix" values="0 0 0 0 0 0 0 0 0 0 0 0 0 0 0 0 0 0 127 0" result="hardAlpha"/>
<feOffset dy="1"/>
<feGaussianBlur stdDeviation="2"/>
<feComposite in2="hardAlpha" operator="arithmetic" k2="-1" k3="1"/>
<feColorMatrix type="matrix" values="0 0 0 0 0 0 0 0 0 0 0 0 0 0 0 0 0 0 0.25 0"/>
<feBlend mode="normal" in2="shape" result="effect1_innerShadow_40_1402"/>
</filter>
<filter id="filter1_d_40_1402" x="43.7037" y="109.249" width="70.4329" height="43.127" filterUnits="userSpaceOnUse" color-interpolation-filters="sRGB">
<feFlood flood-opacity="0" result="BackgroundImageFix"/>
<feColorMatrix in="SourceAlpha" type="matrix" values="0 0 0 0 0 0 0 0 0 0 0 0 0 0 0 0 0 0 127 0" result="hardAlpha"/>
<feOffset dx="-1"/>
<feGaussianBlur stdDeviation="1"/>
<feComposite in2="hardAlpha" operator="out"/>
<feColorMatrix type="matrix" values="0 0 0 0 0.815686 0 0 0 0 0.921569 0 0 0 0 0.890196 0 0 0 1 0"/>
<feBlend mode="normal" in2="BackgroundImageFix" result="effect1_dropShadow_40_1402"/>
<feBlend mode="normal" in="SourceGraphic" in2="effect1_dropShadow_40_1402" result="shape"/>
</filter>
<filter id="filter2_d_40_1402" x="30.8894" y="0" width="97.3604" height="97.3604" filterUnits="userSpaceOnUse" color-interpolation-filters="sRGB">
<feFlood flood-opacity="0" result="BackgroundImageFix"/>
<feColorMatrix in="SourceAlpha" type="matrix" values="0 0 0 0 0 0 0 0 0 0 0 0 0 0 0 0 0 0 127 0" result="hardAlpha"/>
<feOffset dx="-1"/>
<feGaussianBlur stdDeviation="1"/>
<feComposite in2="hardAlpha" operator="out"/>
<feColorMatrix type="matrix" values="0 0 0 0 0.815686 0 0 0 0 0.921569 0 0 0 0 0.890196 0 0 0 1 0"/>
<feBlend mode="normal" in2="BackgroundImageFix" result="effect1_dropShadow_40_1402"/>
<feBlend mode="normal" in="SourceGraphic" in2="effect1_dropShadow_40_1402" result="shape"/>
</filter>
</defs>
</svg>
