<svg width="125" height="51" viewBox="0 0 125 51" fill="none" xmlns="http://www.w3.org/2000/svg">
<g clip-path="url(#clip0_126_59)">
<path d="M39.4281 47.3488L-3.02866e-05 45.972L1.60535 0L2.05039 0.0155412L39.4281 47.3488ZM122.925 50.2646L83.4969 48.8878L124.085 4.2771L124.53 4.29264L122.925 50.2646ZM2.97514 39.5719C2.42319 39.5526 1.96013 39.9845 1.94085 40.5364C1.92158 41.0884 2.35339 41.5514 2.90534 41.5707L11.0605 41.8555C11.6124 41.8747 12.0755 41.4429 12.0948 40.891C12.1141 40.3391 11.6822 39.8761 11.1303 39.8567L2.97514 39.5719ZM114.032 32.7219L110.281 28.6989C109.486 29.4408 108.927 30.4022 108.678 31.461C108.429 32.5198 108.5 33.6289 108.88 34.6478C109.108 35.2561 109.442 35.8144 109.86 36.3021C109.548 36.8881 109.36 37.553 109.336 38.2616C109.249 40.7451 111.192 42.8291 113.676 42.9159C116.16 43.0026 118.243 41.0584 118.33 38.5747C118.355 37.8662 118.214 37.1907 117.942 36.5843C118.394 36.1269 118.767 35.5936 119.036 35.0024C119.487 34.0127 119.635 32.9111 119.461 31.8376C119.286 30.7639 118.796 29.7659 118.054 28.9703L114.032 32.7219ZM3.11474 35.5743C2.56279 35.5551 2.09972 35.9869 2.08045 36.5388C2.06117 37.0908 2.49299 37.5539 3.04494 37.5731L15.0376 37.9919C15.5896 38.0112 16.0526 37.5794 16.0719 37.0274C16.0912 36.4755 15.6594 36.0124 15.1074 35.9931L3.11474 35.5743ZM3.25434 31.5768C2.70239 31.5575 2.23932 31.9893 2.22005 32.5413C2.20077 33.0932 2.63259 33.5563 3.18454 33.5756L13.2585 33.9274C13.8104 33.9466 14.2735 33.5148 14.2928 32.9629C14.312 32.4109 13.8802 31.9479 13.3283 31.9286L3.25434 31.5768ZM3.39394 27.5792C2.84199 27.5599 2.37892 27.9918 2.35964 28.5437C2.34037 29.0957 2.77219 29.5587 3.32414 29.578L15.3168 29.9968C15.8688 30.0161 16.3318 29.5843 16.3511 29.0323C16.3704 28.4804 15.9386 28.0173 15.3866 27.998L3.39394 27.5792Z" fill="#D0EBE3"/>
<path d="M28.8616 14.9601L28.8823 14.3667C28.6913 14.4617 28.4747 14.5479 28.2322 14.6255C27.9924 14.7031 27.7387 14.7685 27.471 14.8217C27.206 14.8749 26.9336 14.9136 26.654 14.9378C26.3743 14.9619 26.1004 14.9692 25.8324 14.9599C25.4836 14.9477 25.1711 14.9055 24.8948 14.8333C24.6211 14.7612 24.3901 14.6607 24.2018 14.5316C24.0136 14.4 23.8706 14.2412 23.7728 14.0554C23.6752 13.867 23.6306 13.6518 23.639 13.4097C23.6474 13.1703 23.7146 12.9616 23.8407 12.7836C23.9695 12.6031 24.1481 12.449 24.3767 12.3215C24.6053 12.1914 24.8787 12.085 25.1969 12.0023C25.5178 11.9171 25.8746 11.8488 26.2672 11.7973C26.66 11.7433 27.0835 11.7034 27.5378 11.6775C27.9948 11.6492 28.475 11.6295 28.9783 11.6184L28.9926 11.2085C28.9984 11.0419 28.9723 10.8938 28.9143 10.7641C28.8563 10.6344 28.7729 10.5207 28.6643 10.4231C28.5558 10.3229 28.4271 10.239 28.2783 10.1712C28.1297 10.1009 27.9675 10.0431 27.7919 9.99789C27.6189 9.95276 27.4351 9.91899 27.2404 9.89655C27.0485 9.87161 26.8549 9.85573 26.6597 9.84891C26.3968 9.83973 26.1569 9.84439 25.94 9.86287C25.7231 9.88135 25.5201 9.91074 25.3311 9.95105C25.1422 9.98875 24.9608 10.0345 24.7869 10.0884C24.613 10.1422 24.4377 10.2 24.261 10.2615L24.2809 9.69158C24.646 9.60792 25.0341 9.53809 25.4452 9.48209C25.8589 9.42357 26.2961 9.40236 26.7568 9.41845C27.1472 9.43208 27.5104 9.47864 27.8463 9.55812C28.1824 9.635 28.4728 9.75067 28.7176 9.90514C28.9623 10.0596 29.1522 10.2552 29.2873 10.4918C29.4224 10.7258 29.4842 11.0081 29.4727 11.3386L29.3456 14.977L28.8616 14.9601ZM28.9631 12.0517C28.1104 12.0689 27.3807 12.1098 26.7739 12.1746C26.1697 12.2395 25.6741 12.3277 25.2872 12.4393C24.9003 12.5509 24.6141 12.6868 24.4287 12.8471C24.2459 13.0075 24.1508 13.1931 24.1435 13.4039C24.1375 13.5757 24.1751 13.7294 24.2563 13.8651C24.3402 14.001 24.4625 14.1173 24.6233 14.2141C24.7842 14.3083 24.9809 14.3829 25.2135 14.438C25.4462 14.4904 25.7083 14.5217 25.9998 14.5319C26.1715 14.5379 26.3488 14.5349 26.5316 14.5231C26.7171 14.5087 26.9016 14.4878 27.0849 14.4603C27.2684 14.4302 27.4494 14.3949 27.628 14.3542C27.8067 14.3109 27.9752 14.2634 28.1333 14.2116C28.2915 14.1598 28.4355 14.1036 28.5653 14.043C28.6977 13.9825 28.8093 13.9199 28.9001 13.8553L28.9631 12.0517ZM35.6031 10.6185C35.5033 10.5655 35.388 10.5094 35.2572 10.4501C35.1265 10.3882 34.976 10.3322 34.8058 10.2819C34.6382 10.2318 34.4481 10.1886 34.2357 10.1526C34.0234 10.1139 33.7871 10.09 33.5269 10.0809C33.212 10.0699 32.9302 10.0783 32.6817 10.1061C32.4358 10.134 32.2256 10.184 32.0511 10.2561C31.8793 10.3256 31.7458 10.4174 31.6506 10.5313C31.5581 10.6453 31.5089 10.783 31.5033 10.9444C31.4986 11.0797 31.5361 11.1996 31.6158 11.304C31.6982 11.4085 31.8095 11.5023 31.95 11.5854C32.093 11.6685 32.2597 11.746 32.45 11.8178C32.643 11.8871 32.8465 11.9541 33.0605 12.0189C33.2772 12.0812 33.4991 12.145 33.7261 12.2102C33.9557 12.2756 34.1774 12.3459 34.391 12.4211C34.6074 12.4938 34.8104 12.5751 35.0001 12.6651C35.1925 12.7526 35.3583 12.8535 35.4976 12.9678C35.6396 13.0822 35.7497 13.2112 35.8281 13.3546C35.9091 13.4982 35.9463 13.6623 35.9399 13.8471C35.9329 14.0475 35.889 14.2219 35.8083 14.3702C35.7276 14.5159 35.6203 14.6411 35.4863 14.7459C35.3551 14.8481 35.201 14.9327 35.0241 14.9994C34.8499 15.0637 34.6631 15.1132 34.4639 15.1479C34.2672 15.1828 34.0632 15.2043 33.8519 15.2126C33.643 15.2235 33.4371 15.2254 33.2341 15.2183C32.7683 15.2021 32.3465 15.1535 31.9689 15.0725C31.5939 14.9917 31.2367 14.8867 30.8972 14.7576L30.9181 14.1603C31.2647 14.3835 31.6331 14.541 32.0233 14.6328C32.4162 14.7247 32.83 14.7782 33.2646 14.7934C33.5717 14.8041 33.856 14.7958 34.1175 14.7684C34.3791 14.7411 34.6062 14.6917 34.7989 14.6203C34.9917 14.5462 35.1424 14.4472 35.251 14.3233C35.3621 14.1995 35.4209 14.0453 35.4274 13.8605C35.4326 13.7121 35.3942 13.5805 35.3122 13.4656C35.2328 13.3508 35.1217 13.2492 34.9789 13.1608C34.8387 13.0699 34.6722 12.9885 34.4793 12.9167C34.2889 12.8449 34.0867 12.7779 33.8726 12.7157C33.6586 12.6509 33.4367 12.5884 33.2069 12.5283C32.9798 12.4656 32.7593 12.3993 32.5455 12.3293C32.3316 12.2593 32.1285 12.1818 31.936 12.0969C31.7461 12.0121 31.5802 11.9151 31.438 11.8059C31.2986 11.6942 31.1884 11.5679 31.1073 11.427C31.0289 11.2861 30.9928 11.1246 30.9992 10.9424C31.0054 10.7629 31.0448 10.6053 31.1173 10.4697C31.1899 10.3315 31.2865 10.2137 31.4072 10.1163C31.5304 10.019 31.6726 9.93928 31.8337 9.87716C31.9949 9.81243 32.166 9.76369 32.347 9.73092C32.5306 9.69564 32.7203 9.6723 32.9162 9.6609C33.112 9.64949 33.3049 9.64711 33.4949 9.65375C33.7031 9.66102 33.8993 9.67699 34.0834 9.70166C34.2702 9.72642 34.4489 9.75742 34.6196 9.79464C34.7929 9.82936 34.9609 9.8691 35.1235 9.91387C35.2887 9.95872 35.4551 10.0062 35.6228 10.0564L35.6031 10.6185ZM41.8962 10.8383C41.7964 10.7853 41.6811 10.7292 41.5503 10.6699C41.4195 10.608 41.2691 10.5519 41.0988 10.5017C40.9312 10.4515 40.7412 10.4084 40.5288 10.3723C40.3165 10.3336 40.0802 10.3097 39.8199 10.3007C39.505 10.2897 39.2233 10.2981 38.9748 10.3259C38.7288 10.3538 38.5186 10.4037 38.3441 10.4758C38.1723 10.5454 38.0388 10.6371 37.9437 10.7511C37.8511 10.8651 37.802 11.0028 37.7964 11.1642C37.7916 11.2995 37.8291 11.4194 37.9089 11.5238C37.9912 11.6283 38.1026 11.7221 38.243 11.8051C38.386 11.8883 38.5527 11.9658 38.743 12.0376C38.936 12.1069 39.1395 12.1739 39.3535 12.2387C39.5703 12.301 39.7921 12.3648 40.0192 12.43C40.2488 12.4954 40.4704 12.5656 40.6841 12.6408C40.9004 12.7135 41.1034 12.7949 41.2931 12.8849C41.4855 12.9724 41.6513 13.0733 41.7907 13.1876C41.9326 13.302 42.0427 13.4309 42.1211 13.5744C42.2021 13.7179 42.2394 13.8821 42.2329 14.0669C42.2259 14.2673 42.182 14.4416 42.1013 14.5899C42.0206 14.7356 41.9133 14.8609 41.7794 14.9656C41.6481 15.0679 41.4941 15.1524 41.3171 15.2192C41.1429 15.2835 40.9562 15.333 40.7569 15.3677C40.5603 15.4025 40.3563 15.4241 40.1449 15.4323C39.9361 15.4433 39.7302 15.4452 39.5272 15.4381C39.0613 15.4218 38.6396 15.3732 38.2619 15.2923C37.8869 15.2115 37.5297 15.1065 37.1902 14.9774L37.2111 14.3801C37.5577 14.6032 37.9261 14.7607 38.3164 14.8525C38.7092 14.9444 39.123 14.998 39.5576 15.0131C39.8647 15.0239 40.1491 15.0155 40.4106 14.9882C40.6721 14.9608 40.8992 14.9115 41.0919 14.84C41.2848 14.766 41.4354 14.667 41.544 14.5431C41.6552 14.4193 41.714 14.265 41.7204 14.0802C41.7256 13.9319 41.6872 13.8003 41.6052 13.6853C41.5258 13.5705 41.4147 13.4689 41.2719 13.3806C41.1318 13.2897 40.9652 13.2083 40.7723 13.1364C40.582 13.0646 40.3798 12.9976 40.1657 12.9354C39.9517 12.8706 39.7297 12.8082 39.4999 12.748C39.2728 12.6854 39.0523 12.619 38.8385 12.549C38.6247 12.479 38.4215 12.4016 38.229 12.3167C38.0392 12.2319 37.8732 12.1349 37.7311 12.0257C37.5917 11.914 37.4814 11.7877 37.4004 11.6467C37.3219 11.5059 37.2858 11.3444 37.2922 11.1622C37.2985 10.9826 37.3379 10.825 37.4103 10.6895C37.4829 10.5513 37.5795 10.4335 37.7002 10.3361C37.8235 10.2388 37.9656 10.159 38.1268 10.0969C38.288 10.0322 38.4591 9.98344 38.64 9.95068C38.8236 9.9154 39.0134 9.89206 39.2092 9.88065C39.405 9.86925 39.5979 9.86687 39.7879 9.8735C39.9961 9.88077 40.1923 9.89675 40.3765 9.92142C40.5632 9.94618 40.7419 9.97717 40.9126 10.0144C41.086 10.0491 41.254 10.0889 41.4166 10.1336C41.5818 10.1785 41.7482 10.226 41.9158 10.2761L41.8962 10.8383ZM49.1129 15.3859C48.892 15.4459 48.6869 15.4974 48.4978 15.5403C48.3088 15.5806 48.1227 15.6119 47.9395 15.6342C47.7562 15.659 47.5694 15.6746 47.3789 15.681C47.191 15.6901 46.9838 15.6907 46.7574 15.6828C46.2317 15.6644 45.7589 15.5841 45.3392 15.4417C44.9194 15.2994 44.564 15.1046 44.273 14.8573C43.9846 14.6075 43.7657 14.3106 43.6162 13.9666C43.4666 13.6227 43.3992 13.2399 43.4139 12.8182C43.4282 12.4096 43.5181 12.0376 43.6835 11.702C43.8516 11.3665 44.0791 11.0813 44.3661 10.8464C44.6532 10.6115 44.9929 10.4331 45.3854 10.3113C45.7779 10.1895 46.2084 10.1368 46.6769 10.1532C47.1636 10.1702 47.5946 10.2504 47.9701 10.3937C48.3455 10.5371 48.6591 10.7344 48.9109 10.9855C49.1627 11.2367 49.3503 11.5377 49.4735 11.8885C49.5968 12.2368 49.651 12.6269 49.6359 13.059L49.6316 13.18L43.9125 12.9803C43.9295 13.3144 44.0023 13.6179 44.1308 13.8908C44.2594 14.1637 44.4466 14.3982 44.6926 14.5944C44.9411 14.7907 45.2483 14.9461 45.6144 15.0605C45.9831 15.1724 46.4147 15.2369 46.9092 15.2542C47.12 15.2616 47.3339 15.2547 47.5509 15.2336C47.7679 15.2125 47.9761 15.182 48.1756 15.1421C48.3751 15.0996 48.5579 15.0512 48.7239 14.9971C48.8901 14.9403 49.0263 14.8813 49.1327 14.8198L49.1129 15.3859ZM49.1663 12.7377C49.1577 12.4638 49.1056 12.2014 49.0101 11.9505C48.9147 11.697 48.7663 11.4717 48.5647 11.2744C48.3657 11.0772 48.1081 10.9171 47.7919 10.794C47.4783 10.671 47.099 10.6018 46.6539 10.5862C46.2349 10.5716 45.866 10.6147 45.5472 10.7156C45.2284 10.8166 44.9563 10.9582 44.7311 11.1405C44.5059 11.3203 44.3265 11.5329 44.1929 11.7784C44.0593 12.0213 43.9708 12.2801 43.9273 12.5548L49.1663 12.7377ZM53.1553 10.8836L52.9836 15.8025L52.4995 15.7856L52.6713 10.8667L50.2313 10.7815L50.2469 10.3365L55.6108 10.5238L55.5953 10.9688L53.1553 10.8836ZM55.5417 16.869L55.5573 16.42L59.5549 16.5596L59.5392 17.0086L55.5417 16.869ZM60.8538 16.0773L61.0261 11.1428L59.7316 11.5002L59.7467 11.0669L61.0411 10.7134L61.5213 10.7302L61.334 16.0941L60.8538 16.0773ZM66.8472 13.7968L62.9812 15.3738L62.9967 14.9287L66.2836 13.5934L63.0982 12.0243L63.1137 11.5792L66.86 13.4298L66.8472 13.7968ZM71.4931 12.4933C71.4867 12.6781 71.4431 12.8446 71.3623 12.993C71.2817 13.1387 71.1768 13.2692 71.0477 13.3846C70.9186 13.4999 70.7717 13.6016 70.6071 13.6897C70.4451 13.7778 70.2783 13.8541 70.1066 13.9185C69.9376 13.9829 69.7715 14.0383 69.6083 14.0848C69.4452 14.1286 69.298 14.1664 69.1666 14.1983L69.144 14.8464L68.656 14.8293L68.6901 13.8533C68.8448 13.8249 69.0088 13.7915 69.1821 13.7533C69.3555 13.715 69.5264 13.6689 69.6951 13.6148C69.8638 13.5608 70.0249 13.4987 70.1785 13.4285C70.3321 13.3557 70.468 13.2718 70.5859 13.1769C70.7065 13.0821 70.8027 12.976 70.8746 12.8587C70.9465 12.7387 70.9851 12.6033 70.9904 12.4523C70.9967 12.2701 70.9619 12.1113 70.8858 11.9757C70.8124 11.8403 70.7082 11.7272 70.5733 11.6365C70.4384 11.5432 70.278 11.4724 70.0921 11.4242C69.9089 11.3735 69.7118 11.3445 69.501 11.3371C69.3709 11.3326 69.2377 11.341 69.1015 11.3623C68.9653 11.381 68.8314 11.4115 68.6996 11.4538C68.5679 11.4935 68.4424 11.5425 68.3231 11.6009C68.2038 11.6593 68.0973 11.7246 68.0036 11.7969L68.0249 11.1879C68.2154 11.1059 68.4366 11.0368 68.6888 10.9805C68.9409 10.9241 69.2296 10.9016 69.5549 10.913C69.8048 10.9217 70.0472 10.9575 70.2821 11.0205C70.5197 11.0809 70.7301 11.1742 70.9133 11.3005C71.0965 11.4267 71.2407 11.5881 71.3459 11.7846C71.4537 11.9812 71.5028 12.2174 71.4931 12.4933ZM68.603 16.3479L68.6298 15.5789L69.231 15.5999L69.2042 16.3689L68.603 16.3479ZM71.8833 17.4396L71.8989 16.9907L75.8965 17.1303L75.8808 17.5792L71.8833 17.4396ZM80.9637 11.8234C80.889 11.7974 80.7845 11.769 80.6501 11.7382C80.5183 11.7049 80.3471 11.6846 80.1363 11.6773C79.8448 11.6671 79.5689 11.6939 79.3087 11.7578C79.0512 11.8192 78.8097 11.9072 78.5842 12.0218C78.3613 12.1364 78.1533 12.2725 77.9602 12.4299C77.7672 12.5847 77.5921 12.7506 77.4347 12.9275L77.3047 16.6518L76.8167 16.6348L77.004 11.2708L77.492 11.2879L77.4538 12.381C77.6345 12.2075 77.8289 12.0488 78.0372 11.9049C78.2481 11.7612 78.4686 11.6399 78.6987 11.5411C78.929 11.4397 79.1688 11.3634 79.4181 11.3121C79.6701 11.2584 79.9289 11.2362 80.1943 11.2454C80.2854 11.2486 80.3673 11.2541 80.44 11.2618C80.5128 11.267 80.579 11.2745 80.6386 11.2844C80.7008 11.2918 80.7592 11.3003 80.8136 11.3101C80.8679 11.3198 80.9236 11.3308 80.9805 11.3432L80.9637 11.8234ZM81.6965 16.8052L81.8839 11.4412L82.3718 11.4583L82.1845 16.8222L81.6965 16.8052ZM87.341 11.5341C87.5882 11.5427 87.8181 11.5638 88.0306 11.5973C88.2432 11.6281 88.4463 11.6704 88.6398 11.7241C88.8335 11.7751 89.0215 11.8364 89.2041 11.9079C89.3867 11.9768 89.5703 12.0536 89.7549 12.1382L89.7342 12.7316C89.5891 12.6328 89.4335 12.5387 89.2672 12.4495C89.1036 12.3604 88.9252 12.2812 88.7322 12.212C88.5418 12.1428 88.3353 12.0861 88.1128 12.0418C87.8928 11.9976 87.6553 11.9711 87.4003 11.9622C86.8798 11.944 86.4237 11.9828 86.0321 12.0786C85.6405 12.1744 85.3123 12.3192 85.0476 12.5132C84.7828 12.7072 84.5803 12.9477 84.44 13.2347C84.3023 13.5217 84.2271 13.8474 84.2144 14.2118C84.2025 14.5527 84.2539 14.8698 84.3688 15.163C84.4863 15.4538 84.6689 15.7077 84.9167 15.9248C85.1671 16.142 85.4828 16.3159 85.8639 16.4465C86.245 16.577 86.6945 16.6514 87.2124 16.6695C87.4154 16.6765 87.6161 16.6757 87.8145 16.667C88.0154 16.6584 88.2048 16.6455 88.3826 16.6282C88.5605 16.6084 88.7228 16.5867 88.8695 16.5632C89.0163 16.537 89.1411 16.5101 89.2437 16.4824L89.3005 14.8545L87.1182 14.7783L87.1342 14.3215L89.8044 14.4148L89.7221 16.7727C89.5271 16.8337 89.3299 16.8867 89.1302 16.9319C88.9332 16.9771 88.7287 17.0142 88.5166 17.0433C88.3072 17.0699 88.089 17.0883 87.8619 17.0986C87.6375 17.109 87.4016 17.1099 87.1544 17.1013C86.6495 17.0837 86.183 17.0113 85.7548 16.8843C85.3268 16.7547 84.958 16.5699 84.6485 16.3298C84.3417 16.0871 84.1046 15.7883 83.9372 15.4333C83.7698 15.0783 83.6943 14.6652 83.7108 14.1942C83.7218 13.8793 83.7734 13.5944 83.8657 13.3397C83.958 13.0823 84.0833 12.8535 84.2414 12.6532C84.4023 12.4503 84.5921 12.2758 84.8108 12.1297C85.0322 11.9837 85.2747 11.8658 85.5385 11.776C85.8049 11.6837 86.0899 11.6181 86.3935 11.5792C86.6972 11.5377 87.013 11.5226 87.341 11.5341ZM96.5625 17.3243L96.6533 14.7243L91.8476 14.5565L91.7568 17.1565L91.2688 17.1394L91.4561 11.7755L91.9441 11.7926L91.8634 14.1036L96.6691 14.2715L96.7498 11.9604L97.2378 11.9774L97.0505 17.3413L96.5625 17.3243ZM101.204 12.5615L101.032 17.4804L100.548 17.4635L100.72 12.5446L98.2802 12.4594L98.2957 12.0144L103.66 12.2017L103.644 12.6467L101.204 12.5615Z" fill="#2D2749"/>
</g>
<defs>
<clipPath id="clip0_126_59">
<rect width="123" height="46" fill="white" transform="translate(1.60535) rotate(2)"/>
</clipPath>
</defs>
</svg>
