<svg width="92" height="13" viewBox="0 0 92 13" fill="none" xmlns="http://www.w3.org/2000/svg">
<path d="M13.4033 0.880859C13.4004 0.886704 13.3974 0.892524 13.3945 0.898438C13.3268 1.03646 13.293 1.19531 13.293 1.375C13.293 1.55729 13.3346 1.71745 13.418 1.85547C13.5039 1.99349 13.6185 2.11589 13.7617 2.22266C13.9076 2.32682 14.0768 2.41797 14.2695 2.49609C14.4648 2.57422 14.6706 2.64453 14.8867 2.70703C15.1029 2.76953 15.3255 2.82812 15.5547 2.88281C15.7865 2.9349 16.0104 2.98958 16.2266 3.04688C16.4427 3.10156 16.6471 3.16146 16.8398 3.22656C17.0352 3.29167 17.2044 3.36719 17.3477 3.45312C17.4935 3.53646 17.6081 3.63411 17.6914 3.74609C17.7773 3.85807 17.8203 3.98828 17.8203 4.13672C17.8203 4.32161 17.7669 4.47786 17.6602 4.60547C17.556 4.73307 17.4089 4.83724 17.2188 4.91797C17.0286 4.99609 16.8034 5.05339 16.543 5.08984C16.2826 5.1263 15.9987 5.14453 15.6914 5.14453C15.2565 5.14453 14.8411 5.10547 14.4453 5.02734C14.0521 4.94922 13.6784 4.80469 13.3242 4.59375V5.19141C13.668 5.30859 14.0286 5.40104 14.4062 5.46875C14.7865 5.53646 15.2096 5.57031 15.6758 5.57031C15.8789 5.57031 16.0846 5.5612 16.293 5.54297C16.5039 5.52734 16.707 5.4987 16.9023 5.45703C17.1003 5.41536 17.2852 5.35938 17.457 5.28906C17.6315 5.21615 17.7826 5.1263 17.9102 5.01953C18.0404 4.91016 18.1432 4.78125 18.2188 4.63281C18.2943 4.48177 18.332 4.30599 18.332 4.10547C18.332 3.9412 18.2963 3.79534 18.2285 3.66602L19.8438 4.59863V5.46484H21.3428L23.0752 6.46484L13.0752 12.2383V7.46484H3.83984V5.46484H8.08984C8.09637 5.46603 8.10284 5.46758 8.10938 5.46875C8.48958 5.53646 8.91276 5.57031 9.37891 5.57031C9.58203 5.57031 9.78776 5.5612 9.99609 5.54297C10.1913 5.52851 10.3797 5.50162 10.5615 5.46484H13.0752V0.691406L13.4033 0.880859ZM20.5518 5.00781H20.375V4.90527L20.5518 5.00781ZM16.4863 2.66113C16.348 2.62139 16.2069 2.58257 16.0625 2.54688L15.3906 2.37891C15.1745 2.32161 14.9688 2.26172 14.7734 2.19922C14.5807 2.13411 14.4115 2.0625 14.2656 1.98438C14.1224 1.90625 14.0078 1.81641 13.9219 1.71484C13.8385 1.61328 13.7969 1.49479 13.7969 1.35938C13.7969 1.27637 13.8086 1.19923 13.832 1.12793L16.4863 2.66113Z" fill="#D0EBE3"/>
<path d="M34.6523 6.44141H30.6523V5.99219H34.6523V6.44141ZM85.6523 6.44141H81.6523V5.99219H85.6523V6.44141ZM60.4453 0C60.6536 0 60.8503 0.00911458 61.0352 0.0273438C61.2227 0.0455729 61.4023 0.0703125 61.5742 0.101562C61.7487 0.130208 61.918 0.164062 62.082 0.203125C62.2487 0.242188 62.4167 0.283854 62.5859 0.328125V0.890625C62.4844 0.841146 62.3672 0.789062 62.2344 0.734375C62.1016 0.677083 61.9492 0.626302 61.7773 0.582031C61.6081 0.53776 61.4167 0.501302 61.2031 0.472656C60.9896 0.441406 60.7526 0.425781 60.4922 0.425781C60.1771 0.425781 59.8958 0.44401 59.6484 0.480469C59.4036 0.516927 59.1953 0.574219 59.0234 0.652344C58.8542 0.727865 58.724 0.824219 58.6328 0.941406C58.5443 1.05859 58.5 1.19792 58.5 1.35938C58.5 1.49479 58.5417 1.61328 58.625 1.71484C58.7109 1.81641 58.8255 1.90625 58.9688 1.98438C59.1146 2.0625 59.2839 2.13411 59.4766 2.19922C59.6719 2.26172 59.8776 2.32161 60.0938 2.37891L60.7656 2.54688C60.9974 2.60417 61.2214 2.66667 61.4375 2.73438C61.6562 2.79948 61.862 2.8737 62.0547 2.95703C62.25 3.03776 62.4193 3.13281 62.5625 3.24219C62.7083 3.35156 62.8229 3.47656 62.9062 3.61719C62.9922 3.75781 63.0352 3.92057 63.0352 4.10547C63.0352 4.30599 62.9974 4.48177 62.9219 4.63281C62.8464 4.78125 62.7435 4.91016 62.6133 5.01953C62.4857 5.1263 62.3346 5.21615 62.1602 5.28906C61.9883 5.35938 61.8034 5.41536 61.6055 5.45703C61.4102 5.4987 61.207 5.52734 60.9961 5.54297C60.7878 5.5612 60.582 5.57031 60.3789 5.57031C59.9128 5.57031 59.4896 5.53646 59.1094 5.46875C58.7318 5.40104 58.3711 5.30859 58.0273 5.19141V4.59375C58.3815 4.80469 58.7552 4.94922 59.1484 5.02734C59.5443 5.10547 59.9596 5.14453 60.3945 5.14453C60.7018 5.14453 60.9857 5.1263 61.2461 5.08984C61.5065 5.05339 61.7318 4.99609 61.9219 4.91797C62.112 4.83724 62.2591 4.73307 62.3633 4.60547C62.4701 4.47786 62.5234 4.32161 62.5234 4.13672C62.5234 3.98828 62.4805 3.85807 62.3945 3.74609C62.3112 3.63411 62.1966 3.53646 62.0508 3.45312C61.9076 3.36719 61.7383 3.29167 61.543 3.22656C61.3503 3.16146 61.1458 3.10156 60.9297 3.04688C60.7135 2.98958 60.4896 2.9349 60.2578 2.88281C60.0286 2.82812 59.806 2.76953 59.5898 2.70703C59.3737 2.64453 59.168 2.57422 58.9727 2.49609C58.7799 2.41797 58.6107 2.32682 58.4648 2.22266C58.3216 2.11589 58.207 1.99349 58.1211 1.85547C58.0378 1.71745 57.9961 1.55729 57.9961 1.375C57.9961 1.19531 58.0299 1.03646 58.0977 0.898438C58.1654 0.757812 58.2578 0.636719 58.375 0.535156C58.4948 0.433594 58.6341 0.348958 58.793 0.28125C58.9518 0.210938 59.1211 0.15625 59.3008 0.117188C59.4831 0.0755208 59.6719 0.0455729 59.8672 0.0273438C60.0625 0.00911458 60.2552 0 60.4453 0ZM66.7422 0C66.9505 0 67.1471 0.00911458 67.332 0.0273438C67.5195 0.0455729 67.6992 0.0703125 67.8711 0.101562C68.0456 0.130208 68.2148 0.164062 68.3789 0.203125C68.5456 0.242188 68.7135 0.283854 68.8828 0.328125V0.890625C68.7812 0.841146 68.6641 0.789062 68.5312 0.734375C68.3984 0.677083 68.2461 0.626302 68.0742 0.582031C67.9049 0.53776 67.7135 0.501302 67.5 0.472656C67.2865 0.441406 67.0495 0.425781 66.7891 0.425781C66.474 0.425781 66.1927 0.44401 65.9453 0.480469C65.7005 0.516927 65.4922 0.574219 65.3203 0.652344C65.151 0.727865 65.0208 0.824219 64.9297 0.941406C64.8411 1.05859 64.7969 1.19792 64.7969 1.35938C64.7969 1.49479 64.8385 1.61328 64.9219 1.71484C65.0078 1.81641 65.1224 1.90625 65.2656 1.98438C65.4115 2.0625 65.5807 2.13411 65.7734 2.19922C65.9688 2.26172 66.1745 2.32161 66.3906 2.37891L67.0625 2.54688C67.2943 2.60417 67.5182 2.66667 67.7344 2.73438C67.9531 2.79948 68.1589 2.8737 68.3516 2.95703C68.5469 3.03776 68.7161 3.13281 68.8594 3.24219C69.0052 3.35156 69.1198 3.47656 69.2031 3.61719C69.2891 3.75781 69.332 3.92057 69.332 4.10547C69.332 4.30599 69.2943 4.48177 69.2188 4.63281C69.1432 4.78125 69.0404 4.91016 68.9102 5.01953C68.7826 5.1263 68.6315 5.21615 68.457 5.28906C68.2852 5.35938 68.1003 5.41536 67.9023 5.45703C67.707 5.4987 67.5039 5.52734 67.293 5.54297C67.0846 5.5612 66.8789 5.57031 66.6758 5.57031C66.2096 5.57031 65.7865 5.53646 65.4062 5.46875C65.0286 5.40104 64.668 5.30859 64.3242 5.19141V4.59375C64.6784 4.80469 65.0521 4.94922 65.4453 5.02734C65.8411 5.10547 66.2565 5.14453 66.6914 5.14453C66.9987 5.14453 67.2826 5.1263 67.543 5.08984C67.8034 5.05339 68.0286 4.99609 68.2188 4.91797C68.4089 4.83724 68.556 4.73307 68.6602 4.60547C68.7669 4.47786 68.8203 4.32161 68.8203 4.13672C68.8203 3.98828 68.7773 3.85807 68.6914 3.74609C68.6081 3.63411 68.4935 3.53646 68.3477 3.45312C68.2044 3.36719 68.0352 3.29167 67.8398 3.22656C67.6471 3.16146 67.4427 3.10156 67.2266 3.04688C67.0104 2.98958 66.7865 2.9349 66.5547 2.88281C66.3255 2.82812 66.1029 2.76953 65.8867 2.70703C65.6706 2.64453 65.4648 2.57422 65.2695 2.49609C65.0768 2.41797 64.9076 2.32682 64.7617 2.22266C64.6185 2.11589 64.5039 1.99349 64.418 1.85547C64.3346 1.71745 64.293 1.55729 64.293 1.375C64.293 1.19531 64.3268 1.03646 64.3945 0.898438C64.4622 0.757812 64.5547 0.636719 64.6719 0.535156C64.7917 0.433594 64.931 0.348958 65.0898 0.28125C65.2487 0.210938 65.418 0.15625 65.5977 0.117188C65.7799 0.0755208 65.9688 0.0455729 66.1641 0.0273438C66.3594 0.00911458 66.5521 0 66.7422 0ZM90.6289 0.542969H86.8203V2.34375C86.9036 2.33073 86.9948 2.31641 87.0938 2.30078C87.1953 2.28516 87.306 2.27214 87.4258 2.26172C87.5482 2.2487 87.6823 2.23828 87.8281 2.23047C87.9766 2.22266 88.1393 2.21875 88.3164 2.21875C89.2279 2.21875 89.9167 2.36458 90.3828 2.65625C90.8516 2.94792 91.0859 3.36198 91.0859 3.89844C91.0859 4.16667 91.0221 4.40495 90.8945 4.61328C90.7669 4.81901 90.582 4.99349 90.3398 5.13672C90.0977 5.27734 89.7995 5.38542 89.4453 5.46094C89.0938 5.53385 88.694 5.57031 88.2461 5.57031C88.0378 5.57031 87.8333 5.5599 87.6328 5.53906C87.4349 5.51823 87.2461 5.49089 87.0664 5.45703C86.8867 5.42057 86.7174 5.38021 86.5586 5.33594C86.3997 5.28906 86.2578 5.24089 86.1328 5.19141V4.64844C86.2448 4.70833 86.3737 4.76823 86.5195 4.82812C86.6654 4.88802 86.8268 4.94141 87.0039 4.98828C87.1836 5.03516 87.3763 5.07292 87.582 5.10156C87.7904 5.13021 88.0117 5.14453 88.2461 5.14453C88.6159 5.14453 88.9466 5.11719 89.2383 5.0625C89.5299 5.00781 89.776 4.92708 89.9766 4.82031C90.1797 4.71354 90.3333 4.58333 90.4375 4.42969C90.5443 4.27604 90.5977 4.09896 90.5977 3.89844C90.5977 3.66927 90.5378 3.47526 90.418 3.31641C90.3008 3.15755 90.1354 3.02865 89.9219 2.92969C89.7109 2.82812 89.457 2.75521 89.1602 2.71094C88.8633 2.66406 88.5365 2.64062 88.1797 2.64062C87.9948 2.64062 87.8229 2.64714 87.6641 2.66016C87.5078 2.67318 87.3607 2.69141 87.2227 2.71484C87.0872 2.73568 86.9596 2.76042 86.8398 2.78906C86.7227 2.81771 86.6094 2.84766 86.5 2.87891H86.3477V0.0976562H90.6289V0.542969ZM9.44531 0C9.65365 0 9.85026 0.00911458 10.0352 0.0273438C10.2227 0.0455729 10.4023 0.0703125 10.5742 0.101562C10.7487 0.130208 10.918 0.164062 11.082 0.203125C11.2487 0.242188 11.4167 0.283854 11.5859 0.328125V0.890625C11.4844 0.841146 11.3672 0.789062 11.2344 0.734375C11.1016 0.677083 10.9492 0.626302 10.7773 0.582031C10.6081 0.53776 10.4167 0.501302 10.2031 0.472656C9.98958 0.441406 9.7526 0.425781 9.49219 0.425781C9.17708 0.425781 8.89583 0.44401 8.64844 0.480469C8.40365 0.516927 8.19531 0.574219 8.02344 0.652344C7.85417 0.727865 7.72396 0.824219 7.63281 0.941406C7.54427 1.05859 7.5 1.19792 7.5 1.35938C7.5 1.49479 7.54167 1.61328 7.625 1.71484C7.71094 1.81641 7.82552 1.90625 7.96875 1.98438C8.11458 2.0625 8.28385 2.13411 8.47656 2.19922C8.67188 2.26172 8.8776 2.32161 9.09375 2.37891L9.76562 2.54688C9.9974 2.60417 10.2214 2.66667 10.4375 2.73438C10.6562 2.79948 10.862 2.8737 11.0547 2.95703C11.25 3.03776 11.4193 3.13281 11.5625 3.24219C11.7083 3.35156 11.8229 3.47656 11.9062 3.61719C11.9922 3.75781 12.0352 3.92057 12.0352 4.10547C12.0352 4.30599 11.9974 4.48177 11.9219 4.63281C11.8464 4.78125 11.7435 4.91016 11.6133 5.01953C11.4857 5.1263 11.3346 5.21615 11.1602 5.28906C10.9883 5.35938 10.8034 5.41536 10.6055 5.45703C10.5909 5.46013 10.5761 5.46189 10.5615 5.46484H8.08984C7.71935 5.39747 7.36514 5.30656 7.02734 5.19141V4.59375C7.38151 4.80469 7.75521 4.94922 8.14844 5.02734C8.54427 5.10547 8.95964 5.14453 9.39453 5.14453C9.70182 5.14453 9.98568 5.1263 10.2461 5.08984C10.5065 5.05339 10.7318 4.99609 10.9219 4.91797C11.112 4.83724 11.2591 4.73307 11.3633 4.60547C11.4701 4.47786 11.5234 4.32161 11.5234 4.13672C11.5234 3.98828 11.4805 3.85807 11.3945 3.74609C11.3112 3.63411 11.1966 3.53646 11.0508 3.45312C10.9076 3.36719 10.7383 3.29167 10.543 3.22656C10.3503 3.16146 10.1458 3.10156 9.92969 3.04688C9.71354 2.98958 9.48958 2.9349 9.25781 2.88281C9.02865 2.82812 8.80599 2.76953 8.58984 2.70703C8.3737 2.64453 8.16797 2.57422 7.97266 2.49609C7.77995 2.41797 7.61068 2.32682 7.46484 2.22266C7.32161 2.11589 7.20703 1.99349 7.12109 1.85547C7.03776 1.71745 6.99609 1.55729 6.99609 1.375C6.99609 1.19531 7.02995 1.03646 7.09766 0.898438C7.16536 0.757812 7.25781 0.636719 7.375 0.535156C7.49479 0.433594 7.63411 0.348958 7.79297 0.28125C7.95182 0.210938 8.12109 0.15625 8.30078 0.117188C8.48307 0.0755208 8.67188 0.0455729 8.86719 0.0273438C9.0625 0.00911458 9.25521 0 9.44531 0ZM6.19141 5.46484H5.65625L4.91797 4.05078H1.27344L0.535156 5.46484H0L2.80859 0.0976562H3.38281L6.19141 5.46484ZM30.5 0.542969H28.0586V5.46484H27.5742V0.542969H25.1328V0.0976562H30.5V0.542969ZM39.1875 3.64062H40.5625V4.08984H39.1875V5.46484H38.707V4.08984H34.8906V3.65625L38.3633 0.0976562H39.1875V3.64062ZM57.1914 5.46484H56.6562L55.918 4.05078H52.2734L51.5352 5.46484H51L53.8086 0.0976562H54.3828L57.1914 5.46484ZM75.3164 0.554688H71.375V2.40234H75.1172V2.85547H71.375V5.00781H75.375V5.46484H70.8438V0.0976562H75.3164V0.554688ZM81.5 0.542969H79.0586V5.46484H78.5742V0.542969H76.1328V0.0976562H81.5V0.542969ZM24.375 5.00781V5.46484H21.3428L20.5518 5.00781H24.375ZM24.3164 0.554688H20.375V2.40234H24.1172V2.85547H20.375V4.90527L19.8438 4.59863V0.0976562H24.3164V0.554688ZM16.7344 2.73438C16.9531 2.79948 17.1589 2.8737 17.3516 2.95703C17.5469 3.03776 17.7161 3.13281 17.8594 3.24219C18.0052 3.35156 18.1198 3.47656 18.2031 3.61719C18.2127 3.63288 18.22 3.64977 18.2285 3.66602L16.4863 2.66113C16.57 2.68517 16.6529 2.70886 16.7344 2.73438ZM35.5312 3.64062H38.707V0.386719L35.5312 3.64062ZM1.51172 3.60156H4.67969L3.09766 0.570312L1.51172 3.60156ZM52.5117 3.60156H55.6797L54.0977 0.570312L52.5117 3.60156ZM15.7422 0C15.9505 0 16.1471 0.00911458 16.332 0.0273438C16.5195 0.0455729 16.6992 0.0703125 16.8711 0.101562C17.0456 0.130208 17.2148 0.164062 17.3789 0.203125C17.5456 0.242188 17.7135 0.283854 17.8828 0.328125V0.890625C17.7812 0.841146 17.6641 0.789062 17.5312 0.734375C17.3984 0.677083 17.2461 0.626302 17.0742 0.582031C16.9049 0.53776 16.7135 0.501302 16.5 0.472656C16.2865 0.441406 16.0495 0.425781 15.7891 0.425781C15.474 0.425781 15.1927 0.44401 14.9453 0.480469C14.7005 0.516927 14.4922 0.574219 14.3203 0.652344C14.151 0.727865 14.0208 0.824219 13.9297 0.941406C13.8867 0.998348 13.8541 1.06053 13.832 1.12793L13.4033 0.880859C13.4702 0.747721 13.5596 0.632448 13.6719 0.535156C13.7917 0.433594 13.931 0.348958 14.0898 0.28125C14.2487 0.210938 14.418 0.15625 14.5977 0.117188C14.7799 0.0755208 14.9688 0.0455729 15.1641 0.0273438C15.3594 0.00911458 15.5521 0 15.7422 0Z" fill="#2D2749"/>
<path d="M43.3398 3.06484C43.1189 3.06484 42.9398 3.24393 42.9398 3.46484C42.9398 3.68576 43.1189 3.86484 43.3398 3.86484L43.3398 3.46484L43.3398 3.06484ZM50.3398 3.46484L46.3398 1.15544L46.3398 5.77425L50.3398 3.46484ZM43.3398 3.46484L43.3398 3.86484L46.7398 3.86484L46.7398 3.46484L46.7398 3.06484L43.3398 3.06484L43.3398 3.46484Z" fill="#3A505F"/>
</svg>
