<svg width="125" height="51" viewBox="0 0 125 51" fill="none" xmlns="http://www.w3.org/2000/svg">
<g clip-path="url(#clip0_126_58)">
<path d="M124.53 45.9718L80.811 47.4985L114.83 4.28495L8.37384 8.0025L45.3248 48.7377L1.60538 50.2645L0 4.29248L122.925 -0.000157483L124.53 45.9718ZM94.9498 43.0024L114.856 42.3072L104.484 30.6621L94.9498 43.0024ZM10.4365 30.9445C9.34936 30.9825 8.29787 31.3418 7.41504 31.9773C6.53222 32.6129 5.85799 33.4963 5.47704 34.5153C5.09617 35.5341 5.02535 36.6432 5.27466 37.702C5.52402 38.7607 6.08237 39.7214 6.87786 40.4632L10.6284 36.4411L14.6505 40.1917C15.3923 39.3962 15.8822 38.399 16.0571 37.3255C16.232 36.2519 16.084 35.1504 15.633 34.1606C15.1819 33.1708 14.4476 32.3365 13.5226 31.764C12.5976 31.1916 11.5236 30.9065 10.4365 30.9445ZM107.79 25.0433L120.13 34.5774L119.435 14.6716L107.79 25.0433Z" fill="#D0EBE3"/>
<path d="M28.2334 17.3153L28.2127 16.7219C28.0289 16.8299 27.8187 16.9311 27.5823 17.0253C27.3484 17.1195 27.0999 17.2024 26.8366 17.2742C26.5759 17.3458 26.3069 17.4034 26.0296 17.447C25.7523 17.4905 25.4797 17.517 25.2116 17.5263C24.8628 17.5385 24.5481 17.5182 24.2675 17.4655C23.9894 17.4127 23.752 17.3285 23.5551 17.2129C23.3582 17.0947 23.2045 16.9463 23.094 16.7678C22.9834 16.5866 22.9239 16.375 22.9155 16.133C22.9071 15.8935 22.9596 15.6806 23.073 15.4943C23.1888 15.3052 23.3563 15.1391 23.5754 14.996C23.7944 14.8502 24.0597 14.725 24.3714 14.6203C24.6855 14.5129 25.0367 14.4199 25.4248 14.3412C25.8128 14.2599 26.2325 14.1905 26.6839 14.133C27.1378 14.0729 27.6154 14.0197 28.1167 13.9736L28.1024 13.5637C28.0966 13.3971 28.0602 13.2511 27.9933 13.1258C27.9264 13.0005 27.8353 12.8929 27.7202 12.8031C27.6049 12.7107 27.4707 12.6359 27.3176 12.5787C27.1643 12.5189 26.9986 12.4726 26.8202 12.4398C26.6445 12.4068 26.4587 12.3859 26.263 12.3771C26.0698 12.3656 25.8756 12.3633 25.6804 12.3701C25.4175 12.3793 25.1785 12.4007 24.9634 12.4342C24.7483 12.4678 24.5479 12.5113 24.3621 12.5647C24.1763 12.6155 23.9985 12.6738 23.8289 12.7397C23.6592 12.8055 23.4883 12.8753 23.3163 12.9491L23.2964 12.3791C23.6548 12.2702 24.0371 12.1734 24.4432 12.0889C24.8519 12.0017 25.2866 11.95 25.7472 11.9339C26.1376 11.9203 26.5031 11.9414 26.8438 11.9973C27.1845 12.0505 27.4822 12.1456 27.7372 12.2827C27.9921 12.4197 28.1952 12.6015 28.3464 12.8281C28.4976 13.0522 28.5789 13.3294 28.5904 13.66L28.7175 17.2984L28.2334 17.3153ZM28.1319 14.4069C27.2824 14.4835 26.5573 14.5752 25.9565 14.6822C25.3583 14.7891 24.8701 14.9117 24.4919 15.0499C24.1137 15.1882 23.8377 15.3438 23.664 15.5166C23.4928 15.6894 23.4109 15.8812 23.4183 16.092C23.4243 16.2637 23.4725 16.4145 23.563 16.5442C23.6562 16.6739 23.7863 16.7814 23.9534 16.8667C24.1205 16.9495 24.3219 17.0102 24.5578 17.0489C24.7936 17.0849 25.0572 17.0979 25.3487 17.0877C25.5205 17.0817 25.6971 17.0664 25.8787 17.0418C26.0627 17.0146 26.2453 16.9808 26.4263 16.9406C26.6072 16.8978 26.7853 16.8499 26.9606 16.7969C27.1359 16.7413 27.3006 16.6821 27.4547 16.6194C27.6089 16.5567 27.7486 16.4906 27.8739 16.421C28.0017 16.3514 28.1087 16.2812 28.1948 16.2105L28.1319 14.4069ZM34.6557 12.514C34.5525 12.4681 34.4335 12.4201 34.2989 12.3701C34.1642 12.3175 34.0101 12.2721 33.8368 12.2338C33.6661 12.1955 33.4736 12.1657 33.2591 12.1446C33.0446 12.1208 32.8073 12.1134 32.547 12.1225C32.2321 12.1335 31.9516 12.1615 31.7057 12.2066C31.4623 12.2516 31.2561 12.3161 31.0871 12.4002C30.9205 12.4816 30.7938 12.5824 30.7068 12.7027C30.6224 12.8229 30.583 12.9637 30.5886 13.1251C30.5933 13.2604 30.6391 13.3774 30.7259 13.476C30.8154 13.5745 30.933 13.6602 31.0789 13.7333C31.2274 13.8063 31.399 13.872 31.5939 13.9303C31.7913 13.986 31.999 14.0386 32.217 14.0884C32.4375 14.1354 32.6633 14.1835 32.8943 14.2328C33.1279 14.2819 33.3539 14.3366 33.5723 14.3967C33.7932 14.4541 34.0014 14.5211 34.1969 14.5977C34.3949 14.6716 34.5674 14.7606 34.7143 14.865C34.8639 14.9692 34.9828 15.0901 35.071 15.2277C35.1618 15.3653 35.2104 15.5264 35.2168 15.7112C35.2238 15.9116 35.1922 16.0886 35.122 16.2422C35.0517 16.3932 34.9534 16.5256 34.8271 16.6394C34.7033 16.7506 34.5555 16.8457 34.3837 16.9246C34.2144 17.0009 34.0315 17.0633 33.8352 17.1118C33.6415 17.1603 33.4395 17.196 33.2292 17.219C33.0216 17.2445 32.8163 17.2608 32.6133 17.2679C32.1475 17.2841 31.7234 17.2651 31.341 17.2107C30.9613 17.1562 30.5976 17.0764 30.25 16.9713L30.2291 16.374C30.5904 16.5724 30.9689 16.7038 31.3647 16.7682C31.763 16.8324 32.1795 16.857 32.6141 16.8418C32.9212 16.8311 33.2042 16.803 33.4632 16.7574C33.7222 16.7119 33.9453 16.6468 34.1326 16.5621C34.3198 16.4748 34.4632 16.3655 34.5628 16.2344C34.6651 16.1031 34.713 15.9451 34.7065 15.7603C34.7013 15.612 34.6539 15.4833 34.5641 15.3744C34.4769 15.2654 34.359 15.1718 34.2103 15.0936C34.0642 15.0127 33.8924 14.9432 33.6949 14.8849C33.5 14.8266 33.2936 14.7739 33.0757 14.7267C32.8577 14.677 32.632 14.6302 32.3985 14.5862C32.1676 14.5396 31.943 14.4888 31.7248 14.4339C31.5066 14.3789 31.2986 14.3159 31.1007 14.2446C30.9053 14.1732 30.733 14.0881 30.5836 13.989C30.4367 13.8873 30.318 13.769 30.2273 13.6341C30.1392 13.4991 30.0919 13.3404 30.0856 13.1583C30.0793 12.9787 30.1076 12.8188 30.1704 12.6785C30.2332 12.5355 30.3214 12.4113 30.4349 12.3057C30.5511 12.2 30.6874 12.1106 30.8438 12.0374C31.0001 11.9616 31.1673 11.901 31.3456 11.8557C31.5263 11.8077 31.7139 11.7712 31.9085 11.7461C32.103 11.7211 32.2953 11.7053 32.4853 11.6986C32.6935 11.6914 32.8903 11.6936 33.0757 11.7054C33.2638 11.717 33.4442 11.7355 33.6171 11.7607C33.7924 11.7833 33.9628 11.8112 34.1281 11.8445C34.296 11.8777 34.4654 11.9135 34.6361 11.9518L34.6557 12.514ZM40.9487 12.2942C40.8455 12.2483 40.7266 12.2004 40.5919 12.1504C40.4572 12.0977 40.3032 12.0523 40.1299 12.0141C39.9592 11.9757 39.7666 11.946 39.5522 11.9248C39.3377 11.901 39.1003 11.8937 38.84 11.9028C38.5251 11.9138 38.2447 11.9418 37.9987 11.9869C37.7553 12.0318 37.5491 12.0964 37.3801 12.1804C37.2136 12.2618 37.0868 12.3627 36.9998 12.483C36.9154 12.6032 36.876 12.7439 36.8817 12.9053C36.8864 13.0406 36.9322 13.1576 37.019 13.2562C37.1084 13.3547 37.2261 13.4405 37.3719 13.5136C37.5204 13.5866 37.6921 13.6522 37.8869 13.7106C38.0843 13.7662 38.292 13.8189 38.51 13.8686C38.7305 13.9156 38.9563 13.9638 39.1873 14.013C39.421 14.0622 39.647 14.1168 39.8653 14.177C40.0862 14.2344 40.2944 14.3014 40.4899 14.3779C40.6879 14.4518 40.8604 14.5409 41.0074 14.6452C41.1569 14.7494 41.2758 14.8703 41.364 15.008C41.4548 15.1455 41.5034 15.3067 41.5099 15.4915C41.5169 15.6919 41.4853 15.8688 41.4151 16.0224C41.3448 16.1734 41.2465 16.3058 41.1202 16.4197C40.9964 16.5308 40.8486 16.6259 40.6767 16.7049C40.5074 16.7811 40.3246 16.8435 40.1282 16.8921C39.9345 16.9405 39.7325 16.9763 39.5222 16.9992C39.3147 17.0247 39.1094 17.041 38.9064 17.0481C38.4405 17.0644 38.0164 17.0453 37.6341 16.9909C37.2543 16.9364 36.8906 16.8566 36.543 16.7515L36.5222 16.1542C36.8835 16.3527 37.262 16.4841 37.6577 16.5484C38.056 16.6127 38.4725 16.6372 38.9071 16.622C39.2142 16.6113 39.4973 16.5832 39.7563 16.5377C40.0152 16.4921 40.2384 16.427 40.4256 16.3423C40.6128 16.255 40.7562 16.1458 40.8559 16.0146C40.9581 15.8833 41.006 15.7253 40.9996 15.5405C40.9944 15.3922 40.9469 15.2636 40.8571 15.1547C40.7699 15.0457 40.652 14.9521 40.5033 14.8739C40.3572 14.793 40.1854 14.7234 39.9879 14.6652C39.7931 14.6068 39.5867 14.5541 39.3688 14.507C39.1507 14.4573 38.925 14.4104 38.6916 14.3665C38.4606 14.3198 38.2361 14.269 38.0179 14.2141C37.7997 14.1592 37.5916 14.0961 37.3937 14.0248C37.1984 13.9535 37.026 13.8683 36.8766 13.7693C36.7298 13.6676 36.611 13.5493 36.5203 13.4143C36.4322 13.2793 36.385 13.1207 36.3786 12.9385C36.3723 12.7589 36.4006 12.599 36.4635 12.4587C36.5262 12.3158 36.6144 12.1915 36.728 12.086C36.8441 11.9803 36.9804 11.8908 37.1368 11.8176C37.2931 11.7418 37.4604 11.6812 37.6386 11.6359C37.8193 11.5879 38.007 11.5514 38.2015 11.5264C38.3961 11.5013 38.5883 11.4855 38.7783 11.4789C38.9865 11.4716 39.1834 11.4738 39.3688 11.4856C39.5568 11.4973 39.7372 11.5157 39.9101 11.541C40.0855 11.5635 40.2558 11.5914 40.4211 11.6248C40.5891 11.658 40.7584 11.6938 40.9291 11.7321L40.9487 12.2942ZM48.4652 16.3274C48.2489 16.4027 48.048 16.4683 47.8623 16.5243C47.6765 16.5777 47.4931 16.6219 47.3119 16.6569C47.1308 16.6945 46.9455 16.7231 46.756 16.7427C46.5691 16.7649 46.3625 16.7799 46.1361 16.7878C45.6103 16.8062 45.1331 16.759 44.7045 16.6463C44.2758 16.5336 43.9077 16.364 43.6001 16.1377C43.2951 15.9086 43.0559 15.6277 42.8828 15.295C42.7096 14.9623 42.6156 14.5851 42.6009 14.1635C42.5867 13.7549 42.6503 13.3774 42.792 13.0311C42.9362 12.6848 43.1433 12.3844 43.4133 12.13C43.6832 11.8756 44.0097 11.674 44.3927 11.5251C44.7758 11.3763 45.2016 11.2937 45.67 11.2773C46.1567 11.2603 46.5923 11.3102 46.9768 11.4271C47.3614 11.544 47.688 11.7189 47.9567 11.9518C48.2254 12.1848 48.4335 12.4719 48.5809 12.8134C48.7282 13.1522 48.8094 13.5376 48.8245 13.9696L48.8287 14.0906L43.1096 14.2904C43.1498 14.6225 43.2436 14.9202 43.3909 15.1834C43.5382 15.4467 43.7413 15.6676 44.0003 15.8462C44.2619 16.0246 44.5793 16.1582 44.9524 16.2468C45.328 16.3327 45.7631 16.367 46.2576 16.3497C46.4684 16.3424 46.6813 16.3206 46.8963 16.2844C47.1113 16.2483 47.3169 16.2033 47.5131 16.1495C47.7091 16.0932 47.8881 16.0322 48.05 15.9666C48.2118 15.8984 48.3436 15.83 48.4454 15.7613L48.4652 16.3274ZM48.3337 13.6819C48.3059 13.4093 48.2357 13.1511 48.123 12.9075C48.0101 12.6613 47.8463 12.4468 47.6314 12.2641C47.4192 12.0813 47.1511 11.9396 46.8271 11.8388C46.5056 11.738 46.1224 11.6954 45.6774 11.7109C45.2583 11.7255 44.8933 11.7943 44.5823 11.9172C44.2713 12.0401 44.0098 12.2004 43.7978 12.398C43.5858 12.593 43.4216 12.8176 43.3054 13.0718C43.1891 13.3235 43.1189 13.5878 43.0947 13.8648L48.3337 13.6819ZM52.1837 11.554L52.3554 16.4729L51.8713 16.4898L51.6996 11.571L49.2597 11.6562L49.2441 11.2111L54.608 11.0238L54.6236 11.4688L52.1837 11.554ZM54.9817 17.3584L54.966 16.9094L58.9636 16.7698L58.9792 17.2188L54.9817 17.3584ZM60.2256 16.1981L60.0533 11.2636L58.7869 11.7104L58.7718 11.2771L60.0383 10.8342L60.5185 10.8174L60.7058 16.1813L60.2256 16.1981ZM66.0453 13.5051L62.2988 15.3479L62.2832 14.9028L65.469 13.3415L62.1818 11.9984L62.1663 11.5533L66.0325 13.1381L66.0453 13.5051ZM70.5891 11.8807C70.5955 12.0654 70.5637 12.2346 70.4935 12.3882C70.4232 12.5392 70.3276 12.6767 70.2069 12.8008C70.0862 12.9249 69.9467 13.0366 69.7887 13.1359C69.6332 13.2352 69.4721 13.3229 69.3054 13.399C69.1412 13.4751 68.9794 13.542 68.8199 13.5997C68.6602 13.6548 68.516 13.7028 68.3871 13.7438L68.4098 14.3918L67.9218 14.4089L67.8877 13.4329C68.0401 13.3937 68.2014 13.349 68.3716 13.2988C68.5418 13.2485 68.7092 13.1906 68.8736 13.1249C69.0381 13.0592 69.1945 12.986 69.3428 12.9052C69.4911 12.8219 69.6207 12.7288 69.7318 12.6259C69.8454 12.5229 69.934 12.4104 69.9975 12.2883C70.0609 12.1636 70.0899 12.0258 70.0847 11.8748C70.0783 11.6926 70.0325 11.5366 69.9471 11.4067C69.8644 11.2767 69.7526 11.1711 69.6117 11.0901C69.4706 11.0064 69.3057 10.947 69.1169 10.9119C68.9305 10.8741 68.732 10.8589 68.5212 10.8663C68.391 10.8708 68.2588 10.8885 68.1243 10.9192C67.9898 10.9474 67.8583 10.9871 67.7298 11.0385C67.6012 11.0873 67.4795 11.145 67.3645 11.2115C67.2496 11.2781 67.1479 11.3507 67.0595 11.4293L67.0382 10.8203C67.2225 10.7253 67.4384 10.6409 67.686 10.5671C67.9336 10.4933 68.22 10.4507 68.5453 10.4394C68.7952 10.4307 69.0395 10.4495 69.2782 10.4959C69.5195 10.5396 69.7359 10.618 69.9275 10.7312C70.119 10.8443 70.2741 10.9953 70.3928 11.184C70.514 11.3726 70.5794 11.6048 70.5891 11.8807ZM67.9748 15.9275L67.948 15.1584L68.5492 15.1374L68.576 15.9065L67.9748 15.9275ZM71.3233 16.7877L71.3076 16.3388L75.3052 16.1992L75.3208 16.6481L71.3233 16.7877ZM76.6118 13.7693C76.6202 14.0113 76.647 14.2188 76.6922 14.3918C76.7373 14.5649 76.8243 14.7051 76.9531 14.8127C77.0819 14.9202 77.2644 14.9972 77.5006 15.0437C77.7392 15.0875 78.0537 15.1026 78.4441 15.0889L80.8684 15.0043L80.8849 15.4767L78.363 15.5647C77.9336 15.5797 77.5772 15.5583 77.2937 15.5004C77.0128 15.4399 76.7865 15.341 76.615 15.2036C76.4459 15.0636 76.325 14.8841 76.2522 14.6652C76.1794 14.4462 76.1377 14.1845 76.1271 13.88L76.0012 10.2767L76.4892 10.2597L76.6118 13.7693ZM87.2618 14.9725C87.0456 15.0478 86.8446 15.1135 86.659 15.1695C86.4732 15.2229 86.2897 15.2671 86.1086 15.3021C85.9275 15.3396 85.7422 15.3683 85.5526 15.3879C85.3658 15.4101 85.1592 15.4251 84.9327 15.433C84.407 15.4514 83.9298 15.4042 83.5011 15.2915C83.0725 15.1788 82.7043 15.0092 82.3968 14.7828C82.0917 14.5538 81.8526 14.2729 81.6794 13.9402C81.5063 13.6075 81.4123 13.2303 81.3976 12.8087C81.3833 12.4001 81.447 12.0226 81.5887 11.6763C81.7329 11.3299 81.94 11.0296 82.2099 10.7752C82.4799 10.5208 82.8064 10.3192 83.1894 10.1703C83.5725 10.0215 83.9982 9.93884 84.4667 9.92249C84.9534 9.90549 85.389 9.95542 85.7735 10.0723C86.158 10.1891 86.4846 10.364 86.7533 10.597C87.0221 10.83 87.2301 11.1171 87.3775 11.4586C87.5249 11.7974 87.6061 12.1828 87.6212 12.6148L87.6254 12.7358L81.9062 12.9356C81.9465 13.2677 82.0403 13.5654 82.1876 13.8286C82.3349 14.0919 82.538 14.3128 82.797 14.4914C83.0586 14.6698 83.376 14.8034 83.7491 14.892C84.1247 14.9779 84.5597 15.0122 85.0542 14.9949C85.265 14.9876 85.478 14.9658 85.693 14.9296C85.908 14.8934 86.1136 14.8485 86.3097 14.7947C86.5058 14.7384 86.6848 14.6774 86.8466 14.6118C87.0084 14.5436 87.1402 14.4752 87.2421 14.4065L87.2618 14.9725ZM87.1304 12.3271C87.1026 12.0544 87.0324 11.7963 86.9196 11.5527C86.8068 11.3065 86.643 11.092 86.4281 10.9093C86.2159 10.7265 85.9477 10.5847 85.6237 10.484C85.3023 10.3832 84.9191 10.3405 84.474 10.3561C84.055 10.3707 83.69 10.4395 83.379 10.5624C83.068 10.6853 82.8065 10.8456 82.5945 11.0432C82.3824 11.2382 82.2183 11.4628 82.1021 11.717C81.9858 11.9686 81.9156 12.233 81.8914 12.51L87.1304 12.3271ZM91.7147 10.1853C91.3217 10.199 90.9843 10.2382 90.7025 10.3027C90.4207 10.3647 90.1893 10.4549 90.0084 10.5732C89.8301 10.6915 89.6998 10.8394 89.6174 11.0168C89.535 11.1943 89.498 11.404 89.5065 11.6461L89.5273 12.2434L94.1105 12.0833L94.1264 12.5401L89.5433 12.7001L89.6296 15.1713L89.1416 15.1883L89.0156 11.5811C89.006 11.3053 89.0455 11.0563 89.1342 10.8344C89.2254 10.6123 89.3752 10.4234 89.5834 10.2676C89.7916 10.1092 90.0608 9.9851 90.3912 9.89539C90.7242 9.80299 91.1274 9.74852 91.6011 9.73198L94.1035 9.64459L94.1194 10.1013L91.7147 10.1853ZM97.6872 9.96503L97.8589 14.8839L97.3749 14.9008L97.2031 9.98193L94.7632 10.0671L94.7476 9.6221L100.112 9.43478L100.127 9.87983L97.6872 9.96503Z" fill="#2D2749"/>
</g>
<defs>
<clipPath id="clip0_126_58">
<rect width="123" height="46" fill="white" transform="translate(0 4.29248) rotate(-2)"/>
</clipPath>
</defs>
</svg>
