<svg width="43" height="73" viewBox="0 0 43 73" fill="none" xmlns="http://www.w3.org/2000/svg">
<path d="M6.40625 11.5742C6.21875 11.6523 6.03256 11.724 5.84766 11.7891C5.66537 11.8542 5.47526 11.9102 5.27735 11.957C5.07943 12.0039 4.8711 12.0404 4.65235 12.0664C4.4336 12.0924 4.19532 12.1055 3.9375 12.1055C3.61979 12.1055 3.31381 12.0794 3.01953 12.0273C2.72787 11.9753 2.45573 11.8971 2.20313 11.793C1.95052 11.6888 1.72136 11.5599 1.51563 11.4063C1.3099 11.25 1.13282 11.069 0.984378 10.8633C0.838545 10.6576 0.725264 10.4258 0.644534 10.168C0.566409 9.91016 0.527347 9.62761 0.527347 9.32031C0.527347 9.01302 0.566409 8.73047 0.644534 8.47266C0.725264 8.21485 0.838545 7.98307 0.984378 7.77735C1.13282 7.57162 1.3099 7.39193 1.51563 7.23828C1.72136 7.08203 1.95052 6.95182 2.20313 6.84766C2.45573 6.74349 2.72787 6.66537 3.01953 6.61328C3.3112 6.5612 3.61719 6.53516 3.9375 6.53516C4.19532 6.53516 4.4336 6.54818 4.65235 6.57422C4.8711 6.60026 5.07943 6.63672 5.27735 6.6836C5.47526 6.73047 5.66537 6.78646 5.84766 6.85156C6.03256 6.91406 6.21875 6.98438 6.40625 7.0625V7.64844C6.25782 7.55469 6.09896 7.46615 5.92969 7.38281C5.76042 7.29948 5.57683 7.22656 5.37891 7.16406C5.1836 7.10156 4.97396 7.05209 4.75 7.01563C4.52604 6.97917 4.28646 6.96094 4.03125 6.96094C3.51563 6.96094 3.06901 7.01693 2.69141 7.12891C2.31381 7.24089 2.00131 7.39974 1.75391 7.60547C1.50912 7.8086 1.32683 8.05599 1.20703 8.34766C1.08985 8.63672 1.03125 8.96094 1.03125 9.32031C1.03125 9.67969 1.08985 10.0039 1.20703 10.293C1.32683 10.582 1.50912 10.8294 1.75391 11.0352C2.00131 11.2383 2.31381 11.3958 2.69141 11.5078C3.06901 11.6172 3.51563 11.6719 4.03125 11.6719C4.28646 11.6719 4.52735 11.6536 4.75391 11.6172C4.98308 11.5807 5.19662 11.5313 5.39453 11.4688C5.59506 11.4063 5.77865 11.3346 5.94532 11.2539C6.11459 11.1706 6.26823 11.0833 6.40625 10.9922V11.5742ZM14.2969 9.32031C14.2969 9.80209 14.2096 10.2188 14.0352 10.5703C13.8607 10.9193 13.6211 11.2083 13.3164 11.4375C13.0117 11.6641 12.6523 11.832 12.2383 11.9414C11.8242 12.0508 11.3776 12.1055 10.8984 12.1055C10.4167 12.1055 9.96745 12.0508 9.55078 11.9414C9.13412 11.832 8.77214 11.6641 8.46485 11.4375C8.15756 11.2083 7.91667 10.9193 7.74219 10.5703C7.56771 10.2188 7.48047 9.80209 7.48047 9.32031C7.48047 9 7.52084 8.70964 7.60157 8.44922C7.68229 8.1862 7.79558 7.95182 7.94141 7.7461C8.08724 7.53776 8.26302 7.35807 8.46875 7.20703C8.67709 7.05599 8.90756 6.93099 9.16016 6.83203C9.41537 6.73047 9.68881 6.65625 9.98047 6.60938C10.2721 6.5599 10.5781 6.53516 10.8984 6.53516C11.3776 6.53516 11.8242 6.58985 12.2383 6.69922C12.6523 6.8086 13.0117 6.97787 13.3164 7.20703C13.6211 7.4336 13.8607 7.72266 14.0352 8.07422C14.2096 8.42318 14.2969 8.83854 14.2969 9.32031ZM13.793 9.32031C13.793 8.94011 13.7305 8.60417 13.6055 8.3125C13.4831 8.02084 13.3008 7.77604 13.0586 7.57813C12.8164 7.37761 12.5143 7.22656 12.1523 7.125C11.793 7.02084 11.375 6.96875 10.8984 6.96875C10.4219 6.96875 10.0013 7.02084 9.63672 7.125C9.27474 7.22917 8.97136 7.38151 8.72657 7.58203C8.48177 7.77995 8.29688 8.02604 8.17188 8.32031C8.04688 8.61198 7.98438 8.94531 7.98438 9.32031C7.98438 9.70052 8.04688 10.0365 8.17188 10.3281C8.29688 10.6198 8.48177 10.8659 8.72657 11.0664C8.97136 11.2643 9.27474 11.4154 9.63672 11.5195C10.0013 11.6211 10.4219 11.6719 10.8984 11.6719C11.375 11.6719 11.793 11.6211 12.1523 11.5195C12.5143 11.4154 12.8164 11.2643 13.0586 11.0664C13.3008 10.8659 13.4831 10.6198 13.6055 10.3281C13.7305 10.0365 13.793 9.70052 13.793 9.32031ZM16.2188 6.63281V7.45703C16.3333 7.35807 16.4609 7.25261 16.6016 7.14063C16.7422 7.02865 16.8971 6.92578 17.0664 6.83203C17.2357 6.73828 17.4193 6.66016 17.6172 6.59766C17.8151 6.53516 18.0273 6.50391 18.2539 6.50391C18.6159 6.50391 18.9362 6.58594 19.2148 6.75C19.4935 6.91146 19.7188 7.16276 19.8906 7.50391C20.0573 7.35026 20.2292 7.21224 20.4063 7.08985C20.5833 6.96485 20.7643 6.85938 20.9492 6.77344C21.1367 6.6875 21.3294 6.6211 21.5273 6.57422C21.7253 6.52735 21.9297 6.50391 22.1406 6.50391C22.4089 6.50391 22.6523 6.54948 22.8711 6.64063C23.0925 6.73177 23.28 6.85677 23.4336 7.01563C23.5872 7.17448 23.7057 7.36198 23.7891 7.57813C23.875 7.79167 23.918 8.02084 23.918 8.26563V12H23.4297V8.39063C23.4297 8.16667 23.4023 7.96745 23.3477 7.79297C23.2956 7.61589 23.2122 7.46615 23.0977 7.34375C22.9857 7.22136 22.8411 7.12891 22.6641 7.06641C22.4896 7.0013 22.28 6.96875 22.0352 6.96875C21.8398 6.96875 21.6458 6.9974 21.4531 7.05469C21.263 7.10938 21.0807 7.1836 20.9063 7.27735C20.7318 7.36849 20.569 7.47266 20.418 7.58985C20.2669 7.70703 20.1341 7.82813 20.0195 7.95313C20.0326 8.02604 20.0391 8.08854 20.0391 8.14063C20.0417 8.19271 20.043 8.25521 20.043 8.32813V12H19.5547V8.39063C19.5547 8.125 19.5195 7.90235 19.4492 7.72266C19.3789 7.54037 19.2813 7.39323 19.1563 7.28125C19.0313 7.16927 18.8828 7.08985 18.7109 7.04297C18.5417 6.99349 18.3568 6.96875 18.1563 6.96875C17.9661 6.96875 17.7773 7.0013 17.5898 7.06641C17.405 7.13151 17.2279 7.21615 17.0586 7.32031C16.8893 7.42448 16.7331 7.54167 16.5898 7.67188C16.4466 7.79948 16.3229 7.92709 16.2188 8.05469V12H15.7305V6.63281H16.2188ZM30.9336 8.28125C30.9336 8.54948 30.8893 8.78646 30.8008 8.99219C30.7148 9.19792 30.5781 9.3711 30.3906 9.51172C30.2031 9.65235 29.9609 9.75912 29.6641 9.83203C29.3698 9.90235 29.0143 9.9375 28.5977 9.9375H26.1875V12H25.6992V6.63281H28.5977C29.0143 6.63281 29.3698 6.66927 29.6641 6.74219C29.9609 6.8125 30.2031 6.91667 30.3906 7.05469C30.5781 7.19271 30.7148 7.36459 30.8008 7.57031C30.8893 7.77604 30.9336 8.01302 30.9336 8.28125ZM30.4297 8.28125C30.4297 8.02604 30.3867 7.82031 30.3008 7.66406C30.2175 7.50781 30.0872 7.38802 29.9102 7.30469C29.7357 7.21875 29.513 7.16146 29.2422 7.13281C28.974 7.10417 28.655 7.08985 28.2852 7.08985H26.1875V9.48047H28.2852C28.4284 9.48047 28.5807 9.48177 28.7422 9.48438C28.9063 9.48438 29.0677 9.47656 29.2266 9.46094C29.3854 9.44271 29.5365 9.41276 29.6797 9.3711C29.8255 9.32682 29.9531 9.26042 30.0625 9.17188C30.1745 9.08334 30.263 8.96745 30.3281 8.82422C30.3958 8.68099 30.4297 8.5 30.4297 8.28125ZM31.3516 12.9766V12.5273H35.3516V12.9766H31.3516ZM35.6719 12V11.6719C36.3464 11.2943 36.957 10.9479 37.5039 10.6328C38.0534 10.3151 38.5208 10.0182 38.9063 9.74219C39.2917 9.46354 39.5872 9.19922 39.793 8.94922C39.9987 8.69662 40.0964 8.44662 40.0859 8.19922C40.0781 8.01432 40.026 7.84636 39.9297 7.69531C39.8359 7.54167 39.6992 7.41146 39.5195 7.30469C39.3398 7.19531 39.1185 7.11068 38.8555 7.05078C38.5925 6.99089 38.2891 6.96094 37.9453 6.96094C37.7318 6.96094 37.5273 6.97266 37.332 6.9961C37.1393 7.01953 36.9518 7.05599 36.7695 7.10547C36.5898 7.15235 36.4141 7.21224 36.2422 7.28516C36.0703 7.35807 35.901 7.44401 35.7344 7.54297V7.00781C35.9141 6.9349 36.0885 6.86979 36.2578 6.8125C36.4271 6.75261 36.599 6.70182 36.7734 6.66016C36.9479 6.61849 37.1289 6.58724 37.3164 6.56641C37.5039 6.54557 37.7044 6.53516 37.918 6.53516C38.3008 6.53516 38.655 6.57292 38.9805 6.64844C39.306 6.72396 39.5872 6.83464 39.8242 6.98047C40.0612 7.1237 40.2461 7.30078 40.3789 7.51172C40.5143 7.72266 40.582 7.96485 40.582 8.23828C40.582 8.48568 40.4974 8.73307 40.3281 8.98047C40.1589 9.22787 39.9115 9.48438 39.5859 9.75C39.263 10.0156 38.8646 10.2956 38.3906 10.5898C37.9167 10.8841 37.375 11.2044 36.7656 11.5508H40.6953V12H35.6719Z" fill="#2D2749"/>
<path fill-rule="evenodd" clip-rule="evenodd" d="M24.6848 67.4442C23.1452 70.1109 19.2962 70.1109 17.7566 67.4442L1.34484 39.0175C-0.194723 36.3509 1.72978 33.0176 4.80897 33.0176L7.56835 33.0176L18.1961 51.4265C19.7357 54.0933 23.5847 54.0933 25.1244 51.4266L35.7529 33.0176L37.6324 33.0176C40.7116 33.0176 42.6361 36.3509 41.0965 39.0175L24.6848 67.4442ZM35.7529 33.0176L7.56835 33.0176L1.78454 23C0.244888 20.3334 2.16939 17 5.24861 17L38.072 17C41.1512 17 43.0757 20.3332 41.5362 22.9999L35.7529 33.0176ZM9.84764 21.7656C9.99902 21.4002 10.0391 20.9973 9.9619 20.6094C9.88468 20.2216 9.69366 19.8656 9.41405 19.5859C9.13441 19.3063 8.77845 19.1153 8.39061 19.0381C8.00265 18.9609 7.59981 19.001 7.23436 19.1523C6.86906 19.3037 6.55659 19.5599 6.3369 19.8887C6.3038 19.9382 6.27302 19.9891 6.24463 20.0411C5.97994 20.5258 6.4477 21 6.99999 21C7.55227 21 7.99999 21.4477 7.99999 22C7.99999 22.5523 8.47418 23.02 8.95891 22.7554C9.01092 22.727 9.06177 22.6962 9.11132 22.6631C9.44013 22.4434 9.69625 22.131 9.84764 21.7656ZM15 21C15.5523 21 16.02 20.5258 15.7553 20.0411C15.727 19.9891 15.6962 19.9382 15.6631 19.8887C15.4433 19.5599 15.131 19.3037 14.7656 19.1523C14.4003 19.001 13.9982 18.961 13.6103 19.0381C13.2224 19.1153 12.8656 19.3062 12.5859 19.5859C12.3063 19.8656 12.1153 20.2216 12.0381 20.6094C11.9609 20.9973 12.001 21.4002 12.1523 21.7656C12.3037 22.1309 12.5599 22.4434 12.8887 22.6631C12.9382 22.6962 12.989 22.727 13.041 22.7553C13.5258 23.02 14 22.5523 14 22C14 21.4477 14.4477 21 15 21ZM20.707 21.707C20.3165 21.3165 20.3165 20.6835 20.707 20.293C21.0975 19.9025 21.0931 19.2363 20.5633 19.0806C20.5065 19.0639 20.4489 19.0497 20.3906 19.0381C20.0026 18.9609 19.5998 19.001 19.2344 19.1523C18.8691 19.3037 18.5566 19.5599 18.3369 19.8887C18.1171 20.2176 18 20.6044 18 21C18 21.3956 18.1171 21.7824 18.3369 22.1113C18.5566 22.4401 18.8691 22.6963 19.2344 22.8477C19.5998 22.999 20.0026 23.0391 20.3906 22.9619C20.4489 22.9503 20.5065 22.9361 20.5633 22.9194C21.0931 22.7637 21.0975 22.0975 20.707 21.707Z" fill="#3A505F"/>
</svg>
