<svg width="165" height="56" viewBox="0 0 165 56" fill="none" xmlns="http://www.w3.org/2000/svg">
<path d="M7.96735 15.2969C7.79278 15.4008 7.61857 15.498 7.44473 15.5886C7.27347 15.6788 7.09319 15.7611 6.90388 15.8355C6.71458 15.9098 6.51349 15.9754 6.30061 16.0321C6.08774 16.0888 5.85369 16.1353 5.59847 16.1718C5.28395 16.2167 4.97735 16.2341 4.67867 16.2242C4.38257 16.2138 4.10213 16.1749 3.83734 16.1075C3.57254 16.0401 3.32746 15.9449 3.10208 15.8219C2.87633 15.6963 2.67545 15.5421 2.49942 15.3594C2.32598 15.1764 2.18108 14.9629 2.06472 14.7191C1.95094 14.4749 1.87234 14.2007 1.82891 13.8965C1.78548 13.5923 1.78421 13.3071 1.82512 13.0408C1.8686 12.7742 1.94798 12.5287 2.06328 12.3045C2.18115 12.0798 2.33106 11.8769 2.51301 11.6957C2.69459 11.512 2.90305 11.3507 3.1384 11.2119C3.37374 11.073 3.63211 10.9572 3.91348 10.8644C4.19486 10.7717 4.4941 10.7026 4.8112 10.6574C5.06642 10.6209 5.30415 10.6001 5.52439 10.595C5.74462 10.5899 5.95602 10.5965 6.15857 10.6149C6.36113 10.6334 6.55723 10.6619 6.7469 10.7006C6.93877 10.7364 7.13304 10.7797 7.3297 10.8305L7.41251 11.4106C7.25231 11.3387 7.08254 11.2735 6.90319 11.215C6.72384 11.1564 6.53178 11.1101 6.32702 11.0762C6.12483 11.042 5.91031 11.0226 5.68345 11.0182C5.45658 11.0137 5.21683 11.0296 4.96418 11.0656C4.45373 11.1385 4.01952 11.257 3.66153 11.4213C3.30354 11.5855 3.01663 11.7869 2.80079 12.0255C2.58717 12.2612 2.44167 12.5319 2.3643 12.8376C2.28915 13.1403 2.27696 13.4695 2.32775 13.8253C2.37855 14.1811 2.48238 14.4938 2.63924 14.7634C2.79868 15.0326 3.01411 15.2517 3.28552 15.4208C3.55914 15.5869 3.89077 15.6987 4.28041 15.7562C4.66969 15.8111 5.11955 15.8021 5.63 15.7293C5.88264 15.6932 6.11853 15.6411 6.33767 15.573C6.55938 15.5045 6.76379 15.4254 6.95088 15.3355C7.14056 15.2453 7.31219 15.1485 7.46577 15.045C7.62157 14.9386 7.76134 14.8305 7.88509 14.7207L7.96735 15.2969ZM15.4602 11.9504C15.5283 12.4274 15.5008 12.8522 15.3778 13.2249C15.2544 13.595 15.0581 13.915 14.7888 14.1849C14.5192 14.4523 14.1872 14.6694 13.7927 14.8362C13.3983 15.003 12.9639 15.1202 12.4895 15.188C12.0126 15.256 11.5602 15.2654 11.1322 15.216C10.7043 15.1666 10.3222 15.0515 9.98596 14.8706C9.64936 14.6872 9.37004 14.4351 9.148 14.1143C8.92558 13.7909 8.78033 13.3908 8.71224 12.9138C8.66697 12.5967 8.66589 12.3036 8.709 12.0344C8.75175 11.7626 8.83076 11.5145 8.94606 11.2903C9.06098 11.0634 9.2096 10.8607 9.39192 10.6821C9.57682 10.5031 9.7873 10.3468 10.0234 10.2131C10.2617 10.0765 10.5219 9.96439 10.804 9.87677C11.0857 9.78656 11.3852 9.71882 11.7023 9.67355C12.1766 9.60583 12.6265 9.59685 13.0518 9.6466C13.4772 9.69636 13.8569 9.81314 14.1909 9.99694C14.5246 10.1782 14.8026 10.4305 15.025 10.7538C15.2471 11.0746 15.3921 11.4735 15.4602 11.9504ZM14.9614 12.0217C14.9076 11.6453 14.7983 11.3215 14.6333 11.0505C14.4709 10.779 14.2559 10.5625 13.9881 10.4008C13.72 10.2365 13.3996 10.1296 13.0269 10.0803C12.6565 10.0279 12.2353 10.0354 11.7635 10.1028C11.2918 10.1701 10.8828 10.2812 10.5366 10.4358C10.1929 10.5901 9.91414 10.7838 9.70014 11.0169C9.48578 11.2474 9.33752 11.5172 9.25537 11.8261C9.17285 12.1326 9.15808 12.4714 9.21108 12.8426C9.26482 13.219 9.37417 13.5427 9.53914 13.8138C9.70411 14.0849 9.92193 14.3024 10.1926 14.4663C10.4629 14.6276 10.7846 14.7343 11.1577 14.7862C11.5329 14.8352 11.9565 14.8261 12.4283 14.7587C12.9 14.6914 13.3066 14.582 13.648 14.4307C13.9917 14.2764 14.2694 14.0842 14.4812 13.854C14.6926 13.6213 14.8382 13.3519 14.9182 13.0459C15.0007 12.7394 15.0151 12.3981 14.9614 12.0217ZM16.983 9.01829L17.0995 9.83424C17.1989 9.72008 17.3103 9.59763 17.4337 9.4669C17.5571 9.33617 17.696 9.21244 17.8503 9.09571C18.0046 8.97898 18.1753 8.87569 18.3624 8.78584C18.5495 8.696 18.7552 8.63506 18.9795 8.60304C19.3378 8.55188 19.6665 8.58782 19.9656 8.71085C20.2642 8.83131 20.5227 9.04825 20.7411 9.36168C20.8844 9.18602 21.035 9.0251 21.193 8.8789C21.3507 8.73013 21.5149 8.60014 21.6858 8.48893C21.8593 8.37736 22.0407 8.28438 22.23 8.21C22.4193 8.13563 22.6184 8.08353 22.8272 8.05372C23.0927 8.01581 23.3402 8.02651 23.5696 8.08583C23.8017 8.14477 24.0049 8.24202 24.1795 8.37756C24.3541 8.51311 24.4979 8.68198 24.6109 8.88418C24.7262 9.08343 24.8011 9.30422 24.8357 9.54656L25.3635 13.2434L24.8801 13.3125L24.37 9.73931C24.3383 9.5176 24.2831 9.32425 24.2043 9.15925C24.1277 8.9913 24.024 8.85485 23.8933 8.74987C23.7652 8.64453 23.609 8.57344 23.4249 8.53659C23.2429 8.4968 23.0308 8.49421 22.7885 8.5288C22.5951 8.55641 22.4071 8.61219 22.2244 8.69614C22.044 8.77715 21.874 8.87638 21.7145 8.99385C21.5547 9.10874 21.4083 9.23487 21.2753 9.37223C21.1423 9.50958 21.028 9.64823 20.9322 9.78817C20.9554 9.85852 20.9707 9.91947 20.978 9.97103C20.988 10.0222 20.9981 10.0839 21.0084 10.1561L21.5274 13.7911L21.044 13.8601L20.5339 10.287C20.4963 10.024 20.43 9.80857 20.335 9.64062C20.2397 9.4701 20.1222 9.33824 19.9826 9.24505C19.8431 9.15186 19.6849 9.09421 19.5081 9.0721C19.3335 9.04704 19.147 9.04868 18.9485 9.07702C18.7603 9.10389 18.578 9.1628 18.4016 9.25375C18.2277 9.34433 18.0644 9.45315 17.9115 9.58019C17.7587 9.70724 17.6206 9.84533 17.4972 9.99448C17.3734 10.141 17.269 10.2848 17.1839 10.4259L17.7415 14.3316L17.2582 14.4006L16.4996 9.0873L16.983 9.01829ZM31.7831 8.57048C31.821 8.83602 31.8107 9.07688 31.7521 9.29305C31.6961 9.50886 31.5852 9.69963 31.4195 9.86534C31.2537 10.0311 31.0291 10.171 30.7455 10.2851C30.4641 10.3963 30.1172 10.4814 29.7047 10.5403L27.3187 10.8809L27.6102 12.9227L27.1268 12.9917L26.3683 7.67838L29.2376 7.26874C29.6501 7.20985 30.0072 7.1957 30.3088 7.2263C30.6126 7.25394 30.8671 7.32284 31.0722 7.43297C31.2773 7.54311 31.437 7.69393 31.5511 7.88545C31.6679 8.0766 31.7452 8.30495 31.7831 8.57048ZM31.2842 8.6417C31.2482 8.38906 31.1766 8.19146 31.0694 8.04893C30.9648 7.90602 30.819 7.80584 30.6319 7.74837C30.447 7.68795 30.2185 7.66271 29.9463 7.67263C29.6768 7.68218 29.3589 7.71308 28.9928 7.76535L26.9162 8.06182L27.2541 10.4284L29.3307 10.132C29.4725 10.1117 29.6235 10.0915 29.7837 10.0712C29.9461 10.0481 30.1049 10.0175 30.2599 9.97959C30.4146 9.93909 30.5599 9.8881 30.6958 9.82661C30.8339 9.76217 30.9508 9.67839 31.0466 9.57528C31.145 9.4718 31.2162 9.34457 31.2604 9.19357C31.3072 9.04221 31.3152 8.85826 31.2842 8.6417ZM32.8605 13.1596L32.797 12.7149L36.7568 12.1495L36.8203 12.5943L32.8605 13.1596ZM39.6767 8.30768C39.9865 8.30292 40.2594 8.32577 40.4954 8.37625C40.7341 8.42636 40.935 8.49764 41.0981 8.59009C41.2638 8.68218 41.3931 8.79525 41.4859 8.92932C41.5783 9.0608 41.6359 9.20647 41.6588 9.3663C41.6985 9.64473 41.6622 9.89719 41.5499 10.1237C41.4397 10.3472 41.2731 10.5433 41.0499 10.712C40.8289 10.8777 40.5606 11.0159 40.2449 11.1268C39.9319 11.2372 39.5936 11.3184 39.2301 11.3703C38.9697 11.4075 38.7337 11.4306 38.5219 11.4398C38.3105 11.4516 38.1146 11.452 37.9341 11.4409C37.7536 11.4298 37.5839 11.4107 37.4248 11.3834C37.2653 11.3535 37.1092 11.3193 36.9563 11.2806L36.8763 10.7199C37.2258 10.8646 37.5782 10.9564 37.9336 10.9951C38.2886 11.0312 38.6621 11.0213 39.0539 10.9653C39.4484 10.909 39.7846 10.8321 40.0627 10.7345C40.3429 10.634 40.5685 10.5189 40.7394 10.3893C40.9125 10.2567 41.0337 10.1106 41.103 9.95072C41.1748 9.79052 41.198 9.62148 41.1726 9.4436C41.1178 9.05947 40.8445 8.81307 40.3529 8.70438C39.8638 8.59532 39.1381 8.60686 38.1758 8.73899L38.1161 8.32135C38.9927 8.19621 39.6418 8.02594 40.0635 7.81053C40.4848 7.59254 40.6714 7.31468 40.6232 6.97696C40.5783 6.66244 40.3656 6.44422 39.9852 6.32228C39.6073 6.19998 39.0742 6.18796 38.3859 6.28623C38.1848 6.31494 37.9981 6.35212 37.8257 6.39777C37.6559 6.44306 37.4941 6.49773 37.3401 6.5618C37.1862 6.62587 37.0374 6.69841 36.8937 6.77942C36.7501 6.86043 36.6054 6.95212 36.4595 7.05449L36.38 6.49763C36.5446 6.41626 36.7065 6.34317 36.8656 6.27836C37.0244 6.21098 37.1855 6.15115 37.349 6.09887C37.5125 6.04658 37.681 6.00148 37.8545 5.96357C38.0276 5.92307 38.2108 5.88902 38.4042 5.86142C38.6207 5.8305 38.8336 5.81063 39.0428 5.80181C39.2545 5.79262 39.4565 5.79798 39.6488 5.81788C39.8407 5.83521 40.0191 5.86893 40.1841 5.91903C40.3513 5.96618 40.499 6.03322 40.6271 6.12015C40.7549 6.2045 40.8593 6.30928 40.9403 6.43451C41.0239 6.55936 41.0778 6.70687 41.1021 6.87702C41.1216 7.01365 41.1071 7.15121 41.0585 7.28968C41.0124 7.42778 40.9301 7.56054 40.8115 7.68795C40.6955 7.815 40.5426 7.93284 40.3529 8.04147C40.1655 8.14715 39.9401 8.23588 39.6767 8.30768Z" fill="#2D2749"/>
<path fill-rule="evenodd" clip-rule="evenodd" d="M149.942 38.1631C147.591 44.1993 143.219 49.2338 137.572 52.4083C131.926 55.5825 125.352 56.7008 118.974 55.5723C112.595 54.4438 106.805 51.1378 102.59 46.2188C101.343 44.7642 100.259 43.1943 99.3438 41.5381C117.939 40.7404 134.135 38.9535 145.771 36.5381L149.942 38.1631ZM77.3516 13.0001C85.1505 13.0001 92.7111 13.1701 99.9072 13.4874C97.162 18.0166 95.744 23.2545 95.8574 28.5958C95.9545 33.1566 97.1652 37.594 99.3438 41.5381C92.3168 41.8396 84.9472 42.0001 77.3516 42.0001C60.6186 42.0001 44.9828 41.2213 31.6904 39.8712L29.8877 37.9161C29.5132 37.5103 28.8805 37.485 28.4746 37.8594L26.8643 39.3438C15.69 38.0334 6.45221 36.2984 0 34.2823C1.75856 32.5581 2.85156 30.1574 2.85156 27.5001C2.8515 24.843 1.75934 22.4419 0.000976562 20.7178C14.6901 16.1283 43.8176 13.0001 77.3516 13.0001ZM30.3877 28.9161C30.0132 28.5102 29.3805 28.4849 28.9746 28.8594L25.7676 31.8184C25.3617 32.1929 25.3364 32.8256 25.7109 33.2315L28.6699 36.4385C29.0444 36.8444 29.6771 36.8697 30.083 36.4952L33.29 33.5362C33.6959 33.1617 33.7212 32.529 33.3467 32.1231L30.3877 28.9161ZM59.1865 36.7501H63.5166L61.3516 33.0001L59.1865 36.7501ZM64.4541 36.7501H72.249L68.3516 30.0001L64.4541 36.7501ZM72.7227 36.7501H83.9805L78.3516 27.0001L72.7227 36.7501ZM145.628 18.4317C157.655 20.915 164.851 24.0682 164.852 27.5001C164.852 30.9186 157.712 34.0593 145.771 36.5381L123.852 28.0001L145.628 18.4317ZM30.665 19.4317C30.2906 19.0259 29.6579 18.9998 29.252 19.3741L26.0449 22.334C25.9922 22.3827 25.9451 22.435 25.9053 22.4913C24.2947 23.6145 23.21 25.4513 23.125 27.5645C23.117 27.7632 23.1183 27.9605 23.1279 28.1553C23.3744 26.2729 24.4209 24.6562 25.9033 23.6407C25.9289 23.6773 25.9562 23.7134 25.9873 23.7471L28.9473 26.9542C29.3218 27.3599 29.9545 27.3853 30.3604 27.0108L33.5674 24.0518C33.6007 24.021 33.63 23.9872 33.6582 23.9532C35.0542 25.0844 35.9679 26.7786 36.0625 28.6749C36.0878 28.4815 36.1063 28.2856 36.1143 28.087C36.1993 25.9734 35.2646 24.0556 33.749 22.8067C33.7139 22.7477 33.6725 22.6912 33.624 22.6387L30.665 19.4317ZM117.807 0.660216C124.132 -0.738214 130.746 0.0999937 136.522 3.03131C142.299 5.96276 146.881 10.8069 149.486 16.7374L145.628 18.4317C134.121 16.0558 118.19 14.2934 99.9072 13.4874C100.491 12.525 101.134 11.5938 101.835 10.7012C105.837 5.60773 111.482 2.05871 117.807 0.660216Z" fill="#3A505F"/>
</svg>
