<svg width="66" height="65" viewBox="0 0 66 65" fill="none" xmlns="http://www.w3.org/2000/svg">
<path d="M24.2159 20.8832L17.4749 14.1422L18.182 13.4351C18.9631 12.6541 20.2294 12.6541 21.0104 13.4351L28.3936 20.8183L24.2159 20.8832ZM33.0313 19.8405C32.2502 20.6215 30.9839 20.6215 30.2028 19.8405L26.6466 16.2843C25.8656 15.5032 25.8656 14.2369 26.6466 13.4558L30.2028 9.89959C30.9839 9.11858 32.2502 9.11859 33.0313 9.89959L36.5875 13.4558C37.3685 14.2369 37.3685 15.5032 36.5875 16.2843L33.0313 19.8405ZM33.3848 16.6171C34.3611 15.6408 34.3611 14.0579 33.3848 13.0816C32.4085 12.1053 30.8256 12.1053 29.8493 13.0816C28.873 14.0579 28.873 15.6408 29.8493 16.6171C30.8256 17.5934 32.4085 17.5934 33.3848 16.6171ZM21.0104 31.8199C20.2294 32.601 18.9631 32.601 18.182 31.8199L17.4749 31.1128L24.7131 23.8746L28.9854 23.809C28.926 23.8898 28.8617 23.9686 28.7886 24.0417L21.0104 31.8199ZM32.4989 34.2057C31.7178 34.9867 30.4514 34.9867 29.6704 34.2057L26.1142 30.6494C25.3335 29.8684 25.3333 28.602 26.1142 27.821L29.6704 24.2648C30.4514 23.4838 31.7178 23.484 32.4989 24.2648L36.0551 27.821C36.8362 28.6021 36.8362 29.8684 36.0551 30.6494L32.4989 34.2057ZM47.8929 20.5186L42.2236 14.8493C41.8332 14.4589 41.2 14.4591 40.8094 14.8493C40.4192 15.2399 40.419 15.8731 40.8094 16.2636L45.1073 20.5614L33.5429 20.7389C33.6022 20.6583 33.6655 20.5791 33.7384 20.5062L41.5165 12.728C42.2976 11.947 43.5639 11.947 44.345 12.728L52.0707 20.4537L47.8929 20.5186ZM44.345 31.1128C43.5639 31.8938 42.2976 31.8938 41.5165 31.1128L34.134 23.7303L44.8214 23.5653L40.8094 27.5773C40.419 27.9677 40.4192 28.6009 40.8094 28.9915C41.2 29.3817 41.8332 29.3819 42.2236 28.9915L47.6941 23.5211L52.003 23.4548L44.345 31.1128Z" fill="#3A505F"/>
<path d="M19.8517 42.1304C19.6642 42.2085 19.478 42.2801 19.2932 42.3452C19.1109 42.4103 18.9208 42.4663 18.7228 42.5132C18.5249 42.5601 18.3166 42.5965 18.0978 42.6226C17.8791 42.6486 17.6408 42.6616 17.383 42.6616C17.0653 42.6616 16.7593 42.6356 16.465 42.5835C16.1734 42.5314 15.9012 42.4533 15.6486 42.3491C15.396 42.245 15.1669 42.116 14.9611 41.9624C14.7554 41.8062 14.5783 41.6252 14.4299 41.4194C14.284 41.2137 14.1708 40.9819 14.09 40.7241C14.0119 40.4663 13.9728 40.1838 13.9728 39.8765C13.9728 39.5692 14.0119 39.2866 14.09 39.0288C14.1708 38.771 14.284 38.5392 14.4299 38.3335C14.5783 38.1278 14.7554 37.9481 14.9611 37.7944C15.1668 37.6382 15.396 37.508 15.6486 37.4038C15.9012 37.2996 16.1734 37.2215 16.465 37.1694C16.7567 37.1174 17.0627 37.0913 17.383 37.0913C17.6408 37.0913 17.8791 37.1043 18.0978 37.1304C18.3166 37.1564 18.5249 37.1929 18.7228 37.2397C18.9208 37.2866 19.1109 37.3426 19.2932 37.4077C19.478 37.4702 19.6642 37.5405 19.8517 37.6187L19.8517 38.2046C19.7033 38.1108 19.5445 38.0223 19.3752 37.939C19.2059 37.8556 19.0223 37.7827 18.8244 37.7202C18.6291 37.6577 18.4195 37.6082 18.1955 37.5718C17.9715 37.5353 17.732 37.5171 17.4767 37.5171C16.9611 37.5171 16.5145 37.5731 16.1369 37.6851C15.7593 37.797 15.4468 37.9559 15.1994 38.1616C14.9546 38.3647 14.7723 38.6121 14.6525 38.9038C14.5353 39.1929 14.4767 39.5171 14.4767 39.8765C14.4767 40.2358 14.5353 40.5601 14.6525 40.8491C14.7723 41.1382 14.9546 41.3856 15.1994 41.5913C15.4468 41.7944 15.7593 41.952 16.1369 42.064C16.5145 42.1733 16.9611 42.228 17.4767 42.228C17.732 42.228 17.9728 42.2098 18.1994 42.1733C18.4286 42.1369 18.6421 42.0874 18.84 42.0249C19.0405 41.9624 19.2241 41.8908 19.3908 41.8101C19.5601 41.7267 19.7137 41.6395 19.8517 41.5483L19.8517 42.1304ZM27.7424 39.8765C27.7424 40.3582 27.6551 40.7749 27.4807 41.1265C27.3062 41.4754 27.0666 41.7645 26.7619 41.9937C26.4572 42.2202 26.0978 42.3882 25.6838 42.4976C25.2697 42.6069 24.8231 42.6616 24.3439 42.6616C23.8622 42.6616 23.4129 42.6069 22.9963 42.4976C22.5796 42.3882 22.2176 42.2202 21.9103 41.9937C21.603 41.7645 21.3622 41.4754 21.1877 41.1265C21.0132 40.7749 20.926 40.3582 20.926 39.8765C20.926 39.5562 20.9663 39.2658 21.0471 39.0054C21.1278 38.7423 21.2411 38.508 21.3869 38.3022C21.5327 38.0939 21.7085 37.9142 21.9142 37.7632C22.1226 37.6121 22.353 37.4871 22.6057 37.3882C22.8609 37.2866 23.1343 37.2124 23.426 37.1655C23.7176 37.116 24.0236 37.0913 24.3439 37.0913C24.8231 37.0913 25.2697 37.146 25.6838 37.2554C26.0978 37.3647 26.4572 37.534 26.7619 37.7632C27.0666 37.9897 27.3062 38.2788 27.4807 38.6304C27.6551 38.9793 27.7424 39.3947 27.7424 39.8765ZM27.2385 39.8765C27.2385 39.4963 27.176 39.1603 27.051 38.8687C26.9286 38.577 26.7463 38.3322 26.5041 38.1343C26.2619 37.9338 25.9598 37.7827 25.5978 37.6812C25.2385 37.577 24.8205 37.5249 24.3439 37.5249C23.8674 37.5249 23.4468 37.577 23.0822 37.6812C22.7202 37.7853 22.4168 37.9377 22.1721 38.1382C21.9273 38.3361 21.7424 38.5822 21.6174 38.8765C21.4924 39.1681 21.4299 39.5015 21.4299 39.8765C21.4299 40.2567 21.4924 40.5926 21.6174 40.8843C21.7424 41.1759 21.9273 41.422 22.1721 41.6226C22.4168 41.8205 22.7202 41.9715 23.0822 42.0757C23.4468 42.1772 23.8674 42.228 24.3439 42.228C24.8205 42.228 25.2385 42.1772 25.5978 42.0757C25.9598 41.9715 26.2619 41.8205 26.5041 41.6226C26.7463 41.422 26.9286 41.1759 27.051 40.8843C27.176 40.5926 27.2385 40.2567 27.2385 39.8765ZM29.6642 37.189L29.6642 38.0132C29.7788 37.9142 29.9064 37.8088 30.0471 37.6968C30.1877 37.5848 30.3426 37.4819 30.5119 37.3882C30.6812 37.2944 30.8648 37.2163 31.0627 37.1538C31.2606 37.0913 31.4728 37.0601 31.6994 37.0601C32.0614 37.0601 32.3817 37.1421 32.6603 37.3062C32.939 37.4676 33.1642 37.7189 33.3361 38.0601C33.5028 37.9064 33.6747 37.7684 33.8517 37.646C34.0288 37.521 34.2098 37.4155 34.3947 37.3296C34.5822 37.2437 34.7749 37.1772 34.9728 37.1304C35.1708 37.0835 35.3752 37.0601 35.5861 37.0601C35.8543 37.0601 36.0978 37.1056 36.3166 37.1968C36.5379 37.2879 36.7254 37.4129 36.8791 37.5718C37.0327 37.7306 37.1512 37.9181 37.2346 38.1343C37.3205 38.3478 37.3635 38.577 37.3635 38.8218L37.3635 42.5562L36.8752 42.5562L36.8752 38.9468C36.8752 38.7228 36.8478 38.5236 36.7932 38.3491C36.7411 38.172 36.6577 38.0223 36.5432 37.8999C36.4312 37.7775 36.2866 37.6851 36.1096 37.6226C35.9351 37.5575 35.7254 37.5249 35.4807 37.5249C35.2853 37.5249 35.0913 37.5535 34.8986 37.6108C34.7085 37.6655 34.5262 37.7397 34.3517 37.8335C34.1773 37.9246 34.0145 38.0288 33.8635 38.146C33.7124 38.2632 33.5796 38.3843 33.465 38.5093C33.478 38.5822 33.4846 38.6447 33.4846 38.6968C33.4872 38.7489 33.4885 38.8114 33.4885 38.8843L33.4885 42.5562L33.0002 42.5562L33.0002 38.9468C33.0002 38.6812 32.965 38.4585 32.8947 38.2788C32.8244 38.0965 32.7267 37.9494 32.6017 37.8374C32.4767 37.7254 32.3283 37.646 32.1564 37.5991C31.9872 37.5496 31.8023 37.5249 31.6017 37.5249C31.4116 37.5249 31.2228 37.5575 31.0353 37.6226C30.8504 37.6877 30.6734 37.7723 30.5041 37.8765C30.3348 37.9806 30.1786 38.0978 30.0353 38.228C29.8921 38.3556 29.7684 38.4832 29.6642 38.6108L29.6642 42.5562L29.176 42.5562L29.176 37.189L29.6642 37.189ZM44.3791 38.8374C44.3791 39.1056 44.3348 39.3426 44.2463 39.5483C44.1603 39.7541 44.0236 39.9272 43.8361 40.0679C43.6486 40.2085 43.4064 40.3153 43.1096 40.3882C42.8153 40.4585 42.4598 40.4937 42.0432 40.4937L39.633 40.4937L39.633 42.5562L39.1447 42.5562L39.1447 37.189L42.0432 37.189C42.4598 37.189 42.8153 37.2254 43.1096 37.2983C43.4064 37.3687 43.6486 37.4728 43.8361 37.6108C44.0236 37.7489 44.1603 37.9207 44.2463 38.1265C44.3348 38.3322 44.3791 38.5692 44.3791 38.8374ZM43.8752 38.8374C43.8752 38.5822 43.8322 38.3765 43.7463 38.2202C43.6629 38.064 43.5327 37.9442 43.3557 37.8608C43.1812 37.7749 42.9585 37.7176 42.6877 37.689C42.4195 37.6603 42.1004 37.646 41.7307 37.646L39.633 37.646L39.633 40.0366L41.7307 40.0366C41.8739 40.0366 42.0262 40.0379 42.1877 40.0405C42.3517 40.0405 42.5132 40.0327 42.6721 40.0171C42.8309 39.9989 42.982 39.9689 43.1252 39.9272C43.271 39.883 43.3986 39.8166 43.508 39.728C43.62 39.6395 43.7085 39.5236 43.7736 39.3804C43.8413 39.2371 43.8752 39.0562 43.8752 38.8374ZM44.7971 43.5327L44.7971 43.0835L48.7971 43.0835L48.7971 43.5327L44.7971 43.5327ZM53.7736 37.6343L49.965 37.6343L49.965 39.4351C50.0484 39.422 50.1395 39.4077 50.2385 39.3921C50.34 39.3765 50.4507 39.3634 50.5705 39.353C50.6929 39.34 50.827 39.3296 50.9728 39.3218C51.1213 39.314 51.284 39.3101 51.4611 39.3101C52.3726 39.3101 53.0614 39.4559 53.5275 39.7476C53.9963 40.0392 54.2307 40.4533 54.2307 40.9897C54.2307 41.258 54.1668 41.4963 54.0392 41.7046C53.9116 41.9103 53.7267 42.0848 53.4846 42.228C53.2424 42.3687 52.9442 42.4767 52.59 42.5522C52.2385 42.6252 51.8387 42.6616 51.3908 42.6616C51.1825 42.6616 50.978 42.6512 50.7775 42.6304C50.5796 42.6095 50.3908 42.5822 50.2111 42.5483C50.0314 42.5119 49.8622 42.4715 49.7033 42.4272C49.5445 42.3804 49.4025 42.3322 49.2775 42.2827L49.2775 41.7397C49.3895 41.7996 49.5184 41.8595 49.6642 41.9194C49.8101 41.9793 49.9715 42.0327 50.1486 42.0796C50.3283 42.1265 50.521 42.1642 50.7267 42.1929C50.9351 42.2215 51.1564 42.2358 51.3908 42.2358C51.7606 42.2358 52.0913 42.2085 52.383 42.1538C52.6747 42.0991 52.9208 42.0184 53.1213 41.9116C53.3244 41.8048 53.478 41.6746 53.5822 41.521C53.689 41.3673 53.7424 41.1903 53.7424 40.9897C53.7424 40.7606 53.6825 40.5666 53.5627 40.4077C53.4455 40.2489 53.2801 40.12 53.0666 40.021C52.8557 39.9194 52.6017 39.8465 52.3049 39.8022C52.008 39.7554 51.6812 39.7319 51.3244 39.7319C51.1395 39.7319 50.9676 39.7384 50.8088 39.7515C50.6525 39.7645 50.5054 39.7827 50.3674 39.8062C50.232 39.827 50.1043 39.8517 49.9846 39.8804C49.8674 39.909 49.7541 39.939 49.6447 39.9702L49.4924 39.9702L49.4924 37.189L53.7736 37.189L53.7736 37.6343Z" fill="#2D2749"/>
</svg>
