<svg width="71" height="65" viewBox="0 0 71 65" fill="none" xmlns="http://www.w3.org/2000/svg">
<path fill-rule="evenodd" clip-rule="evenodd" d="M44.9674 15.0407C45.7372 16.374 44.7751 18.0405 43.2355 18.0405L38.2412 18.0404L35.5465 13.3758L32.8531 18.0408L27.6616 18.0407C26.1223 18.0405 25.1598 16.3744 25.9292 15.0412L33.7163 1.55355C34.486 0.220377 36.4106 0.220379 37.1806 1.55323L44.9674 15.0407ZM38.3412 23.8751L35.6446 19.2059L32.9488 23.8752L29.4845 23.8755L32.8531 18.0408L38.2412 18.0404L41.609 23.8752L38.3412 23.8751ZM29.5826 29.7056L32.9488 23.8752L38.3412 23.8751L41.7071 29.7053L29.5826 29.7056Z" fill="#3A505F"/>
<path d="M21.4062 62.5742C21.2188 62.6523 21.0326 62.724 20.8477 62.7891C20.6654 62.8542 20.4753 62.9102 20.2773 62.957C20.0794 63.0039 19.8711 63.0404 19.6523 63.0664C19.4336 63.0924 19.1953 63.1055 18.9375 63.1055C18.6198 63.1055 18.3138 63.0794 18.0195 63.0273C17.7279 62.9753 17.4557 62.8971 17.2031 62.793C16.9505 62.6888 16.7214 62.5599 16.5156 62.4062C16.3099 62.25 16.1328 62.069 15.9844 61.8633C15.8385 61.6576 15.7253 61.4258 15.6445 61.168C15.5664 60.9102 15.5273 60.6276 15.5273 60.3203C15.5273 60.013 15.5664 59.7305 15.6445 59.4727C15.7253 59.2148 15.8385 58.9831 15.9844 58.7773C16.1328 58.5716 16.3099 58.3919 16.5156 58.2383C16.7214 58.082 16.9505 57.9518 17.2031 57.8477C17.4557 57.7435 17.7279 57.6654 18.0195 57.6133C18.3112 57.5612 18.6172 57.5352 18.9375 57.5352C19.1953 57.5352 19.4336 57.5482 19.6523 57.5742C19.8711 57.6003 20.0794 57.6367 20.2773 57.6836C20.4753 57.7305 20.6654 57.7865 20.8477 57.8516C21.0326 57.9141 21.2188 57.9844 21.4062 58.0625V58.6484C21.2578 58.5547 21.099 58.4661 20.9297 58.3828C20.7604 58.2995 20.5768 58.2266 20.3789 58.1641C20.1836 58.1016 19.974 58.0521 19.75 58.0156C19.526 57.9792 19.2865 57.9609 19.0312 57.9609C18.5156 57.9609 18.069 58.0169 17.6914 58.1289C17.3138 58.2409 17.0013 58.3997 16.7539 58.6055C16.5091 58.8086 16.3268 59.056 16.207 59.3477C16.0898 59.6367 16.0312 59.9609 16.0312 60.3203C16.0312 60.6797 16.0898 61.0039 16.207 61.293C16.3268 61.582 16.5091 61.8294 16.7539 62.0352C17.0013 62.2383 17.3138 62.3958 17.6914 62.5078C18.069 62.6172 18.5156 62.6719 19.0312 62.6719C19.2865 62.6719 19.5273 62.6536 19.7539 62.6172C19.9831 62.5807 20.1966 62.5312 20.3945 62.4688C20.5951 62.4062 20.7786 62.3346 20.9453 62.2539C21.1146 62.1706 21.2682 62.0833 21.4062 61.9922V62.5742ZM29.2969 60.3203C29.2969 60.8021 29.2096 61.2188 29.0352 61.5703C28.8607 61.9193 28.6211 62.2083 28.3164 62.4375C28.0117 62.6641 27.6523 62.832 27.2383 62.9414C26.8242 63.0508 26.3776 63.1055 25.8984 63.1055C25.4167 63.1055 24.9674 63.0508 24.5508 62.9414C24.1341 62.832 23.7721 62.6641 23.4648 62.4375C23.1576 62.2083 22.9167 61.9193 22.7422 61.5703C22.5677 61.2188 22.4805 60.8021 22.4805 60.3203C22.4805 60 22.5208 59.7096 22.6016 59.4492C22.6823 59.1862 22.7956 58.9518 22.9414 58.7461C23.0872 58.5378 23.263 58.3581 23.4688 58.207C23.6771 58.056 23.9076 57.931 24.1602 57.832C24.4154 57.7305 24.6888 57.6562 24.9805 57.6094C25.2721 57.5599 25.5781 57.5352 25.8984 57.5352C26.3776 57.5352 26.8242 57.5898 27.2383 57.6992C27.6523 57.8086 28.0117 57.9779 28.3164 58.207C28.6211 58.4336 28.8607 58.7227 29.0352 59.0742C29.2096 59.4232 29.2969 59.8385 29.2969 60.3203ZM28.793 60.3203C28.793 59.9401 28.7305 59.6042 28.6055 59.3125C28.4831 59.0208 28.3008 58.776 28.0586 58.5781C27.8164 58.3776 27.5143 58.2266 27.1523 58.125C26.793 58.0208 26.375 57.9688 25.8984 57.9688C25.4219 57.9688 25.0013 58.0208 24.6367 58.125C24.2747 58.2292 23.9714 58.3815 23.7266 58.582C23.4818 58.7799 23.2969 59.026 23.1719 59.3203C23.0469 59.612 22.9844 59.9453 22.9844 60.3203C22.9844 60.7005 23.0469 61.0365 23.1719 61.3281C23.2969 61.6198 23.4818 61.8659 23.7266 62.0664C23.9714 62.2643 24.2747 62.4154 24.6367 62.5195C25.0013 62.6211 25.4219 62.6719 25.8984 62.6719C26.375 62.6719 26.793 62.6211 27.1523 62.5195C27.5143 62.4154 27.8164 62.2643 28.0586 62.0664C28.3008 61.8659 28.4831 61.6198 28.6055 61.3281C28.7305 61.0365 28.793 60.7005 28.793 60.3203ZM31.2188 57.6328V58.457C31.3333 58.3581 31.4609 58.2526 31.6016 58.1406C31.7422 58.0286 31.8971 57.9258 32.0664 57.832C32.2357 57.7383 32.4193 57.6602 32.6172 57.5977C32.8151 57.5352 33.0273 57.5039 33.2539 57.5039C33.6159 57.5039 33.9362 57.5859 34.2148 57.75C34.4935 57.9115 34.7188 58.1628 34.8906 58.5039C35.0573 58.3503 35.2292 58.2122 35.4062 58.0898C35.5833 57.9648 35.7643 57.8594 35.9492 57.7734C36.1367 57.6875 36.3294 57.6211 36.5273 57.5742C36.7253 57.5273 36.9297 57.5039 37.1406 57.5039C37.4089 57.5039 37.6523 57.5495 37.8711 57.6406C38.0924 57.7318 38.2799 57.8568 38.4336 58.0156C38.5872 58.1745 38.7057 58.362 38.7891 58.5781C38.875 58.7917 38.918 59.0208 38.918 59.2656V63H38.4297V59.3906C38.4297 59.1667 38.4023 58.9674 38.3477 58.793C38.2956 58.6159 38.2122 58.4661 38.0977 58.3438C37.9857 58.2214 37.8411 58.1289 37.6641 58.0664C37.4896 58.0013 37.2799 57.9688 37.0352 57.9688C36.8398 57.9688 36.6458 57.9974 36.4531 58.0547C36.263 58.1094 36.0807 58.1836 35.9062 58.2773C35.7318 58.3685 35.569 58.4727 35.418 58.5898C35.2669 58.707 35.1341 58.8281 35.0195 58.9531C35.0326 59.026 35.0391 59.0885 35.0391 59.1406C35.0417 59.1927 35.043 59.2552 35.043 59.3281V63H34.5547V59.3906C34.5547 59.125 34.5195 58.9023 34.4492 58.7227C34.3789 58.5404 34.2812 58.3932 34.1562 58.2812C34.0312 58.1693 33.8828 58.0898 33.7109 58.043C33.5417 57.9935 33.3568 57.9688 33.1562 57.9688C32.9661 57.9688 32.7773 58.0013 32.5898 58.0664C32.4049 58.1315 32.2279 58.2161 32.0586 58.3203C31.8893 58.4245 31.7331 58.5417 31.5898 58.6719C31.4466 58.7995 31.3229 58.9271 31.2188 59.0547V63H30.7305V57.6328H31.2188ZM45.9336 59.2812C45.9336 59.5495 45.8893 59.7865 45.8008 59.9922C45.7148 60.1979 45.5781 60.3711 45.3906 60.5117C45.2031 60.6523 44.9609 60.7591 44.6641 60.832C44.3698 60.9023 44.0143 60.9375 43.5977 60.9375H41.1875V63H40.6992V57.6328H43.5977C44.0143 57.6328 44.3698 57.6693 44.6641 57.7422C44.9609 57.8125 45.2031 57.9167 45.3906 58.0547C45.5781 58.1927 45.7148 58.3646 45.8008 58.5703C45.8893 58.776 45.9336 59.013 45.9336 59.2812ZM45.4297 59.2812C45.4297 59.026 45.3867 58.8203 45.3008 58.6641C45.2174 58.5078 45.0872 58.388 44.9102 58.3047C44.7357 58.2188 44.513 58.1615 44.2422 58.1328C43.974 58.1042 43.6549 58.0898 43.2852 58.0898H41.1875V60.4805H43.2852C43.4284 60.4805 43.5807 60.4818 43.7422 60.4844C43.9062 60.4844 44.0677 60.4766 44.2266 60.4609C44.3854 60.4427 44.5365 60.4128 44.6797 60.3711C44.8255 60.3268 44.9531 60.2604 45.0625 60.1719C45.1745 60.0833 45.263 59.9674 45.3281 59.8242C45.3958 59.681 45.4297 59.5 45.4297 59.2812ZM46.3516 63.9766V63.5273H50.3516V63.9766H46.3516ZM54.8867 61.625V63H54.4062V61.625H50.5898V61.1914L54.0625 57.6328H54.8867V61.1758H56.2617V61.625H54.8867ZM54.4062 57.9219L51.2305 61.1758H54.4062V57.9219Z" fill="#2D2749"/>
<path d="M55.5625 35.5625L59.3506 29H60.333C66.224 29 71 33.776 71 39.667C70.9998 47.0305 65.0305 52.9998 57.667 53H15C6.71573 53 0 46.2843 0 38V29H11L7.5 35.0625H19.624L16.124 29H51.7734L55.5625 35.5625Z" fill="#3A505F"/>
</svg>
