<svg width="57" height="76" viewBox="0 0 57 76" fill="none" xmlns="http://www.w3.org/2000/svg">
<path d="M46.0002 62.7187L41.0627 62.7187L41.4651 64L41.0315 64L40.6331 62.7187L40.6331 62.2383L46.0002 62.2383L46.0002 62.7187ZM46.0002 60L41.0627 60L41.4651 61.2812L41.0315 61.2812L40.6331 60L40.6331 59.5195L46.0002 59.5195L46.0002 60ZM46.0002 56.6602L46.0002 57.2344L41.0784 54.1133L41.0784 58.5625L40.6331 58.5625L40.6331 53.4414L40.9026 53.4414L46.0002 56.6602Z" fill="#2D2749"/>
<path d="M45.0002 34.6016L44.1526 34.6016L44.1526 33.9219L45.0002 33.9219L45.0002 34.6016ZM43.5588 32.25L43.5588 32.5781L40.4807 32.7148L39.6331 32.7148L39.6331 32.1172L40.4807 32.1172L43.5588 32.25ZM45.0002 32.7148L44.2307 32.7148L44.2307 32.1172L45.0002 32.1172L45.0002 32.7148ZM45.0002 30.9922L44.6721 30.9922C44.2945 30.3177 43.9482 29.707 43.6331 29.1602C43.3153 28.6107 43.0185 28.1432 42.7424 27.7578C42.4638 27.3724 42.1995 27.0768 41.9495 26.8711C41.6969 26.6654 41.4469 26.5677 41.1995 26.5781C41.0146 26.5859 40.8466 26.638 40.6956 26.7344C40.5419 26.8281 40.4117 26.9648 40.3049 27.1445C40.1956 27.3242 40.1109 27.5456 40.051 27.8086C39.9911 28.0716 39.9612 28.375 39.9612 28.7187C39.9612 28.9323 39.9729 29.1367 39.9963 29.332C40.0198 29.5247 40.0562 29.7122 40.1057 29.8945C40.1526 30.0742 40.2125 30.25 40.2854 30.4219C40.3583 30.5937 40.4443 30.763 40.5432 30.9297L40.0081 30.9297C39.9351 30.75 39.87 30.5755 39.8127 30.4062C39.7528 30.237 39.7021 30.0651 39.6604 29.8906C39.6187 29.7161 39.5875 29.5352 39.5667 29.3477C39.5458 29.1602 39.5354 28.9596 39.5354 28.7461C39.5354 28.3633 39.5732 28.0091 39.6487 27.6836C39.7242 27.3581 39.8349 27.0768 39.9807 26.8398C40.1239 26.6029 40.301 26.418 40.512 26.2852C40.7229 26.1497 40.9651 26.082 41.2385 26.082C41.4859 26.082 41.7333 26.1667 41.9807 26.3359C42.2281 26.5052 42.4846 26.7526 42.7502 27.0781C43.0159 27.401 43.2958 27.7995 43.5901 28.2734C43.8844 28.7474 44.2047 29.2891 44.551 29.8984L44.551 25.9687L45.0002 25.9687L45.0002 30.9922ZM42.512 21.0117L44.2229 24.8203L43.7776 24.8203L42.3284 21.582L40.8713 24.8203L40.426 24.8203L42.1448 21.0117L42.512 21.0117Z" fill="#2D2749"/>
<path d="M12.4065 5.57422C12.219 5.65234 12.0328 5.72396 11.8479 5.78906C11.6656 5.85417 11.4755 5.91016 11.2776 5.95703C11.0797 6.00391 10.8713 6.04036 10.6526 6.06641C10.4338 6.09245 10.1956 6.10547 9.93774 6.10547C9.62004 6.10547 9.31405 6.07943 9.01978 6.02734C8.72811 5.97526 8.45597 5.89714 8.20337 5.79297C7.95076 5.6888 7.7216 5.5599 7.51587 5.40625C7.31014 5.25 7.13306 5.06901 6.98462 4.86328C6.83879 4.65755 6.7255 4.42578 6.64478 4.16797C6.56665 3.91016 6.52759 3.6276 6.52759 3.32031C6.52759 3.01302 6.56665 2.73047 6.64478 2.47266C6.7255 2.21484 6.83879 1.98307 6.98462 1.77734C7.13306 1.57161 7.31014 1.39193 7.51587 1.23828C7.7216 1.08203 7.95076 0.951823 8.20337 0.847656C8.45597 0.74349 8.72811 0.665365 9.01978 0.613281C9.31144 0.561198 9.61743 0.535156 9.93774 0.535156C10.1956 0.535156 10.4338 0.548177 10.6526 0.574219C10.8713 0.60026 11.0797 0.636719 11.2776 0.683594C11.4755 0.730469 11.6656 0.786458 11.8479 0.851563C12.0328 0.914063 12.219 0.984375 12.4065 1.0625V1.64844C12.2581 1.55469 12.0992 1.46615 11.9299 1.38281C11.7607 1.29948 11.5771 1.22656 11.3792 1.16406C11.1838 1.10156 10.9742 1.05208 10.7502 1.01563C10.5263 0.979167 10.2867 0.960938 10.0315 0.960938C9.51587 0.960938 9.06925 1.01693 8.69165 1.12891C8.31405 1.24089 8.00155 1.39974 7.75415 1.60547C7.50936 1.80859 7.32707 2.05599 7.20728 2.34766C7.09009 2.63672 7.03149 2.96094 7.03149 3.32031C7.03149 3.67969 7.09009 4.00391 7.20728 4.29297C7.32707 4.58203 7.50936 4.82943 7.75415 5.03516C8.00155 5.23828 8.31405 5.39583 8.69165 5.50781C9.06925 5.61719 9.51587 5.67188 10.0315 5.67188C10.2867 5.67188 10.5276 5.65365 10.7542 5.61719C10.9833 5.58073 11.1969 5.53125 11.3948 5.46875C11.5953 5.40625 11.7789 5.33464 11.9456 5.25391C12.1148 5.17057 12.2685 5.08333 12.4065 4.99219V5.57422ZM20.2971 3.32031C20.2971 3.80208 20.2099 4.21875 20.0354 4.57031C19.8609 4.91927 19.6213 5.20833 19.3167 5.4375C19.012 5.66406 18.6526 5.83203 18.2385 5.94141C17.8245 6.05078 17.3778 6.10547 16.8987 6.10547C16.4169 6.10547 15.9677 6.05078 15.551 5.94141C15.1344 5.83203 14.7724 5.66406 14.4651 5.4375C14.1578 5.20833 13.9169 4.91927 13.7424 4.57031C13.568 4.21875 13.4807 3.80208 13.4807 3.32031C13.4807 3 13.5211 2.70964 13.6018 2.44922C13.6825 2.1862 13.7958 1.95182 13.9417 1.74609C14.0875 1.53776 14.2633 1.35807 14.469 1.20703C14.6773 1.05599 14.9078 0.93099 15.1604 0.832031C15.4156 0.730469 15.689 0.65625 15.9807 0.609375C16.2724 0.559896 16.5784 0.535156 16.8987 0.535156C17.3778 0.535156 17.8245 0.589844 18.2385 0.699219C18.6526 0.808594 19.012 0.977865 19.3167 1.20703C19.6213 1.43359 19.8609 1.72266 20.0354 2.07422C20.2099 2.42318 20.2971 2.83854 20.2971 3.32031ZM19.7932 3.32031C19.7932 2.9401 19.7307 2.60417 19.6057 2.3125C19.4833 2.02083 19.301 1.77604 19.0588 1.57813C18.8167 1.3776 18.5146 1.22656 18.1526 1.125C17.7932 1.02083 17.3752 0.96875 16.8987 0.96875C16.4221 0.96875 16.0015 1.02083 15.637 1.125C15.275 1.22917 14.9716 1.38151 14.7268 1.58203C14.482 1.77995 14.2971 2.02604 14.1721 2.32031C14.0471 2.61198 13.9846 2.94531 13.9846 3.32031C13.9846 3.70052 14.0471 4.03646 14.1721 4.32813C14.2971 4.61979 14.482 4.86589 14.7268 5.06641C14.9716 5.26432 15.275 5.41536 15.637 5.51953C16.0015 5.62109 16.4221 5.67188 16.8987 5.67188C17.3752 5.67188 17.7932 5.62109 18.1526 5.51953C18.5146 5.41536 18.8167 5.26432 19.0588 5.06641C19.301 4.86589 19.4833 4.61979 19.6057 4.32813C19.7307 4.03646 19.7932 3.70052 19.7932 3.32031ZM22.219 0.632813V1.45703C22.3336 1.35807 22.4612 1.2526 22.6018 1.14063C22.7424 1.02865 22.8974 0.925781 23.0667 0.832031C23.2359 0.738281 23.4195 0.660156 23.6174 0.597656C23.8153 0.535156 24.0276 0.503906 24.2542 0.503906C24.6161 0.503906 24.9364 0.585938 25.2151 0.75C25.4937 0.911458 25.719 1.16276 25.8909 1.50391C26.0575 1.35026 26.2294 1.21224 26.4065 1.08984C26.5836 0.964844 26.7646 0.859375 26.9495 0.773438C27.137 0.6875 27.3297 0.621094 27.5276 0.574219C27.7255 0.527344 27.9299 0.503906 28.1409 0.503906C28.4091 0.503906 28.6526 0.549479 28.8713 0.640625C29.0927 0.731771 29.2802 0.856771 29.4338 1.01563C29.5875 1.17448 29.706 1.36198 29.7893 1.57813C29.8752 1.79167 29.9182 2.02083 29.9182 2.26563V6H29.4299V2.39063C29.4299 2.16667 29.4026 1.96745 29.3479 1.79297C29.2958 1.61589 29.2125 1.46615 29.0979 1.34375C28.9859 1.22135 28.8414 1.12891 28.6643 1.06641C28.4898 1.0013 28.2802 0.96875 28.0354 0.96875C27.8401 0.96875 27.6461 0.997396 27.4534 1.05469C27.2633 1.10938 27.081 1.18359 26.9065 1.27734C26.732 1.36849 26.5693 1.47266 26.4182 1.58984C26.2672 1.70703 26.1344 1.82813 26.0198 1.95313C26.0328 2.02604 26.0393 2.08854 26.0393 2.14063C26.0419 2.19271 26.0432 2.25521 26.0432 2.32813V6H25.5549V2.39063C25.5549 2.125 25.5198 1.90234 25.4495 1.72266C25.3792 1.54036 25.2815 1.39323 25.1565 1.28125C25.0315 1.16927 24.8831 1.08984 24.7112 1.04297C24.5419 0.99349 24.357 0.96875 24.1565 0.96875C23.9664 0.96875 23.7776 1.0013 23.5901 1.06641C23.4052 1.13151 23.2281 1.21615 23.0588 1.32031C22.8896 1.42448 22.7333 1.54167 22.5901 1.67188C22.4469 1.79948 22.3232 1.92708 22.219 2.05469V6H21.7307V0.632813H22.219ZM36.9338 2.28125C36.9338 2.54948 36.8896 2.78646 36.801 2.99219C36.7151 3.19792 36.5784 3.37109 36.3909 3.51172C36.2034 3.65234 35.9612 3.75911 35.6643 3.83203C35.37 3.90234 35.0146 3.9375 34.5979 3.9375L32.1877 3.9375V6H31.6995V0.632813L34.5979 0.632813C35.0146 0.632813 35.37 0.669271 35.6643 0.742188C35.9612 0.8125 36.2034 0.916667 36.3909 1.05469C36.5784 1.19271 36.7151 1.36458 36.801 1.57031C36.8896 1.77604 36.9338 2.01302 36.9338 2.28125ZM36.4299 2.28125C36.4299 2.02604 36.387 1.82031 36.301 1.66406C36.2177 1.50781 36.0875 1.38802 35.9104 1.30469C35.7359 1.21875 35.5133 1.16146 35.2424 1.13281C34.9742 1.10417 34.6552 1.08984 34.2854 1.08984L32.1877 1.08984V3.48047L34.2854 3.48047C34.4286 3.48047 34.581 3.48177 34.7424 3.48438C34.9065 3.48438 35.068 3.47656 35.2268 3.46094C35.3857 3.44271 35.5367 3.41276 35.6799 3.37109C35.8258 3.32682 35.9534 3.26042 36.0627 3.17188C36.1747 3.08333 36.2633 2.96745 36.3284 2.82422C36.3961 2.68099 36.4299 2.5 36.4299 2.28125ZM37.3518 6.97656V6.52734H41.3518V6.97656H37.3518ZM42.6331 6V1.0625L41.3518 1.46484V1.03125L42.6331 0.632813L43.1135 0.632813V6H42.6331Z" fill="#2D2749"/>
<path fill-rule="evenodd" clip-rule="evenodd" d="M5.08469e-05 18C5.51444e-05 12.4772 4.4773 8.0001 10.0001 8L37.0001 8C42.3503 8 46.7195 12.2017 46.9874 17.4854L47.0001 18L33.0001 18L33 41.4004L4.88012e-05 41.4004L5.08469e-05 18ZM19.0001 19C19.0001 16.8783 18.1576 14.8431 16.6573 13.3428C15.157 11.8425 13.1218 11 11.0001 11C8.87856 11 6.84402 11.8428 5.3438 13.3428C3.84351 14.8431 3.00005 16.8783 3.00005 19L19.0001 19ZM47.0001 18L56.0001 18L56 41.1523L52.6055 37.7578C52.3712 37.5236 51.9921 37.5235 51.7579 37.7578C51.5237 37.9921 51.5237 38.3712 51.7579 38.6055L54.5518 41.4004L47 41.4004L47.0001 18ZM56 41.1523L56.4239 41.5762C56.6582 41.8105 56.6582 42.1895 56.4239 42.4238L56 42.8477L56 41.1523ZM33 41.4004L47 41.4004L47 42.5996L33 42.5996L33 41.4004ZM47 42.5996L54.5518 42.5996L51.7579 45.3945C51.5237 45.6288 51.5237 46.0079 51.7579 46.2422C51.9921 46.4765 52.3712 46.4764 52.6055 46.2422L56 42.8477L56 66L47 66L47 42.5996ZM10 76C4.47729 75.9999 4.61678e-05 71.5228 4.66506e-05 66L4.86963e-05 42.5996L33 42.5996L33 66L47 66C47 71.5228 42.5229 76 37 76L10 76ZM11.9541 62.25L14.2637 62.25L11.9541 58.25L14.2637 58.25L9.50005 50L4.73735 58.25L7.04692 58.25L4.73735 62.25L7.04692 62.25L4.73735 66.25L14.2637 66.25L11.9541 62.25ZM9.50005 58L9.35552 58.25L7.04692 58.25L9.50005 54L11.9541 58.25L9.64458 58.25L9.50005 58ZM9.35552 58.25L9.64458 58.25L11.9541 62.25L7.04692 62.25L9.35552 58.25Z" fill="#3A505F"/>
</svg>
