<svg width="26" height="69" viewBox="0 0 26 69" fill="none" xmlns="http://www.w3.org/2000/svg">
<path d="M6 61.7187L1.0625 61.7187L1.46484 63L1.03125 63L0.632812 61.7187L0.632812 61.2383L6 61.2383L6 61.7187ZM6 59L1.0625 59L1.46484 60.2812L1.03125 60.2812L0.632812 59L0.632812 58.5195L6 58.5195L6 59ZM6 55.6602L6 56.2344L1.07812 53.1133L1.07812 57.5625L0.632812 57.5625L0.632812 52.4414L0.902343 52.4414L6 55.6602ZM2.51953 48.0273L4.10547 48.3711L4.10547 47.4414L4.46484 47.4414L4.46484 48.4492L6 48.7969L6 49.1875L4.46484 48.8437L4.46484 50.4609L6 50.8047L6 51.1953L4.46484 50.8516L4.46484 51.8047L4.10547 51.8047L4.10547 50.7773L2.51953 50.4258L2.51953 51.3555L2.16016 51.3555L2.16016 50.3477L0.632812 50.0117L0.632812 49.6172L2.16016 49.957L2.16016 48.3398L0.632812 48.0039L0.632812 47.6094L2.16016 47.9453L2.16016 46.9961L2.51953 46.9961L2.51953 48.0273ZM2.51953 50.0352L4.10547 50.3867L4.10547 48.7617L2.51953 48.418L2.51953 50.0352ZM4.625 42.0586L6 42.0586L6 42.5391L4.625 42.5391L4.625 46.3555L4.19141 46.3555L0.632812 42.8828L0.632812 42.0586L4.17578 42.0586L4.17578 40.6836L4.625 40.6836L4.625 42.0586ZM0.921874 42.5391L4.17578 45.7148L4.17578 42.5391L0.921874 42.5391ZM6 40.1172L5.67187 40.1172C5.29427 39.4427 4.94792 38.832 4.63281 38.2852C4.3151 37.7357 4.01823 37.2682 3.74219 36.8828C3.46354 36.4974 3.19922 36.2018 2.94922 35.9961C2.69661 35.7904 2.44661 35.6927 2.19922 35.7031C2.01432 35.7109 1.84635 35.763 1.69531 35.8594C1.54167 35.9531 1.41146 36.0898 1.30469 36.2695C1.19531 36.4492 1.11068 36.6706 1.05078 36.9336C0.990884 37.1966 0.960936 37.5 0.960936 37.8437C0.960936 38.0573 0.972655 38.2617 0.996093 38.457C1.01953 38.6497 1.05599 38.8372 1.10547 39.0195C1.15234 39.1992 1.21224 39.375 1.28516 39.5469C1.35807 39.7187 1.44401 39.888 1.54297 40.0547L1.00781 40.0547C0.934895 39.875 0.869791 39.7005 0.812499 39.5312C0.752603 39.362 0.701822 39.1901 0.660155 39.0156C0.618489 38.8411 0.587239 38.6602 0.566405 38.4727C0.545572 38.2852 0.535155 38.0846 0.535155 37.8711C0.535155 37.4883 0.572916 37.1341 0.648436 36.8086C0.723957 36.4831 0.834634 36.2018 0.980468 35.9648C1.1237 35.7279 1.30078 35.543 1.51172 35.4102C1.72266 35.2747 1.96484 35.207 2.23828 35.207C2.48568 35.207 2.73307 35.2917 2.98047 35.4609C3.22786 35.6302 3.48437 35.8776 3.75 36.2031C4.01562 36.526 4.29557 36.9245 4.58984 37.3984C4.88411 37.8724 5.20443 38.4141 5.55078 39.0234L5.55078 35.0937L6 35.0937L6 40.1172ZM6 33.3281L1.0625 33.3281L1.46484 34.6094L1.03125 34.6094L0.632811 33.3281L0.632811 32.8477L6 32.8477L6 33.3281Z" fill="#2D2749"/>
<path d="M25.1094 61.4453C25.1093 65.6177 21.727 69 17.5547 69C13.3823 69 10 65.6177 10 61.4453V59.4482L25.1094 57.8467V61.4453ZM25.1094 54.7188L10 56.3203V53.4844L25.1094 51.8828V54.7188ZM25.1094 48.7559L10 50.3564V47.5215L25.1094 45.9199V48.7559ZM17.5547 0C21.727 0 25.1093 3.38234 25.1094 7.55469V42.793L10 44.3945V7.55469C10 3.38234 13.3823 0 17.5547 0ZM17.5 2C14.4624 2 12 4.46243 12 7.5V25.5C12 28.5376 14.4624 31 17.5 31C20.5376 31 23 28.5376 23 25.5V7.5C23 4.46243 20.5376 2 17.5 2Z" fill="#3A505F"/>
<path d="M22.2627 32.25H12.7373L15.0469 28.25H19.9531L22.2627 32.25ZM15.0469 28.25H12.7373L15.0469 24.25H17.3555L15.0469 28.25ZM22.2627 28.25H19.9531L17.6445 24.25H19.9531L22.2627 28.25ZM22.2627 24.25H19.9531L17.5 20L15.0469 24.25H12.7373L17.5 16L22.2627 24.25ZM17.6445 24.25H17.3555L17.5 24L17.6445 24.25Z" fill="#3A505F"/>
</svg>
