<svg width="113" height="21" viewBox="0 0 113 21" fill="none" xmlns="http://www.w3.org/2000/svg">
<path d="M63.8301 19.4678C64.6106 19.4678 65.3405 19.5659 66.0195 19.7617C66.5679 19.9154 67.087 20.1159 67.5781 20.3584C66.594 20.2747 65.6733 20.1211 64.8164 19.8945C64.3703 19.7733 63.9467 19.6313 63.5439 19.4727C63.6385 19.4696 63.7339 19.4678 63.8301 19.4678ZM19.0312 19.2031C17.8077 19.6086 16.5839 19.905 15.3604 20.0957V16.6914C15.5567 16.6515 15.7493 16.6107 15.9375 16.5664C16.6016 16.4023 17.1992 16.2227 17.7305 16.0273C18.2695 15.832 18.7031 15.6367 19.0312 15.4414V19.2031ZM53.5664 3.48828C53.8477 3.48828 54.1328 3.50391 54.4219 3.53516C54.7188 3.55859 55.0039 3.58984 55.2773 3.62891C55.5586 3.66797 55.8203 3.71094 56.0625 3.75781C56.3047 3.80469 56.5156 3.85156 56.6953 3.89844V7.54297C56.5781 7.50391 56.4062 7.45312 56.1797 7.39062C55.9609 7.32031 55.7031 7.25391 55.4062 7.19141C55.1094 7.12109 54.7812 7.0625 54.4219 7.01562C54.0703 6.96875 53.707 6.94531 53.332 6.94531C52.5508 6.94531 51.8203 7.04297 51.1406 7.23828C50.4688 7.42578 49.8398 7.67969 49.2539 8C48.668 8.3125 48.1211 8.67188 47.6133 9.07812C47.1133 9.47656 46.6523 9.88672 46.2305 10.3086V16.002C46.1641 16.0005 46.0973 16 46.0303 16C45.7494 16 45.4645 16.0156 45.1758 16.0469C44.8791 16.0704 44.5936 16.1014 44.3203 16.1406C44.0394 16.1798 43.7781 16.2235 43.5361 16.2705C43.2941 16.3175 43.0829 16.3641 42.9033 16.4111V20H41.8828V8.51172H44.7891V3.89844H46.2305V6.51172C46.7539 6.12109 47.2891 5.74609 47.8359 5.38672C48.3906 5.01953 48.9648 4.69531 49.5586 4.41406C50.1602 4.13281 50.793 3.91016 51.457 3.74609C52.1211 3.57422 52.8242 3.48828 53.5664 3.48828ZM88.6055 20H85.9375C86.1214 19.9232 86.3168 19.8507 86.5244 19.7852C87.1 19.5969 87.7941 19.4884 88.6055 19.4561V20ZM46.2305 20H43.1318C43.2152 19.9754 43.3105 19.9451 43.4189 19.915C43.6375 19.8445 43.8949 19.7775 44.1914 19.7148C44.4881 19.6443 44.8167 19.5861 45.1758 19.5391C45.5164 19.4935 45.8679 19.4692 46.2305 19.4678V20ZM28.6523 20H26.7881C26.8616 19.9715 26.9362 19.9421 27.0127 19.915C27.4865 19.7477 28.0331 19.629 28.6523 19.5557V20ZM5.58594 19.6328C5.76359 19.6698 5.93817 19.7123 6.10938 19.7617C6.34006 19.8263 6.56461 19.9021 6.78516 19.9824C6.63471 19.9468 6.48597 19.9109 6.33984 19.8711C6.08054 19.7985 5.82978 19.7175 5.58594 19.6328ZM77.3555 5.64453C78.3008 6.35547 79.0273 7.24219 79.5352 8.30469C80.043 9.35938 80.2969 10.5781 80.2969 11.9609C80.2969 13.3438 80.043 14.5664 79.5352 15.6289C79.0273 16.6836 78.3008 17.5664 77.3555 18.2773C76.7455 18.736 76.0505 19.1219 75.2715 19.4375V16.4111H72.917C73.6107 16.1325 74.1683 15.7858 74.5898 15.3711C75.082 14.8945 75.4219 14.3594 75.6094 13.7656C75.8047 13.1641 75.9023 12.5625 75.9023 11.9609C75.9023 11.3594 75.8047 10.7617 75.6094 10.168C75.4219 9.56641 75.082 9.02734 74.5898 8.55078C74.3685 8.33302 74.1089 8.13532 73.8125 7.95508C74.5985 7.63822 75.2997 7.25113 75.9141 6.78906C76.4053 6.41959 76.8359 6.00235 77.209 5.54004C77.2578 5.5751 77.3076 5.60857 77.3555 5.64453ZM17.6016 5.83203C18.4766 6.60547 19.1523 7.55859 19.6289 8.69141C20.1133 9.82422 20.3555 11.1289 20.3555 12.6055V13.6836H4.48828C4.62891 14.1914 4.85938 14.6562 5.17969 15.0781C5.50781 15.5 5.94922 15.8594 6.50391 16.1562C7.05859 16.4531 7.73828 16.6836 8.54297 16.8477C9.24915 16.9903 10.0734 17.0702 11.0156 17.0889V19.0332C10.4927 18.6414 9.95845 18.2647 9.41211 17.9043C8.85785 17.536 8.28371 17.2109 7.69043 16.9287C7.08929 16.6466 6.45656 16.4234 5.79297 16.2588C5.1295 16.0864 4.42706 16 3.68555 16C3.4045 16 3.11894 16.0155 2.83008 16.0469C2.53356 16.0704 2.2487 16.1015 1.97559 16.1406C1.6947 16.1798 1.43331 16.2235 1.19141 16.2705C1.16814 16.275 1.14476 16.2797 1.12207 16.2842C0.9825 16.0586 0.853464 15.8252 0.738281 15.582C0.246094 14.543 0 13.3672 0 12.0547C0 10.8359 0.246094 9.70703 0.738281 8.66797C1.02707 8.06331 1.38525 7.50692 1.80957 6.99609C2.67557 7.5862 3.70505 8.04866 4.89844 8.38281C5.1478 8.45082 5.40407 8.50976 5.66602 8.56543C5.39964 8.81438 5.17882 9.075 5.00391 9.34766C4.73828 9.76172 4.56641 10.1445 4.48828 10.4961H16.0312C15.9922 10.0977 15.8711 9.6875 15.668 9.26562C15.5264 8.95426 15.3232 8.66565 15.0586 8.39941C15.9023 8.22193 16.7462 7.99441 17.5898 7.71484V5.82129C17.5938 5.82481 17.5976 5.8285 17.6016 5.83203ZM67.3848 16.834C67.9731 16.9286 68.6364 16.9766 69.375 16.9766C69.9348 16.9766 70.4519 16.9472 70.9268 16.8926V19.0332C70.4037 18.6413 69.8688 18.2648 69.3223 17.9043C68.768 17.536 68.1939 17.2108 67.6006 16.9287C67.5295 16.8954 67.4567 16.8657 67.3848 16.834ZM60.0576 6.8877C60.9833 7.54899 62.0881 8.05662 63.375 8.40625C63.6178 8.47043 63.8662 8.52638 64.1191 8.5791C63.7936 8.89794 63.5341 9.24426 63.3398 9.61719C63.1445 9.98438 63.0039 10.3711 62.918 10.7773C62.8398 11.1758 62.8008 11.5703 62.8008 11.9609C62.8008 12.3594 62.8398 12.7617 62.918 13.168C63.0039 13.5742 63.1445 13.9648 63.3398 14.3398C63.5352 14.707 63.7969 15.0508 64.125 15.3711C64.4257 15.6647 64.7936 15.9225 65.2256 16.1504C64.7051 16.05 64.1617 16 63.5957 16C63.3148 16 63.0299 16.0155 62.7412 16.0469C62.4445 16.0704 62.159 16.1014 61.8857 16.1406C61.6048 16.1798 61.3435 16.2235 61.1016 16.2705C60.8595 16.3175 60.6483 16.3641 60.4688 16.4111V17.4941C59.9363 16.9469 59.4973 16.3266 59.1562 15.6289C58.6406 14.5664 58.3828 13.3438 58.3828 11.9609C58.3828 10.5781 58.6406 9.35938 59.1562 8.30469C59.4055 7.79117 59.7062 7.31909 60.0576 6.8877ZM35.9883 3.48828C36.2695 3.48828 36.5547 3.50391 36.8438 3.53516C37.1406 3.55859 37.4258 3.58984 37.6992 3.62891C37.9805 3.66797 38.2422 3.71094 38.4844 3.75781C38.7266 3.80469 38.9375 3.85156 39.1172 3.89844V7.54297C39 7.50391 38.8281 7.45312 38.6016 7.39062C38.3828 7.32031 38.125 7.25391 37.8281 7.19141C37.5312 7.12109 37.2031 7.0625 36.8438 7.01562C36.4922 6.96875 36.1289 6.94531 35.7539 6.94531C34.9727 6.94531 34.2422 7.04297 33.5625 7.23828C32.8906 7.42578 32.2617 7.67969 31.6758 8C31.0898 8.3125 30.543 8.67188 30.0352 9.07812C29.5352 9.47656 29.0742 9.88672 28.6523 10.3086V16.0596C27.592 16.1403 26.6083 16.3039 25.7012 16.5527C25.2087 16.6842 24.7432 16.8392 24.3047 17.0176V8.51172H27.2109V3.89844H28.6523V6.51172C29.1758 6.12109 29.7109 5.74609 30.2578 5.38672C30.8125 5.01953 31.3867 4.69531 31.9805 4.41406C32.582 4.13281 33.2148 3.91016 33.8789 3.74609C34.543 3.57422 35.2461 3.48828 35.9883 3.48828ZM95.9414 3.48828C96.2227 3.48828 96.5078 3.50391 96.7969 3.53516C97.0938 3.55859 97.3789 3.58984 97.6523 3.62891C97.9336 3.66797 98.1953 3.71094 98.4375 3.75781C98.6797 3.80469 98.8906 3.85156 99.0703 3.89844V7.54297C98.9531 7.50391 98.7812 7.45312 98.5547 7.39062C98.3359 7.32031 98.0781 7.25391 97.7812 7.19141C97.4844 7.12109 97.1562 7.0625 96.7969 7.01562C96.4453 6.96875 96.082 6.94531 95.707 6.94531C94.9258 6.94531 94.1953 7.04297 93.5156 7.23828C92.8438 7.42578 92.2148 7.67969 91.6289 8C91.043 8.3125 90.4961 8.67188 89.9883 9.07812C89.4883 9.47656 89.0273 9.88672 88.6055 10.3086V16.0088C87.3379 16.0493 86.1683 16.2457 85.0967 16.5996C84.8072 16.6928 84.5274 16.7973 84.2578 16.9121V8.51172H87.1641V3.89844H88.6055V6.51172C89.1289 6.12109 89.6641 5.74609 90.2109 5.38672C90.7656 5.01953 91.3398 4.69531 91.9336 4.41406C92.5352 4.13281 93.168 3.91016 93.832 3.74609C94.4961 3.57422 95.1992 3.48828 95.9414 3.48828ZM10.4648 3.48828C11.9258 3.48828 13.2617 3.6875 14.4727 4.08594C14.9791 4.24825 15.4537 4.4464 15.8994 4.6748C15.4702 4.81811 15.0026 4.953 14.4961 5.07812C13.832 5.23438 13.1172 5.36328 12.3516 5.46484C11.5859 5.55859 10.8047 5.60547 10.0078 5.60547C8.88281 5.60547 7.91406 5.52344 7.10156 5.35938C6.29688 5.19531 5.61719 4.96484 5.0625 4.66797C5.03029 4.65073 4.99922 4.63192 4.96777 4.61426C5.34353 4.44053 5.73781 4.28271 6.15234 4.14453C7.44141 3.70703 8.87891 3.48828 10.4648 3.48828ZM69.375 3.48828C70.7528 3.48828 72.0172 3.61425 73.1689 3.86133C73.1619 3.86825 73.1556 3.87592 73.1484 3.88281C72.6641 4.35938 72 4.74609 71.1562 5.04297C70.3125 5.33984 69.2383 5.48828 67.9336 5.48828C67.0586 5.48828 66.2891 5.42188 65.625 5.28906C64.9609 5.14844 64.3867 4.96094 63.9023 4.72656C63.7493 4.65004 63.6052 4.56772 63.4678 4.4834C63.8929 4.31402 64.3422 4.16516 64.8164 4.03906C66.1758 3.67188 67.6953 3.48828 69.375 3.48828Z" fill="#2D2749"/>
<path d="M108.133 17.7109L110.559 20.0234L110.559 20.6406L107.805 18.0156L105.191 20.5117L105.191 19.8945L107.488 17.7109L105.191 15.5195L105.191 14.9023L107.805 17.3984L110.559 14.7773L110.559 15.3906L108.133 17.7109ZM109.184 9.88672L110.559 9.88672L110.559 10.3672L109.184 10.3672L109.184 14.1836L108.75 14.1836L105.191 10.7109L105.191 9.88672L108.734 9.88672L108.734 8.51172L109.184 8.51172L109.184 9.88672ZM105.48 10.3672L108.734 13.543L108.734 10.3672L105.48 10.3672ZM110.559 6.98437L105.621 6.98437L106.023 8.26562L105.59 8.26562L105.191 6.98437L105.191 6.50391L110.559 6.50391L110.559 6.98437ZM107.91 1.07422C108.02 1.18359 108.112 1.31641 108.187 1.47266C108.263 1.6263 108.301 1.80859 108.301 2.01953C108.301 2.18099 108.279 2.34505 108.234 2.51172C108.19 2.67839 108.142 2.84766 108.09 3.01953C108.038 3.1888 107.99 3.35937 107.945 3.53125C107.901 3.70052 107.879 3.86849 107.879 4.03516C107.879 4.1263 107.892 4.21484 107.918 4.30078C107.944 4.38672 107.978 4.46875 108.02 4.54687C108.061 4.625 108.109 4.69792 108.164 4.76562C108.216 4.83073 108.268 4.88802 108.32 4.9375L107.855 4.9375C107.798 4.88281 107.746 4.82031 107.699 4.75C107.65 4.67969 107.607 4.60417 107.57 4.52344C107.534 4.4401 107.505 4.35547 107.484 4.26953C107.464 4.18099 107.453 4.09245 107.453 4.00391C107.453 3.84505 107.477 3.68099 107.523 3.51172C107.568 3.34245 107.617 3.17187 107.672 3C107.724 2.82812 107.773 2.65755 107.82 2.48828C107.865 2.31641 107.887 2.14714 107.887 1.98047C107.887 1.88932 107.874 1.80078 107.848 1.71484C107.822 1.62891 107.788 1.54687 107.746 1.46875C107.702 1.39062 107.654 1.31901 107.602 1.25391C107.547 1.1862 107.492 1.1263 107.437 1.07422L107.91 1.07422Z" fill="#2D2749"/>
</svg>
