<svg width="34" height="34" viewBox="0 0 34 34" fill="none" xmlns="http://www.w3.org/2000/svg">
<g clip-path="url(#clip0_48_845)">
<path fill-rule="evenodd" clip-rule="evenodd" d="M16.182 30.2895C16.5964 29.8881 17.2684 29.8882 17.6828 30.2895L18.596 31.1736L16.9983 17.3292L15.3139 31.1304L16.182 30.2895Z" fill="white"/>
<path fill-rule="evenodd" clip-rule="evenodd" d="M33.1845 17.3258C33.1837 21.3428 31.8627 25.2516 29.4339 28.3536C31.8642 25.2497 33.1853 21.3444 33.1845 17.3258ZM0.847223 16.1875C0.84772 16.1794 0.848403 16.1712 0.849086 16.163Z" fill="white"/>
<path d="M28.7259 14.4637C30.3899 15.5408 31.8792 16.8342 33.156 18.3C33.1751 18.6425 33.1845 16.9845 33.1845 17.3258C33.1837 21.3428 31.8627 25.2516 29.4339 28.3536C27.3334 31.0361 24.5295 32.9583 21.4091 33.8988L18.596 31.1736L16.9983 17.3292L15.3139 31.1304L12.4878 33.8682C9.3699 32.9056 6.57546 30.9618 4.49057 28.2612C1.87741 24.8762 0.57436 20.5585 0.847223 16.1875C0.84772 16.1794 0.848403 16.1712 0.849086 16.163L0.850832 18.1404C2.09579 16.7405 3.53584 15.5014 5.13892 14.4637C8.62979 12.2041 12.734 10.998 16.9324 10.998C21.1308 10.998 25.235 12.2041 28.7259 14.4637Z" fill="white"/>
<path d="M12.2095 7.48734C12.4168 7.28663 12.4167 6.96115 12.2095 6.76039L11.6332 6.20206C11.426 6.0013 11.09 6.0013 10.8828 6.20206L10.3065 6.76039C10.0993 6.96115 10.0993 7.28663 10.3065 7.48734L10.8828 8.04567C11.09 8.24633 11.426 8.24633 11.6332 8.04567L12.2095 7.48734Z" fill="white"/>
<path d="M23.5763 7.48734C23.7835 7.28663 23.7835 6.96115 23.5763 6.76039L23 6.20206C22.7927 6.0013 22.4568 6.0013 22.2495 6.20206L21.6733 6.76039C21.4661 6.96115 21.466 7.28663 21.6733 7.48734L22.2495 8.04567C22.4568 8.24633 22.7928 8.24633 23 8.04567L23.5763 7.48734Z" fill="white"/>
<path d="M19.1209 5.52927C19.2945 5.69746 19.2945 5.9701 19.1209 6.13829L17.3043 7.89814C17.1307 8.0662 16.8492 8.06625 16.6756 7.89814L14.8591 6.13829C14.6855 5.97014 14.6856 5.69746 14.8591 5.52927L16.6756 3.76943C16.8492 3.60124 17.1307 3.60126 17.3043 3.76943L19.1209 5.52927Z" fill="white"/>
<path fill-rule="evenodd" clip-rule="evenodd" d="M33.156 18.3C31.8792 16.8342 30.3899 15.5408 28.7259 14.4637C25.235 12.2041 21.1308 10.998 16.9324 10.998C12.734 10.998 8.62979 12.2041 5.13892 14.4637C3.53584 15.5014 2.09579 16.7405 0.850832 18.1404C1.13391 13.7872 2.95876 7.70972 5.95879 4.73296C8.9697 1.74545 12.9378 0.0911691 17.0547 0.106459C21.1715 0.12181 25.1284 1.80555 28.1195 4.81532C31.1091 7.8234 32.9101 13.93 33.156 18.3ZM12.2095 7.48734C12.4168 7.28663 12.4167 6.96115 12.2095 6.76039L11.6332 6.20206C11.426 6.0013 11.09 6.0013 10.8828 6.20206L10.3065 6.76039C10.0993 6.96115 10.0993 7.28663 10.3065 7.48734L10.8828 8.04567C11.09 8.24633 11.426 8.24633 11.6332 8.04567L12.2095 7.48734ZM19.1209 6.13829C19.2945 5.9701 19.2945 5.69746 19.1209 5.52927L17.3043 3.76943C17.1307 3.60126 16.8492 3.60124 16.6756 3.76943L14.8591 5.52927C14.6856 5.69746 14.6855 5.97014 14.8591 6.13829L16.6756 7.89814C16.8492 8.06625 17.1307 8.0662 17.3043 7.89814L19.1209 6.13829ZM23.5763 7.48734C23.7835 7.28663 23.7835 6.96115 23.5763 6.76039L23 6.20206C22.7927 6.0013 22.4568 6.0013 22.2495 6.20206L21.6733 6.76039C21.4661 6.96115 21.466 7.28663 21.6733 7.48734L22.2495 8.04567C22.4568 8.24633 22.7928 8.24633 23 8.04567L23.5763 7.48734Z" fill="white"/>
<path d="M16.9327 11.498C21.0356 11.498 25.0452 12.6771 28.4542 14.8837C30.021 15.898 31.427 17.1098 32.6427 18.4774C32.4581 21.3201 31.5991 24.0683 30.1417 26.455C29.8056 27.005 29.4384 27.5362 29.0401 28.0448C27.0639 30.5687 24.4484 32.3916 21.5401 33.33L19.0724 30.9384L17.4952 17.2724L16.502 17.2685L14.838 30.8935L12.3565 33.2978C9.45251 32.3384 6.84764 30.4957 4.88681 27.956C2.77416 25.2193 1.54105 21.8507 1.34091 18.3446C2.5292 17.0312 3.89446 15.8649 5.41025 14.8837C8.81936 12.677 12.8297 11.498 16.9327 11.498ZM17.9395 29.8515C17.3767 29.3845 16.5574 29.3691 15.9786 29.8075L16.9835 21.5702L17.9395 29.8515ZM17.0528 0.606354C21.0327 0.621194 24.8638 2.24889 27.7647 5.16788C29.1852 6.59718 30.3517 8.7973 31.1944 11.2118C31.8537 13.1007 32.3038 15.0918 32.5255 16.8935C31.4616 15.8307 30.2798 14.8742 28.9972 14.0439C25.4247 11.7316 21.2263 10.498 16.9327 10.498C12.6389 10.498 8.43989 11.7313 4.86728 14.0439C3.6452 14.8349 2.51502 15.7402 1.4913 16.7431C1.72626 14.9485 2.18815 12.9663 2.85654 11.0878C3.71097 8.68642 4.88579 6.50165 6.31064 5.0878C9.23059 2.19054 13.0729 0.591582 17.0528 0.606354ZM11.9815 5.84268C11.5805 5.45418 10.9364 5.45439 10.5352 5.84268L9.9581 6.40128C9.54856 6.79835 9.54822 7.44937 9.9581 7.84659L10.5352 8.40518C10.9362 8.79315 11.5795 8.79308 11.9806 8.40518H11.9815L12.5577 7.84659C12.9677 7.44934 12.9674 6.79838 12.5577 6.40128L11.9815 5.84268ZM23.3477 5.84268C22.9466 5.45433 22.3026 5.45414 21.9015 5.84268L21.3253 6.40128C20.9155 6.7984 20.9151 7.44932 21.3253 7.84659L21.9015 8.40518C22.3025 8.79349 22.9466 8.79338 23.3477 8.40518L23.9239 7.84659C24.3341 7.44932 24.3338 6.79841 23.9239 6.40128L23.3477 5.84268ZM17.5811 3.34756C17.2369 3.07503 16.7439 3.07514 16.3995 3.34756L16.3282 3.41006L14.5108 5.16983C14.135 5.53419 14.1347 6.13219 14.5108 6.49698L16.3282 8.25772C16.6958 8.61327 17.2852 8.61323 17.6524 8.25772L19.4688 6.49698C19.845 6.1323 19.8452 5.53441 19.4688 5.16983L17.6524 3.41006L17.5811 3.34756ZM11.2852 6.56143L11.8614 7.11905C11.863 7.1206 11.864 7.12245 11.8643 7.12296L11.8653 7.12393L11.8614 7.12784L11.2852 7.68643C11.2802 7.69126 11.2715 7.6962 11.2579 7.6962C11.2443 7.69617 11.2356 7.69127 11.2306 7.68643L10.6544 7.12784L10.6515 7.12491V7.12296C10.6518 7.12245 10.6528 7.1206 10.6544 7.11905L11.2306 6.56143C11.2356 6.55658 11.2444 6.55169 11.2579 6.55167C11.2715 6.55167 11.2802 6.55656 11.2852 6.56143ZM22.6524 6.56143L23.2286 7.11905C23.2302 7.1206 23.2312 7.12245 23.2315 7.12296V7.12491C23.2312 7.12537 23.23 7.12644 23.2286 7.12784L22.6524 7.68643C22.6475 7.69125 22.6385 7.69612 22.6251 7.6962C22.6116 7.6962 22.6028 7.69122 22.5977 7.68643L22.0216 7.12784L22.0177 7.12393L22.0186 7.12296C22.019 7.12245 22.02 7.1206 22.0216 7.11905L22.5977 6.56143C22.6028 6.55656 22.6116 6.55167 22.6251 6.55167C22.6384 6.55175 22.6474 6.55655 22.6524 6.56143ZM18.7159 5.83389L16.9893 7.50577L15.2628 5.83389L16.9893 4.16104L18.7159 5.83389Z" stroke="black"/>
</g>
<defs>
<clipPath id="clip0_48_845">
<rect width="34" height="34" fill="white"/>
</clipPath>
</defs>
</svg>
