<svg width="93" height="93" viewBox="0 0 93 93" fill="none" xmlns="http://www.w3.org/2000/svg">
<path d="M77.6051 47.9883C80.6325 55.2972 81.4248 63.3395 79.8815 71.0986C78.4684 78.2028 75.156 84.7779 70.3131 90.1309C69.5721 90.9499 68.3012 90.9461 67.5202 90.165L42.0641 64.709C41.2831 63.9284 40.0169 63.9283 39.236 64.709L13.7799 90.165C12.999 90.9459 11.729 90.9496 10.9879 90.1309C6.14515 84.7779 2.83174 78.2028 1.41864 71.0986C-0.124674 63.3396 0.667661 55.2971 3.69501 47.9883C5.27159 44.1821 7.41899 40.6646 10.0426 37.5459C10.3821 44.0186 12.8452 50.2424 17.1129 55.2568C22.0925 61.1076 29.1513 64.8729 36.8532 65.7852L39.5612 43.667C37.5788 43.4322 35.7619 42.4629 34.4801 40.957C33.1983 39.451 32.548 37.5205 32.6618 35.5596C32.7756 33.5988 33.6449 31.7541 35.0924 30.4014C36.54 29.0487 38.4571 28.2898 40.4538 28.2783C42.4506 28.2669 44.3769 29.0037 45.8405 30.3398C47.304 31.6759 48.1946 33.5104 48.3317 35.4697C48.4687 37.4292 47.8416 39.367 46.5778 40.8877C45.3139 42.4082 43.5085 43.3978 41.529 43.6553L44.4987 65.7412C52.1893 64.7407 59.203 60.8949 64.1129 54.9873C68.3182 49.9275 70.708 43.6807 70.9733 37.209C73.7272 40.4102 75.9717 44.0448 77.6051 47.9883ZM70.9274 33.9414C71.0038 35.0338 71.0177 36.1246 70.9733 37.209C68.623 34.477 65.9016 32.06 62.8727 30.0361C56.2948 25.6411 48.5611 23.2949 40.65 23.2949C32.7389 23.295 25.0053 25.641 18.4274 30.0361C15.2749 32.1425 12.4572 34.6758 10.0426 37.5459C9.98605 36.4663 9.98633 35.38 10.0495 34.291C10.4914 26.673 13.8679 19.5067 19.4918 14.251C25.1158 8.99534 32.5645 6.04452 40.3219 6.00002C48.0793 5.95557 55.5628 8.82093 61.2487 14.0117C66.9343 19.2025 70.3951 26.3292 70.9274 33.9414ZM34.2926 16.207C34.6831 15.8165 34.683 15.1835 34.2926 14.793L33.2067 13.707C32.8162 13.3165 32.1831 13.3165 31.7926 13.707L30.7067 14.793C30.3163 15.1835 30.3162 15.8165 30.7067 16.207L31.7926 17.293C32.1831 17.6833 32.8162 17.6833 33.2067 17.293L34.2926 16.207ZM45.5426 14.207C45.9331 13.8165 45.9331 13.1835 45.5426 12.793L41.4567 8.70705C41.0662 8.31666 40.4331 8.31657 40.0426 8.70705L35.9567 12.793C35.5665 13.1835 35.5664 13.8166 35.9567 14.207L40.0426 18.293C40.4331 18.6834 41.0661 18.6832 41.4567 18.293L45.5426 14.207ZM50.4928 16.207C50.8833 15.8165 50.8832 15.1835 50.4928 14.793L49.4069 13.707C49.0164 13.3165 48.3833 13.3165 47.9928 13.707L46.9069 14.793C46.5165 15.1835 46.5164 15.8166 46.9069 16.207L47.9928 17.293C48.3833 17.6833 49.0164 17.6833 49.4069 17.293L50.4928 16.207Z" fill="#2D2749"/>
<path d="M10.0426 37.5459C10.3821 44.0186 12.8452 50.2424 17.1129 55.2568C22.0925 61.1076 29.1513 64.8729 36.8532 65.7852L39.5612 43.667C37.5788 43.4322 35.7619 42.4629 34.4801 40.957C33.1983 39.451 32.548 37.5205 32.6618 35.5596C32.7756 33.5988 33.6449 31.7541 35.0924 30.4014C36.54 29.0487 38.4571 28.2898 40.4538 28.2783C42.4506 28.2669 44.3769 29.0037 45.8405 30.3398C47.304 31.6759 48.1946 33.5104 48.3317 35.4697C48.4687 37.4292 47.8416 39.367 46.5778 40.8877C45.3139 42.4082 43.5085 43.3978 41.529 43.6553L44.4987 65.7412C52.1893 64.7407 59.203 60.8949 64.1129 54.9873C68.3182 49.9275 70.708 43.6807 70.9733 37.209C68.623 34.477 65.9016 32.06 62.8727 30.0361C56.2948 25.6411 48.5611 23.2949 40.65 23.2949C32.7389 23.295 25.0053 25.641 18.4274 30.0361C15.2749 32.1425 12.4572 34.6758 10.0426 37.5459Z" fill="white"/>
<path d="M45.5426 14.207C45.9331 13.8165 45.9331 13.1835 45.5426 12.793L41.4567 8.70705C41.0662 8.31666 40.4331 8.31657 40.0426 8.70705L35.9567 12.793C35.5665 13.1835 35.5664 13.8166 35.9567 14.207L40.0426 18.293C40.4331 18.6834 41.0661 18.6832 41.4567 18.293L45.5426 14.207Z" fill="white"/>
<path d="M34.2926 16.207C34.6831 15.8165 34.683 15.1835 34.2926 14.793L33.2067 13.707C32.8162 13.3165 32.1831 13.3165 31.7926 13.707L30.7067 14.793C30.3163 15.1835 30.3162 15.8165 30.7067 16.207L31.7926 17.293C32.1831 17.6833 32.8162 17.6833 33.2067 17.293L34.2926 16.207Z" fill="white"/>
<path d="M50.4928 16.207C50.8833 15.8165 50.8832 15.1835 50.4928 14.793L49.4069 13.707C49.0164 13.3165 48.3833 13.3165 47.9928 13.707L46.9069 14.793C46.5165 15.1835 46.5164 15.8166 46.9069 16.207L47.9928 17.293C48.3833 17.6833 49.0164 17.6833 49.4069 17.293L50.4928 16.207Z" fill="white"/>
<path d="M89.1443 83.6094C89.3865 83.6094 89.5948 83.5898 89.7693 83.5508C89.9438 83.5117 90.087 83.4297 90.199 83.3047C90.311 83.1797 90.3943 83 90.449 82.7656C90.5011 82.5286 90.5271 82.2148 90.5271 81.8242V79.3984H90.9998V81.9219C90.9998 82.3516 90.9659 82.707 90.8982 82.9883C90.8279 83.2669 90.7211 83.4896 90.5779 83.6562C90.432 83.8203 90.2485 83.9349 90.0271 84C89.8057 84.0651 89.5427 84.0977 89.238 84.0977H85.6326V83.6094H89.1443ZM88.3201 71.9766C88.8018 71.9766 89.2185 72.0638 89.5701 72.2383C89.919 72.4128 90.2081 72.6523 90.4373 72.957C90.6638 73.2617 90.8318 73.6211 90.9412 74.0352C91.0505 74.4492 91.1052 74.8958 91.1052 75.375C91.1052 75.8568 91.0505 76.306 90.9412 76.7227C90.8318 77.1393 90.6638 77.5013 90.4373 77.8086C90.2081 78.1159 89.919 78.3568 89.5701 78.5312C89.2185 78.7057 88.8018 78.793 88.3201 78.793C87.9998 78.793 87.7094 78.7526 87.449 78.6719C87.186 78.5911 86.9516 78.4779 86.7458 78.332C86.5375 78.1862 86.3578 78.0104 86.2068 77.8047C86.0557 77.5964 85.9307 77.3659 85.8318 77.1133C85.7302 76.8581 85.656 76.5846 85.6091 76.293C85.5597 76.0013 85.5349 75.6953 85.5349 75.375C85.5349 74.8958 85.5896 74.4492 85.699 74.0352C85.8083 73.6211 85.9776 73.2617 86.2068 72.957C86.4333 72.6523 86.7224 72.4128 87.074 72.2383C87.4229 72.0638 87.8383 71.9766 88.3201 71.9766ZM88.3201 72.4805C87.9399 72.4805 87.6039 72.543 87.3123 72.668C87.0206 72.7904 86.7758 72.9727 86.5779 73.2148C86.3774 73.457 86.2263 73.7591 86.1248 74.1211C86.0206 74.4805 85.9685 74.8984 85.9685 75.375C85.9685 75.8516 86.0206 76.2721 86.1248 76.6367C86.2289 76.9987 86.3813 77.3021 86.5818 77.5469C86.7797 77.7917 87.0258 77.9766 87.3201 78.1016C87.6117 78.2266 87.9451 78.2891 88.3201 78.2891C88.7003 78.2891 89.0362 78.2266 89.3279 78.1016C89.6195 77.9766 89.8656 77.7917 90.0662 77.5469C90.2641 77.3021 90.4151 76.9987 90.5193 76.6367C90.6208 76.2721 90.6716 75.8516 90.6716 75.375C90.6716 74.8984 90.6208 74.4805 90.5193 74.1211C90.4151 73.7591 90.2641 73.457 90.0662 73.2148C89.8656 72.9727 89.6195 72.7904 89.3279 72.668C89.0362 72.543 88.7003 72.4805 88.3201 72.4805ZM85.5349 67.3828C85.5349 67.1354 85.5479 66.9049 85.574 66.6914C85.5974 66.4779 85.6326 66.2734 85.6794 66.0781C85.7237 65.8828 85.7784 65.6927 85.8435 65.5078C85.906 65.3229 85.9763 65.1367 86.0544 64.9492H86.6482C86.5544 65.0977 86.4659 65.2565 86.3826 65.4258C86.2992 65.5924 86.2263 65.7734 86.1638 65.9687C86.1013 66.1615 86.0518 66.3698 86.0154 66.5937C85.9789 66.8151 85.9607 67.0534 85.9607 67.3086C85.9607 67.8294 86.0154 68.2839 86.1248 68.6719C86.2341 69.0599 86.3904 69.3828 86.5935 69.6406C86.7966 69.8984 87.044 70.0924 87.3357 70.2227C87.6274 70.3503 87.9555 70.4141 88.3201 70.4141C88.6612 70.4141 88.9763 70.3516 89.2654 70.2266C89.5518 70.099 89.7992 69.9076 90.0076 69.6523C90.2159 69.3945 90.3787 69.0729 90.4958 68.6875C90.613 68.3021 90.6716 67.8503 90.6716 67.332C90.6716 67.1289 90.6638 66.9284 90.6482 66.7305C90.6326 66.5299 90.613 66.3411 90.5896 66.1641C90.5636 65.987 90.5362 65.8255 90.5076 65.6797C90.4763 65.5339 90.4451 65.4102 90.4138 65.3086H88.7849V67.4922H88.3279V64.8203H90.6873C90.755 65.013 90.8149 65.2083 90.8669 65.4062C90.919 65.6016 90.9633 65.8047 90.9998 66.0156C91.0336 66.224 91.0597 66.4414 91.0779 66.668C91.0961 66.8919 91.1052 67.1276 91.1052 67.375C91.1052 67.8802 91.0492 68.349 90.9373 68.7812C90.8227 69.2135 90.6508 69.5885 90.4216 69.9062C90.1899 70.2214 89.8995 70.4687 89.5505 70.6484C89.2016 70.8281 88.7914 70.918 88.3201 70.918C88.005 70.918 87.7185 70.8763 87.4607 70.793C87.2003 70.7096 86.9672 70.5924 86.7615 70.4414C86.5531 70.2878 86.3722 70.1042 86.2185 69.8906C86.0649 69.6745 85.9386 69.4362 85.8396 69.1758C85.738 68.9128 85.6625 68.6302 85.613 68.3281C85.561 68.026 85.5349 67.7109 85.5349 67.3828ZM88.3201 56.8203C88.8018 56.8203 89.2185 56.9076 89.5701 57.082C89.919 57.2565 90.2081 57.4961 90.4373 57.8008C90.6638 58.1055 90.8318 58.4648 90.9412 58.8789C91.0505 59.293 91.1052 59.7396 91.1052 60.2187C91.1052 60.7005 91.0505 61.1497 90.9412 61.5664C90.8318 61.9831 90.6638 62.3451 90.4373 62.6523C90.2081 62.9596 89.919 63.2005 89.5701 63.375C89.2185 63.5495 88.8018 63.6367 88.3201 63.6367C87.9998 63.6367 87.7094 63.5964 87.449 63.5156C87.186 63.4349 86.9516 63.3216 86.7458 63.1758C86.5375 63.0299 86.3578 62.8542 86.2068 62.6484C86.0557 62.4401 85.9307 62.2096 85.8318 61.957C85.7302 61.7018 85.656 61.4284 85.6091 61.1367C85.5597 60.8451 85.5349 60.5391 85.5349 60.2187C85.5349 59.7396 85.5896 59.293 85.699 58.8789C85.8083 58.4648 85.9776 58.1055 86.2068 57.8008C86.4333 57.4961 86.7224 57.2565 87.074 57.082C87.4229 56.9076 87.8383 56.8203 88.3201 56.8203ZM88.3201 57.3242C87.9399 57.3242 87.6039 57.3867 87.3123 57.5117C87.0206 57.6341 86.7758 57.8164 86.5779 58.0586C86.3774 58.3008 86.2263 58.6029 86.1248 58.9648C86.0206 59.3242 85.9685 59.7422 85.9685 60.2187C85.9685 60.6953 86.0206 61.1159 86.1248 61.4805C86.2289 61.8424 86.3813 62.1458 86.5818 62.3906C86.7797 62.6354 87.0258 62.8203 87.3201 62.9453C87.6117 63.0703 87.9451 63.1328 88.3201 63.1328C88.7003 63.1328 89.0362 63.0703 89.3279 62.9453C89.6195 62.8203 89.8656 62.6354 90.0662 62.3906C90.2641 62.1458 90.4151 61.8424 90.5193 61.4805C90.6208 61.1159 90.6716 60.6953 90.6716 60.2187C90.6716 59.7422 90.6208 59.3242 90.5193 58.9648C90.4151 58.6029 90.2641 58.3008 90.0662 58.0586C89.8656 57.8164 89.6195 57.6341 89.3279 57.5117C89.0362 57.3867 88.7003 57.3242 88.3201 57.3242ZM91.9763 56.2891H91.5271V52.2891H91.9763V56.2891ZM90.9998 51.3867H85.6326V50.8984H90.9998V51.3867ZM90.574 43.5859C90.6521 43.7734 90.7237 43.9596 90.7888 44.1445C90.8539 44.3268 90.9099 44.5169 90.9568 44.7148C91.0037 44.9128 91.0401 45.1211 91.0662 45.3398C91.0922 45.5586 91.1052 45.7969 91.1052 46.0547C91.1052 46.3724 91.0792 46.6784 91.0271 46.9727C90.975 47.2643 90.8969 47.5365 90.7927 47.7891C90.6886 48.0417 90.5597 48.2708 90.406 48.4766C90.2498 48.6823 90.0688 48.8594 89.863 49.0078C89.6573 49.1536 89.4255 49.2669 89.1677 49.3477C88.9099 49.4258 88.6274 49.4648 88.3201 49.4648C88.0128 49.4648 87.7302 49.4258 87.4724 49.3477C87.2146 49.2669 86.9828 49.1536 86.7771 49.0078C86.5714 48.8594 86.3917 48.6823 86.238 48.4766C86.0818 48.2708 85.9516 48.0417 85.8474 47.7891C85.7432 47.5365 85.6651 47.2643 85.613 46.9727C85.561 46.681 85.5349 46.375 85.5349 46.0547C85.5349 45.7969 85.5479 45.5586 85.574 45.3398C85.6 45.1211 85.6365 44.9128 85.6833 44.7148C85.7302 44.5169 85.7862 44.3268 85.8513 44.1445C85.9138 43.9596 85.9841 43.7734 86.0623 43.5859H86.6482C86.5544 43.7344 86.4659 43.8932 86.3826 44.0625C86.2992 44.2318 86.2263 44.4154 86.1638 44.6133C86.1013 44.8086 86.0518 45.0182 86.0154 45.2422C85.9789 45.4661 85.9607 45.7057 85.9607 45.9609C85.9607 46.4766 86.0167 46.9232 86.1287 47.3008C86.2406 47.6784 86.3995 47.9909 86.6052 48.2383C86.8083 48.4831 87.0557 48.6654 87.3474 48.7852C87.6365 48.9023 87.9607 48.9609 88.3201 48.9609C88.6794 48.9609 89.0037 48.9023 89.2927 48.7852C89.5818 48.6654 89.8292 48.4831 90.0349 48.2383C90.238 47.9909 90.3956 47.6784 90.5076 47.3008C90.6169 46.9232 90.6716 46.4766 90.6716 45.9609C90.6716 45.7057 90.6534 45.4648 90.6169 45.2383C90.5805 45.0091 90.531 44.7956 90.4685 44.5977C90.406 44.3971 90.3344 44.2135 90.2537 44.0469C90.1703 43.8776 90.0831 43.724 89.9919 43.5859H90.574ZM88.3201 35.6953C88.8018 35.6953 89.2185 35.7826 89.5701 35.957C89.919 36.1315 90.2081 36.3711 90.4373 36.6758C90.6638 36.9805 90.8318 37.3398 90.9412 37.7539C91.0505 38.168 91.1052 38.6146 91.1052 39.0937C91.1052 39.5755 91.0505 40.0247 90.9412 40.4414C90.8318 40.8581 90.6638 41.2201 90.4373 41.5273C90.2081 41.8346 89.919 42.0755 89.5701 42.25C89.2185 42.4245 88.8018 42.5117 88.3201 42.5117C87.9998 42.5117 87.7094 42.4714 87.449 42.3906C87.186 42.3099 86.9516 42.1966 86.7458 42.0508C86.5375 41.9049 86.3578 41.7292 86.2068 41.5234C86.0557 41.3151 85.9307 41.0846 85.8318 40.832C85.7302 40.5768 85.656 40.3034 85.6091 40.0117C85.5596 39.7201 85.5349 39.4141 85.5349 39.0937C85.5349 38.6146 85.5896 38.168 85.699 37.7539C85.8083 37.3398 85.9776 36.9805 86.2068 36.6758C86.4333 36.3711 86.7224 36.1315 87.074 35.957C87.4229 35.7826 87.8383 35.6953 88.3201 35.6953ZM88.3201 36.1992C87.9399 36.1992 87.6039 36.2617 87.3123 36.3867C87.0206 36.5091 86.7758 36.6914 86.5779 36.9336C86.3774 37.1758 86.2263 37.4779 86.1248 37.8398C86.0206 38.1992 85.9685 38.6172 85.9685 39.0937C85.9685 39.5703 86.0206 39.9909 86.1248 40.3555C86.2289 40.7174 86.3813 41.0208 86.5818 41.2656C86.7797 41.5104 87.0258 41.6953 87.3201 41.8203C87.6117 41.9453 87.9451 42.0078 88.3201 42.0078C88.7003 42.0078 89.0362 41.9453 89.3279 41.8203C89.6195 41.6953 89.8656 41.5104 90.0662 41.2656C90.2641 41.0208 90.4151 40.7174 90.5193 40.3555C90.6208 39.9909 90.6716 39.5703 90.6716 39.0937C90.6716 38.6172 90.6208 38.1992 90.5193 37.8398C90.4151 37.4779 90.2641 37.1758 90.0662 36.9336C89.8656 36.6914 89.6195 36.5091 89.3279 36.3867C89.0362 36.2617 88.7003 36.1992 88.3201 36.1992ZM90.9998 29.0664H87.4568C87.1599 29.0664 86.9164 29.1068 86.7263 29.1875C86.5336 29.2656 86.3813 29.3789 86.2693 29.5273C86.1573 29.6732 86.0792 29.8516 86.0349 30.0625C85.9906 30.2734 85.9685 30.5104 85.9685 30.7734C85.9685 31.0781 86.0063 31.3776 86.0818 31.6719C86.1547 31.9635 86.2485 32.2396 86.363 32.5C86.475 32.7604 86.6 33 86.738 33.2187C86.8761 33.4375 87.0089 33.6224 87.1365 33.7734H90.9998V34.2617H85.6326V33.7734H86.574C86.4594 33.5911 86.3396 33.3906 86.2146 33.1719C86.087 32.9505 85.9711 32.7135 85.8669 32.4609C85.7602 32.2057 85.6729 31.9336 85.6052 31.6445C85.5375 31.3555 85.5037 31.0508 85.5037 30.7305C85.5037 30.3685 85.5479 30.0534 85.6365 29.7852C85.7224 29.5143 85.8461 29.2904 86.0076 29.1133C86.1664 28.9336 86.3604 28.7995 86.5896 28.7109C86.8162 28.6224 87.0701 28.5781 87.3513 28.5781H90.9998V29.0664Z" fill="#2D2749"/>
</svg>
