<svg width="275" height="234" viewBox="0 0 275 234" fill="none" xmlns="http://www.w3.org/2000/svg">
<path fill-rule="evenodd" clip-rule="evenodd" d="M227.656 6.34328C231.561 2.43815 237.924 2.4157 241.535 6.59431C257.058 24.5561 267.704 46.28 272.358 69.6748C277.663 96.3472 274.941 123.994 264.534 149.119C254.127 174.244 236.503 195.718 213.891 210.827C191.279 225.936 164.695 234 137.5 234C110.305 234 83.7206 225.936 61.109 210.827C38.4972 195.718 20.8734 174.244 10.4664 149.119C0.0593358 123.994 -2.6633 96.3472 2.64217 69.6748C7.29572 46.2801 17.9426 24.5563 33.465 6.59444C37.0762 2.41577 43.4389 2.43829 47.3441 6.34353L69.2642 28.2637C51.801 45.7268 40.9996 69.8521 40.9996 96.5C40.9996 149.795 84.2043 193 137.5 193C190.795 193 234 149.795 234 96.5C234 69.8519 223.198 45.7268 205.735 28.2637L227.656 6.34328ZM137.5 0C164.147 0 188.272 10.801 205.735 28.2637L144.571 89.4288C140.665 93.3341 134.334 93.3341 130.428 89.4288L69.2642 28.2637C86.7272 10.8009 110.852 8.4537e-05 137.5 0Z" fill="#3A505F"/>
</svg>
