<svg width="141" height="17" viewBox="0 0 141 17" fill="none" xmlns="http://www.w3.org/2000/svg">
<path d="M0.609375 4.51172V4.14453L4.41406 2.42578V2.87109L1.17578 4.32812L4.41406 5.77734V6.22266L0.609375 4.51172ZM14.3984 6.71875C14.1797 6.78646 13.9766 6.84505 13.7891 6.89453C13.6016 6.94141 13.4167 6.97917 13.2344 7.00781C13.0521 7.03906 12.8659 7.0612 12.6758 7.07422C12.4883 7.08984 12.2812 7.09766 12.0547 7.09766C11.5286 7.09766 11.0534 7.03385 10.6289 6.90625C10.2044 6.77865 9.84245 6.59635 9.54297 6.35938C9.24609 6.11979 9.01693 5.83073 8.85547 5.49219C8.69401 5.15365 8.61328 4.77344 8.61328 4.35156C8.61328 3.94271 8.6901 3.56771 8.84375 3.22656C9 2.88542 9.21745 2.59245 9.49609 2.34766C9.77474 2.10286 10.1081 1.91276 10.4961 1.77734C10.8841 1.64193 11.3125 1.57422 11.7812 1.57422C12.2682 1.57422 12.7018 1.63932 13.082 1.76953C13.4622 1.89974 13.7826 2.08594 14.043 2.32813C14.3034 2.57031 14.5013 2.86458 14.6367 3.21094C14.7721 3.55469 14.8398 3.94271 14.8398 4.375V4.49609H9.11719C9.14583 4.82943 9.22917 5.13021 9.36719 5.39844C9.50521 5.66667 9.70052 5.89453 9.95312 6.08203C10.2083 6.26953 10.5208 6.41406 10.8906 6.51563C11.263 6.61458 11.6966 6.66406 12.1914 6.66406C12.4023 6.66406 12.6159 6.64974 12.832 6.62109C13.0482 6.59245 13.2552 6.55469 13.4531 6.50781C13.651 6.45833 13.832 6.40365 13.9961 6.34375C14.1602 6.28125 14.2943 6.21745 14.3984 6.15234L14.3984 6.71875ZM14.3594 4.07031C14.3411 3.79688 14.2799 3.53646 14.1758 3.28906C14.0716 3.03906 13.9154 2.81901 13.707 2.62891C13.5013 2.4388 13.2383 2.28776 12.918 2.17578C12.6003 2.0638 12.2188 2.00781 11.7734 2.00781C11.3542 2.00781 10.987 2.0638 10.6719 2.17578C10.3568 2.28776 10.0898 2.4388 9.87109 2.62891C9.65234 2.81641 9.48047 3.03516 9.35547 3.28516C9.23047 3.53255 9.15104 3.79427 9.11719 4.07031H14.3594ZM16.7578 1.63281V2.45703C16.8724 2.35807 17 2.2526 17.1406 2.14063C17.2812 2.02865 17.4362 1.92578 17.6055 1.83203C17.7747 1.73828 17.9583 1.66016 18.1562 1.59766C18.3542 1.53516 18.5664 1.50391 18.793 1.50391C19.1549 1.50391 19.4753 1.58594 19.7539 1.75C20.0326 1.91146 20.2578 2.16276 20.4297 2.50391C20.5964 2.35026 20.7682 2.21224 20.9453 2.08984C21.1224 1.96484 21.3034 1.85938 21.4883 1.77344C21.6758 1.6875 21.8685 1.62109 22.0664 1.57422C22.2643 1.52734 22.4688 1.50391 22.6797 1.50391C22.9479 1.50391 23.1914 1.54948 23.4102 1.64063C23.6315 1.73177 23.819 1.85677 23.9727 2.01563C24.1263 2.17448 24.2448 2.36198 24.3281 2.57813C24.4141 2.79167 24.457 3.02083 24.457 3.26563V7H23.9688V3.39063C23.9688 3.16667 23.9414 2.96745 23.8867 2.79297C23.8346 2.61589 23.7513 2.46615 23.6367 2.34375C23.5247 2.22135 23.3802 2.12891 23.2031 2.06641C23.0286 2.0013 22.819 1.96875 22.5742 1.96875C22.3789 1.96875 22.1849 1.9974 21.9922 2.05469C21.8021 2.10938 21.6198 2.18359 21.4453 2.27734C21.2708 2.36849 21.1081 2.47266 20.957 2.58984C20.806 2.70703 20.6732 2.82813 20.5586 2.95313C20.5716 3.02604 20.5781 3.08854 20.5781 3.14063C20.5807 3.19271 20.582 3.25521 20.582 3.32813V7H20.0938V3.39063C20.0938 3.125 20.0586 2.90234 19.9883 2.72266C19.918 2.54036 19.8203 2.39323 19.6953 2.28125C19.5703 2.16927 19.4219 2.08984 19.25 2.04297C19.0807 1.99349 18.8958 1.96875 18.6953 1.96875C18.5052 1.96875 18.3164 2.0013 18.1289 2.06641C17.944 2.13151 17.7669 2.21615 17.5977 2.32031C17.4284 2.42448 17.2721 2.54167 17.1289 2.67188C16.9857 2.79948 16.862 2.92708 16.7578 3.05469V7H16.2695V1.63281H16.7578ZM31.4727 3.28125C31.4727 3.54948 31.4284 3.78646 31.3398 3.99219C31.2539 4.19792 31.1172 4.37109 30.9297 4.51172C30.7422 4.65234 30.5 4.75911 30.2031 4.83203C29.9089 4.90234 29.5534 4.9375 29.1367 4.9375L26.7266 4.9375V7H26.2383V1.63281L29.1367 1.63281C29.5534 1.63281 29.9089 1.66927 30.2031 1.74219C30.5 1.8125 30.7422 1.91667 30.9297 2.05469C31.1172 2.19271 31.2539 2.36458 31.3398 2.57031C31.4284 2.77604 31.4727 3.01302 31.4727 3.28125ZM30.9688 3.28125C30.9688 3.02604 30.9258 2.82031 30.8398 2.66406C30.7565 2.50781 30.6263 2.38802 30.4492 2.30469C30.2747 2.21875 30.0521 2.16146 29.7812 2.13281C29.513 2.10417 29.194 2.08984 28.8242 2.08984H26.7266V4.48047H28.8242C28.9674 4.48047 29.1198 4.48177 29.2812 4.48438C29.4453 4.48438 29.6068 4.47656 29.7656 4.46094C29.9245 4.44271 30.0755 4.41276 30.2188 4.37109C30.3646 4.32682 30.4922 4.26042 30.6016 4.17188C30.7135 4.08333 30.8021 3.96745 30.8672 3.82422C30.9349 3.68099 30.9688 3.5 30.9688 3.28125ZM34.9688 2.07813V7H34.4844V2.07813H32.043V1.63281L37.4102 1.63281V2.07813L34.9688 2.07813ZM43.9453 5.03906C43.9453 5.39063 43.8633 5.69531 43.6992 5.95313C43.5352 6.20833 43.3086 6.42057 43.0195 6.58984C42.7331 6.75911 42.3932 6.88542 42 6.96875C41.6094 7.04948 41.1862 7.08984 40.7305 7.08984C40.2357 7.08984 39.7812 7.05859 39.3672 6.99609C38.9531 6.93099 38.5911 6.84115 38.2812 6.72656V6.16016C38.4479 6.23047 38.6198 6.29557 38.7969 6.35547C38.974 6.41536 39.1628 6.46875 39.3633 6.51563C39.5638 6.5599 39.7773 6.59505 40.0039 6.62109C40.2331 6.64453 40.4805 6.65625 40.7461 6.65625C41.1211 6.65625 41.4727 6.62109 41.8008 6.55078C42.1289 6.47786 42.4141 6.3737 42.6562 6.23828C42.901 6.10026 43.0938 5.93099 43.2344 5.73047C43.3776 5.52995 43.4492 5.29948 43.4492 5.03906V4.02344C43.3242 4.19271 43.1706 4.35547 42.9883 4.51172C42.8086 4.66536 42.6068 4.80208 42.3828 4.92188C42.1615 5.03906 41.9206 5.13411 41.6602 5.20703C41.3997 5.27734 41.125 5.3125 40.8359 5.3125C40.5078 5.3125 40.2161 5.28255 39.9609 5.22266C39.7083 5.16016 39.487 5.07552 39.2969 4.96875C39.1094 4.86198 38.9505 4.73568 38.8203 4.58984C38.6901 4.44141 38.5846 4.28125 38.5039 4.10938C38.4258 3.9349 38.3685 3.7526 38.332 3.5625C38.2982 3.3724 38.2812 3.17969 38.2812 2.98438V1.63281H38.7773V2.87891C38.7773 3.17839 38.8125 3.45052 38.8828 3.69531C38.9557 3.9401 39.0742 4.14974 39.2383 4.32422C39.4023 4.4987 39.6172 4.63411 39.8828 4.73047C40.151 4.82422 40.4818 4.87109 40.875 4.87109C41.1797 4.87109 41.4596 4.83073 41.7148 4.75C41.9701 4.66667 42.2031 4.55599 42.4141 4.41797C42.625 4.27734 42.8164 4.11589 42.9883 3.93359C43.1602 3.7513 43.3138 3.5599 43.4492 3.35938V1.63281H43.9453V5.03906ZM44.8516 7.97656V7.52734L48.8516 7.52734V7.97656L44.8516 7.97656ZM54.0898 2.42578C53.9883 2.3763 53.8711 2.32422 53.7383 2.26953C53.6055 2.21224 53.4531 2.16146 53.2812 2.11719C53.112 2.07292 52.9206 2.03646 52.707 2.00781C52.4935 1.97656 52.2565 1.96094 51.9961 1.96094C51.681 1.96094 51.3997 1.97917 51.1523 2.01563C50.9076 2.05208 50.6992 2.10938 50.5273 2.1875C50.3581 2.26302 50.2279 2.35938 50.1367 2.47656C50.0482 2.59375 50.0039 2.73307 50.0039 2.89453C50.0039 3.02995 50.0456 3.14844 50.1289 3.25C50.2148 3.35156 50.3294 3.44141 50.4727 3.51953C50.6185 3.59766 50.7878 3.66927 50.9805 3.73438C51.1758 3.79688 51.3815 3.85677 51.5977 3.91406C51.8164 3.96875 52.0404 4.02474 52.2695 4.08203C52.5013 4.13932 52.7253 4.20182 52.9414 4.26953C53.1602 4.33464 53.3659 4.40885 53.5586 4.49219C53.7539 4.57292 53.9232 4.66797 54.0664 4.77734C54.2122 4.88672 54.3268 5.01172 54.4102 5.15234C54.4961 5.29297 54.5391 5.45573 54.5391 5.64063C54.5391 5.84115 54.5013 6.01693 54.4258 6.16797C54.3503 6.31641 54.2474 6.44531 54.1172 6.55469C53.9896 6.66146 53.8385 6.7513 53.6641 6.82422C53.4922 6.89453 53.3073 6.95052 53.1094 6.99219C52.9141 7.03385 52.7109 7.0625 52.5 7.07813C52.2917 7.09635 52.0859 7.10547 51.8828 7.10547C51.4167 7.10547 50.9935 7.07161 50.6133 7.00391C50.2357 6.9362 49.875 6.84375 49.5312 6.72656V6.12891C49.8854 6.33984 50.2591 6.48438 50.6523 6.5625C51.0482 6.64063 51.4635 6.67969 51.8984 6.67969C52.2057 6.67969 52.4896 6.66146 52.75 6.625C53.0104 6.58854 53.2357 6.53125 53.4258 6.45313C53.6159 6.3724 53.763 6.26823 53.8672 6.14063C53.974 6.01302 54.0273 5.85677 54.0273 5.67188C54.0273 5.52344 53.9844 5.39323 53.8984 5.28125C53.8151 5.16927 53.7005 5.07161 53.5547 4.98828C53.4115 4.90234 53.2422 4.82682 53.0469 4.76172C52.8542 4.69661 52.6497 4.63672 52.4336 4.58203C52.2174 4.52474 51.9935 4.47005 51.7617 4.41797C51.5326 4.36328 51.3099 4.30469 51.0938 4.24219C50.8776 4.17969 50.6719 4.10938 50.4766 4.03125C50.2839 3.95313 50.1146 3.86198 49.9688 3.75781C49.8255 3.65104 49.7109 3.52865 49.625 3.39063C49.5417 3.2526 49.5 3.09245 49.5 2.91016C49.5 2.73047 49.5339 2.57161 49.6016 2.43359C49.6693 2.29297 49.7617 2.17188 49.8789 2.07031C49.9987 1.96875 50.138 1.88411 50.2969 1.81641C50.4557 1.74609 50.625 1.69141 50.8047 1.65234C50.987 1.61068 51.1758 1.58073 51.3711 1.5625C51.5664 1.54427 51.7591 1.53516 51.9492 1.53516C52.1576 1.53516 52.3542 1.54427 52.5391 1.5625C52.7266 1.58073 52.9062 1.60547 53.0781 1.63672C53.2526 1.66536 53.4219 1.69922 53.5859 1.73828C53.7526 1.77734 53.9206 1.81901 54.0898 1.86328V2.42578ZM61.2852 3.28125C61.2852 3.54948 61.2409 3.78646 61.1523 3.99219C61.0664 4.19792 60.9297 4.37109 60.7422 4.51172C60.5547 4.65234 60.3125 4.75911 60.0156 4.83203C59.7214 4.90234 59.3659 4.9375 58.9492 4.9375H56.5391V7H56.0508V1.63281L58.9492 1.63281C59.3659 1.63281 59.7214 1.66927 60.0156 1.74219C60.3125 1.8125 60.5547 1.91667 60.7422 2.05469C60.9297 2.19271 61.0664 2.36458 61.1523 2.57031C61.2409 2.77604 61.2852 3.01302 61.2852 3.28125ZM60.7812 3.28125C60.7812 3.02604 60.7383 2.82031 60.6523 2.66406C60.569 2.50781 60.4388 2.38802 60.2617 2.30469C60.0872 2.21875 59.8646 2.16146 59.5938 2.13281C59.3255 2.10417 59.0065 2.08984 58.6367 2.08984L56.5391 2.08984V4.48047H58.6367C58.7799 4.48047 58.9323 4.48177 59.0938 4.48438C59.2578 4.48438 59.4193 4.47656 59.5781 4.46094C59.737 4.44271 59.888 4.41276 60.0312 4.37109C60.1771 4.32682 60.3047 4.26042 60.4141 4.17188C60.526 4.08333 60.6146 3.96745 60.6797 3.82422C60.7474 3.68099 60.7812 3.5 60.7812 3.28125ZM67.4648 7V6.40625C67.2773 6.50781 67.0638 6.60156 66.8242 6.6875C66.5872 6.77344 66.3359 6.84766 66.0703 6.91016C65.8073 6.97266 65.5365 7.02083 65.2578 7.05469C64.9792 7.08854 64.7057 7.10547 64.4375 7.10547C64.0885 7.10547 63.7747 7.07422 63.4961 7.01172C63.2201 6.94922 62.9857 6.85677 62.793 6.73438C62.6003 6.60938 62.4518 6.45573 62.3477 6.27344C62.2435 6.08854 62.1914 5.875 62.1914 5.63281C62.1914 5.39323 62.2513 5.18229 62.3711 5C62.4935 4.8151 62.6667 4.65495 62.8906 4.51953C63.1146 4.38151 63.3841 4.26563 63.6992 4.17188C64.0169 4.07552 64.3711 3.99479 64.7617 3.92969C65.1523 3.86198 65.5742 3.80729 66.0273 3.76563C66.4831 3.72135 66.9622 3.6849 67.4648 3.65625V3.24609C67.4648 3.07943 67.4336 2.93229 67.3711 2.80469C67.3086 2.67708 67.2214 2.56641 67.1094 2.47266C66.9974 2.3763 66.8659 2.29688 66.7148 2.23438C66.5638 2.16927 66.3997 2.11719 66.2227 2.07813C66.0482 2.03906 65.8633 2.01172 65.668 1.99609C65.4753 1.97786 65.2812 1.96875 65.0859 1.96875C64.8229 1.96875 64.5833 1.98177 64.3672 2.00781C64.151 2.03385 63.9492 2.07031 63.7617 2.11719C63.5742 2.16146 63.3945 2.21354 63.2227 2.27344C63.0508 2.33333 62.8776 2.39714 62.7031 2.46484V1.89453C63.0651 1.79818 63.4505 1.71484 63.8594 1.64453C64.2708 1.57161 64.707 1.53516 65.168 1.53516C65.5586 1.53516 65.9232 1.56901 66.2617 1.63672C66.6003 1.70182 66.8945 1.80729 67.1445 1.95313C67.3945 2.09896 67.5911 2.28776 67.7344 2.51953C67.8776 2.7487 67.9492 3.02865 67.9492 3.35938V7H67.4648ZM67.4648 4.08984C66.6133 4.13672 65.8854 4.20313 65.2812 4.28906C64.6797 4.375 64.1875 4.48047 63.8047 4.60547C63.4219 4.73047 63.1406 4.8763 62.9609 5.04297C62.7839 5.20964 62.6953 5.39844 62.6953 5.60938C62.6953 5.78125 62.7383 5.93359 62.8242 6.06641C62.9128 6.19922 63.0391 6.3112 63.2031 6.40234C63.3672 6.49089 63.5664 6.55859 63.8008 6.60547C64.0352 6.64974 64.2982 6.67188 64.5898 6.67188C64.7617 6.67188 64.9388 6.66276 65.1211 6.64453C65.306 6.6237 65.4896 6.59635 65.6719 6.5625C65.8542 6.52604 66.0339 6.48438 66.2109 6.4375C66.388 6.38802 66.5547 6.33464 66.7109 6.27734C66.8672 6.22005 67.0091 6.15885 67.1367 6.09375C67.2669 6.02865 67.3763 5.96224 67.4648 5.89453V4.08984ZM75.2188 6.57422C75.0312 6.65234 74.8451 6.72396 74.6602 6.78906C74.4779 6.85417 74.2878 6.91016 74.0898 6.95703C73.8919 7.00391 73.6836 7.04036 73.4648 7.06641C73.2461 7.09245 73.0078 7.10547 72.75 7.10547C72.4323 7.10547 72.1263 7.07943 71.832 7.02734C71.5404 6.97526 71.2682 6.89714 71.0156 6.79297C70.763 6.6888 70.5339 6.5599 70.3281 6.40625C70.1224 6.25 69.9453 6.06901 69.7969 5.86328C69.651 5.65755 69.5378 5.42578 69.457 5.16797C69.3789 4.91016 69.3398 4.6276 69.3398 4.32031C69.3398 4.01302 69.3789 3.73047 69.457 3.47266C69.5378 3.21484 69.651 2.98307 69.7969 2.77734C69.9453 2.57161 70.1224 2.39193 70.3281 2.23828C70.5339 2.08203 70.763 1.95182 71.0156 1.84766C71.2682 1.74349 71.5404 1.66536 71.832 1.61328C72.1237 1.5612 72.4297 1.53516 72.75 1.53516C73.0078 1.53516 73.2461 1.54818 73.4648 1.57422C73.6836 1.60026 73.8919 1.63672 74.0898 1.68359C74.2878 1.73047 74.4779 1.78646 74.6602 1.85156C74.8451 1.91406 75.0312 1.98438 75.2188 2.0625V2.64844C75.0703 2.55469 74.9115 2.46615 74.7422 2.38281C74.5729 2.29948 74.3893 2.22656 74.1914 2.16406C73.9961 2.10156 73.7865 2.05208 73.5625 2.01563C73.3385 1.97917 73.099 1.96094 72.8438 1.96094C72.3281 1.96094 71.8815 2.01693 71.5039 2.12891C71.1263 2.24089 70.8138 2.39974 70.5664 2.60547C70.3216 2.80859 70.1393 3.05599 70.0195 3.34766C69.9023 3.63672 69.8438 3.96094 69.8438 4.32031C69.8438 4.67969 69.9023 5.00391 70.0195 5.29297C70.1393 5.58203 70.3216 5.82943 70.5664 6.03516C70.8138 6.23828 71.1263 6.39583 71.5039 6.50781C71.8815 6.61719 72.3281 6.67188 72.8438 6.67188C73.099 6.67188 73.3398 6.65365 73.5664 6.61719C73.7956 6.58073 74.0091 6.53125 74.207 6.46875C74.4076 6.40625 74.5911 6.33464 74.7578 6.25391C74.9271 6.17057 75.0807 6.08333 75.2188 5.99219V6.57422ZM82.0781 6.71875C81.8594 6.78646 81.6562 6.84505 81.4688 6.89453C81.2812 6.94141 81.0964 6.97917 80.9141 7.00781C80.7318 7.03906 80.5456 7.0612 80.3555 7.07422C80.168 7.08984 79.9609 7.09766 79.7344 7.09766C79.2083 7.09766 78.7331 7.03385 78.3086 6.90625C77.8841 6.77865 77.5221 6.59635 77.2227 6.35938C76.9258 6.11979 76.6966 5.83073 76.5352 5.49219C76.3737 5.15365 76.293 4.77344 76.293 4.35156C76.293 3.94271 76.3698 3.56771 76.5234 3.22656C76.6797 2.88542 76.8971 2.59245 77.1758 2.34766C77.4544 2.10286 77.7878 1.91276 78.1758 1.77734C78.5638 1.64193 78.9922 1.57422 79.4609 1.57422C79.9479 1.57422 80.3815 1.63932 80.7617 1.76953C81.1419 1.89974 81.4622 2.08594 81.7227 2.32813C81.9831 2.57031 82.181 2.86458 82.3164 3.21094C82.4518 3.55469 82.5195 3.94271 82.5195 4.375V4.49609L76.7969 4.49609C76.8255 4.82943 76.9089 5.13021 77.0469 5.39844C77.1849 5.66667 77.3802 5.89453 77.6328 6.08203C77.888 6.26953 78.2005 6.41406 78.5703 6.51563C78.9427 6.61458 79.3763 6.66406 79.8711 6.66406C80.082 6.66406 80.2956 6.64974 80.5117 6.62109C80.7279 6.59245 80.9349 6.55469 81.1328 6.50781C81.3307 6.45833 81.5117 6.40365 81.6758 6.34375C81.8398 6.28125 81.974 6.21745 82.0781 6.15234V6.71875ZM82.0391 4.07031C82.0208 3.79688 81.9596 3.53646 81.8555 3.28906C81.7513 3.03906 81.5951 2.81901 81.3867 2.62891C81.181 2.4388 80.918 2.28776 80.5977 2.17578C80.2799 2.0638 79.8984 2.00781 79.4531 2.00781C79.0339 2.00781 78.6667 2.0638 78.3516 2.17578C78.0365 2.28776 77.7695 2.4388 77.5508 2.62891C77.332 2.81641 77.1602 3.03516 77.0352 3.28516C76.9102 3.53255 76.8307 3.79427 76.7969 4.07031L82.0391 4.07031ZM83.0469 7.97656V7.52734L87.0469 7.52734V7.97656L83.0469 7.97656ZM93.2461 7V4.39844L88.4375 4.39844V7H87.9492V1.63281H88.4375V3.94531L93.2461 3.94531V1.63281H93.7344V7H93.2461ZM100.953 6.71875C100.734 6.78646 100.531 6.84505 100.344 6.89453C100.156 6.94141 99.9714 6.97917 99.7891 7.00781C99.6068 7.03906 99.4206 7.0612 99.2305 7.07422C99.043 7.08984 98.8359 7.09766 98.6094 7.09766C98.0833 7.09766 97.6081 7.03385 97.1836 6.90625C96.7591 6.77865 96.3971 6.59635 96.0977 6.35938C95.8008 6.11979 95.5716 5.83073 95.4102 5.49219C95.2487 5.15365 95.168 4.77344 95.168 4.35156C95.168 3.94271 95.2448 3.56771 95.3984 3.22656C95.5547 2.88542 95.7721 2.59245 96.0508 2.34766C96.3294 2.10286 96.6628 1.91276 97.0508 1.77734C97.4388 1.64193 97.8672 1.57422 98.3359 1.57422C98.8229 1.57422 99.2565 1.63932 99.6367 1.76953C100.017 1.89974 100.337 2.08594 100.598 2.32813C100.858 2.57031 101.056 2.86458 101.191 3.21094C101.327 3.55469 101.395 3.94271 101.395 4.375V4.49609H95.6719C95.7005 4.82943 95.7839 5.13021 95.9219 5.39844C96.0599 5.66667 96.2552 5.89453 96.5078 6.08203C96.763 6.26953 97.0755 6.41406 97.4453 6.51563C97.8177 6.61458 98.2513 6.66406 98.7461 6.66406C98.957 6.66406 99.1706 6.64974 99.3867 6.62109C99.6029 6.59245 99.8099 6.55469 100.008 6.50781C100.206 6.45833 100.387 6.40365 100.551 6.34375C100.715 6.28125 100.849 6.21745 100.953 6.15234V6.71875ZM100.914 4.07031C100.896 3.79688 100.835 3.53646 100.73 3.28906C100.626 3.03906 100.47 2.81901 100.262 2.62891C100.056 2.4388 99.793 2.28776 99.4727 2.17578C99.1549 2.0638 98.7734 2.00781 98.3281 2.00781C97.9089 2.00781 97.5417 2.0638 97.2266 2.17578C96.9115 2.28776 96.6445 2.4388 96.4258 2.62891C96.207 2.81641 96.0352 3.03516 95.9102 3.28516C95.7852 3.53255 95.7057 3.79427 95.6719 4.07031H100.914ZM106.801 2.04688C106.725 2.02344 106.62 1.9987 106.484 1.97266C106.352 1.94401 106.18 1.92969 105.969 1.92969C105.677 1.92969 105.402 1.96615 105.145 2.03906C104.889 2.10938 104.651 2.20573 104.43 2.32813C104.211 2.45052 104.008 2.59375 103.82 2.75781C103.633 2.91927 103.464 3.09115 103.312 3.27344V7H102.824V1.63281L103.312 1.63281V2.72656C103.487 2.54688 103.676 2.38151 103.879 2.23047C104.085 2.07943 104.301 1.95052 104.527 1.84375C104.754 1.73438 104.991 1.64974 105.238 1.58984C105.488 1.52734 105.746 1.49609 106.012 1.49609C106.103 1.49609 106.185 1.4987 106.258 1.50391C106.331 1.50651 106.397 1.51172 106.457 1.51953C106.52 1.52474 106.578 1.53125 106.633 1.53906C106.688 1.54688 106.743 1.55599 106.801 1.56641V2.04688ZM113.117 6.71875C112.898 6.78646 112.695 6.84505 112.508 6.89453C112.32 6.94141 112.135 6.97917 111.953 7.00781C111.771 7.03906 111.585 7.0612 111.395 7.07422C111.207 7.08984 111 7.09766 110.773 7.09766C110.247 7.09766 109.772 7.03385 109.348 6.90625C108.923 6.77865 108.561 6.59635 108.262 6.35938C107.965 6.11979 107.736 5.83073 107.574 5.49219C107.413 5.15365 107.332 4.77344 107.332 4.35156C107.332 3.94271 107.409 3.56771 107.562 3.22656C107.719 2.88542 107.936 2.59245 108.215 2.34766C108.493 2.10286 108.827 1.91276 109.215 1.77734C109.603 1.64193 110.031 1.57422 110.5 1.57422C110.987 1.57422 111.421 1.63932 111.801 1.76953C112.181 1.89974 112.501 2.08594 112.762 2.32813C113.022 2.57031 113.22 2.86458 113.355 3.21094C113.491 3.55469 113.559 3.94271 113.559 4.375V4.49609H107.836C107.865 4.82943 107.948 5.13021 108.086 5.39844C108.224 5.66667 108.419 5.89453 108.672 6.08203C108.927 6.26953 109.24 6.41406 109.609 6.51563C109.982 6.61458 110.415 6.66406 110.91 6.66406C111.121 6.66406 111.335 6.64974 111.551 6.62109C111.767 6.59245 111.974 6.55469 112.172 6.50781C112.37 6.45833 112.551 6.40365 112.715 6.34375C112.879 6.28125 113.013 6.21745 113.117 6.15234V6.71875ZM113.078 4.07031C113.06 3.79688 112.999 3.53646 112.895 3.28906C112.79 3.03906 112.634 2.81901 112.426 2.62891C112.22 2.4388 111.957 2.28776 111.637 2.17578C111.319 2.0638 110.938 2.00781 110.492 2.00781C110.073 2.00781 109.706 2.0638 109.391 2.17578C109.076 2.28776 108.809 2.4388 108.59 2.62891C108.371 2.81641 108.199 3.03516 108.074 3.28516C107.949 3.53255 107.87 3.79427 107.836 4.07031H113.078ZM121.566 4.51172L117.758 6.22266V5.77734L120.996 4.32813L117.758 2.87109V2.42578L121.566 4.14453V4.51172Z" fill="#2D2749"/>
<path fill-rule="evenodd" clip-rule="evenodd" d="M125.696 8.8291L123 13.5H128.393L130.125 16.5H118L124.062 6L125.696 8.8291ZM130.696 5.8291L128 10.5H133.393L135.125 13.5H128.393L125.696 8.8291L129.062 3L130.696 5.8291ZM140.125 10.5H133.393L130.696 5.8291L134.062 0L140.125 10.5Z" fill="#3A505F"/>
</svg>
