<svg width="14" height="13" viewBox="0 0 14 13" fill="none" xmlns="http://www.w3.org/2000/svg">
<path d="M2.52461 10.351C2.20649 10.2995 1.90733 10.5189 1.85644 10.8412C1.80554 11.1634 2.02217 11.4665 2.3403 11.518L2.52461 10.351ZM1.32048 4.1104C1.10269 4.35088 1.11859 4.72468 1.35599 4.9453L5.22469 8.54043C5.4621 8.76103 5.8311 8.74493 6.04889 8.50444C6.26668 8.26395 6.25078 7.89017 6.01337 7.66954L4.37061 4.50986L5.72922 0.990368C5.94701 0.749885 5.93111 0.376088 5.6937 0.155474C5.4563 -0.0651409 5.08729 -0.0490314 4.86951 0.191454L1.32048 4.1104ZM2.43245 10.9345L2.3403 11.518C6.03596 12.1169 8.86547 11.9781 10.7906 11.4007C12.6574 10.8407 13.9289 9.76316 13.8674 8.33291C13.8377 7.64224 13.4863 6.99877 12.9256 6.4486C12.3648 5.89828 11.5671 5.4112 10.5591 5.0142C8.54206 4.21982 5.59338 3.75063 1.72522 3.91949L1.75032 4.50986L1.77544 5.10022C5.53982 4.93588 8.31561 5.39863 10.1363 6.1157C11.0472 6.47444 11.6966 6.88796 12.1138 7.29744C12.5312 7.70705 12.6889 8.08255 12.7018 8.38433C12.7257 8.939 12.2171 9.74025 10.4593 10.2675C8.75996 10.7772 6.12072 10.9338 2.52461 10.351L2.43245 10.9345Z" fill="#4E4D4D"/>
</svg>
