<svg width="22" height="22" viewBox="0 0 22 22" fill="none" xmlns="http://www.w3.org/2000/svg">
<path d="M2.2002 6.5999V7.6999H19.8002V6.5999C19.8002 5.38646 18.8136 4.3999 17.6002 4.3999H4.4002C3.18676 4.3999 2.2002 5.38646 2.2002 6.5999ZM2.2002 9.3499V15.3999C2.2002 16.6133 3.18676 17.5999 4.4002 17.5999H17.6002C18.8136 17.5999 19.8002 16.6133 19.8002 15.3999V9.3499H2.2002ZM4.4002 14.5749C4.4002 14.1177 4.76801 13.7499 5.2252 13.7499H6.8752C7.33238 13.7499 7.7002 14.1177 7.7002 14.5749C7.7002 15.0321 7.33238 15.3999 6.8752 15.3999H5.2252C4.76801 15.3999 4.4002 15.0321 4.4002 14.5749ZM9.3502 14.5749C9.3502 14.1177 9.71801 13.7499 10.1752 13.7499H12.3752C12.8324 13.7499 13.2002 14.1177 13.2002 14.5749C13.2002 15.0321 12.8324 15.3999 12.3752 15.3999H10.1752C9.71801 15.3999 9.3502 15.0321 9.3502 14.5749Z" fill="#123D58"/>
</svg>
