<svg width="29" height="29" viewBox="0 0 29 29" fill="none" xmlns="http://www.w3.org/2000/svg">
<path d="M18.3624 7.07107C19.1497 6.28376 20.4262 6.28402 21.2136 7.07107C22.0005 7.85856 22.0009 9.1351 21.2136 9.92234L16.9938 14.1421L21.2136 18.3619C22.0005 19.1494 22.0009 20.426 21.2136 21.2132C20.4264 22.0004 19.1499 22 18.3624 21.2132L14.1426 16.9934L9.92278 21.2132C9.13555 22.0004 7.859 22 7.07151 21.2132C6.28446 20.4257 6.2842 19.1492 7.07151 18.3619L11.2913 14.1421L7.07151 9.92234C6.28407 9.1349 6.28407 7.85851 7.07151 7.07107C7.85895 6.28363 9.13534 6.28363 9.92278 7.07107L14.1426 11.2909L18.3624 7.07107Z" fill="#505050"/>
</svg>
