<svg width="21" height="24" viewBox="0 0 21 24" fill="none" xmlns="http://www.w3.org/2000/svg">
<path d="M20.0915 12.6371C20.4536 12.2846 20.4536 11.7146 20.0915 11.3659L14.5448 5.96211C14.279 5.70336 13.8822 5.62836 13.5356 5.76711C13.1889 5.90586 12.9655 6.23586 12.9655 6.59961V9.59961H8.65136C7.63061 9.59961 6.80245 10.4059 6.80245 11.3996V12.5996C6.80245 13.5934 7.63061 14.3996 8.65136 14.3996H12.9655V17.3996C12.9655 17.7634 13.1889 18.0934 13.5356 18.2321C13.8822 18.3709 14.279 18.2959 14.5448 18.0371L20.0915 12.6371ZM6.80245 5.99961C7.48423 5.99961 8.03506 5.46336 8.03506 4.79961C8.03506 4.13586 7.48423 3.59961 6.80245 3.59961H4.33723C2.29572 3.59961 0.639404 5.21211 0.639404 7.19961V16.7996C0.639404 18.7871 2.29572 20.3996 4.33723 20.3996H6.80245C7.48423 20.3996 8.03506 19.8634 8.03506 19.1996C8.03506 18.5359 7.48423 17.9996 6.80245 17.9996H4.33723C3.65544 17.9996 3.10462 17.4634 3.10462 16.7996V7.19961C3.10462 6.53586 3.65544 5.99961 4.33723 5.99961H6.80245Z" fill="#D9D9D9"/>
</svg>
