<svg width="32" height="32" viewBox="0 0 32 32" fill="none" xmlns="http://www.w3.org/2000/svg">
<rect x="1.5" y="1.5" width="29" height="29" rx="14.5" stroke="black" stroke-width="3"/>
<path d="M19.7466 16.9375H12.2574C12.3711 19.457 12.9321 21.7773 13.7285 23.4766C14.1758 24.4336 14.6583 25.1094 15.1055 25.5234C15.5449 25.9336 15.847 26 16.0039 26C16.1608 26 16.4629 25.9336 16.9023 25.5234C17.3495 25.1094 17.8321 24.4297 18.2793 23.4766C19.0757 21.7773 19.6367 19.457 19.7505 16.9375H19.7466ZM12.2534 15.0625H19.7426C19.6328 12.543 19.0718 10.2227 18.2754 8.52344C17.8282 7.57031 17.3456 6.89062 16.8984 6.47656C16.459 6.06641 16.1569 6 16 6C15.8431 6 15.541 6.06641 15.1016 6.47656C14.6544 6.89062 14.1718 7.57031 13.7246 8.52344C12.9282 10.2227 12.3672 12.543 12.2534 15.0625ZM10.3703 15.0625C10.5077 11.7188 11.3747 8.61328 12.6418 6.57422C9.02864 7.84766 6.36877 11.125 6 15.0625H10.3703ZM6 16.9375C6.36877 20.875 9.02864 24.1523 12.6418 25.4258C11.3747 23.3867 10.5077 20.2812 10.3703 16.9375H6ZM21.6297 16.9375C21.4924 20.2812 20.6253 23.3867 19.3582 25.4258C22.9714 24.1484 25.6312 20.875 26 16.9375H21.6297ZM26 15.0625C25.6312 11.125 22.9714 7.84766 19.3582 6.57422C20.6253 8.61328 21.4924 11.7188 21.6297 15.0625H26Z" fill="black"/>
</svg>
