<svg width="24" height="24" viewBox="0 0 24 24" fill="none" xmlns="http://www.w3.org/2000/svg">
<g clip-path="url(#clip0_1481_314)">
<path d="M11.6096 21.9912C12.8959 20.7048 13.2681 18.7937 12.7938 16.8908C12.885 15.9995 13.5269 15.6561 13.9717 15.5245C14.2269 15.5015 14.4865 15.4548 14.7453 15.3735C16.385 14.8624 17.5643 13.2055 17.0955 12.4636C16.7824 11.9679 16.4689 11.6794 15.5386 12.1392H15.5381L15.5374 12.1399C15.4313 12.192 15.3172 12.2544 15.1948 12.3269C14.8575 12.476 14.3468 12.6037 14.0132 12.2311C13.6749 11.8533 13.855 11.2335 14.0336 10.8281L18.638 6.15148L18.6397 6.15324C18.6477 6.14374 18.6558 6.13487 18.6638 6.12551L18.7852 6.00195C19.2089 5.62114 19.775 5.55095 20.0809 5.85678C20.0947 5.87044 20.103 5.88747 20.1154 5.90233C20.1337 5.85643 20.1534 5.80975 20.1753 5.76237C20.398 5.2737 20.7925 4.7152 21.3181 4.18915C21.7978 3.70957 22.3053 3.33777 22.7617 3.10664C22.8059 3.08425 22.8485 3.06559 22.8912 3.04574L23.1248 2.81207C23.1059 2.66388 23.1296 2.47977 23.2469 2.26033C23.2469 2.26033 22.8641 1.72808 22.8361 1.38234C22.8212 1.19985 22.7107 1.15648 22.609 1.15536C22.5181 1.15423 22.4344 1.18633 22.4344 1.18633C22.4344 1.18633 22.4664 1.1027 22.4653 1.01174C22.4638 0.910215 22.4204 0.79919 22.2381 0.784616C21.8927 0.756667 21.3605 0.373535 21.3605 0.373535C21.1411 0.491319 20.957 0.514833 20.8085 0.495613L20.5749 0.72928C20.5556 0.772296 20.5367 0.814749 20.5144 0.858891C20.2837 1.3151 19.9115 1.82277 19.4317 2.3025C18.906 2.82798 18.3471 3.22301 17.8586 3.44556C17.8112 3.4671 17.7645 3.48695 17.7186 3.50519C17.7336 3.51758 17.7503 3.52617 17.7642 3.54004C18.0409 3.81658 18.0114 4.30672 17.7219 4.71133L12.9334 9.57489C12.5248 9.8051 11.7741 10.1281 11.4269 9.63121C11.0357 9.07122 11.2858 8.40796 11.4027 8.16296C11.4194 8.13093 11.4363 8.09917 11.4515 8.06855C11.4519 8.06778 11.4535 8.06524 11.4535 8.06524L11.453 8.06489C11.9175 7.12888 11.6282 6.81503 11.1316 6.50096C10.3896 6.03215 8.73322 7.21182 8.22174 8.85143C8.17999 8.9847 8.14972 9.11825 8.12381 9.25153L8.12205 9.25082C8.12205 9.25082 8.12093 9.26244 8.11874 9.28173C8.10783 9.3408 8.09558 9.39972 8.08741 9.45837C7.98244 9.93866 7.577 11.0759 6.10403 10.9213V10.9217C4.50511 10.7429 2.97055 11.1767 1.88233 12.2645C-0.281636 14.4285 0.141203 18.3606 2.82742 21.0466C5.51391 23.7323 9.44541 24.1552 11.6096 21.9912Z" fill="#D9D9D9"/>
<path d="M1.68481 15.0488C1.78071 15.052 1.87608 15.0536 1.97092 15.0536C2.43165 15.0536 2.87995 15.0164 3.3158 14.9418C3.68744 14.8782 4.05004 14.7875 4.40359 14.6696C4.55004 14.6208 4.69493 14.5673 4.83827 14.5092L4.90184 14.4829C5.4694 14.1525 5.99741 13.7431 6.48588 13.2545C6.55294 13.1874 6.61925 13.1189 6.68481 13.0488C6.58943 13.0593 6.4948 13.0712 6.40091 13.0846C5.71699 13.1822 5.07261 13.3589 4.46779 13.6148L4.53136 13.5884C4.38181 13.628 4.23381 13.6721 4.08736 13.7209C3.73381 13.8388 3.3893 13.9838 3.05383 14.1559C2.66039 14.3577 2.2794 14.5969 1.91084 14.8733C1.83497 14.9303 1.75963 14.9888 1.68481 15.0488Z" fill="#7C7C7C"/>
<path d="M10.9732 17.3368C10.9032 17.4023 10.8346 17.4686 10.7676 17.5357C10.4417 17.8615 10.1511 18.2048 9.89565 18.5657C9.67783 18.8735 9.48558 19.194 9.31892 19.5274C9.24988 19.6654 9.18523 19.8057 9.12498 19.9482L9.09865 20.0117C8.93092 20.6467 8.84708 21.3095 8.84715 22.0004C8.84716 22.0952 8.84875 22.1906 8.85192 22.2865C8.91199 22.2117 8.97048 22.1364 9.0274 22.0605C9.44196 21.5078 9.77263 20.9272 10.0194 20.3186L9.99307 20.3822C10.0709 20.2485 10.1443 20.1127 10.2133 19.9746C10.38 19.6412 10.5211 19.2951 10.6366 18.9362C10.7721 18.5153 10.8724 18.0768 10.9375 17.6207C10.9509 17.5268 10.9628 17.4321 10.9732 17.3368Z" fill="#7C7C7C"/>
<path d="M6 17L21 2" stroke="black" stroke-width="0.2"/>
<path d="M6.69995 17.5L21.7 2.5" stroke="black" stroke-width="0.2"/>
</g>
<defs>
<clipPath id="clip0_1481_314">
<rect width="24" height="24" fill="white"/>
</clipPath>
</defs>
</svg>
