<svg width="30" height="30" viewBox="0 0 30 30" fill="none" xmlns="http://www.w3.org/2000/svg">
<path d="M8.2563 11.9453C7.91457 12.2521 7.91457 12.7504 8.2563 13.0572L13.5053 17.7699C13.847 18.0767 14.402 18.0767 14.7437 17.7699C15.0854 17.4631 15.0854 16.9648 14.7437 16.658L10.1126 12.5L14.741 8.34202C15.0827 8.0352 15.0827 7.53693 14.741 7.23011C14.3992 6.9233 13.8443 6.9233 13.5025 7.23011L8.25356 11.9428L8.2563 11.9453Z" fill="#D9D9D9"/>
<path d="M18 21L13.5 21L13.5 19.3636L18 19.3636L18 15.3333L18 13.6667L16.6527 13.6364L15.5 13.6364L13 12L20 12L20 21L18 21Z" fill="#D9D9D9"/>
<circle cx="15" cy="15" r="13" stroke="#D9D9D9" stroke-width="2"/>
</svg>
