<svg width="18" height="14" viewBox="0 0 18 14" fill="none" xmlns="http://www.w3.org/2000/svg">
<path d="M1.2621 7.34828C-0.4207 5.66641 -0.4207 2.94268 1.2621 1.26081C2.7513 -0.227568 5.09829 -0.421057 6.81087 0.80239L6.85853 0.835135C7.28742 1.14174 7.3857 1.73709 7.07893 2.16277C6.77215 2.58844 6.17647 2.68965 5.75056 2.38305L5.7029 2.3503C4.74684 1.66863 3.43931 1.77579 2.61132 2.60631C1.67312 3.54398 1.67312 5.06213 2.61132 5.99981L5.95309 9.34568C6.89129 10.2834 8.41028 10.2834 9.34847 9.34568C10.1794 8.51517 10.2867 7.20837 9.60462 6.25581L9.57185 6.20818C9.26508 5.77953 9.36634 5.18418 9.79226 4.88055C10.2182 4.57692 10.8168 4.67515 11.1206 5.10083L11.1534 5.14846C12.3805 6.85712 12.1869 9.2028 10.6977 10.6912C9.01489 12.373 6.28965 12.373 4.60685 10.6912L1.2621 7.34828ZM16.7379 6.65172C18.4207 8.33359 18.4207 11.0573 16.7379 12.7392C15.2487 14.2276 12.9017 14.4211 11.1891 13.1976L11.1415 13.1649C10.7126 12.8583 10.6143 12.2629 10.9211 11.8372C11.2278 11.4116 11.8235 11.3103 12.2494 11.617L12.2971 11.6497C13.2532 12.3314 14.5607 12.2242 15.3887 11.3937C16.3269 10.453 16.3269 8.93489 15.3887 7.99721L12.0469 4.65431C11.1087 3.71664 9.58972 3.71664 8.65153 4.65431C7.82055 5.48483 7.71333 6.79163 8.39538 7.74717L8.42815 7.79479C8.73492 8.22345 8.63366 8.8188 8.20774 9.12243C7.78183 9.42606 7.18317 9.32782 6.87937 8.90215L6.84661 8.85452C5.61951 7.14288 5.8131 4.7972 7.30231 3.30882C8.98511 1.62695 11.7103 1.62695 13.3931 3.30882L16.7379 6.65172Z" fill="#505050"/>
</svg>
