<svg width="24" height="24" viewBox="0 0 24 24" fill="none" xmlns="http://www.w3.org/2000/svg">
<circle cx="12" cy="12" r="10.6" stroke="#BCBCBC" stroke-width="2.8"/>
<mask id="path-2-inside-1_1561_93" fill="white">
<path d="M24 12C24 9.37818 23.1413 6.8285 21.5553 4.74081C19.9693 2.65311 17.7432 1.14229 15.2174 0.43935C12.6915 -0.263594 10.005 -0.119977 7.56849 0.848243C5.13199 1.81646 3.07964 3.556 1.72523 5.80088C0.370813 8.04577 -0.211125 10.6725 0.0683907 13.2793C0.347906 15.8862 1.47349 18.3298 3.27305 20.2365C5.07261 22.1432 7.4471 23.4081 10.0335 23.8378C12.6199 24.2674 15.2758 23.8382 17.5952 22.6158L16.3642 20.2803C14.5551 21.2338 12.4835 21.5686 10.4661 21.2335C8.44874 20.8983 6.59664 19.9117 5.19298 18.4245C3.78932 16.9373 2.91137 15.0312 2.69335 12.9979C2.47532 10.9645 2.92923 8.9157 3.98568 7.16469C5.04212 5.41368 6.64296 4.05684 8.54342 3.30163C10.4439 2.54642 12.5394 2.4344 14.5095 2.98269C16.4797 3.53099 18.216 4.70943 19.4531 6.33783C20.6902 7.96623 21.36 9.95498 21.36 12H24Z"/>
</mask>
<path d="M24 12C24 9.37818 23.1413 6.8285 21.5553 4.74081C19.9693 2.65311 17.7432 1.14229 15.2174 0.43935C12.6915 -0.263594 10.005 -0.119977 7.56849 0.848243C5.13199 1.81646 3.07964 3.556 1.72523 5.80088C0.370813 8.04577 -0.211125 10.6725 0.0683907 13.2793C0.347906 15.8862 1.47349 18.3298 3.27305 20.2365C5.07261 22.1432 7.4471 23.4081 10.0335 23.8378C12.6199 24.2674 15.2758 23.8382 17.5952 22.6158L16.3642 20.2803C14.5551 21.2338 12.4835 21.5686 10.4661 21.2335C8.44874 20.8983 6.59664 19.9117 5.19298 18.4245C3.78932 16.9373 2.91137 15.0312 2.69335 12.9979C2.47532 10.9645 2.92923 8.9157 3.98568 7.16469C5.04212 5.41368 6.64296 4.05684 8.54342 3.30163C10.4439 2.54642 12.5394 2.4344 14.5095 2.98269C16.4797 3.53099 18.216 4.70943 19.4531 6.33783C20.6902 7.96623 21.36 9.95498 21.36 12H24Z" stroke="#123D58" stroke-width="4" mask="url(#path-2-inside-1_1561_93)"/>
</svg>
