<svg width="68" height="77" viewBox="0 0 68 77" fill="none" xmlns="http://www.w3.org/2000/svg">
<path d="M22.2174 22.1374V29.2571H45.8985V22.1374C45.8985 15.5814 40.5998 10.2713 34.058 10.2713C27.5161 10.2713 22.2174 15.5814 22.2174 22.1374ZM12.745 29.2571V22.1374C12.745 10.3454 22.2915 0.77832 34.058 0.77832C45.8245 0.77832 55.3709 10.3454 55.3709 22.1374V29.2571H57.739C62.9636 29.2571 67.2114 33.5141 67.2114 38.7501V67.2289C67.2114 72.4649 62.9636 76.7219 57.739 76.7219H10.3769C5.15232 76.7219 0.904541 72.4649 0.904541 67.2289V38.7501C0.904541 33.5141 5.15232 29.2571 10.3769 29.2571H12.745Z" fill="#EAE9E9"/>
</svg>
