<svg width="117" height="117" viewBox="0 0 117 117" fill="none" xmlns="http://www.w3.org/2000/svg">
<g clip-path="url(#clip0_1682_148)">
<path d="M21.2503 9.48985C18.5634 14.3715 15.4868 18.491 12 23.0225L24.1833 19.4385L22.9321 21.2923C22.0707 17.9143 21.6195 12.9503 21.2503 9.46926V9.48985ZM21.763 6.44141C23.5064 11.5084 25.2703 17.111 26.3369 22.4252C26.0087 22.4252 12.8614 22.9813 12 23.0225C14.7894 17.5023 18.1327 11.632 21.763 6.44141Z" fill="white"/>
<path d="M97.324 72.9303C99.8058 67.9457 102.698 63.7026 106 59.0063L93.9808 63.0847L95.1499 61.1691C96.1344 64.5059 96.8112 69.4699 97.324 72.9097V72.9303ZM96.9138 75.9994C94.9653 71.0148 92.9758 65.474 91.6836 60.2216C92.0118 60.201 105.139 59.0887 105.979 59.0269C103.436 64.6707 100.319 70.6646 96.8933 75.9994H96.9138Z" fill="white"/>
<path d="M54.4109 58.0593C59.1232 58.0593 62.9433 55.2651 62.9433 51.8182C62.9433 48.3714 59.1232 45.5771 54.4109 45.5771C49.6986 45.5771 45.8785 48.3714 45.8785 51.8182C45.8785 55.2651 49.6986 58.0593 54.4109 58.0593Z" fill="white" stroke="white" stroke-width="3" stroke-miterlimit="10"/>
<path d="M73.7313 22.5492C68.0089 24.9179 60.6045 27.5544 54.8 29.8201L59.2508 24.0734L60.8096 22.0548L64.481 17.3174C64.481 20.8602 64.481 48.6258 64.481 52.8689H60.3789V23.3113L64.0503 24.5677L62.4915 26.5863L60.4199 23.3113C62.6146 23.1465 68.2345 22.6728 70.3676 22.508C71.4751 22.4462 72.5622 22.2608 73.6903 22.302L73.7313 22.5286V22.5492Z" fill="white"/>
<path d="M91.6836 49.5526C93.6116 45.1653 94.0834 40.3249 93.1604 35.6904C93.1194 35.7728 93.0578 35.8552 93.0168 35.9376C92.9553 36.0406 92.9143 36.123 92.8732 36.226C92.7297 36.5349 92.5861 36.8439 92.4425 37.1529C91.8477 38.4711 91.3349 39.81 90.9247 41.19C90.7196 41.8903 90.535 42.5906 90.412 43.3116C90.371 43.5587 90.3299 43.8059 90.2889 44.0531C90.2889 44.1561 90.2684 44.2384 90.2684 44.3414C90.2069 45.4743 90.2684 46.5248 90.4325 47.6371C90.453 47.7194 90.4735 47.8018 90.5145 47.9048C90.6171 48.1726 90.7196 48.4404 90.8427 48.6875C90.8837 48.7905 91.0478 48.9965 91.1093 49.1201C91.1298 49.1613 91.1709 49.2025 91.1914 49.2025C91.1914 49.2025 91.2734 49.2849 91.3555 49.3673C91.458 49.3673 91.6221 49.4496 91.7246 49.5938L91.6836 49.5526Z" stroke="white" stroke-width="3" stroke-miterlimit="10"/>
<path d="M82.4333 53.3424C78.1466 48.193 80.0951 40.5719 82.7 35.1135C84.2588 31.8385 86.2688 28.4399 88.7711 25.5562L84.7715 18.5942C80.6694 11.4469 73.0805 7.05957 64.8763 7.05957H53.2468C45.0425 7.05957 37.4536 11.4675 33.3515 18.5942L27.5265 28.7077C23.4244 35.855 23.4244 44.6502 27.5265 51.7976L33.3515 61.911C37.4536 69.0584 45.0425 73.4457 53.2468 73.4457H64.8763C73.0805 73.4457 80.6694 69.0378 84.7715 61.911L87.7251 56.7616C85.6945 56.0819 83.8281 55.0108 82.4333 53.3424Z" stroke="white" stroke-width="5" stroke-miterlimit="10"/>
</g>
<path d="M9.664 104.136C9.664 104.504 9.584 104.848 9.424 105.168C8.064 105.056 7.088 105 6.496 105L4.216 105.168C4.216 104.8 4.296 104.456 4.456 104.136C5.096 103.96 5.64 103.672 6.088 103.272C6.808 98.264 7.336 93.84 7.672 90L5.68 89.544C5.68 89.176 5.76 88.832 5.92 88.512C6.896 88.624 7.696 88.68 8.32 88.68H10.384C11.776 94.216 13.016 98.544 14.104 101.664C15.4 98.896 17.208 94.568 19.528 88.68H21.712L24.232 88.512C24.232 88.88 24.152 89.224 23.992 89.544C23.272 89.672 22.68 89.912 22.216 90.264C21.8 94.664 21.552 99.16 21.472 103.752L23.512 104.136C23.512 104.504 23.432 104.848 23.272 105.168C21.944 105.056 20.992 105 20.416 105C19.536 105 18.712 105.048 17.944 105.144L17.632 105.168C17.632 104.8 17.712 104.456 17.872 104.136C18.464 103.96 18.984 103.688 19.432 103.32C19.752 100.296 20.008 96.232 20.2 91.128C17.928 96.072 16 100.696 14.416 105L14.08 105.24L12.664 105C11.432 99.96 10.216 95.456 9.016 91.488C8.392 95.872 7.944 99.936 7.672 103.68L9.664 104.136ZM38.0193 103.56C38.0193 103.928 37.9393 104.272 37.7793 104.592C36.7073 104.72 35.7393 104.976 34.8753 105.36C34.6353 105.36 34.4273 105.272 34.2513 105.096C34.0913 104.92 34.0113 104.648 34.0113 104.28L34.4673 100.848L34.2273 100.704C33.7313 101.84 32.9953 102.88 32.0193 103.824C31.0433 104.768 29.9393 105.24 28.7073 105.24C28.1153 105.24 27.6433 105.16 27.2913 105C26.9393 104.84 26.7393 104.68 26.6913 104.52L26.5953 104.28C26.9473 101.128 27.1873 98.088 27.3153 95.16H25.6593C25.6593 94.792 25.7393 94.448 25.8993 94.128C26.8113 94 27.6993 93.744 28.5633 93.36C28.7873 93.36 28.9873 93.464 29.1633 93.672C29.3393 93.864 29.4273 94.12 29.4273 94.44C29.0753 96.68 28.7713 99.72 28.5153 103.56H29.9793C30.6353 103.56 31.4113 103.04 32.3073 102C33.2033 100.96 33.9073 99.84 34.4193 98.64C34.6433 96.592 34.8593 94.872 35.0673 93.48C35.8673 93.24 36.6273 93.12 37.3473 93.12C37.0433 94.352 36.7873 95.68 36.5793 97.104C36.3873 98.528 36.1953 100.68 36.0033 103.56H38.0193ZM46.6694 102.072C46.6694 101.768 46.5894 101.528 46.4294 101.352C46.2694 101.16 46.1414 101.024 46.0454 100.944C45.9654 100.848 45.8214 100.736 45.6134 100.608C45.4054 100.464 45.2614 100.368 45.1814 100.32C44.7814 100.08 44.3894 99.864 44.0054 99.672C43.6374 99.464 43.3494 99.296 43.1414 99.168C42.9494 99.04 42.7014 98.848 42.3974 98.592C41.8534 98.128 41.5814 97.528 41.5814 96.792C41.5814 95.72 41.9814 94.904 42.7814 94.344C43.5974 93.768 44.5894 93.48 45.7574 93.48C46.9254 93.48 47.9894 93.8 48.9494 94.44C48.5814 95.128 48.3014 95.864 48.1094 96.648L48.0134 97.008C47.6934 97.152 47.3014 97.224 46.8374 97.224C46.9814 96.568 47.0534 96.152 47.0534 95.976C47.0534 95.464 46.8774 95.152 46.5254 95.04H44.1974C43.4294 95.152 43.0454 95.6 43.0454 96.384C43.0454 96.656 43.1814 96.936 43.4534 97.224C43.7254 97.496 43.9974 97.72 44.2694 97.896C44.5414 98.056 44.9254 98.264 45.4214 98.52C45.9334 98.776 46.3574 99.016 46.6934 99.24C47.0294 99.448 47.3654 99.752 47.7014 100.152C48.0534 100.536 48.2294 100.928 48.2294 101.328C48.2294 102.576 47.8214 103.544 47.0054 104.232C46.1894 104.904 45.0854 105.24 43.6934 105.24C42.8454 105.24 42.1174 105.112 41.5094 104.856C40.9174 104.584 40.5334 104.32 40.3574 104.064L40.0934 103.68C40.4454 103.072 40.7014 102.416 40.8614 101.712L40.9334 101.4C41.2534 101.256 41.6454 101.184 42.1094 101.184C41.9654 101.712 41.8934 102.168 41.8934 102.552C41.8934 103.112 42.3494 103.488 43.2614 103.68H45.7574C46.3654 103.328 46.6694 102.792 46.6694 102.072ZM50.7998 95.16C50.7998 94.792 50.8798 94.448 51.0398 94.128C51.9518 94 52.8398 93.744 53.7038 93.36C53.9278 93.36 54.1278 93.464 54.3038 93.672C54.4798 93.864 54.5678 94.12 54.5678 94.44C54.1998 97.56 53.9518 100.6 53.8238 103.56H55.7438C55.7438 103.928 55.6638 104.272 55.5038 104.592C54.4318 104.72 53.4638 104.976 52.5998 105.36C52.3598 105.36 52.1518 105.272 51.9758 105.096C51.8158 104.92 51.7358 104.648 51.7358 104.28C52.0878 102.04 52.3918 99 52.6478 95.16H50.7998ZM52.6958 89.496C52.7758 89.256 52.9678 89.064 53.2718 88.92C53.5758 88.76 53.8878 88.68 54.2078 88.68C54.5278 88.68 54.7758 88.752 54.9518 88.896C55.1438 89.04 55.2398 89.2 55.2398 89.376L55.1198 90.24C54.9438 90.72 54.4318 90.96 53.5838 90.96C53.2638 90.96 53.0158 90.888 52.8398 90.744C52.6798 90.6 52.5998 90.432 52.5998 90.24L52.6958 89.496ZM65.6344 103.56C65.6344 103.928 65.5544 104.272 65.3944 104.592C63.6984 105.024 62.4824 105.24 61.7464 105.24C60.3704 105.24 59.3304 104.888 58.6264 104.184C57.9384 103.464 57.5944 102.424 57.5944 101.064C57.5944 99.688 57.8264 98.456 58.2904 97.368C58.7704 96.28 59.4984 95.36 60.4744 94.608C61.4504 93.856 62.5704 93.48 63.8344 93.48C64.4424 93.48 64.9944 93.592 65.4904 93.816C66.0024 94.04 66.3704 94.248 66.5944 94.44C66.2584 95.032 65.9864 95.752 65.7784 96.6L65.6584 97.008C65.3384 97.152 64.9464 97.224 64.4824 97.224C64.6264 96.584 64.6984 96.104 64.6984 95.784C64.6984 95.464 64.5784 95.256 64.3384 95.16H61.8184C61.1624 95.416 60.5864 96.024 60.0904 96.984C59.6104 97.928 59.3704 98.936 59.3704 100.008C59.3704 101.256 59.6024 102.152 60.0664 102.696C60.4664 103.16 60.8344 103.432 61.1704 103.512L61.3624 103.56H65.6344ZM73.903 104.136C73.903 104.504 73.823 104.848 73.663 105.168C72.095 105.056 71.071 105 70.591 105C69.887 105 69.135 105.048 68.335 105.144L68.023 105.168C68.023 104.8 68.103 104.456 68.263 104.136C68.871 103.96 69.399 103.688 69.847 103.32C70.263 99.72 70.623 95.232 70.927 89.856L69.103 89.544C69.103 89.176 69.183 88.832 69.343 88.512C70.751 88.624 71.751 88.68 72.343 88.68L74.983 88.512C74.983 88.88 74.903 89.224 74.743 89.544C73.991 89.672 73.391 89.92 72.943 90.288C72.527 93.76 72.175 98.256 71.887 103.776L73.903 104.136ZM87.7266 103.56C87.7266 103.928 87.6466 104.272 87.4866 104.592C86.4146 104.72 85.4466 104.976 84.5826 105.36C84.3426 105.36 84.1346 105.272 83.9586 105.096C83.7986 104.92 83.7186 104.648 83.7186 104.28L84.1746 100.848L83.9346 100.704C83.3426 102.144 82.7426 103.264 82.1346 104.064C81.5266 104.848 80.7266 105.24 79.7346 105.24C78.7426 105.24 77.9106 104.88 77.2386 104.16C76.5666 103.424 76.2306 102.432 76.2306 101.184C76.2306 99.12 76.8466 97.32 78.0786 95.784C79.3106 94.248 80.8386 93.48 82.6626 93.48C83.2546 93.48 83.9506 93.728 84.7506 94.224C84.9906 91.888 85.1506 89.76 85.2306 87.84H83.3826C83.3826 87.472 83.4626 87.128 83.6226 86.808C84.5346 86.68 85.4226 86.424 86.2866 86.04C86.5106 86.04 86.7106 86.144 86.8866 86.352C87.0626 86.544 87.1506 86.8 87.1506 87.12C86.6226 91.584 86.1506 97.064 85.7346 103.56H87.7266ZM78.0546 100.512C78.0546 101.216 78.2146 101.856 78.5346 102.432C78.8546 102.992 79.2146 103.368 79.6146 103.56H80.7666C81.7426 103.368 82.9106 101.608 84.2706 98.28C84.2866 98.152 84.4066 97.112 84.6306 95.16H80.6946C80.0706 95.272 79.4706 95.896 78.8946 97.032C78.3346 98.152 78.0546 99.312 78.0546 100.512ZM97.8471 103.56C97.8471 103.928 97.7671 104.272 97.6071 104.592C95.9111 105.024 94.6951 105.24 93.9591 105.24C91.2071 105.24 89.8311 103.744 89.8311 100.752C89.8311 99.648 90.0711 98.552 90.5511 97.464C91.0311 96.36 91.7591 95.424 92.7351 94.656C93.7271 93.872 94.8471 93.48 96.0951 93.48C96.8791 93.48 97.4551 93.68 97.8231 94.08C98.1911 94.48 98.3751 94.968 98.3751 95.544C98.3751 98.424 96.1191 99.912 91.6071 100.008C91.6071 102.2 92.2631 103.384 93.5751 103.56H97.8471ZM96.6951 96.144C96.6951 95.616 96.4711 95.288 96.0231 95.16H93.8151C93.2871 95.368 92.8311 95.832 92.4471 96.552C92.0631 97.256 91.8071 98.056 91.6791 98.952C93.5191 98.888 94.8151 98.624 95.5671 98.16C96.3191 97.68 96.6951 97.008 96.6951 96.144ZM111.63 103.56C111.63 103.928 111.55 104.272 111.39 104.592C110.318 104.72 109.35 104.976 108.486 105.36C108.246 105.36 108.038 105.272 107.862 105.096C107.702 104.92 107.622 104.648 107.622 104.28L108.078 100.848L107.838 100.704C107.246 102.144 106.646 103.264 106.038 104.064C105.43 104.848 104.63 105.24 103.638 105.24C102.646 105.24 101.814 104.88 101.142 104.16C100.47 103.424 100.134 102.432 100.134 101.184C100.134 99.12 100.75 97.32 101.982 95.784C103.214 94.248 104.742 93.48 106.566 93.48C107.158 93.48 107.83 93.712 108.582 94.176C108.614 93.888 108.646 93.656 108.678 93.48C109.478 93.24 110.238 93.12 110.958 93.12C110.654 94.352 110.398 95.68 110.19 97.104C109.998 98.528 109.806 100.68 109.614 103.56H111.63ZM101.958 100.512C101.958 101.216 102.118 101.856 102.438 102.432C102.758 102.992 103.118 103.368 103.518 103.56H104.67C105.598 103.384 106.726 101.704 108.054 98.52C108.118 97.848 108.246 96.728 108.438 95.16H104.598C103.974 95.272 103.374 95.896 102.798 97.032C102.238 98.152 101.958 99.312 101.958 100.512Z" fill="white"/>
<defs>
<clipPath id="clip0_1682_148">
<rect width="94" height="71" fill="white" transform="translate(12 5)"/>
</clipPath>
</defs>
</svg>
