<svg width="24" height="26" viewBox="0 0 24 26" fill="none" xmlns="http://www.w3.org/2000/svg">
<path d="M6.27273 0C4.46761 0 3 1.45042 3 3.23438V22.6406C3 24.4246 4.46761 25.875 6.27273 25.875H17.7273C19.5324 25.875 21 24.4246 21 22.6406V3.23438C21 1.45042 19.5324 0 17.7273 0H6.27273ZM10.3636 21.832H13.6364C14.0864 21.832 14.4545 22.1959 14.4545 22.6406C14.4545 23.0854 14.0864 23.4492 13.6364 23.4492H10.3636C9.91364 23.4492 9.54545 23.0854 9.54545 22.6406C9.54545 22.1959 9.91364 21.832 10.3636 21.832Z" fill="url(#paint0_linear_1090_166)"/>
<defs>
<linearGradient id="paint0_linear_1090_166" x1="13.0189" y1="-33.6375" x2="69.3664" y2="-17.2022" gradientUnits="userSpaceOnUse">
<stop stop-color="#123D58"/>
<stop offset="1" stop-color="#123D58" stop-opacity="0"/>
</linearGradient>
</defs>
</svg>
