<svg width="32" height="32" viewBox="0 0 32 32" fill="none" xmlns="http://www.w3.org/2000/svg">
<g clip-path="url(#clip0_4354_569)">
<path d="M0 0H17C25.2843 0 32 6.71573 32 15V32H15C6.71573 32 0 25.2843 0 17V0Z" fill="#E0E0E0"/>
<g clip-path="url(#clip1_4354_569)">
<mask id="mask0_4354_569" style="mask-type:luminance" maskUnits="userSpaceOnUse" x="3" y="3" width="26" height="26">
<path d="M3 3H29V29H3V3Z" fill="white"/>
</mask>
<g mask="url(#mask0_4354_569)">
<path d="M16.4236 26.8237C15.0301 25.4301 14.6269 23.3597 15.1407 21.2982C15.0419 20.3327 14.3465 19.9607 13.8646 19.8181C13.5882 19.7932 13.3069 19.7426 13.0266 19.6545C11.2502 19.1008 9.97266 17.3058 10.4805 16.5021C10.8197 15.9651 11.1593 15.6526 12.1672 16.1507L12.1685 16.1514C12.2834 16.2079 12.407 16.2755 12.5396 16.354C12.905 16.5155 13.4583 16.6539 13.8197 16.2502C14.1862 15.841 13.9911 15.1695 13.7976 14.7303L8.80949 9.66398L8.80764 9.66589C8.79898 9.6556 8.7902 9.64599 8.78154 9.63585L8.65002 9.50199C8.19101 9.08945 7.57774 9.01341 7.24634 9.34472C7.23139 9.35952 7.2224 9.37797 7.20897 9.39407C7.18914 9.34434 7.1678 9.29377 7.14408 9.24245C6.90282 8.71305 6.47544 8.10801 5.90604 7.53812C5.38637 7.01858 4.83658 6.6158 4.34214 6.36541C4.29426 6.34115 4.24811 6.32093 4.20185 6.29943L3.94879 6.04629C3.96926 5.88575 3.94359 5.6863 3.81651 5.44857C3.81651 5.44857 4.23121 4.87196 4.26154 4.49741C4.27769 4.29972 4.3974 4.25273 4.50757 4.25152C4.60605 4.25029 4.69672 4.28507 4.69672 4.28507C4.69672 4.28507 4.66205 4.19447 4.66324 4.09593C4.66487 3.98594 4.71189 3.86567 4.90938 3.84988C5.28356 3.8196 5.86011 3.40454 5.86011 3.40454C6.09779 3.53214 6.29724 3.55761 6.45811 3.53679L6.71118 3.78993C6.73209 3.83653 6.75256 3.88252 6.77672 3.93034C7.02664 4.42457 7.42986 4.97455 7.94964 5.49425C8.51915 6.06352 9.12463 6.49147 9.65384 6.73257C9.70519 6.7559 9.75578 6.77741 9.8055 6.79717C9.78925 6.81059 9.77116 6.8199 9.7561 6.83492C9.45634 7.13451 9.4883 7.66549 9.80193 8.10382L14.9895 13.3727C15.4321 13.6221 16.2454 13.972 16.6215 13.4337C17.0453 12.827 16.7744 12.1085 16.6477 11.8431C16.6296 11.8084 16.6113 11.774 16.5949 11.7408C16.5944 11.74 16.5927 11.7372 16.5927 11.7372C16.0895 10.7232 16.4034 10.3828 16.9414 10.0426C17.7453 9.53471 19.5397 10.8127 20.0938 12.5889C20.139 12.7333 20.1718 12.878 20.1999 13.0224L20.2018 13.0216C20.2018 13.0216 20.203 13.0342 20.2053 13.0551C20.2172 13.1191 20.2304 13.1829 20.2393 13.2464C20.353 13.7668 20.7922 14.9988 22.388 14.8313C24.1201 14.6376 25.7826 15.108 26.9615 16.2864C29.3058 18.6308 28.8477 22.8905 25.9376 25.8004C23.0272 28.7099 18.7681 29.168 16.4236 26.8237Z" fill="#253B48"/>
<path d="M23.6807 18.0959C23.7601 18.1466 23.84 18.1959 23.9209 18.2434L23.9531 18.2561C24.0969 18.3143 24.242 18.3684 24.3887 18.4172C24.6328 18.4986 24.8817 18.5654 25.1348 18.6213C24.8988 18.5143 24.6591 18.4195 24.415 18.3381C24.2691 18.2895 24.1212 18.246 23.9717 18.2063L23.9688 18.2112L23.9414 18.1985C23.8554 18.1625 23.7683 18.1288 23.6807 18.0959Z" fill="#8A99B3" stroke="#8A99B3"/>
<path d="M18.0742 23.7024C18.1323 23.8571 18.1939 24.0097 18.2617 24.1594L18.3828 24.4153C18.4517 24.5531 18.5259 24.6888 18.6035 24.8225L18.6084 24.8206L18.6094 24.8235C18.6478 24.9181 18.689 25.0123 18.7314 25.1057C18.7114 25.0151 18.6912 24.9247 18.668 24.8352L18.6543 24.8049C18.5932 24.6604 18.528 24.518 18.458 24.3782C18.3424 24.147 18.2143 23.9218 18.0742 23.7024Z" fill="#8A99B3" stroke="#8A99B3"/>
<path d="M22.5 21.4165L6.25 5.1665" stroke="#8A99B3" stroke-width="0.2"/>
<path d="M21.7422 21.9583L5.49213 5.70825" stroke="#8A99B3" stroke-width="0.2"/>
</g>
</g>
</g>
<defs>
<clipPath id="clip0_4354_569">
<rect width="32" height="32" fill="white"/>
</clipPath>
<clipPath id="clip1_4354_569">
<rect width="26" height="26" fill="white" transform="matrix(-1 0 0 1 29 3)"/>
</clipPath>
</defs>
</svg>
