<svg width="30" height="36" viewBox="0 0 30 36" fill="none" xmlns="http://www.w3.org/2000/svg">
<g clip-path="url(#clip0_1182_214)">
<mask id="mask0_1182_214" style="mask-type:luminance" maskUnits="userSpaceOnUse" x="0" y="0" width="28" height="34">
<path d="M27.8571 0H0V33.75H27.8571V0Z" fill="white"/>
</mask>
<g mask="url(#mask0_1182_214)">
<path d="M18.9031 8.4375C18.9031 7.0389 18.379 5.69757 17.4461 4.70862C16.5132 3.71966 15.2479 3.16406 13.9286 3.16406C12.6092 3.16406 11.344 3.71966 10.4111 4.70862C9.47818 5.69757 8.95408 7.0389 8.95408 8.4375C8.95408 9.8361 9.47818 11.1774 10.4111 12.1664C11.344 13.1553 12.6092 13.7109 13.9286 13.7109C15.2479 13.7109 16.5132 13.1553 17.4461 12.1664C18.379 11.1774 18.9031 9.8361 18.9031 8.4375ZM5.96939 8.4375C5.96939 6.19974 6.80794 4.05362 8.30058 2.47129C9.79321 0.888948 11.8176 0 13.9286 0C16.0395 0 18.064 0.888948 19.5566 2.47129C21.0492 4.05362 21.8878 6.19974 21.8878 8.4375C21.8878 10.6753 21.0492 12.8214 19.5566 14.4037C18.064 15.986 16.0395 16.875 13.9286 16.875C11.8176 16.875 9.79321 15.986 8.30058 14.4037C6.80794 12.8214 5.96939 10.6753 5.96939 8.4375ZM3.06553 30.5859H24.7916C24.2382 26.4133 20.8556 23.2031 16.7702 23.2031H11.0869C7.00159 23.2031 3.61894 26.4133 3.06553 30.5859ZM0 31.7923C0 25.2993 4.96205 20.0391 11.0869 20.0391H16.7702C22.8951 20.0391 27.8571 25.2993 27.8571 31.7923C27.8571 32.8733 27.0301 33.75 26.0103 33.75H1.84678C0.827009 33.75 0 32.8733 0 31.7923Z" fill="#123D58"/>
</g>
<mask id="mask1_1182_214" style="mask-type:luminance" maskUnits="userSpaceOnUse" x="2" y="2" width="28" height="34">
<path d="M29.9997 2.25H2.14258V36H29.9997V2.25Z" fill="white"/>
</mask>
<g mask="url(#mask1_1182_214)">
<path d="M21.0457 9.5625C21.0457 8.1639 20.5215 6.82257 19.5886 5.83362C18.6558 4.84466 17.3905 4.28906 16.0711 4.28906C14.7518 4.28906 13.4865 4.84466 12.5536 5.83362C11.6208 6.82257 11.0966 8.1639 11.0966 9.5625C11.0966 10.9611 11.6208 12.3024 12.5536 13.2914C13.4865 14.2803 14.7518 14.8359 16.0711 14.8359C17.3905 14.8359 18.6558 14.2803 19.5886 13.2914C20.5215 12.3024 21.0457 10.9611 21.0457 9.5625ZM8.11197 9.5625C8.11197 7.32474 8.95052 5.17862 10.4432 3.59629C11.9358 2.01395 13.9602 1.125 16.0711 1.125C18.1821 1.125 20.2065 2.01395 21.6991 3.59629C23.1918 5.17862 24.0304 7.32474 24.0304 9.5625C24.0304 11.8002 23.1918 13.9464 21.6991 15.5287C20.2065 17.111 18.1821 18 16.0711 18C13.9602 18 11.9358 17.111 10.4432 15.5287C8.95052 13.9464 8.11197 11.8002 8.11197 9.5625ZM5.20811 31.7109H26.9341C26.3808 27.5383 22.9981 24.3281 18.9128 24.3281H13.2295C9.14417 24.3281 5.76152 27.5383 5.20811 31.7109ZM2.14258 32.9173C2.14258 26.4243 7.10463 21.1641 13.2295 21.1641H18.9128C25.0377 21.1641 29.9997 26.4243 29.9997 32.9173C29.9997 33.9983 29.1727 34.875 28.1529 34.875H3.98936C2.96959 34.875 2.14258 33.9983 2.14258 32.9173Z" fill="#E8E8E8" fill-opacity="0.2"/>
</g>
</g>
<defs>
<clipPath id="clip0_1182_214">
<rect width="30" height="36" fill="white"/>
</clipPath>
</defs>
</svg>
