<svg width="113" height="96" viewBox="0 0 113 96" fill="none" xmlns="http://www.w3.org/2000/svg">
<g opacity="0.26">
<mask id="mask0_63_157" style="mask-type:alpha" maskUnits="userSpaceOnUse" x="11" y="0" width="11" height="11">
<path d="M16.4408 10.651C19.3284 10.6502 21.6685 8.31573 21.6677 5.43696C21.6669 2.5582 19.3254 0.225194 16.4378 0.226028C13.5502 0.226863 11.2101 2.56122 11.2109 5.43998C11.2117 8.31875 13.5533 10.6518 16.4408 10.651Z" fill="url(#paint0_linear_63_157)"/>
</mask>
<g mask="url(#mask0_63_157)">
<g filter="url(#filter0_d_63_157)">
<path d="M16.4408 10.651C19.3284 10.6502 21.6685 8.31573 21.6677 5.43696C21.6669 2.5582 19.3254 0.225194 16.4378 0.226028C13.5502 0.226863 11.2101 2.56122 11.2109 5.43998C11.2117 8.31875 13.5533 10.6518 16.4408 10.651Z" fill="url(#paint1_linear_63_157)"/>
</g>
</g>
<mask id="mask1_63_157" style="mask-type:alpha" maskUnits="userSpaceOnUse" x="41" y="0" width="11" height="11">
<path d="M46.7219 10.6422C49.6094 10.6414 51.9496 8.30694 51.9488 5.42817C51.9479 2.54941 49.6064 0.216405 46.7189 0.217239C43.8313 0.218074 41.4912 2.55243 41.492 5.4312C41.4928 8.30996 43.8343 10.643 46.7219 10.6422Z" fill="url(#paint2_linear_63_157)"/>
</mask>
<g mask="url(#mask1_63_157)">
<path d="M46.7219 10.6422C49.6094 10.6414 51.9496 8.30694 51.9488 5.42817C51.9479 2.54941 49.6064 0.216405 46.7189 0.217239C43.8313 0.218074 41.4912 2.55243 41.492 5.4312C41.4928 8.30996 43.8343 10.643 46.7219 10.6422Z" fill="url(#paint3_linear_63_157)"/>
</g>
<mask id="mask2_63_157" style="mask-type:alpha" maskUnits="userSpaceOnUse" x="71" y="0" width="12" height="11">
<path d="M77.003 10.6334C79.8905 10.6326 82.2307 8.29815 82.2298 5.41939C82.229 2.54062 79.8875 0.207616 76.9999 0.20845C74.1124 0.209285 71.7722 2.54365 71.7731 5.42241C71.7739 8.30117 74.1154 10.6342 77.003 10.6334Z" fill="url(#paint4_linear_63_157)"/>
</mask>
<g mask="url(#mask2_63_157)">
<path d="M77.003 10.6334C79.8905 10.6326 82.2307 8.29815 82.2298 5.41939C82.229 2.54062 79.8875 0.207616 76.9999 0.20845C74.1124 0.209285 71.7722 2.54365 71.7731 5.42241C71.7739 8.30117 74.1154 10.6342 77.003 10.6334Z" fill="url(#paint5_linear_63_157)"/>
</g>
<mask id="mask3_63_157" style="mask-type:alpha" maskUnits="userSpaceOnUse" x="102" y="0" width="11" height="11">
<path d="M107.284 10.6246C110.172 10.6238 112.512 8.28936 112.511 5.4106C112.51 2.53183 110.169 0.198827 107.281 0.199661C104.393 0.200495 102.053 2.53486 102.054 5.41362C102.055 8.29238 104.396 10.6255 107.284 10.6246Z" fill="url(#paint6_linear_63_157)"/>
</mask>
<g mask="url(#mask3_63_157)">
<path d="M107.284 10.6246C110.172 10.6238 112.512 8.28936 112.511 5.4106C112.51 2.53183 110.169 0.198827 107.281 0.199661C104.393 0.200495 102.053 2.53486 102.054 5.41362C102.055 8.29238 104.396 10.6255 107.284 10.6246Z" fill="url(#paint7_linear_63_157)"/>
</g>
<mask id="mask4_63_157" style="mask-type:alpha" maskUnits="userSpaceOnUse" x="11" y="26" width="11" height="11">
<path d="M16.4484 36.8218C19.3359 36.8209 21.6761 34.4866 21.6753 31.6078C21.6744 28.7291 19.3329 26.3961 16.4454 26.3969C13.5578 26.3978 11.2177 28.7321 11.2185 31.6109C11.2193 34.4896 13.5608 36.8226 16.4484 36.8218Z" fill="url(#paint8_linear_63_157)"/>
</mask>
<g mask="url(#mask4_63_157)">
<path d="M16.4484 36.8218C19.3359 36.8209 21.6761 34.4866 21.6753 31.6078C21.6744 28.7291 19.3329 26.3961 16.4454 26.3969C13.5578 26.3978 11.2177 28.7321 11.2185 31.6109C11.2193 34.4896 13.5608 36.8226 16.4484 36.8218Z" fill="url(#paint9_linear_63_157)"/>
</g>
<mask id="mask5_63_157" style="mask-type:alpha" maskUnits="userSpaceOnUse" x="41" y="26" width="11" height="11">
<path d="M46.7294 36.813C49.6169 36.8122 51.9571 34.4778 51.9563 31.5991C51.9554 28.7203 49.6139 26.3873 46.7264 26.3881C43.8388 26.389 41.4987 28.7233 41.4995 31.6021C41.5003 34.4808 43.8418 36.8138 46.7294 36.813Z" fill="url(#paint10_linear_63_157)"/>
</mask>
<g mask="url(#mask5_63_157)">
<path d="M46.7294 36.813C49.6169 36.8122 51.9571 34.4778 51.9563 31.5991C51.9554 28.7203 49.6139 26.3873 46.7264 26.3881C43.8388 26.389 41.4987 28.7233 41.4995 31.6021C41.5003 34.4808 43.8418 36.8138 46.7294 36.813Z" fill="url(#paint11_linear_63_157)"/>
</g>
<mask id="mask6_63_157" style="mask-type:alpha" maskUnits="userSpaceOnUse" x="71" y="26" width="12" height="11">
<path d="M77.0105 36.8042C79.8981 36.8034 82.2382 34.469 82.2374 31.5903C82.2366 28.7115 79.8951 26.3785 77.0075 26.3793C74.1199 26.3802 71.7798 28.7145 71.7806 31.5933C71.7815 34.472 74.123 36.805 77.0105 36.8042Z" fill="url(#paint12_linear_63_157)"/>
</mask>
<g mask="url(#mask6_63_157)">
<path d="M77.0105 36.8042C79.8981 36.8034 82.2382 34.469 82.2374 31.5903C82.2366 28.7115 79.8951 26.3785 77.0075 26.3793C74.1199 26.3802 71.7798 28.7145 71.7806 31.5933C71.7815 34.472 74.123 36.805 77.0105 36.8042Z" fill="url(#paint13_linear_63_157)"/>
</g>
<mask id="mask7_63_157" style="mask-type:alpha" maskUnits="userSpaceOnUse" x="102" y="26" width="11" height="11">
<path d="M107.292 36.7954C110.179 36.7946 112.519 34.4602 112.518 31.5815C112.518 28.7027 110.176 26.3697 107.289 26.3706C104.401 26.3714 102.061 28.7057 102.062 31.5845C102.063 34.4632 104.404 36.7962 107.292 36.7954Z" fill="url(#paint14_linear_63_157)"/>
</mask>
<g mask="url(#mask7_63_157)">
<path d="M107.292 36.7954C110.179 36.7946 112.519 34.4602 112.518 31.5815C112.518 28.7027 110.176 26.3697 107.289 26.3706C104.401 26.3714 102.061 28.7057 102.062 31.5845C102.063 34.4632 104.404 36.7962 107.292 36.7954Z" fill="url(#paint15_linear_63_157)"/>
</g>
<mask id="mask8_63_157" style="mask-type:alpha" maskUnits="userSpaceOnUse" x="11" y="52" width="11" height="11">
<path d="M16.4559 62.9386C19.3434 62.9377 21.6836 60.6034 21.6828 57.7246C21.6819 54.8458 19.3404 52.5128 16.4529 52.5136C13.5653 52.5145 11.2252 54.8488 11.226 57.7276C11.2268 60.6064 13.5683 62.9394 16.4559 62.9386Z" fill="url(#paint16_linear_63_157)"/>
</mask>
<g mask="url(#mask8_63_157)">
<path d="M16.4559 62.9386C19.3434 62.9377 21.6836 60.6034 21.6828 57.7246C21.6819 54.8458 19.3404 52.5128 16.4529 52.5136C13.5653 52.5145 11.2252 54.8488 11.226 57.7276C11.2268 60.6064 13.5683 62.9394 16.4559 62.9386Z" fill="url(#paint17_linear_63_157)"/>
</g>
<mask id="mask9_63_157" style="mask-type:alpha" maskUnits="userSpaceOnUse" x="41" y="52" width="11" height="11">
<path d="M46.737 62.9298C49.6245 62.929 51.9647 60.5946 51.9638 57.7158C51.963 54.837 49.6215 52.504 46.7339 52.5048C43.8464 52.5057 41.5062 54.84 41.5071 57.7188C41.5079 60.5976 43.8494 62.9306 46.737 62.9298Z" fill="url(#paint18_linear_63_157)"/>
</mask>
<g mask="url(#mask9_63_157)">
<path d="M46.737 62.9298C49.6245 62.929 51.9647 60.5946 51.9638 57.7158C51.963 54.837 49.6215 52.504 46.7339 52.5048C43.8464 52.5057 41.5062 54.84 41.5071 57.7188C41.5079 60.5976 43.8494 62.9306 46.737 62.9298Z" fill="url(#paint19_linear_63_157)"/>
</g>
<mask id="mask10_63_157" style="mask-type:alpha" maskUnits="userSpaceOnUse" x="71" y="52" width="12" height="11">
<path d="M77.018 62.921C79.9056 62.9202 82.2457 60.5858 82.2449 57.707C82.2441 54.8282 79.9026 52.4952 77.015 52.496C74.1275 52.4969 71.7873 54.8313 71.7881 57.71C71.789 60.5888 74.1305 62.9218 77.018 62.921Z" fill="url(#paint20_linear_63_157)"/>
</mask>
<g mask="url(#mask10_63_157)">
<path d="M77.018 62.921C79.9056 62.9202 82.2457 60.5858 82.2449 57.707C82.2441 54.8282 79.9026 52.4952 77.015 52.496C74.1275 52.4969 71.7873 54.8313 71.7881 57.71C71.789 60.5888 74.1305 62.9218 77.018 62.921Z" fill="url(#paint21_linear_63_157)"/>
</g>
<mask id="mask11_63_157" style="mask-type:alpha" maskUnits="userSpaceOnUse" x="102" y="52" width="11" height="11">
<path d="M107.299 62.9122C110.187 62.9114 112.527 60.577 112.526 57.6982C112.525 54.8194 110.184 52.4864 107.296 52.4873C104.409 52.4881 102.068 54.8225 102.069 57.7012C102.07 60.58 104.412 62.9131 107.299 62.9122Z" fill="url(#paint22_linear_63_157)"/>
</mask>
<g mask="url(#mask11_63_157)">
<path d="M107.299 62.9122C110.187 62.9114 112.527 60.577 112.526 57.6982C112.525 54.8194 110.184 52.4864 107.296 52.4873C104.409 52.4881 102.068 54.8225 102.069 57.7012C102.07 60.58 104.412 62.9131 107.299 62.9122Z" fill="url(#paint23_linear_63_157)"/>
</g>
<mask id="mask12_63_157" style="mask-type:alpha" maskUnits="userSpaceOnUse" x="11" y="78" width="11" height="12">
<path d="M16.4635 89.1095C19.351 89.1086 21.6912 86.7742 21.6903 83.8955C21.6895 81.0167 19.348 78.6837 16.4604 78.6845C13.5729 78.6854 11.2327 81.0197 11.2336 83.8985C11.2344 86.7772 13.5759 89.1103 16.4635 89.1095Z" fill="url(#paint24_linear_63_157)"/>
</mask>
<g mask="url(#mask12_63_157)">
<path d="M16.4635 89.1095C19.351 89.1086 21.6912 86.7742 21.6903 83.8955C21.6895 81.0167 19.348 78.6837 16.4604 78.6845C13.5729 78.6854 11.2327 81.0197 11.2336 83.8985C11.2344 86.7772 13.5759 89.1103 16.4635 89.1095Z" fill="url(#paint25_linear_63_157)"/>
</g>
<mask id="mask13_63_157" style="mask-type:alpha" maskUnits="userSpaceOnUse" x="41" y="78" width="11" height="12">
<path d="M46.7445 89.1007C49.6321 89.0999 51.9722 86.7654 51.9714 83.8867C51.9706 81.0079 49.6291 78.6749 46.7415 78.6757C43.854 78.6766 41.5138 81.0109 41.5146 83.8897C41.5155 86.7685 43.857 89.1015 46.7445 89.1007Z" fill="url(#paint26_linear_63_157)"/>
</mask>
<g mask="url(#mask13_63_157)">
<path d="M46.7445 89.1007C49.6321 89.0999 51.9722 86.7654 51.9714 83.8867C51.9706 81.0079 49.6291 78.6749 46.7415 78.6757C43.854 78.6766 41.5138 81.0109 41.5146 83.8897C41.5155 86.7685 43.857 89.1015 46.7445 89.1007Z" fill="url(#paint27_linear_63_157)"/>
</g>
<mask id="mask14_63_157" style="mask-type:alpha" maskUnits="userSpaceOnUse" x="71" y="78" width="12" height="12">
<path d="M77.0256 89.0919C79.9132 89.0911 82.2533 86.7566 82.2525 83.8779C82.2516 80.9991 79.9101 78.6661 77.0226 78.6669C74.135 78.6678 71.7949 81.0021 71.7957 83.8809C71.7965 86.7597 74.138 89.0927 77.0256 89.0919Z" fill="url(#paint28_linear_63_157)"/>
</mask>
<g mask="url(#mask14_63_157)">
<path d="M77.0256 89.0919C79.9132 89.0911 82.2533 86.7566 82.2525 83.8779C82.2516 80.9991 79.9101 78.6661 77.0226 78.6669C74.135 78.6678 71.7949 81.0021 71.7957 83.8809C71.7965 86.7597 74.138 89.0927 77.0256 89.0919Z" fill="url(#paint29_linear_63_157)"/>
</g>
<mask id="mask15_63_157" style="mask-type:alpha" maskUnits="userSpaceOnUse" x="102" y="78" width="11" height="12">
<path d="M107.307 89.0831C110.194 89.0823 112.534 86.7479 112.534 83.8691C112.533 80.9903 110.191 78.6573 107.304 78.6582C104.416 78.659 102.076 80.9934 102.077 83.8721C102.078 86.7509 104.419 89.0839 107.307 89.0831Z" fill="url(#paint30_linear_63_157)"/>
</mask>
<g mask="url(#mask15_63_157)">
<path d="M107.307 89.0831C110.194 89.0823 112.534 86.7479 112.534 83.8691C112.533 80.9903 110.191 78.6573 107.304 78.6582C104.416 78.659 102.076 80.9934 102.077 83.8721C102.078 86.7509 104.419 89.0839 107.307 89.0831Z" fill="url(#paint31_linear_63_157)"/>
</g>
</g>
<defs>
<filter id="filter0_d_63_157" x="7.21094" y="0.226074" width="18.4568" height="18.4248" filterUnits="userSpaceOnUse" color-interpolation-filters="sRGB">
<feFlood flood-opacity="0" result="BackgroundImageFix"/>
<feColorMatrix in="SourceAlpha" type="matrix" values="0 0 0 0 0 0 0 0 0 0 0 0 0 0 0 0 0 0 127 0" result="hardAlpha"/>
<feOffset dy="4"/>
<feGaussianBlur stdDeviation="2"/>
<feComposite in2="hardAlpha" operator="out"/>
<feColorMatrix type="matrix" values="0 0 0 0 0 0 0 0 0 0 0 0 0 0 0 0 0 0 0.25 0"/>
<feBlend mode="normal" in2="BackgroundImageFix" result="effect1_dropShadow_63_157"/>
<feBlend mode="normal" in="SourceGraphic" in2="effect1_dropShadow_63_157" result="shape"/>
</filter>
<linearGradient id="paint0_linear_63_157" x1="66.2434" y1="131.345" x2="-5.21079" y2="-50.4378" gradientUnits="userSpaceOnUse">
<stop stop-color="white"/>
<stop offset="1" stop-color="white"/>
</linearGradient>
<linearGradient id="paint1_linear_63_157" x1="66.2434" y1="131.345" x2="-5.21079" y2="-50.4378" gradientUnits="userSpaceOnUse">
<stop stop-color="white"/>
<stop offset="1" stop-color="white"/>
</linearGradient>
<linearGradient id="paint2_linear_63_157" x1="96.5244" y1="131.337" x2="25.0703" y2="-50.4465" gradientUnits="userSpaceOnUse">
<stop stop-color="white"/>
<stop offset="1" stop-color="white"/>
</linearGradient>
<linearGradient id="paint3_linear_63_157" x1="96.5244" y1="131.337" x2="25.0703" y2="-50.4465" gradientUnits="userSpaceOnUse">
<stop stop-color="white"/>
<stop offset="1" stop-color="white"/>
</linearGradient>
<linearGradient id="paint4_linear_63_157" x1="126.806" y1="131.328" x2="55.3513" y2="-50.4553" gradientUnits="userSpaceOnUse">
<stop stop-color="white"/>
<stop offset="1" stop-color="white"/>
</linearGradient>
<linearGradient id="paint5_linear_63_157" x1="126.806" y1="131.328" x2="55.3513" y2="-50.4553" gradientUnits="userSpaceOnUse">
<stop stop-color="white"/>
<stop offset="1" stop-color="white"/>
</linearGradient>
<linearGradient id="paint6_linear_63_157" x1="157.087" y1="131.319" x2="85.6324" y2="-50.4641" gradientUnits="userSpaceOnUse">
<stop stop-color="white"/>
<stop offset="1" stop-color="white"/>
</linearGradient>
<linearGradient id="paint7_linear_63_157" x1="157.087" y1="131.319" x2="85.6324" y2="-50.4641" gradientUnits="userSpaceOnUse">
<stop stop-color="white"/>
<stop offset="1" stop-color="white"/>
</linearGradient>
<linearGradient id="paint8_linear_63_157" x1="66.2509" y1="157.515" x2="-5.202" y2="-24.2668" gradientUnits="userSpaceOnUse">
<stop stop-color="white"/>
<stop offset="1" stop-color="white"/>
</linearGradient>
<linearGradient id="paint9_linear_63_157" x1="66.2509" y1="157.515" x2="-5.202" y2="-24.2668" gradientUnits="userSpaceOnUse">
<stop stop-color="white"/>
<stop offset="1" stop-color="white"/>
</linearGradient>
<linearGradient id="paint10_linear_63_157" x1="96.5319" y1="157.506" x2="25.079" y2="-24.2756" gradientUnits="userSpaceOnUse">
<stop stop-color="white"/>
<stop offset="1" stop-color="white"/>
</linearGradient>
<linearGradient id="paint11_linear_63_157" x1="96.5319" y1="157.506" x2="25.079" y2="-24.2756" gradientUnits="userSpaceOnUse">
<stop stop-color="white"/>
<stop offset="1" stop-color="white"/>
</linearGradient>
<linearGradient id="paint12_linear_63_157" x1="126.813" y1="157.497" x2="55.3601" y2="-24.2844" gradientUnits="userSpaceOnUse">
<stop stop-color="white"/>
<stop offset="1" stop-color="white"/>
</linearGradient>
<linearGradient id="paint13_linear_63_157" x1="126.813" y1="157.497" x2="55.3601" y2="-24.2844" gradientUnits="userSpaceOnUse">
<stop stop-color="white"/>
<stop offset="1" stop-color="white"/>
</linearGradient>
<linearGradient id="paint14_linear_63_157" x1="157.094" y1="157.489" x2="85.6412" y2="-24.2932" gradientUnits="userSpaceOnUse">
<stop stop-color="white"/>
<stop offset="1" stop-color="white"/>
</linearGradient>
<linearGradient id="paint15_linear_63_157" x1="157.094" y1="157.489" x2="85.6412" y2="-24.2932" gradientUnits="userSpaceOnUse">
<stop stop-color="white"/>
<stop offset="1" stop-color="white"/>
</linearGradient>
<linearGradient id="paint16_linear_63_157" x1="66.2584" y1="183.633" x2="-5.19571" y2="1.84984" gradientUnits="userSpaceOnUse">
<stop stop-color="white"/>
<stop offset="1" stop-color="white"/>
</linearGradient>
<linearGradient id="paint17_linear_63_157" x1="66.2584" y1="183.633" x2="-5.19571" y2="1.84984" gradientUnits="userSpaceOnUse">
<stop stop-color="white"/>
<stop offset="1" stop-color="white"/>
</linearGradient>
<linearGradient id="paint18_linear_63_157" x1="96.5395" y1="183.624" x2="25.0854" y2="1.84105" gradientUnits="userSpaceOnUse">
<stop stop-color="white"/>
<stop offset="1" stop-color="white"/>
</linearGradient>
<linearGradient id="paint19_linear_63_157" x1="96.5395" y1="183.624" x2="25.0854" y2="1.84105" gradientUnits="userSpaceOnUse">
<stop stop-color="white"/>
<stop offset="1" stop-color="white"/>
</linearGradient>
<linearGradient id="paint20_linear_63_157" x1="126.821" y1="183.615" x2="55.3664" y2="1.83226" gradientUnits="userSpaceOnUse">
<stop stop-color="white"/>
<stop offset="1" stop-color="white"/>
</linearGradient>
<linearGradient id="paint21_linear_63_157" x1="126.821" y1="183.615" x2="55.3664" y2="1.83226" gradientUnits="userSpaceOnUse">
<stop stop-color="white"/>
<stop offset="1" stop-color="white"/>
</linearGradient>
<linearGradient id="paint22_linear_63_157" x1="157.102" y1="183.607" x2="85.6475" y2="1.82347" gradientUnits="userSpaceOnUse">
<stop stop-color="white"/>
<stop offset="1" stop-color="white"/>
</linearGradient>
<linearGradient id="paint23_linear_63_157" x1="157.102" y1="183.607" x2="85.6475" y2="1.82347" gradientUnits="userSpaceOnUse">
<stop stop-color="white"/>
<stop offset="1" stop-color="white"/>
</linearGradient>
<linearGradient id="paint24_linear_63_157" x1="66.266" y1="209.804" x2="-5.18814" y2="28.0207" gradientUnits="userSpaceOnUse">
<stop stop-color="white"/>
<stop offset="1" stop-color="white"/>
</linearGradient>
<linearGradient id="paint25_linear_63_157" x1="66.266" y1="209.804" x2="-5.18814" y2="28.0207" gradientUnits="userSpaceOnUse">
<stop stop-color="white"/>
<stop offset="1" stop-color="white"/>
</linearGradient>
<linearGradient id="paint26_linear_63_157" x1="96.5471" y1="209.795" x2="25.0929" y2="28.0119" gradientUnits="userSpaceOnUse">
<stop stop-color="white"/>
<stop offset="1" stop-color="white"/>
</linearGradient>
<linearGradient id="paint27_linear_63_157" x1="96.5471" y1="209.795" x2="25.0929" y2="28.0119" gradientUnits="userSpaceOnUse">
<stop stop-color="white"/>
<stop offset="1" stop-color="white"/>
</linearGradient>
<linearGradient id="paint28_linear_63_157" x1="126.828" y1="209.786" x2="55.374" y2="28.0032" gradientUnits="userSpaceOnUse">
<stop stop-color="white"/>
<stop offset="1" stop-color="white"/>
</linearGradient>
<linearGradient id="paint29_linear_63_157" x1="126.828" y1="209.786" x2="55.374" y2="28.0032" gradientUnits="userSpaceOnUse">
<stop stop-color="white"/>
<stop offset="1" stop-color="white"/>
</linearGradient>
<linearGradient id="paint30_linear_63_157" x1="157.109" y1="209.778" x2="85.6551" y2="27.9944" gradientUnits="userSpaceOnUse">
<stop stop-color="white"/>
<stop offset="1" stop-color="white"/>
</linearGradient>
<linearGradient id="paint31_linear_63_157" x1="157.109" y1="209.778" x2="85.6551" y2="27.9944" gradientUnits="userSpaceOnUse">
<stop stop-color="white"/>
<stop offset="1" stop-color="white"/>
</linearGradient>
</defs>
</svg>
