<svg width="15" height="12" viewBox="0 0 15 12" fill="none" xmlns="http://www.w3.org/2000/svg">
<path d="M14.2949 1.7334C14.739 2.37778 15 3.15821 15 4V8C15 10.2091 13.2091 12 11 12H4C1.79086 12 6.44266e-08 10.2091 0 8V4C0 3.1584 0.260171 2.37769 0.704102 1.7334L6.39844 6.7168C6.2553 6.98411 6.28267 7.32277 6.49414 7.56445C6.75217 7.8592 7.1896 7.90269 7.5 7.67578C7.81041 7.90286 8.24777 7.85926 8.50586 7.56445C8.7175 7.32258 8.7441 6.9842 8.60059 6.7168L14.2949 1.7334ZM11 0C11.8239 0 12.5892 0.249748 13.2256 0.676758L7.5 5.68652L1.77344 0.676758C2.40992 0.249472 3.17579 4.20643e-08 4 0H11Z" fill="black"/>
</svg>
