<svg width="24" height="24" viewBox="0 0 24 24" fill="none" xmlns="http://www.w3.org/2000/svg">
<rect width="24" height="24" rx="12" fill="#BCF0FF"/>
<path d="M5 4H19V15C19 17.7614 16.7614 20 14 20H7C5.89543 20 5 19.1046 5 18V4Z" fill="#5A7D96"/>
<ellipse cx="7.5" cy="4.5" rx="0.5" ry="1.5" fill="#464646"/>
<ellipse cx="10.5" cy="4.5" rx="0.5" ry="1.5" fill="#464646"/>
<ellipse cx="13.5" cy="4.5" rx="0.5" ry="1.5" fill="#464646"/>
<ellipse cx="16.5" cy="4.5" rx="0.5" ry="1.5" fill="#464646"/>
<path d="M9.50002 16C9.50002 16 9.49996 12.8908 9.50004 12.8778C9.50004 12.8778 9.51069 11.1163 9.56896 10.8088C9.67117 10.2694 9.97154 10.0287 9.99981 10.0009C10.0196 9.98135 10.4403 10.2844 10.9408 11.2525C11.4412 12.2206 12.4859 14.472 12.9998 15.4197C13.5137 16.3674 13.9969 14.933 13.9969 14.933L14.4998 10.0011" stroke="white" stroke-width="2" stroke-linecap="round"/>
</svg>
