<svg width="24" height="24" viewBox="0 0 24 24" fill="none" xmlns="http://www.w3.org/2000/svg">
<g clip-path="url(#clip0_149_1222)">
<g clip-path="url(#clip1_149_1222)">
<path d="M3.48528 3.48542C8.17157 -1.20087 15.7696 -1.20087 20.4558 3.48542C25.1421 8.17171 25.1421 15.7697 20.4558 20.456C15.7696 25.1423 8.17157 25.1423 3.48528 20.456C-1.20101 15.7697 -1.20101 8.17171 3.48528 3.48542Z" fill="#EEA8AB"/>
<circle cx="9.84889" cy="9.84912" r="9" transform="rotate(-45 9.84889 9.84912)" fill="#6C5076"/>
<path d="M20.4267 15.1257C20.4557 15.2227 20.4358 15.4587 20.2754 15.5837C20.1387 15.69 19.8896 15.7579 19.7085 15.658C19.5275 15.558 19.3899 15.4499 19.0807 15.0844C18.7714 14.7188 18.5828 14.0552 18.8226 13.8678C19.0024 13.728 19.3388 13.8228 19.6645 14.0775C19.7179 14.1192 19.842 14.2076 19.8938 14.2573C19.9488 14.3101 20.0424 14.4502 20.0424 14.45C20.0449 14.4541 20.0889 14.528 20.1314 14.5947C20.1685 14.653 20.2001 14.7045 20.2194 14.7395C20.2711 14.8523 20.3688 14.9318 20.4267 15.1257Z" fill="white"/>
<path d="M19.647 13.7183C19.5506 13.7214 19.3213 13.6793 19.2081 13.5725C19.1117 13.4815 19.0591 13.3325 19.166 13.2443C19.2731 13.1561 19.3862 13.0934 19.7591 12.9688C20.1322 12.844 20.7901 12.8268 20.9599 12.9868C21.0868 13.1064 20.9768 13.2827 20.7112 13.4314C20.6678 13.4557 20.5745 13.5132 20.5231 13.5357C20.4701 13.5589 20.334 13.5916 20.3275 13.5933C20.3275 13.5933 20.2507 13.6088 20.1814 13.6242C20.1225 13.6372 20.0706 13.648 20.0354 13.6541C19.9225 13.668 19.8394 13.7117 19.647 13.7183Z" fill="white"/>
<path d="M20.1539 14.2661C20.1249 14.2019 20.0974 14.0364 20.1541 13.9302C20.2027 13.8395 20.3114 13.7611 20.4137 13.8084C20.5159 13.8558 20.5988 13.9153 20.8042 14.1314C21.0096 14.3478 21.204 14.786 21.1187 14.9453C21.0547 15.0639 20.8796 15.0392 20.6841 14.9024C20.6521 14.88 20.5781 14.8334 20.5454 14.8051C20.5113 14.7756 20.4471 14.692 20.4447 14.6891C20.4447 14.6891 20.411 14.6422 20.3793 14.5998C20.3523 14.5638 20.3284 14.5315 20.3136 14.5096C20.2711 14.4376 20.2121 14.3937 20.1539 14.2661Z" fill="white"/>
<path d="M3.65255 3.31803L7.03973 3.84354L4.17806 6.70521L3.65255 3.31803Z" fill="#EEA8AB"/>
<path fill-rule="evenodd" clip-rule="evenodd" d="M13.9491 4.95905L14.1874 4.72077C14.2169 4.73325 14.2466 4.7472 14.2753 4.76374C14.5197 4.90492 14.7906 5.2002 14.7792 5.46002C14.7722 5.61829 14.7485 5.7564 14.6659 5.95416C14.7361 5.9727 14.8301 6.01646 14.9228 6.08502L14.8163 6.38581L15.0351 6.34479C15.0494 6.32261 15.0612 6.30201 15.0732 6.28717C15.1298 6.21727 15.2918 6.10511 15.3007 6.0987L15.6581 5.87995C15.8024 5.81968 15.8861 5.69167 16.1435 5.6319C16.2121 5.61601 16.3409 5.62432 16.4804 5.67194L16.4706 5.99127L16.7675 5.83209C16.7922 5.85276 16.817 5.87512 16.8398 5.89948C17.0323 6.10578 17.2056 6.46682 17.1191 6.71198C17.0554 6.89201 16.9771 7.03719 16.7724 7.25885C16.8396 7.21572 16.8997 7.1795 16.9413 7.15729C17.0855 7.09702 17.1687 6.96805 17.4257 6.90827C17.4944 6.89234 17.6239 6.9006 17.7636 6.94831L17.7538 7.26764L18.0507 7.10944C18.0753 7.13002 18.1003 7.15161 18.123 7.17584C18.3154 7.38198 18.4884 7.74316 18.4023 7.98834C18.3308 8.19054 18.2385 8.34739 17.9716 8.6192C18.0946 8.6439 18.228 8.64164 18.4159 8.75006C18.477 8.78544 18.5653 8.87971 18.6347 9.00983L18.4091 9.23541L18.7353 9.32233C18.7392 9.35432 18.7421 9.38763 18.7421 9.42096C18.7419 9.70305 18.622 10.085 18.3915 10.2051C18.2969 10.2544 18.2057 10.2912 18.0917 10.3194C18.1882 10.4102 18.3128 10.4702 18.4277 10.669C18.4629 10.7301 18.4922 10.8564 18.4872 11.004L18.1786 11.087L18.4169 11.3253C18.4044 11.3548 18.3905 11.3844 18.3739 11.4131C18.2328 11.6574 17.9384 11.9291 17.6786 11.918C17.52 11.911 17.381 11.8868 17.1825 11.8038C17.164 11.8739 17.1221 11.9681 17.0536 12.0606L16.7519 11.9542L16.8134 12.2852C16.7863 12.3024 16.7584 12.3198 16.7284 12.334C16.6156 12.3876 16.4746 12.4262 16.3349 12.4415C16.296 12.6863 16.1842 12.9476 16.0009 13.043C15.9902 13.0486 15.9783 13.0514 15.9677 13.0567L15.9814 13.0792C16.0416 13.2236 16.1696 13.307 16.2294 13.5645C16.2453 13.6332 16.2371 13.7627 16.1894 13.9024L15.87 13.8917L16.0292 14.1885C16.0086 14.2132 15.9871 14.2381 15.9628 14.2608C15.7565 14.4534 15.3946 14.6267 15.1493 14.5401C14.947 14.4686 14.7899 14.3771 14.5175 14.1094C14.4928 14.2324 14.4969 14.3659 14.3886 14.5538C14.3533 14.6148 14.2591 14.704 14.1288 14.7735L13.9023 14.5479L13.8163 14.8731C13.7843 14.8771 13.751 14.8799 13.7177 14.8799C13.583 14.8799 13.426 14.8516 13.2851 14.7979L13.6493 17.7081C13.7481 18.4983 13.1322 19.1962 12.3359 19.1964C11.5394 19.1964 10.9226 18.4984 11.0214 17.7081L11.412 14.5831C11.1649 14.5976 10.8863 14.544 10.7538 14.3858C10.6162 14.2213 10.5267 14.0631 10.4286 13.6944C10.345 13.7876 10.2804 13.9045 10.0917 14.0108C10.0303 14.0454 9.90419 14.0739 9.75676 14.0674L9.67668 13.7579L9.43645 13.9942C9.40702 13.9814 9.37713 13.9671 9.34856 13.9503C9.10569 13.8065 8.83735 13.5078 8.85149 13.2481C8.85734 13.1416 8.87135 13.0443 8.9052 12.9317C8.77795 12.9686 8.66302 13.0454 8.43352 13.043C8.363 13.0422 8.23951 13.0042 8.11516 12.9249L8.2011 12.6163L7.87492 12.7012C7.85584 12.6754 7.83655 12.6481 7.82024 12.6192C7.6818 12.3733 7.59905 11.9806 7.74113 11.7628C7.76635 11.7241 7.79342 11.6889 7.82121 11.6534L7.62395 10.9171L8.07317 11.0372L8.18059 10.9473L7.86418 10.8321C7.86312 10.7999 7.86313 10.7667 7.86613 10.7335C7.86739 10.7196 7.87012 10.7057 7.87199 10.6915C7.78887 10.7238 7.69472 10.7516 7.69035 10.753C7.68608 10.7539 7.58137 10.7753 7.48625 10.7989C7.40387 10.8193 7.33107 10.8359 7.28215 10.8438C7.12598 10.8542 7.00519 10.9495 6.74211 10.9229C6.67197 10.9157 6.5529 10.8663 6.43645 10.7764L6.54875 10.4776L6.21672 10.5313C6.20007 10.5039 6.18346 10.4756 6.16985 10.4454C6.05416 10.188 6.00696 9.79021 6.16789 9.586C6.30087 9.41761 6.43749 9.29728 6.77824 9.12604C6.67 9.0633 6.54274 9.02319 6.40031 8.86041C6.35394 8.8072 6.29997 8.68953 6.27629 8.54401L6.5634 8.40338L6.28313 8.21588C6.2897 8.18432 6.29678 8.15172 6.30754 8.12018C6.39879 7.85314 6.63646 7.53043 6.89348 7.49127C6.99887 7.47526 7.09691 7.4685 7.21379 7.47858C7.15171 7.36186 7.05314 7.26479 7.00871 7.0401C6.99514 6.97085 7.0082 6.84207 7.06047 6.70416L7.37883 6.72467L7.23039 6.42291C7.25181 6.39895 7.27472 6.37447 7.29973 6.3526C7.51231 6.16705 7.87895 6.00608 8.12102 6.10065C8.2684 6.15828 8.39139 6.22552 8.55168 6.36725C8.5919 6.30693 8.6641 6.2325 8.75871 6.16706L9.00871 6.3653L9.05754 6.03229C9.0888 6.02469 9.12118 6.01757 9.15422 6.01373C9.42817 5.98213 9.8085 6.05465 9.96184 6.25885C9.97447 6.2502 9.98654 6.24042 9.99992 6.23346C10.0105 6.22798 10.0217 6.22403 10.0322 6.21881C10.0278 6.2111 10.0231 6.20414 10.0195 6.19733C9.95922 6.05289 9.83023 5.96952 9.77043 5.71198C9.75457 5.64332 9.76291 5.51448 9.81047 5.37506L10.1298 5.38483L9.9716 5.08795C9.99222 5.06329 10.0137 5.03838 10.038 5.01569C10.2442 4.82316 10.6053 4.6501 10.8505 4.73639C11.0958 4.82309 11.278 4.93583 11.6747 5.36041C11.931 5.63474 12.0998 6.10119 12.0907 6.48834C12.104 6.50035 12.1163 6.51312 12.1288 6.52545C12.1401 6.52505 12.1516 6.5235 12.163 6.5235C12.1829 6.5235 12.2031 6.5257 12.2236 6.52643C12.336 6.46323 12.4505 6.4209 12.5614 6.4112C12.5589 6.27974 12.5739 6.13952 12.6103 5.99616C12.6306 5.91603 12.6664 5.73048 12.6991 5.64948C12.7335 5.56506 12.8583 5.40869 12.8622 5.40338C12.8645 5.4009 12.9372 5.32132 13.0009 5.24616C13.0558 5.18144 13.1045 5.12495 13.1396 5.08991C13.2601 4.99023 13.3025 4.84319 13.5312 4.711C13.5922 4.67574 13.7185 4.64646 13.8661 4.65143L13.9491 4.95905ZM15.1777 10.4405C14.7874 10.7868 14.2867 11.0461 13.8388 11.1006C13.8606 11.232 13.875 11.3695 13.8769 11.5118C13.8776 11.5657 13.8797 11.6467 13.8827 11.7335C14.027 11.6021 14.223 11.4963 14.4521 11.4317C14.5315 11.4093 14.7092 11.3483 14.7958 11.336C14.886 11.3234 15.0852 11.3528 15.0917 11.3536C15.0971 11.3548 15.1542 11.3664 15.2216 11.3799C15.1244 11.0955 15.1077 10.74 15.1777 10.4405ZM10.4706 9.51959L10.6933 9.7735C10.6788 9.80215 10.6629 9.8309 10.6445 9.85846C10.5372 10.0184 10.3562 10.1836 10.1708 10.2647C10.2153 10.2999 10.2567 10.3377 10.2958 10.376C10.349 10.3325 10.3985 10.2972 10.4013 10.295L10.7529 10.0684C10.8148 10.0409 10.865 10.001 10.9228 9.95905C10.8797 9.85666 10.8403 9.74867 10.8085 9.6358C10.7962 9.59202 10.777 9.53014 10.7558 9.46198L10.4706 9.51959ZM8.70305 9.65241C8.69518 9.73072 8.67775 9.81038 8.64543 9.88971C8.73115 9.87972 8.82953 9.87511 8.95012 9.87799C8.86326 9.81666 8.77968 9.73993 8.70305 9.65241ZM10.2245 7.78229C10.1784 7.97392 10.1009 8.16193 9.99992 8.3194C10.0522 8.36168 10.0962 8.40158 10.1005 8.40534C10.1005 8.40534 10.1761 8.48502 10.248 8.55475C10.3088 8.61379 10.3618 8.66589 10.3945 8.70319C10.4615 8.79633 10.5563 8.84985 10.6484 8.96491C10.6503 8.80581 10.6793 8.5973 10.6806 8.58893L10.8183 7.91706C10.8198 7.91303 10.8198 7.90838 10.8212 7.90436C10.786 7.89703 10.7444 7.88826 10.704 7.88092C10.6208 7.86579 10.5478 7.85171 10.4999 7.83893C10.414 7.80695 10.3275 7.80376 10.2245 7.78229ZM16.2646 7.70416C16.215 7.73369 16.1632 7.76126 16.1093 7.7862C16.1287 7.81872 16.1441 7.85275 16.1601 7.88581C16.1633 7.88029 16.1665 7.87471 16.1698 7.8692C16.1926 7.83166 16.2281 7.76668 16.2646 7.70416Z" fill="white"/>
</g>
</g>
<defs>
<clipPath id="clip0_149_1222">
<rect width="24" height="24" fill="white"/>
</clipPath>
<clipPath id="clip1_149_1222">
<rect width="24" height="24" fill="white" transform="translate(-5 11.9707) rotate(-45)"/>
</clipPath>
</defs>
</svg>
