<svg width="61" height="77" viewBox="0 0 61 77" fill="none" xmlns="http://www.w3.org/2000/svg">
<path d="M10.5 2L14.3971 8.75H6.60289L10.5 2Z" fill="black"/>
<path d="M20.5 12L24.3971 18.75H16.6029L20.5 12Z" fill="black"/>
<path d="M5.5 18L9.39711 24.75H1.60289L5.5 18Z" fill="black"/>
<path d="M18.5 25L22.3971 31.75H14.6029L18.5 25Z" fill="black"/>
<path d="M23.5 37L27.3971 43.75H19.6029L23.5 37Z" fill="black"/>
<path d="M4.5 37L8.39711 43.75H0.602886L4.5 37Z" fill="black"/>
<path d="M14.5 51L18.3971 57.75H10.6029L14.5 51Z" fill="black"/>
<path d="M32.5 49L36.3971 55.75H28.6029L32.5 49Z" fill="black"/>
<path d="M26.5 60L30.3971 66.75H22.6029L26.5 60Z" fill="black"/>
<path d="M43.5 68L47.3971 74.75H39.6029L43.5 68Z" fill="black"/>
<path d="M56.5 59L60.3971 65.75H52.6029L56.5 59Z" fill="black"/>
<path d="M43.5 57L47.3971 63.75H39.6029L43.5 57Z" fill="black"/>
</svg>
