<svg width="22" height="25" viewBox="0 0 22 25" fill="none" xmlns="http://www.w3.org/2000/svg">
<g clip-path="url(#clip0_143_24)">
<path d="M9.95898 1.56774C10.5778 1.2105 11.3402 1.21048 11.959 1.56774L19.918 6.16246C20.5367 6.51971 20.9179 7.18039 20.918 7.89488V17.0853C20.918 17.7998 20.5368 18.4605 19.918 18.8177L11.959 23.4125C11.3402 23.7697 10.5778 23.7697 9.95898 23.4125L2 18.8177C1.3812 18.4605 1 17.7998 1 17.0853V7.89488C1.00004 7.18039 1.38123 6.51971 2 6.16246L9.95898 1.56774ZM17.709 6.74059C14.5333 3.56495 9.38462 3.56495 6.20898 6.74059C3.03341 9.91623 3.03337 15.065 6.20898 18.2406C9.38461 21.4161 14.5334 21.4161 17.709 18.2406C20.8846 15.065 20.8846 9.91623 17.709 6.74059Z" fill="black"/>
<path d="M17.709 6.74059C14.5333 3.56495 9.38462 3.56495 6.20898 6.74059C3.03341 9.91623 3.03337 15.065 6.20898 18.2406C9.38461 21.4161 14.5334 21.4161 17.709 18.2406C20.8846 15.065 20.8846 9.91623 17.709 6.74059Z" fill="white"/>
<path d="M9.70898 1.13477C10.4825 0.688228 11.4355 0.688192 12.209 1.13477L20.168 5.72949C20.9414 6.17607 21.4177 7.0017 21.418 7.89453V17.085C21.418 17.9222 20.9995 18.7011 20.3096 19.1631L20.168 19.251L12.209 23.8457C11.4355 24.2922 10.4824 24.2922 9.70898 23.8457L1.75 19.251C0.976356 18.8044 0.5 17.978 0.5 17.085V7.89453L0.505859 7.72852C0.561003 6.90029 1.02472 6.14824 1.75 5.72949L9.70898 1.13477Z" stroke="white"/>
<path d="M14.9416 9.27734C14.8576 9.30519 14.7311 9.40348 14.6678 9.49461C14.6371 9.53883 14.6463 9.59965 14.7089 9.62834C14.7716 9.65703 14.8969 9.65703 14.9684 9.63614C15.0399 9.61526 15.0538 9.5735 14.9838 9.44609" stroke="black" stroke-width="2" stroke-linecap="round"/>
<path d="M14.5197 14.3818C14.4496 14.4236 14.3374 14.6198 14.3296 14.8311C14.3279 14.8785 14.3923 14.9016 14.4416 14.9159C14.5434 14.9455 14.6458 14.9024 14.73 14.8394C14.7741 14.8063 14.8141 14.7624 14.8287 14.72C14.8432 14.6776 14.8293 14.6358 14.7943 14.6073C14.7593 14.5788 14.7036 14.5649 14.6041 14.5506" stroke="black" stroke-width="2" stroke-linecap="round"/>
<path d="M10.1696 8.19092C9.78133 8.54389 9.4517 9.05557 9.26668 9.47104C9.16563 9.69795 8.96092 10.1672 8.72662 10.8639C8.31244 12.0954 8.52444 12.4335 8.59574 12.8663C8.74249 13.7572 8.93417 14.5656 9.14178 14.9045C9.31922 15.1347 9.51941 15.4097 9.6965 15.6698C9.78098 15.7832 9.85453 15.8588 10.0596 16.0175" stroke="black" stroke-width="1.5" stroke-linecap="round"/>
</g>
<defs>
<clipPath id="clip0_143_24">
<rect width="22" height="25" fill="white"/>
</clipPath>
</defs>
</svg>
