<svg width="16" height="16" viewBox="0 0 16 16" fill="none" xmlns="http://www.w3.org/2000/svg">
<path d="M12.7852 14.4111C11.4506 15.4088 9.79443 16 8 16H3C2.44472 16 1.92653 15.846 1.48047 15.583L7.75 9.62793L12.7852 14.4111ZM6.29785 8.25L0.192383 14.0498C0.0700318 13.7227 0 13.3698 0 13V8C0 6.35303 0.497398 4.8221 1.35059 3.5498L6.29785 8.25ZM16 8C16 9.90286 15.334 11.6492 14.2246 13.0225L9.20117 8.25L11.3516 6.20605L16 3.36035V8ZM9.93457 4.79395L7.75 6.87109L2.66406 2.04004C4.07976 0.771705 5.94964 0 8 0H13.2686L9.93457 4.79395Z" fill="black"/>
</svg>
